<svg xmlns="http://www.w3.org/2000/svg" height="340.958" width="453.543"><defs><clipPath id="a"><path d="M0 0h567v425H0z"/></clipPath></defs><g clip-path="url(#a)" transform="matrix(.7999 0 0 .80037 0 0)"><path d="M0 0h567v425H0z" fill="#fff"/></g><path d="M0 0h453.543v340.157H0z" fill="#fff"/><path d="M104 322V105M104 105h359M463 105v217M463 322H104M127.933 307.533v-12.4M124.514 297.2l3.42-2.067M131.352 297.2l-3.419-2.067" fill="none" stroke="#000" stroke-width=".833" stroke-linejoin="round" stroke-miterlimit="10" transform="matrix(.7999 0 0 .80037 0 0)"/><text style="-inkscape-font-specification:Helvetica" transform="matrix(.7999 0 0 .80037 98.734 234.402)" font-weight="400" font-size="16.667" font-family="Helvetica"><tspan y="0" x="0">y</tspan></text><path d="M127.933 307.533h20.515M145.029 309.6l3.419-2.067M145.029 305.467l3.419 2.066" fill="none" stroke="#000" stroke-width=".833" stroke-linejoin="round" stroke-miterlimit="10" transform="matrix(.7999 0 0 .80037 0 0)"/><text style="-inkscape-font-specification:Helvetica" transform="matrix(.7999 0 0 .80037 126.083 250.943)" font-weight="400" font-size="16.667" font-family="Helvetica"><tspan y="0" x="0">x</tspan></text><text style="-inkscape-font-specification:Helvetica" transform="matrix(.7999 0 0 .80037 195.576 175.681)" font-weight="400" font-size="16.667" font-family="Helvetica"><tspan y="0" x="0 13.883611 23.150463 26.850536 36.11739 40.750816 50.017666 58.351166 67.618019">Main axes</tspan></text><path d="M104 105V0M463 0v105M463 105H104M127.933 71.847V43.43M124.514 48.166l3.42-4.736M131.352 48.166l-3.419-4.736" fill="none" stroke="#000" stroke-width=".833" stroke-linejoin="round" stroke-miterlimit="10" transform="matrix(.7999 0 0 .80037 0 0)"/><text style="-inkscape-font-specification:Helvetica" transform="matrix(.7999 0 0 .80037 98.734 24.4)" font-weight="400" font-size="16.667" font-family="Helvetica"><tspan y="0" x="0">y</tspan></text><path d="M127.933 71.847h20.515M145.029 76.583l3.419-4.736M145.029 67.111l3.419 4.736" fill="none" stroke="#000" stroke-width=".833" stroke-linejoin="round" stroke-miterlimit="10" transform="matrix(.7999 0 0 .80037 0 0)"/><text style="-inkscape-font-specification:Helvetica" transform="matrix(.7999 0 0 .80037 126.083 62.307)" font-weight="400" font-size="16.667" font-family="Helvetica"><tspan y="0" x="0">x</tspan></text><text style="-inkscape-font-specification:Helvetica" transform="matrix(.7999 0 0 .80037 177.178 28.19)" font-weight="400" font-size="16.667" font-family="Helvetica"><tspan y="0" x="0 8.3334999 12.033574 21.300426 30.567278 39.834129 48.167629 57.434483 65.767982 71.318092 74.501488 83.768341 93.035194 98.585304 103.21873 112.48558 115.66898">sideaxes(&apos;north&apos;)</tspan></text><path d="M99.273 57.639H104M99.273 10.277H104" fill="none" stroke="#000" stroke-width=".833" stroke-linejoin="round" stroke-miterlimit="10" transform="matrix(.7999 0 0 .80037 0 0)"/><text style="-inkscape-font-specification:Helvetica" transform="matrix(.7999 0 0 .80037 69.228 49.734)" font-weight="400" font-size="13.333" font-family="Helvetica"><tspan y="0" x="0">1</tspan></text><text style="-inkscape-font-specification:Helvetica" transform="matrix(.7999 0 0 .80037 69.228 11.827)" font-weight="400" font-size="13.333" font-family="Helvetica"><tspan y="0" x="0">2</tspan></text><text style="-inkscape-font-specification:Helvetica" transform="matrix(0 -.80037 .7999 0 61.883 49.223)" font-weight="400" font-size="13.333" font-family="Helvetica"><tspan y="0" x="0 6.6665001">cm</tspan></text><text style="-inkscape-font-specification:Helvetica" transform="matrix(.7999 0 0 .80037 175.978 323.059)" font-weight="400" font-size="16.667" font-family="Helvetica"><tspan y="0" x="0 8.3334999 12.033574 21.300426 30.567278 39.834129 48.167629 57.434483 65.767982 71.318092 74.501488 82.834991 92.101845 101.36869 106.00212 115.26897 118.45237">sideaxes(&apos;south&apos;)</tspan></text><path d="M104 322v104M463 426V322M463 322H104M127.933 355.09v28.365M124.514 378.727l3.42 4.728M131.352 378.727l-3.419 4.728" fill="none" stroke="#000" stroke-width=".833" stroke-linejoin="round" stroke-miterlimit="10" transform="matrix(.7999 0 0 .80037 0 0)"/><text style="-inkscape-font-specification:Helvetica" transform="matrix(.7999 0 0 .80037 98.734 326.842)" font-weight="400" font-size="16.667" font-family="Helvetica"><tspan y="0" x="0">y</tspan></text><path d="M127.933 355.09h20.515M145.029 350.364l3.419 4.727M145.029 359.818l3.419-4.727" fill="none" stroke="#000" stroke-width=".833" stroke-linejoin="round" stroke-miterlimit="10" transform="matrix(.7999 0 0 .80037 0 0)"/><text style="-inkscape-font-specification:Helvetica" transform="matrix(.7999 0 0 .80037 126.083 289.007)" font-weight="400" font-size="16.667" font-family="Helvetica"><tspan y="0" x="0">x</tspan></text><text style="-inkscape-font-specification:Helvetica" transform="matrix(.7999 0 0 .80037 107.339 274.89)" font-weight="400" font-size="13.333" font-family="Helvetica"><tspan y="0" x="0">1</tspan></text><text style="-inkscape-font-specification:Helvetica" transform="matrix(.7999 0 0 .80037 134.688 274.89)" font-weight="400" font-size="13.333" font-family="Helvetica"><tspan y="0" x="0">2</tspan></text><text style="-inkscape-font-specification:Helvetica" transform="matrix(.7999 0 0 .80037 162.037 274.89)" font-weight="400" font-size="13.333" font-family="Helvetica"><tspan y="0" x="0">3</tspan></text><text style="-inkscape-font-specification:Helvetica" transform="matrix(.7999 0 0 .80037 189.386 274.89)" font-weight="400" font-size="13.333" font-family="Helvetica"><tspan y="0" x="0">4</tspan></text><text style="-inkscape-font-specification:Helvetica" transform="matrix(.7999 0 0 .80037 216.735 274.89)" font-weight="400" font-size="13.333" font-family="Helvetica"><tspan y="0" x="0">5</tspan></text><text style="-inkscape-font-specification:Helvetica" transform="matrix(.7999 0 0 .80037 244.084 274.89)" font-weight="400" font-size="13.333" font-family="Helvetica"><tspan y="0" x="0">6</tspan></text><text style="-inkscape-font-specification:Helvetica" transform="matrix(.7999 0 0 .80037 271.433 274.89)" font-weight="400" font-size="13.333" font-family="Helvetica"><tspan y="0" x="0">7</tspan></text><text style="-inkscape-font-specification:Helvetica" transform="matrix(.7999 0 0 .80037 298.782 274.89)" font-weight="400" font-size="13.333" font-family="Helvetica"><tspan y="0" x="0">8</tspan></text><text style="-inkscape-font-specification:Helvetica" transform="matrix(.7999 0 0 .80037 326.13 274.89)" font-weight="400" font-size="13.333" font-family="Helvetica"><tspan y="0" x="0">9</tspan></text><text style="-inkscape-font-specification:Helvetica" transform="matrix(.7999 0 0 .80037 350.68 274.89)" font-weight="400" font-size="13.333" font-family="Helvetica"><tspan y="0" x="0 7.4131479">10</tspan></text><path d="M138.19 317.273v9.454M172.381 317.273v9.454M206.571 317.273v9.454M240.762 317.273v9.454M274.952 317.273v9.454M309.143 317.273v9.454M343.333 317.273v9.454M377.524 317.273v9.454M411.714 317.273v9.454M445.905 317.273v9.454" fill="none" stroke="#000" stroke-width=".833" stroke-linejoin="round" stroke-miterlimit="10" transform="matrix(.7999 0 0 .80037 0 0)"/><text style="-inkscape-font-specification:Helvetica" transform="matrix(.7999 0 0 .80037 194.376 286.242)" font-weight="400" font-size="13.333" font-family="Helvetica"><tspan y="0" x="0 8.8931112 13.333 20.746147 23.706074 27.412647 31.852537 39.265686 43.705574 50.372074 54.078648 61.491795 68.904945 71.864868 75.571442">Arbitrary units</tspan></text><path d="M467.724 369.273H463M467.724 416.545H463" fill="none" stroke="#000" stroke-width=".833" stroke-linejoin="round" stroke-miterlimit="10" transform="matrix(.7999 0 0 .80037 0 0)"/><text style="-inkscape-font-specification:Helvetica" transform="matrix(.7999 0 0 .80037 377.911 299.157)" font-weight="400" font-size="13.333" font-family="Helvetica"><tspan y="0" x="0">1</tspan></text><text style="-inkscape-font-specification:Helvetica" transform="matrix(.7999 0 0 .80037 377.911 336.992)" font-weight="400" font-size="13.333" font-family="Helvetica"><tspan y="0" x="0">2</tspan></text><text style="-inkscape-font-specification:Helvetica" transform="matrix(0 -.80037 .7999 0 398.846 306.542)" font-weight="400" font-size="13.333" font-family="Helvetica"><tspan y="0" x="0 6.6665001">cm</tspan></text><text style="-inkscape-font-specification:Helvetica" transform="matrix(0 -.80037 .7999 0 27.487 218.901)" font-weight="400" font-size="16.667" font-family="Helvetica"><tspan y="0" x="0 8.3334999 12.033574 21.300426 30.567278 39.834129 48.167629 57.434483 65.767982 71.318092 74.501488 86.535065 95.801918 104.13541 108.76884 111.95224">sideaxes(&apos;west&apos;)</tspan></text><path d="M104 322H0M0 105h104M104 105v217M70.91 307.533H42.544M47.273 309.6l-4.728-2.067M47.273 305.467l-4.728 2.066" fill="none" stroke="#000" stroke-width=".833" stroke-linejoin="round" stroke-miterlimit="10" transform="matrix(.7999 0 0 .80037 0 0)"/><text style="-inkscape-font-specification:Helvetica" transform="matrix(.7999 0 0 .80037 15.307 250.943)" font-weight="400" font-size="16.667" font-family="Helvetica"><tspan y="0" x="0">y</tspan></text><path d="M70.91 307.533v-12.4M75.636 297.2l-4.727-2.067M66.182 297.2l4.727-2.067" fill="none" stroke="#000" stroke-width=".833" stroke-linejoin="round" stroke-miterlimit="10" transform="matrix(.7999 0 0 .80037 0 0)"/><text style="-inkscape-font-specification:Helvetica" transform="matrix(.7999 0 0 .80037 53.12 234.402)" font-weight="400" font-size="16.667" font-family="Helvetica"><tspan y="0" x="0">x</tspan></text><path d="M108.727 301.333h-9.454M108.727 280.667h-9.454M108.727 260h-9.454M108.727 239.333h-9.454M108.727 218.667h-9.454M108.727 198h-9.454M108.727 177.333h-9.454M108.727 156.667h-9.454M108.727 136h-9.454M108.727 115.333h-9.454" fill="none" stroke="#000" stroke-width=".833" stroke-linejoin="round" stroke-miterlimit="10" transform="matrix(.7999 0 0 .80037 0 0)"/><text style="-inkscape-font-specification:Helvetica" transform="matrix(.7999 0 0 .80037 69.228 244.78)" font-weight="400" font-size="13.333" font-family="Helvetica"><tspan y="0" x="0">1</tspan></text><text style="-inkscape-font-specification:Helvetica" transform="matrix(.7999 0 0 .80037 69.228 228.239)" font-weight="400" font-size="13.333" font-family="Helvetica"><tspan y="0" x="0">2</tspan></text><text style="-inkscape-font-specification:Helvetica" transform="matrix(.7999 0 0 .80037 69.228 211.698)" font-weight="400" font-size="13.333" font-family="Helvetica"><tspan y="0" x="0">3</tspan></text><text style="-inkscape-font-specification:Helvetica" transform="matrix(.7999 0 0 .80037 69.228 195.157)" font-weight="400" font-size="13.333" font-family="Helvetica"><tspan y="0" x="0">4</tspan></text><text style="-inkscape-font-specification:Helvetica" transform="matrix(.7999 0 0 .80037 69.228 178.616)" font-weight="400" font-size="13.333" font-family="Helvetica"><tspan y="0" x="0">5</tspan></text><text style="-inkscape-font-specification:Helvetica" transform="matrix(.7999 0 0 .80037 69.228 162.075)" font-weight="400" font-size="13.333" font-family="Helvetica"><tspan y="0" x="0">6</tspan></text><text style="-inkscape-font-specification:Helvetica" transform="matrix(.7999 0 0 .80037 69.228 145.534)" font-weight="400" font-size="13.333" font-family="Helvetica"><tspan y="0" x="0">7</tspan></text><text style="-inkscape-font-specification:Helvetica" transform="matrix(.7999 0 0 .80037 69.228 128.993)" font-weight="400" font-size="13.333" font-family="Helvetica"><tspan y="0" x="0">8</tspan></text><text style="-inkscape-font-specification:Helvetica" transform="matrix(.7999 0 0 .80037 69.228 112.452)" font-weight="400" font-size="13.333" font-family="Helvetica"><tspan y="0" x="0">9</tspan></text><text style="-inkscape-font-specification:Helvetica" transform="matrix(.7999 0 0 .80037 63.628 95.911)" font-weight="400" font-size="13.333" font-family="Helvetica"><tspan y="0" x="0 7.4131479">10</tspan></text><text style="-inkscape-font-specification:Helvetica" transform="matrix(0 -.80037 .7999 0 61.883 203.294)" font-weight="400" font-size="13.333" font-family="Helvetica"><tspan y="0" x="0 8.8931112 13.333 20.746147 23.706074 27.412647 31.852537 39.265686 43.705574 50.372074 54.078648 61.491795 68.904945 71.864868 75.571442">Arbitrary units</tspan></text><path d="M56.727 326.727V322M9.455 326.727V322" fill="none" stroke="#000" stroke-width=".833" stroke-linejoin="round" stroke-miterlimit="10" transform="matrix(.7999 0 0 .80037 0 0)"/><text style="-inkscape-font-specification:Helvetica" transform="matrix(.7999 0 0 .80037 42.177 274.89)" font-weight="400" font-size="13.333" font-family="Helvetica"><tspan y="0" x="0">1</tspan></text><text style="-inkscape-font-specification:Helvetica" transform="matrix(.7999 0 0 .80037 4.363 274.89)" font-weight="400" font-size="13.333" font-family="Helvetica"><tspan y="0" x="0">2</tspan></text><text style="-inkscape-font-specification:Helvetica" transform="matrix(.7999 0 0 .80037 34.396 286.242)" font-weight="400" font-size="13.333" font-family="Helvetica"><tspan y="0" x="0 6.6665001">cm</tspan></text><text style="-inkscape-font-specification:Helvetica" transform="matrix(0 -.80037 .7999 0 435.613 218.101)" font-weight="400" font-size="16.667" font-family="Helvetica"><tspan y="0" x="0 8.3334999 12.033574 21.300426 30.567278 39.834129 48.167629 57.434483 65.767982 71.318092 74.501488 83.768341 93.035194 101.36869 106.00212 109.18552">sideaxes(&apos;east&apos;)</tspan></text><path d="M463 322h104M567 105H463M463 105v217M496.068 307.533h28.345M519.689 309.6l4.724-2.067M519.689 305.467l4.724 2.066" fill="none" stroke="#000" stroke-width=".833" stroke-linejoin="round" stroke-miterlimit="10" transform="matrix(.7999 0 0 .80037 0 0)"/><text style="-inkscape-font-specification:Helvetica" transform="matrix(.7999 0 0 .80037 430.993 250.943)" font-weight="400" font-size="16.667" font-family="Helvetica"><tspan y="0" x="0">y</tspan></text><path d="M496.068 307.533v-12.4M491.344 297.2l4.724-2.067M500.792 297.2l-4.724-2.067" fill="none" stroke="#000" stroke-width=".833" stroke-linejoin="round" stroke-miterlimit="10" transform="matrix(.7999 0 0 .80037 0 0)"/><text style="-inkscape-font-specification:Helvetica" transform="matrix(.7999 0 0 .80037 393.206 234.402)" font-weight="400" font-size="16.667" font-family="Helvetica"><tspan y="0" x="0">x</tspan></text><path d="M510.24 100.264V105M557.481 100.264V105" fill="none" stroke="#000" stroke-width=".833" stroke-linejoin="round" stroke-miterlimit="10" transform="matrix(.7999 0 0 .80037 0 0)"/><text style="-inkscape-font-specification:Helvetica" transform="matrix(.7999 0 0 .80037 404.942 74.056)" font-weight="400" font-size="13.333" font-family="Helvetica"><tspan y="0" x="0">1</tspan></text><text style="-inkscape-font-specification:Helvetica" transform="matrix(.7999 0 0 .80037 442.73 74.056)" font-weight="400" font-size="13.333" font-family="Helvetica"><tspan y="0" x="0">2</tspan></text><text style="-inkscape-font-specification:Helvetica" transform="matrix(.7999 0 0 .80037 404.75 62.685)" font-weight="400" font-size="13.333" font-family="Helvetica"><tspan y="0" x="0 6.6665001">cm</tspan></text></svg>