<svg xmlns="http://www.w3.org/2000/svg" height="343.667" width="457"><path d="M634.111-635.596V-1937.82M634.111-1937.82H2788.49M2788.49-1937.82v1302.224M2788.49-635.596H634.111M777.735-722.41v-74.412M757.217-784.42l20.518-12.402M798.252-784.42l-20.517-12.402" fill="none" stroke="#000" stroke-width="4.999" stroke-linejoin="round" stroke-miterlimit="10" transform="matrix(.1333 0 0 .13337 0 343.667)"/><text style="-inkscape-font-specification:Helvetica" transform="matrix(1.33256 0 0 1.33333 100.068 235.578)" font-weight="400" font-size="10.005" font-family="Helvetica"><tspan y="0" x="0">y</tspan></text><path d="M777.735-722.41h123.114M880.331-710.008l20.518-12.402M880.331-734.809l20.518 12.399" fill="none" stroke="#000" stroke-width="4.999" stroke-linejoin="round" stroke-miterlimit="10" transform="matrix(.1333 0 0 .13337 0 343.667)"/><text style="-inkscape-font-specification:Helvetica" transform="matrix(1.33256 0 0 1.33333 127.417 252.119)" font-weight="400" font-size="10.005" font-family="Helvetica"><tspan y="0" x="0">x</tspan><tspan y="-56.446" x="52.149502 60.483582 66.046303 68.267395 73.830116 76.611481 82.174202 87.176659 92.73938">Main axes</tspan></text><path d="M634.111-1937.82v-630.11M2788.49-2567.93v630.11M2788.49-1937.82H634.111M777.735-2136.78v-170.53M757.217-2278.89l20.518-28.42M798.252-2278.89l-20.517-28.42" fill="none" stroke="#000" stroke-width="4.999" stroke-linejoin="round" stroke-miterlimit="10" transform="matrix(.1333 0 0 .13337 0 343.667)"/><text style="-inkscape-font-specification:Helvetica" transform="matrix(1.33256 0 0 1.33333 100.068 25.576)" font-weight="400" font-size="10.005" font-family="Helvetica"><tspan y="0" x="0">y</tspan></text><path d="M777.735-2136.78h123.114M880.331-2108.35l20.518-28.43M880.331-2165.2l20.518 28.42" fill="none" stroke="#000" stroke-width="4.999" stroke-linejoin="round" stroke-miterlimit="10" transform="matrix(.1333 0 0 .13337 0 343.667)"/><text style="-inkscape-font-specification:Helvetica" transform="matrix(1.33256 0 0 1.33333 127.417 63.483)" font-weight="400" font-size="10.005" font-family="Helvetica"><tspan y="0" x="0">x</tspan><tspan y="-25.587" x="38.343102 43.345551 45.566639 51.129364 56.692085 62.25481 67.257263 72.819984 77.822433 81.154068 83.065002 88.627724 94.190453 97.522087 100.30344 105.86617 107.77711">sideaxes(&apos;north&apos;)</tspan></text><path d="M605.747-2222.04h28.364M605.747-2506.26h28.364" fill="none" stroke="#000" stroke-width="4.999" stroke-linejoin="round" stroke-miterlimit="10" transform="matrix(.1333 0 0 .13337 0 343.667)"/><g font-weight="400" font-family="Helvetica"><text style="-inkscape-font-specification:Helvetica" transform="matrix(1.33256 0 0 1.33333 70.56 50.91)" font-size="8.004"><tspan y="0" x="0">1</tspan><tspan y="-28.43" x="0">2</tspan></text><text style="-inkscape-font-specification:Helvetica" transform="matrix(0 -1.33333 1.33256 0 63.217 50.399)" font-size="8.004"><tspan y="0" x="0 4.0017548">cm</tspan></text><text style="-inkscape-font-specification:Helvetica" transform="matrix(1.33256 0 0 1.33333 177.31 324.234)" font-size="10.005"><tspan y="0" x="0 5.00245 7.2235379 12.786263 18.348986 23.911711 28.914162 34.476887 39.479336 42.810966 44.721905 49.724354 55.287079 60.8498 63.631165 69.193886 71.104828">sideaxes(&apos;south&apos;)</tspan></text></g><path d="M634.111-635.596v624.111M2788.49-11.485v-624.111M2788.49-635.596H634.111M777.735-437.013v170.212M757.217-295.172l20.518 28.371M798.252-295.172l-20.517 28.371" fill="none" stroke="#000" stroke-width="4.999" stroke-linejoin="round" stroke-miterlimit="10" transform="matrix(.1333 0 0 .13337 0 343.667)"/><text style="-inkscape-font-specification:Helvetica" transform="matrix(1.33256 0 0 1.33333 100.068 328.018)" font-weight="400" font-size="10.005" font-family="Helvetica"><tspan y="0" x="0">y</tspan></text><path d="M777.735-437.013h123.114M880.331-465.38l20.518 28.367M880.331-408.646l20.518-28.367" fill="none" stroke="#000" stroke-width="4.999" stroke-linejoin="round" stroke-miterlimit="10" transform="matrix(.1333 0 0 .13337 0 343.667)"/><g font-weight="400" font-family="Helvetica"><text style="-inkscape-font-specification:Helvetica" transform="matrix(1.33256 0 0 1.33333 127.417 290.182)" font-size="10.005"><tspan y="0" x="0">x</tspan></text><text style="-inkscape-font-specification:Helvetica" transform="matrix(1.33256 0 0 1.33333 108.672 276.067)" font-size="8.004"><tspan y="0" x="0 20.523691 41.047382 61.571075 82.094765 102.61846 123.14215 143.66585 164.18953 182.61238 187.06235">12345678910</tspan></text></g><path d="M839.288-663.963v56.738M1044.47-663.963v56.738M1249.65-663.963v56.738M1454.83-663.963v56.738M1660-663.963v56.738M1865.18-663.963v56.738M2070.36-663.963v56.738M2275.54-663.963v56.738M2480.72-663.963v56.738M2685.9-663.963v56.738" fill="none" stroke="#000" stroke-width="4.999" stroke-linejoin="round" stroke-miterlimit="10" transform="matrix(.1333 0 0 .13337 0 343.667)"/><text style="-inkscape-font-specification:Helvetica" transform="matrix(1.33256 0 0 1.33333 195.71 287.418)" font-weight="400" font-size="8.004" font-family="Helvetica"><tspan y="0" x="0 5.3383546 8.0035295 12.453493 14.230276 16.455257 19.120434 23.570396 26.235571 30.237337 32.462318 36.912281 41.362244 43.139027 45.36401">Arbitrary units</tspan></text><path d="M2816.84-351.905h-28.35M2816.84-68.226h-28.35" fill="none" stroke="#000" stroke-width="4.999" stroke-linejoin="round" stroke-miterlimit="10" transform="matrix(.1333 0 0 .13337 0 343.667)"/><g font-weight="400" font-family="Helvetica"><text style="-inkscape-font-specification:Helvetica" transform="matrix(1.33256 0 0 1.33333 379.245 300.333)" font-size="8.004"><tspan y="0" x="0">1</tspan><tspan y="28.377" x="0">2</tspan></text><text style="-inkscape-font-specification:Helvetica" transform="matrix(0 -1.33333 1.33256 0 400.18 307.718)" font-size="8.004"><tspan y="0" x="0 4.0017548">cm</tspan></text><text style="-inkscape-font-specification:Helvetica" transform="matrix(0 -1.33333 1.33256 0 28.82 220.078)" font-size="10.005"><tspan y="0" x="0 5.0024147 7.2234869 12.786172 18.348858 23.911543 28.913958 34.476643 39.479057 42.810665 44.721588 51.945076 57.507759 62.510174 65.291519 67.202438">sideaxes(&apos;west&apos;)</tspan></text></g><path d="M634.111-635.596H10.003M10.003-1937.82H634.11M634.111-1937.82v1302.224M435.533-722.41H265.316M293.691-710.008l-28.375-12.402M293.691-734.809l-28.375 12.399" fill="none" stroke="#000" stroke-width="4.999" stroke-linejoin="round" stroke-miterlimit="10" transform="matrix(.1333 0 0 .13337 0 343.667)"/><text style="-inkscape-font-specification:Helvetica" transform="matrix(1.33256 0 0 1.33333 16.64 252.119)" font-weight="400" font-size="10.005" font-family="Helvetica"><tspan y="0" x="0">y</tspan></text><path d="M435.533-722.41v-74.412M463.897-784.42l-28.364-12.402M407.166-784.42l28.367-12.402" fill="none" stroke="#000" stroke-width="4.999" stroke-linejoin="round" stroke-miterlimit="10" transform="matrix(.1333 0 0 .13337 0 343.667)"/><text style="-inkscape-font-specification:Helvetica" transform="matrix(1.33256 0 0 1.33333 54.454 235.578)" font-weight="400" font-size="10.005" font-family="Helvetica"><tspan y="0" x="0">x</tspan></text><path d="M662.478-759.618h-56.731M662.478-883.637h-56.731M662.478-1007.66h-56.731M662.478-1131.68h-56.731M662.478-1255.7h-56.731M662.478-1379.72h-56.731M662.478-1503.75h-56.731M662.478-1627.77h-56.731M662.478-1751.79h-56.731M662.478-1875.81h-56.731" fill="none" stroke="#000" stroke-width="4.999" stroke-linejoin="round" stroke-miterlimit="10" transform="matrix(.1333 0 0 .13337 0 343.667)"/><g font-weight="400" font-size="8.004" font-family="Helvetica"><text style="-inkscape-font-specification:Helvetica" transform="matrix(1.33256 0 0 1.33333 70.56 245.956)"><tspan y="0" x="0">1</tspan><tspan y="-12.405" x="0">2</tspan><tspan y="-24.811" x="0">3</tspan><tspan y="-37.217" x="0">4</tspan><tspan y="-49.623" x="0">5</tspan><tspan y="-62.029" x="0">6</tspan><tspan y="-74.435" x="0">7</tspan><tspan y="-86.841" x="0">8</tspan><tspan y="-99.246" x="0">9</tspan><tspan y="-111.652" x="-4.2020602 0.24790268">10</tspan></text><text style="-inkscape-font-specification:Helvetica" transform="matrix(0 -1.33333 1.33256 0 63.217 204.47)"><tspan y="0" x="0 5.3383408 8.0035095 12.453461 14.23024 16.455215 19.120384 23.570335 26.235504 30.237259 32.462234 36.912186 41.362137 43.138916 45.363892">Arbitrary units</tspan></text></g><path d="M350.426-607.225v-28.371M66.742-607.225v-28.371" fill="none" stroke="#000" stroke-width="4.999" stroke-linejoin="round" stroke-miterlimit="10" transform="matrix(.1333 0 0 .13337 0 343.667)"/><g font-weight="400" font-family="Helvetica"><text style="-inkscape-font-specification:Helvetica" transform="matrix(1.33256 0 0 1.33333 43.51 276.067)" font-size="8.004"><tspan y="0" x="0 -28.376699">12</tspan><tspan y="8.513" x="-5.8389001 -1.837135">cm</tspan></text><text style="-inkscape-font-specification:Helvetica" transform="matrix(0 -1.33333 1.33256 0 436.947 219.277)" font-size="10.005"><tspan y="0" x="0 5.0024147 7.2234869 12.786172 18.348858 23.911543 28.913958 34.476643 39.479057 42.810665 44.721588 50.284271 55.846958 60.849373 63.630714 65.541641">sideaxes(&apos;east&apos;)</tspan></text></g><path d="M2788.49-635.596h624.11M3412.6-1937.82h-624.11M2788.49-1937.82v1302.224M2986.93-722.41h170.1M3128.68-710.008l28.35-12.402M3128.68-734.809l28.35 12.399" fill="none" stroke="#000" stroke-width="4.999" stroke-linejoin="round" stroke-miterlimit="10" transform="matrix(.1333 0 0 .13337 0 343.667)"/><text style="-inkscape-font-specification:Helvetica" transform="matrix(1.33256 0 0 1.33333 432.327 252.119)" font-weight="400" font-size="10.005" font-family="Helvetica"><tspan y="0" x="0">y</tspan></text><path d="M2986.93-722.41v-74.412M2958.58-784.42l28.35-12.402M3015.28-784.42l-28.35-12.402" fill="none" stroke="#000" stroke-width="4.999" stroke-linejoin="round" stroke-miterlimit="10" transform="matrix(.1333 0 0 .13337 0 343.667)"/><text style="-inkscape-font-specification:Helvetica" transform="matrix(1.33256 0 0 1.33333 394.539 235.578)" font-weight="400" font-size="10.005" font-family="Helvetica"><tspan y="0" x="0">x</tspan></text><path d="M3071.99-1966.24v28.42M3355.47-1966.24v28.42" fill="none" stroke="#000" stroke-width="4.999" stroke-linejoin="round" stroke-miterlimit="10" transform="matrix(.1333 0 0 .13337 0 343.667)"/><text style="-inkscape-font-specification:Helvetica" transform="matrix(1.33256 0 0 1.33333 406.275 75.232)" font-weight="400" font-size="8.004" font-family="Helvetica"><tspan y="0" x="0 28.357548">12</tspan><tspan y="-8.529" x="-0.144225 3.8575399">cm</tspan></text></svg>