<?xml version="1.0" encoding="UTF-8" standalone="no"?>
<svg xmlns:rdf="http://www.w3.org/1999/02/22-rdf-syntax-ns#" xmlns="http://www.w3.org/2000/svg" xml:space="preserve" height="343.67" viewBox="0 0 457 343.66666" width="457" version="1.1" xmlns:cc="http://creativecommons.org/ns#" xmlns:dc="http://purl.org/dc/elements/1.1/"><metadata><rdf:RDF><cc:Work rdf:about=""><dc:format>image/svg+xml</dc:format><dc:type rdf:resource="http://purl.org/dc/dcmitype/StillImage"/><dc:title/></cc:Work></rdf:RDF></metadata><g transform="matrix(1.3333 0 0 -1.3333 0 343.67)"><g transform="scale(.1)"><path d="m10 17.492h3401.6v2551.2h-3401.6z" fill="#fff"/><path d="m10 17.492h3401.6v2551.2h-3401.6z" fill="#fff"/><g transform="scale(.99971 -1.0003)"><path stroke-linejoin="round" d="m634.11-635.6v-1302.2" stroke="#000" stroke-miterlimit="10" stroke-width="4.9989" fill="none"/></g><g transform="scale(.99971 -1.0003)"><path stroke-linejoin="round" d="m634.11-1937.8h2154.4" stroke="#000" stroke-miterlimit="10" stroke-width="4.9989" fill="none"/></g><g transform="scale(.99971 -1.0003)"><path stroke-linejoin="round" d="m2788.5-1937.8v1302.2" stroke="#000" stroke-miterlimit="10" stroke-width="4.9989" fill="none"/></g><g transform="scale(.99971 -1.0003)"><path stroke-linejoin="round" d="m2788.5-635.6h-2154.4" stroke="#000" stroke-miterlimit="10" stroke-width="4.9989" fill="none"/></g><g transform="scale(.99971 -1.0003)"><path stroke-linejoin="round" d="m777.74-722.41v-74.412" stroke="#000" stroke-miterlimit="10" stroke-width="4.9989" fill="none"/></g><g transform="scale(.99971 -1.0003)"><path stroke-linejoin="round" d="m757.22-784.42 20.518-12.402" stroke="#000" stroke-miterlimit="10" stroke-width="4.9989" fill="none"/></g><g transform="scale(.99971 -1.0003)"><path stroke-linejoin="round" d="m798.25-784.42-20.517-12.402" stroke="#000" stroke-miterlimit="10" stroke-width="4.9989" fill="none"/></g><g transform="scale(10)"><text transform="matrix(.99942 0 0 -1 75.051 81.067)" font-size="10.005px" font-family="Helvetica" fill="#000000"><tspan y="0" x="0">y</tspan></text>
</g><g transform="scale(.99971 -1.0003)"><path stroke-linejoin="round" d="m777.74-722.41h123.11" stroke="#000" stroke-miterlimit="10" stroke-width="4.9989" fill="none"/></g><g transform="scale(.99971 -1.0003)"><path stroke-linejoin="round" d="m880.33-710.01 20.518-12.402" stroke="#000" stroke-miterlimit="10" stroke-width="4.9989" fill="none"/></g><g transform="scale(.99971 -1.0003)"><path stroke-linejoin="round" d="m880.33-734.81 20.518 12.399" stroke="#000" stroke-miterlimit="10" stroke-width="4.9989" fill="none"/></g><g transform="scale(10)"><text transform="matrix(.99942 0 0 -1 95.562 68.661)" font-size="10.005px" font-family="Helvetica" fill="#000000"><tspan y="0" x="0">x</tspan><tspan y="-56.446098" x="52.149502 60.483582 66.046303 68.267395 73.830116 76.611481 82.174202 87.176659 92.73938">Main axes</tspan></text>
</g><g transform="scale(.99971 -1.0003)"><path stroke-linejoin="round" d="m634.11-1937.8v-630.11" stroke="#000" stroke-miterlimit="10" stroke-width="4.9989" fill="none"/></g><g transform="scale(.99971 -1.0003)"><path stroke-linejoin="round" d="m2788.5-2567.9v630.11" stroke="#000" stroke-miterlimit="10" stroke-width="4.9989" fill="none"/></g><g transform="scale(.99971 -1.0003)"><path stroke-linejoin="round" d="m2788.5-1937.8h-2154.4" stroke="#000" stroke-miterlimit="10" stroke-width="4.9989" fill="none"/></g><g transform="scale(.99971 -1.0003)"><path stroke-linejoin="round" d="m777.74-2136.8v-170.53" stroke="#000" stroke-miterlimit="10" stroke-width="4.9989" fill="none"/></g><g transform="scale(.99971 -1.0003)"><path stroke-linejoin="round" d="m757.22-2278.9 20.518-28.42" stroke="#000" stroke-miterlimit="10" stroke-width="4.9989" fill="none"/></g><g transform="scale(.99971 -1.0003)"><path stroke-linejoin="round" d="m798.25-2278.9-20.517-28.42" stroke="#000" stroke-miterlimit="10" stroke-width="4.9989" fill="none"/></g><g transform="scale(10)"><text transform="matrix(.99942 0 0 -1 75.051 238.57)" font-size="10.005px" font-family="Helvetica" fill="#000000"><tspan y="0" x="0">y</tspan></text>
</g><g transform="scale(.99971 -1.0003)"><path stroke-linejoin="round" d="m777.74-2136.8h123.11" stroke="#000" stroke-miterlimit="10" stroke-width="4.9989" fill="none"/></g><g transform="scale(.99971 -1.0003)"><path stroke-linejoin="round" d="m880.33-2108.4 20.518-28.43" stroke="#000" stroke-miterlimit="10" stroke-width="4.9989" fill="none"/></g><g transform="scale(.99971 -1.0003)"><path stroke-linejoin="round" d="m880.33-2165.2 20.518 28.42" stroke="#000" stroke-miterlimit="10" stroke-width="4.9989" fill="none"/></g><g transform="scale(10)"><text transform="matrix(.99942 0 0 -1 95.562 210.14)" font-size="10.005px" font-family="Helvetica" fill="#000000"><tspan y="0" x="0">x</tspan><tspan y="-25.5867" x="38.343102 43.345551 45.566639 51.129364 56.692085 62.25481 67.257263 72.819984 77.822433 81.154068 83.065002 88.627724 94.190453 97.522087 100.30344 105.86617 107.77711">sideaxes(&apos;north&apos;)</tspan></text>
</g><g transform="scale(.99971 -1.0003)"><path stroke-linejoin="round" d="m605.75-2222h28.364" stroke="#000" stroke-miterlimit="10" stroke-width="4.9989" fill="none"/></g><g transform="scale(.99971 -1.0003)"><path stroke-linejoin="round" d="m605.75-2506.3h28.364" stroke="#000" stroke-miterlimit="10" stroke-width="4.9989" fill="none"/></g><g transform="scale(10)" font-family="Helvetica" fill="#000000"><text transform="matrix(.99942 0 0 -1 51.721 218.67)" font-size="10.005px"><tspan y="0" x="0">1</tspan><tspan y="-28.430099" x="0">2</tspan></text>
<text transform="matrix(0 1 .99942 0 46.812 218.45)" font-size="10.005px"><tspan y="0" x="0 5.0024147">cm</tspan></text>
<text transform="matrix(.99942 0 0 -1 132.98 14.574)" font-size="10.005px"><tspan y="0" x="0 5.00245 7.2235379 12.786263 18.348986 23.911711 28.914162 34.476887 39.479336 42.810966 44.721905 49.724354 55.287079 60.8498 63.631165 69.193886 71.104828">sideaxes(&apos;south&apos;)</tspan></text>
</g><g transform="scale(.99971 -1.0003)"><path stroke-linejoin="round" d="m634.11-635.6v624.12" stroke="#000" stroke-miterlimit="10" stroke-width="4.9989" fill="none"/></g><g transform="scale(.99971 -1.0003)"><path stroke-linejoin="round" d="m2788.5-11.485v-624.12" stroke="#000" stroke-miterlimit="10" stroke-width="4.9989" fill="none"/></g><g transform="scale(.99971 -1.0003)"><path stroke-linejoin="round" d="m2788.5-635.6h-2154.4" stroke="#000" stroke-miterlimit="10" stroke-width="4.9989" fill="none"/></g><g transform="scale(.99971 -1.0003)"><path stroke-linejoin="round" d="m777.74-437.01v170.21" stroke="#000" stroke-miterlimit="10" stroke-width="4.9989" fill="none"/></g><g transform="scale(.99971 -1.0003)"><path stroke-linejoin="round" d="m757.22-295.17 20.518 28.371" stroke="#000" stroke-miterlimit="10" stroke-width="4.9989" fill="none"/></g><g transform="scale(.99971 -1.0003)"><path stroke-linejoin="round" d="m798.25-295.17-20.517 28.371" stroke="#000" stroke-miterlimit="10" stroke-width="4.9989" fill="none"/></g><g transform="scale(10)"><text transform="matrix(.99942 0 0 -1 75.051 11.736)" font-size="10.005px" font-family="Helvetica" fill="#000000"><tspan y="0" x="0">y</tspan></text>
</g><g transform="scale(.99971 -1.0003)"><path stroke-linejoin="round" d="m777.74-437.01h123.11" stroke="#000" stroke-miterlimit="10" stroke-width="4.9989" fill="none"/></g><g transform="scale(.99971 -1.0003)"><path stroke-linejoin="round" d="m880.33-465.38 20.518 28.367" stroke="#000" stroke-miterlimit="10" stroke-width="4.9989" fill="none"/></g><g transform="scale(.99971 -1.0003)"><path stroke-linejoin="round" d="m880.33-408.65 20.518-28.367" stroke="#000" stroke-miterlimit="10" stroke-width="4.9989" fill="none"/></g><g transform="scale(10)"><text transform="matrix(.99942 0 0 -1 95.562 40.113)" font-size="10.005px" font-family="Helvetica" fill="#000000"><tspan y="0" x="0">x</tspan><tspan y="-8.1855497" x="-14.6668 5.8569517 26.380703 46.904453 67.428207 87.951958 108.47571 128.99947 149.52321 167.34575 172.90846">12345678910</tspan></text>
</g><g transform="scale(.99971 -1.0003)"><path stroke-linejoin="round" d="m839.29-663.96v56.738" stroke="#000" stroke-miterlimit="10" stroke-width="4.9989" fill="none"/></g><g transform="scale(.99971 -1.0003)"><path stroke-linejoin="round" d="m1044.5-663.96v56.738" stroke="#000" stroke-miterlimit="10" stroke-width="4.9989" fill="none"/></g><g transform="scale(.99971 -1.0003)"><path stroke-linejoin="round" d="m1249.6-663.96v56.738" stroke="#000" stroke-miterlimit="10" stroke-width="4.9989" fill="none"/></g><g transform="scale(.99971 -1.0003)"><path stroke-linejoin="round" d="m1454.8-663.96v56.738" stroke="#000" stroke-miterlimit="10" stroke-width="4.9989" fill="none"/></g><g transform="scale(.99971 -1.0003)"><path stroke-linejoin="round" d="m1660-663.96v56.738" stroke="#000" stroke-miterlimit="10" stroke-width="4.9989" fill="none"/></g><g transform="scale(.99971 -1.0003)"><path stroke-linejoin="round" d="m1865.2-663.96v56.738" stroke="#000" stroke-miterlimit="10" stroke-width="4.9989" fill="none"/></g><g transform="scale(.99971 -1.0003)"><path stroke-linejoin="round" d="m2070.4-663.96v56.738" stroke="#000" stroke-miterlimit="10" stroke-width="4.9989" fill="none"/></g><g transform="scale(.99971 -1.0003)"><path stroke-linejoin="round" d="m2275.5-663.96v56.738" stroke="#000" stroke-miterlimit="10" stroke-width="4.9989" fill="none"/></g><g transform="scale(.99971 -1.0003)"><path stroke-linejoin="round" d="m2480.7-663.96v56.738" stroke="#000" stroke-miterlimit="10" stroke-width="4.9989" fill="none"/></g><g transform="scale(.99971 -1.0003)"><path stroke-linejoin="round" d="m2685.9-663.96v56.738" stroke="#000" stroke-miterlimit="10" stroke-width="4.9989" fill="none"/></g><g transform="scale(10)"><text transform="matrix(.99942 0 0 -1 139.58 39.786)" font-size="10.005px" font-family="Helvetica" fill="#000000"><tspan y="0" x="0 6.6732683 10.0049 15.567624 17.788712 20.570074 23.901707 29.46443 32.796062 37.798512 40.579876 46.142597 51.705322 53.926411 56.707771">Arbitrary units</tspan></text>
</g><g transform="scale(.99971 -1.0003)"><path stroke-linejoin="round" d="m2816.8-351.9h-28.35" stroke="#000" stroke-miterlimit="10" stroke-width="4.9989" fill="none"/></g><g transform="scale(.99971 -1.0003)"><path stroke-linejoin="round" d="m2816.8-68.226h-28.35" stroke="#000" stroke-miterlimit="10" stroke-width="4.9989" fill="none"/></g><g transform="scale(10)" font-family="Helvetica" fill="#000000"><text transform="matrix(.99942 0 0 -1 284.43 31.6)" font-size="10.005px"><tspan y="0" x="0">1</tspan><tspan y="28.3766" x="0">2</tspan></text>
<text transform="matrix(0 1 .99942 0 302.54 25.461)" font-size="10.005px"><tspan y="0" x="0 5.0024147">cm</tspan><tspan y="-281.08194" x="67.230675 72.233086 74.454155 80.016846 85.579529 91.142212 96.14463 101.70731 106.70972 110.04134 111.95226 119.17574 124.73843 129.74084 132.52219 134.43311">sideaxes(&apos;west&apos;)</tspan></text>
</g><g transform="scale(.99971 -1.0003)"><path stroke-linejoin="round" d="m634.11-635.6h-624.11" stroke="#000" stroke-miterlimit="10" stroke-width="4.9989" fill="none"/></g><g transform="scale(.99971 -1.0003)"><path stroke-linejoin="round" d="m10.003-1937.8h624.11" stroke="#000" stroke-miterlimit="10" stroke-width="4.9989" fill="none"/></g><g transform="scale(.99971 -1.0003)"><path stroke-linejoin="round" d="m634.11-1937.8v1302.2" stroke="#000" stroke-miterlimit="10" stroke-width="4.9989" fill="none"/></g><g transform="scale(.99971 -1.0003)"><path stroke-linejoin="round" d="m435.53-722.41h-170.21" stroke="#000" stroke-miterlimit="10" stroke-width="4.9989" fill="none"/></g><g transform="scale(.99971 -1.0003)"><path stroke-linejoin="round" d="m293.69-710.01-28.37-12.4" stroke="#000" stroke-miterlimit="10" stroke-width="4.9989" fill="none"/></g><g transform="scale(.99971 -1.0003)"><path stroke-linejoin="round" d="m293.69-734.81-28.375 12.399" stroke="#000" stroke-miterlimit="10" stroke-width="4.9989" fill="none"/></g><g transform="scale(10)"><text transform="matrix(.99942 0 0 -1 12.48 68.661)" font-size="10.005px" font-family="Helvetica" fill="#000000"><tspan y="0" x="0">y</tspan></text>
</g><g transform="scale(.99971 -1.0003)"><path stroke-linejoin="round" d="m435.53-722.41v-74.412" stroke="#000" stroke-miterlimit="10" stroke-width="4.9989" fill="none"/></g><g transform="scale(.99971 -1.0003)"><path stroke-linejoin="round" d="m463.9-784.42-28.364-12.402" stroke="#000" stroke-miterlimit="10" stroke-width="4.9989" fill="none"/></g><g transform="scale(.99971 -1.0003)"><path stroke-linejoin="round" d="m407.17-784.42 28.367-12.402" stroke="#000" stroke-miterlimit="10" stroke-width="4.9989" fill="none"/></g><g transform="scale(10)"><text transform="matrix(.99942 0 0 -1 40.841 81.067)" font-size="10.005px" font-family="Helvetica" fill="#000000"><tspan y="0" x="0">x</tspan></text>
</g><g transform="scale(.99971 -1.0003)"><path stroke-linejoin="round" d="m662.48-759.62h-56.73" stroke="#000" stroke-miterlimit="10" stroke-width="4.9989" fill="none"/></g><g transform="scale(.99971 -1.0003)"><path stroke-linejoin="round" d="m662.48-883.64h-56.73" stroke="#000" stroke-miterlimit="10" stroke-width="4.9989" fill="none"/></g><g transform="scale(.99971 -1.0003)"><path stroke-linejoin="round" d="m662.48-1007.7h-56.73" stroke="#000" stroke-miterlimit="10" stroke-width="4.9989" fill="none"/></g><g transform="scale(.99971 -1.0003)"><path stroke-linejoin="round" d="m662.48-1131.7h-56.73" stroke="#000" stroke-miterlimit="10" stroke-width="4.9989" fill="none"/></g><g transform="scale(.99971 -1.0003)"><path stroke-linejoin="round" d="m662.48-1255.7h-56.73" stroke="#000" stroke-miterlimit="10" stroke-width="4.9989" fill="none"/></g><g transform="scale(.99971 -1.0003)"><path stroke-linejoin="round" d="m662.48-1379.7h-56.73" stroke="#000" stroke-miterlimit="10" stroke-width="4.9989" fill="none"/></g><g transform="scale(.99971 -1.0003)"><path stroke-linejoin="round" d="m662.48-1503.8h-56.73" stroke="#000" stroke-miterlimit="10" stroke-width="4.9989" fill="none"/></g><g transform="scale(.99971 -1.0003)"><path stroke-linejoin="round" d="m662.48-1627.8h-56.73" stroke="#000" stroke-miterlimit="10" stroke-width="4.9989" fill="none"/></g><g transform="scale(.99971 -1.0003)"><path stroke-linejoin="round" d="m662.48-1751.8h-56.73" stroke="#000" stroke-miterlimit="10" stroke-width="4.9989" fill="none"/></g><g transform="scale(.99971 -1.0003)"><path stroke-linejoin="round" d="m662.48-1875.8h-56.73" stroke="#000" stroke-miterlimit="10" stroke-width="4.9989" fill="none"/></g><g transform="scale(10)" font-family="Helvetica" fill="#000000"><text transform="matrix(.99942 0 0 -1 51.721 72.383)" font-size="10.005px"><tspan y="0" x="0">1</tspan><tspan y="-12.4055" x="0">2</tspan><tspan y="-24.811399" x="0">3</tspan><tspan y="-37.2173" x="0">4</tspan><tspan y="-49.622799" x="0">5</tspan><tspan y="-62.028702" x="0">6</tspan><tspan y="-74.434601" x="0">7</tspan><tspan y="-86.8405" x="0">8</tspan><tspan y="-99.246002" x="0">9</tspan><tspan y="-111.6519" x="-5.40237 0.16035441">10</tspan></text>
<text transform="matrix(0 1 .99942 0 46.812 97.194)" font-size="10.005px"><tspan y="0" x="0 6.6732211 10.004829 15.567514 17.788588 20.569929 23.901537 29.464222 32.79583 37.798244 40.57959 46.142273 51.70496 53.926029 56.707375">Arbitrary units</tspan></text>
</g><g transform="scale(.99971 -1.0003)"><path stroke-linejoin="round" d="m350.43-607.22v-28.371" stroke="#000" stroke-miterlimit="10" stroke-width="4.9989" fill="none"/></g><g transform="scale(.99971 -1.0003)"><path stroke-linejoin="round" d="m66.742-607.22v-28.371" stroke="#000" stroke-miterlimit="10" stroke-width="4.9989" fill="none"/></g><g transform="scale(10)" font-family="Helvetica" fill="#000000"><text transform="matrix(.99942 0 0 -1 32.032 48.299)" font-size="10.005px"><tspan y="0" x="0 -28.376699">12</tspan><tspan y="8.5128899" x="-6.7395 -1.7370501">cm</tspan></text>
<text transform="matrix(0 1 .99942 0 327.71 93.292)" font-size="10.005px"><tspan y="0" x="0 5.0024147 7.2234869 12.786172 18.348858 23.911543 28.913958 34.476643 39.479057 42.810665 44.721588 50.284271 55.846958 60.849373 63.630714 65.541641">sideaxes(&apos;east&apos;)</tspan></text>
</g><g transform="scale(.99971 -1.0003)"><path stroke-linejoin="round" d="m2788.5-635.6h624.1" stroke="#000" stroke-miterlimit="10" stroke-width="4.9989" fill="none"/></g><g transform="scale(.99971 -1.0003)"><path stroke-linejoin="round" d="m3412.6-1937.8h-624.1" stroke="#000" stroke-miterlimit="10" stroke-width="4.9989" fill="none"/></g><g transform="scale(.99971 -1.0003)"><path stroke-linejoin="round" d="m2788.5-1937.8v1302.2" stroke="#000" stroke-miterlimit="10" stroke-width="4.9989" fill="none"/></g><g transform="scale(.99971 -1.0003)"><path stroke-linejoin="round" d="m2986.9-722.41h170.1" stroke="#000" stroke-miterlimit="10" stroke-width="4.9989" fill="none"/></g><g transform="scale(.99971 -1.0003)"><path stroke-linejoin="round" d="m3128.7-710.01 28.35-12.402" stroke="#000" stroke-miterlimit="10" stroke-width="4.9989" fill="none"/></g><g transform="scale(.99971 -1.0003)"><path stroke-linejoin="round" d="m3128.7-734.81 28.35 12.399" stroke="#000" stroke-miterlimit="10" stroke-width="4.9989" fill="none"/></g><g transform="scale(10)"><text transform="matrix(.99942 0 0 -1 324.24 68.661)" font-size="10.005px" font-family="Helvetica" fill="#000000"><tspan y="0" x="0">y</tspan></text>
</g><g transform="scale(.99971 -1.0003)"><path stroke-linejoin="round" d="m2986.9-722.41v-74.412" stroke="#000" stroke-miterlimit="10" stroke-width="4.9989" fill="none"/></g><g transform="scale(.99971 -1.0003)"><path stroke-linejoin="round" d="m2958.6-784.42 28.35-12.402" stroke="#000" stroke-miterlimit="10" stroke-width="4.9989" fill="none"/></g><g transform="scale(.99971 -1.0003)"><path stroke-linejoin="round" d="m3015.3-784.42-28.35-12.402" stroke="#000" stroke-miterlimit="10" stroke-width="4.9989" fill="none"/></g><g transform="scale(10)"><text transform="matrix(.99942 0 0 -1 295.9 81.067)" font-size="10.005px" font-family="Helvetica" fill="#000000"><tspan y="0" x="0">x</tspan></text>
</g><g transform="scale(.99971 -1.0003)"><path stroke-linejoin="round" d="m3072-1966.2v28.42" stroke="#000" stroke-miterlimit="10" stroke-width="4.9989" fill="none"/></g><g transform="scale(.99971 -1.0003)"><path stroke-linejoin="round" d="m3355.5-1966.2v28.42" stroke="#000" stroke-miterlimit="10" stroke-width="4.9989" fill="none"/></g><g transform="scale(10)"><text transform="matrix(.99942 0 0 -1 304.11 201.93)" font-size="10.005px" font-family="Helvetica" fill="#000000"><tspan y="0" x="0 28.357588">12</tspan><tspan y="-8.5289097" x="-1.04475 3.9577">cm</tspan></text>
</g></g></g></svg>
