<svg xmlns="http://www.w3.org/2000/svg" height="224.347" width="300.32"><path d="M0 222.013h300.69V-4.757H0z" fill="#fff"/><path d="M0 222.013h300.69V-4.757H0z" fill="#fff"/><path d="M123.226 85.84a1.336 1.336 0 1 1-2.672-.003 1.336 1.336 0 0 1 2.672.003M123.635 80.965a1.337 1.337 0 1 1-2.673 0 1.337 1.337 0 0 1 2.673 0M138.417 123.424a1.337 1.337 0 1 1-2.673-.003 1.337 1.337 0 0 1 2.673.003M144.473 80.273a1.336 1.336 0 1 1-2.672-.003 1.336 1.336 0 0 1 2.672.003M130.81 108.422a1.337 1.337 0 1 1-2.674-.002 1.337 1.337 0 0 1 2.673.002M140.219 66.21a1.337 1.337 0 1 1-2.674 0 1.337 1.337 0 0 1 2.674 0M131.178 82.433a1.337 1.337 0 1 1-2.674-.002 1.337 1.337 0 0 1 2.674.002M95.031 98.45a1.337 1.337 0 1 1-2.674-.001 1.337 1.337 0 0 1 2.674.002M203.603 42.15a1.337 1.337 0 1 1-2.674-.002 1.337 1.337 0 0 1 2.674.001M128.29 91.53a1.337 1.337 0 0 1-2.674 0 1.337 1.337 0 0 1 2.674 0M153.496 105.275a1.336 1.336 0 1 1-2.673-.002 1.336 1.336 0 0 1 2.673.002M150.039 87.644a1.337 1.337 0 1 1-2.674-.001 1.337 1.337 0 0 1 2.674.001M158.617 78.75a1.338 1.338 0 0 1-2.674 0 1.338 1.338 0 0 1 2.674 0M147.052 104.267a1.337 1.337 0 1 1-2.673-.002 1.337 1.337 0 0 1 2.673.002M155.14 112.833a1.338 1.338 0 0 1-2.675 0 1.337 1.337 0 0 1 2.675 0M152.661 122.157a1.336 1.336 0 1 1-2.672-.002 1.336 1.336 0 0 1 2.672.002M135.69 87.487a1.338 1.338 0 0 1-2.675 0 1.337 1.337 0 0 1 2.674 0M92.036 107.004a1.337 1.337 0 0 1-2.674 0 1.337 1.337 0 0 1 2.674 0M104.875 93.286a1.337 1.337 0 1 1-2.673-.003 1.337 1.337 0 0 1 2.673.003M131.931 76.72a1.337 1.337 0 0 1-2.674 0 1.337 1.337 0 0 1 2.674 0M192.313 56.036a1.336 1.336 0 1 1-2.671-.002 1.336 1.336 0 0 1 2.671.002M167.785 52.404a1.337 1.337 0 0 1-2.673 0 1.336 1.336 0 0 1 2.673 0M154.95 86.021a1.337 1.337 0 1 1-2.673-.001 1.337 1.337 0 0 1 2.674.001M143.699 67.332a1.338 1.338 0 0 1-2.675 0 1.338 1.338 0 0 1 2.675 0M157.101 132.912a1.337 1.337 0 1 1-2.674-.002 1.337 1.337 0 0 1 2.674.002M146.912 71.35a1.337 1.337 0 1 1-2.673 0 1.337 1.337 0 0 1 2.673 0M162.537 77.325a1.337 1.337 0 1 1-2.674-.002 1.337 1.337 0 0 1 2.674.002M72.298 93.82a1.337 1.337 0 1 1-2.674-.004 1.337 1.337 0 0 1 2.674.003M120.425 62.935a1.337 1.337 0 0 1-2.673 0 1.337 1.337 0 0 1 2.673 0M153.612 109.582a1.338 1.338 0 0 1-2.675 0 1.337 1.337 0 0 1 2.675 0M125.969 70.79a1.338 1.338 0 0 1-2.674 0 1.337 1.337 0 0 1 2.674 0M149.017 94.763a1.338 1.338 0 0 1-2.674 0 1.337 1.337 0 0 1 2.674 0M182.345 132.946a1.337 1.337 0 1 1-2.673-.002 1.337 1.337 0 0 1 2.673.002M112.828 65.347a1.337 1.337 0 0 1-2.674 0 1.337 1.337 0 0 1 2.674 0M181.412 81.895a1.338 1.338 0 0 1-2.673 0 1.336 1.336 0 1 1 2.673 0M158.888 117.737a1.337 1.337 0 1 1-2.674-.002 1.337 1.337 0 0 1 2.674.002M131.983 89.759a1.336 1.336 0 1 1-2.673-.003 1.336 1.336 0 0 1 2.673.003" fill="#00f"/><path d="M133.038 84.672a1.337 1.337 0 1 1-2.674-.002 1.337 1.337 0 0 1 2.674.002M68.49 88.248a1.337 1.337 0 1 1-2.674-.002 1.337 1.337 0 0 1 2.674.002M166.587 62.119a1.337 1.337 0 0 1-2.675 0 1.338 1.338 0 0 1 2.675 0M188.97 97.966a1.338 1.338 0 0 1-2.675 0 1.337 1.337 0 0 1 2.674 0M167.84 53.544a1.337 1.337 0 1 1-2.674-.002 1.337 1.337 0 0 1 2.674.002M103.015 59.656a1.337 1.337 0 1 1-2.674-.002 1.337 1.337 0 0 1 2.674.002M123.532 107.57a1.337 1.337 0 1 1-2.674-.004 1.337 1.337 0 0 1 2.674.003M107.706 83.265a1.337 1.337 0 1 1-2.674-.002 1.337 1.337 0 0 1 2.674.002M90.186 85.141a1.337 1.337 0 0 1-2.674 0 1.336 1.336 0 0 1 2.674 0M117.461 105.647a1.337 1.337 0 0 1-2.674 0 1.337 1.337 0 0 1 2.674 0M177.044 86.921a1.337 1.337 0 0 1-2.675 0 1.338 1.338 0 0 1 2.675 0M146.49 89.863a1.337 1.337 0 0 1-2.675 0 1.338 1.338 0 0 1 2.674 0M126.007 120.928a1.337 1.337 0 0 1-2.674 0 1.337 1.337 0 0 1 2.674 0M177.59 22.57a1.337 1.337 0 1 1-2.675-.001 1.337 1.337 0 0 1 2.674.002M117.725 74.659a1.337 1.337 0 1 1-2.674-.003 1.337 1.337 0 0 1 2.674.003M171.179 82.87a1.338 1.338 0 0 1-2.674 0 1.337 1.337 0 0 1 2.674 0M115.076 57.61a1.337 1.337 0 0 1-2.674 0 1.337 1.337 0 0 1 2.674 0M147.553 135.55a1.337 1.337 0 1 1-2.673 0 1.337 1.337 0 0 1 2.673 0M164.764 34.761a1.338 1.338 0 0 1-2.673 0 1.336 1.336 0 0 1 2.673 0M116.71 166.688a1.337 1.337 0 1 1-2.675-.003 1.337 1.337 0 0 1 2.674.003M177.085 106.196a1.337 1.337 0 1 1-2.673-.002 1.337 1.337 0 0 1 2.673.002M181.463 84.352a1.337 1.337 0 1 1-2.675 0 1.338 1.338 0 0 1 2.675 0M161.881 134.049a1.338 1.338 0 0 1-2.674 0 1.337 1.337 0 0 1 2.674 0M123.737 104.146a1.337 1.337 0 1 1-2.674-.003 1.337 1.337 0 0 1 2.674.003M149.67 48.125a1.337 1.337 0 1 1-2.675-.002 1.337 1.337 0 0 1 2.674.002M186.816 81.7a1.338 1.338 0 0 1-2.675 0 1.337 1.337 0 0 1 2.675 0M139.424 72.275a1.336 1.336 0 1 1-2.672 0 1.336 1.336 0 0 1 2.672 0M92.11 81.54a1.337 1.337 0 1 1-2.673-.002 1.337 1.337 0 0 1 2.674.002M136.836 64.647a1.336 1.336 0 1 1-2.673-.004 1.336 1.336 0 0 1 2.673.004M107.753 90.428a1.337 1.337 0 0 1-2.674 0 1.337 1.337 0 0 1 2.674 0M164.35 121.764a1.337 1.337 0 1 1-2.673-.003 1.337 1.337 0 0 1 2.674.003M141.21 64.368a1.337 1.337 0 1 1-2.674-.001 1.337 1.337 0 0 1 2.673.001M88.707 104.953a1.337 1.337 0 1 1-2.673-.002 1.337 1.337 0 0 1 2.673.002M132.796 107.145a1.337 1.337 0 0 1-2.674 0 1.337 1.337 0 0 1 2.674 0M184.695 126.855a1.337 1.337 0 0 1-2.675 0 1.338 1.338 0 0 1 2.675 0M165.265 90.79a1.337 1.337 0 1 1-2.673-.002 1.337 1.337 0 0 1 2.673.003M158.325 31.75a1.338 1.338 0 0 1-2.673 0 1.337 1.337 0 0 1 2.673 0M87.188 82.067c0 .737-.599 1.334-1.337 1.334a1.336 1.336 0 1 1 1.337-1.334M119.607 115.12a1.337 1.337 0 1 1-2.673-.003 1.337 1.337 0 0 1 2.673.003M175.284 96.478a1.338 1.338 0 0 1-2.675 0 1.337 1.337 0 0 1 2.675 0M157.19 84.943a1.338 1.338 0 0 1-2.673 0 1.336 1.336 0 0 1 2.674 0M135.717 68.627a1.338 1.338 0 0 1-2.674 0 1.338 1.338 0 0 1 2.674 0M159.632 117.858a1.337 1.337 0 1 1-2.674-.002 1.337 1.337 0 0 1 2.674.002M153.145 78.761a1.338 1.338 0 0 1-2.674 0 1.338 1.338 0 0 1 2.674 0M104.735 5.696a1.337 1.337 0 0 1-2.674 0 1.336 1.336 0 1 1 2.674 0M125.81 90.167a1.338 1.338 0 0 1-2.674 0 1.337 1.337 0 0 1 2.674 0M68.419 84.097a1.337 1.337 0 1 1-2.674-.002 1.337 1.337 0 0 1 2.674.002M192.272 94.53a1.337 1.337 0 1 1-2.673-.001 1.337 1.337 0 0 1 2.673.001M98.143 111.211a1.337 1.337 0 0 1-2.674 0 1.337 1.337 0 0 1 2.674 0M117.43 68.601a1.337 1.337 0 0 1-2.674 0 1.336 1.336 0 0 1 2.674 0M155.275 71.564a1.337 1.337 0 1 1-2.674-.001 1.337 1.337 0 0 1 2.674.001M113.465 90.419a1.337 1.337 0 0 1-2.674 0 1.337 1.337 0 0 1 2.674 0M141.681 74.165a1.337 1.337 0 0 1-2.674 0 1.337 1.337 0 0 1 2.674 0M115.62 97.46a1.337 1.337 0 0 1-2.675 0 1.337 1.337 0 0 1 2.674 0M144.484 98.553a1.336 1.336 0 1 1-2.673-.002 1.336 1.336 0 0 1 2.673.002M137.828 78.03a1.338 1.338 0 0 1-2.673 0 1.337 1.337 0 0 1 2.673 0M180.343 133.435a1.337 1.337 0 1 1-1.337-1.336c.737 0 1.337.598 1.337 1.336M110.655 44.41a1.337 1.337 0 0 1-2.674 0 1.337 1.337 0 0 1 2.674 0M178.743 65.832a1.337 1.337 0 1 1-2.674-.001 1.337 1.337 0 0 1 2.674.001M133.448 93.196a1.337 1.337 0 0 1-2.674 0 1.337 1.337 0 0 1 2.674 0M179.784 105.672a1.338 1.338 0 0 1-2.675 0 1.337 1.337 0 0 1 2.675 0M130.13 75.652a1.337 1.337 0 1 1-2.675-.002 1.337 1.337 0 0 1 2.675.002M195.22 26.172a1.337 1.337 0 1 1-2.673-.001 1.337 1.337 0 0 1 2.673.001" fill="#00f"/><path d="M210.112 114.666a1.338 1.338 0 0 1-2.675 0 1.337 1.337 0 0 1 2.675 0M185.681 104.507a1.337 1.337 0 1 1-2.674-.003 1.337 1.337 0 0 1 2.674.003M268.333 87.007a1.338 1.338 0 0 1-2.674 0 1.338 1.338 0 0 1 2.674 0M188.08 111.95a1.337 1.337 0 1 1-2.673-.002 1.337 1.337 0 0 1 2.673.002M172.583 124.93a1.337 1.337 0 1 1-2.675-.002 1.337 1.337 0 0 1 2.675.003M213.457 97.946a1.338 1.338 0 0 1-2.674 0 1.337 1.337 0 0 1 2.674 0M197.365 111.962a1.337 1.337 0 1 1-2.673-.003 1.337 1.337 0 0 1 2.673.003" fill="red"/><path d="M197.4 112.615a1.336 1.336 0 1 1-2.673-.002 1.336 1.336 0 0 1 2.673.002M176.907 125.12a1.336 1.336 0 1 1-2.673-.001 1.336 1.336 0 0 1 2.673.001M173.984 112.823a1.336 1.336 0 1 1-2.673-.002 1.336 1.336 0 0 1 2.673.002M203.781 124.09a1.337 1.337 0 1 1-2.674 0 1.337 1.337 0 0 1 2.674 0M206.244 118.14a1.337 1.337 0 1 1-2.674-.002 1.337 1.337 0 0 1 2.674.003M199.401 107.172a1.337 1.337 0 1 1-2.673-.002 1.337 1.337 0 0 1 2.673.002M243.497 93.724a1.338 1.338 0 0 1-2.673 0 1.336 1.336 0 0 1 2.673 0M288.61 86.51a1.338 1.338 0 0 1-2.674 0 1.338 1.338 0 0 1 2.675 0M193.112 121.485a1.337 1.337 0 1 1-2.673-.001 1.337 1.337 0 0 1 2.673 0M145.71 144.381a1.338 1.338 0 0 1-2.674 0 1.338 1.338 0 0 1 2.675 0M264.324 59.37a1.338 1.338 0 0 1-2.673 0 1.337 1.337 0 0 1 2.673 0M246.037 105.16a1.337 1.337 0 1 1-2.673-.002 1.337 1.337 0 0 1 2.673.002M256.324 96.82a1.337 1.337 0 1 1-2.674-.003 1.337 1.337 0 0 1 2.674.002M209.036 116.87a1.336 1.336 0 1 1-2.673-.002 1.336 1.336 0 0 1 2.673.002M203.13 110.184a1.336 1.336 0 1 1-2.672-.002 1.336 1.336 0 0 1 2.673.002M137.05 134.493a1.337 1.337 0 1 1-2.673-.002 1.337 1.337 0 0 1 2.674.002M249.719 112.832a1.338 1.338 0 0 1-2.674 0 1.337 1.337 0 0 1 2.674 0M189.287 130.533a1.337 1.337 0 1 1-2.674-.002 1.337 1.337 0 0 1 2.674.002M184.913 123.098a1.337 1.337 0 1 1-2.673-.002 1.337 1.337 0 0 1 2.673.002M232.785 88.619a1.338 1.338 0 0 1-2.674 0 1.338 1.338 0 0 1 2.674 0M241.223 103.859a1.337 1.337 0 1 1-2.674-.003 1.337 1.337 0 0 1 2.674.003M211.583 104.099a1.337 1.337 0 1 1-2.674-.003 1.337 1.337 0 0 1 2.674.003M227.19 98.1a1.337 1.337 0 1 1-2.674-.002 1.337 1.337 0 0 1 2.673.002M263.227 81.823a1.338 1.338 0 0 1-2.675 0 1.338 1.338 0 0 1 2.675 0M182.37 111.162a1.338 1.338 0 0 1-2.675 0 1.337 1.337 0 0 1 2.674 0M196.593 108.46a1.337 1.337 0 1 1-2.673-.003 1.337 1.337 0 0 1 2.673.002" fill="red"/><path d="M212.505 103.84a1.337 1.337 0 1 1-2.673-.002 1.337 1.337 0 0 1 2.673.002M234.521 99.856a1.338 1.338 0 0 1-2.674 0 1.338 1.338 0 0 1 2.674 0M227.753 82.904a1.337 1.337 0 1 1-2.673-.001 1.337 1.337 0 0 1 2.673.001M171.817 116.727a1.337 1.337 0 1 1-2.673-.002 1.337 1.337 0 0 1 2.673.002M243.61 101.24a1.338 1.338 0 0 1-2.675 0 1.337 1.337 0 0 1 2.674 0M177.785 123.351a1.337 1.337 0 0 1-2.673 0 1.336 1.336 0 0 1 2.673 0M208.24 98.15a1.338 1.338 0 0 1-2.675 0 1.337 1.337 0 0 1 2.675 0M256.897 87.47a1.337 1.337 0 1 1-2.674-.001 1.337 1.337 0 0 1 2.674.002M231.295 107.871a1.338 1.338 0 0 1-2.674 0 1.336 1.336 0 0 1 2.674 0M211.421 111.124a1.337 1.337 0 1 1-2.673-.002 1.337 1.337 0 0 1 2.673.002M193.664 123.328a1.337 1.337 0 1 1-2.674-.002 1.337 1.337 0 0 1 2.674.002M143.684 134.79a1.337 1.337 0 1 1-2.673-.003 1.337 1.337 0 0 1 2.673.002M182.617 117.069a1.338 1.338 0 0 1-2.674 0 1.338 1.338 0 0 1 2.674 0" fill="red"/><path d="M193.427 120.859a1.337 1.337 0 0 1-2.675 0 1.338 1.338 0 0 1 2.675 0M199.481 118.378a1.338 1.338 0 0 1-2.674 0 1.337 1.337 0 0 1 2.674 0M201.215 122.16a1.338 1.338 0 0 1-2.675 0 1.338 1.338 0 0 1 2.675 0M209.444 106.575a1.337 1.337 0 1 1-2.674-.001 1.337 1.337 0 0 1 2.674.001M197.413 115.632a1.337 1.337 0 1 1-2.674-.003 1.337 1.337 0 0 1 2.674.003M187.563 130.139a1.338 1.338 0 0 1-2.675 0 1.338 1.338 0 0 1 2.675 0M180.963 114.831a1.336 1.336 0 1 1-2.673-.001 1.336 1.336 0 0 1 2.673.001M212.77 101.148a1.337 1.337 0 1 1-2.673-.002 1.337 1.337 0 0 1 2.674.002M155.767 139.562a1.338 1.338 0 0 1-2.675 0 1.337 1.337 0 0 1 2.675 0M207.91 119.274a1.337 1.337 0 1 1-2.673-.001 1.337 1.337 0 0 1 2.674.001M202.572 118.63a1.337 1.337 0 1 1-2.674-.002 1.337 1.337 0 0 1 2.674.002M123.627 164.194a1.337 1.337 0 0 1-2.674 0 1.338 1.338 0 0 1 2.674 0M190.223 114.628a1.337 1.337 0 1 1-2.674-.002 1.337 1.337 0 0 1 2.674.002M251.53 90.181a1.337 1.337 0 0 1-2.674 0 1.337 1.337 0 0 1 2.675 0M190.852 104.44a1.337 1.337 0 1 1-2.673 0 1.337 1.337 0 0 1 2.673 0M288.279 68.35a1.336 1.336 0 1 1-2.673-.004 1.336 1.336 0 0 1 2.673.003M216.848 114.87a1.338 1.338 0 0 1-2.675 0 1.338 1.338 0 0 1 2.675 0M144.376 143.295a1.337 1.337 0 1 1-2.674-.001 1.337 1.337 0 0 1 2.674.001M251.023 102.736a1.337 1.337 0 1 1-2.674-.002 1.337 1.337 0 0 1 2.674.002M157.53 114.891a1.337 1.337 0 1 1-2.673-.002 1.337 1.337 0 0 1 2.674.002M242.025 95.687a1.337 1.337 0 1 1-2.673-.003 1.337 1.337 0 0 1 2.673.003M213.555 114.597a1.338 1.338 0 0 1-2.674 0 1.337 1.337 0 0 1 2.674 0M200.587 126.949a1.337 1.337 0 1 1-2.674-.002 1.337 1.337 0 0 1 2.674.002M281.783 79.052a1.337 1.337 0 1 1-2.674-.002 1.337 1.337 0 0 1 2.674.002M175.541 123.189a1.338 1.338 0 0 1-2.674 0 1.338 1.338 0 0 1 2.674 0M204.221 121.806a1.338 1.338 0 0 1-2.674 0 1.337 1.337 0 0 1 2.674 0" fill="red"/><path d="M209.772 106.414a1.338 1.338 0 0 1-2.675 0 1.337 1.337 0 0 1 2.675 0M180.368 123.231a1.337 1.337 0 1 1-2.674-.002 1.337 1.337 0 0 1 2.674.002M155.395 123.152a1.337 1.337 0 1 1-2.674-.002 1.337 1.337 0 0 1 2.674.002M232.69 110.184a1.338 1.338 0 0 1-2.674 0 1.337 1.337 0 0 1 2.675 0M236.685 91.116a1.336 1.336 0 1 1-2.673 0 1.336 1.336 0 0 1 2.673 0M213.172 116.145a1.337 1.337 0 1 1-2.674-.002 1.337 1.337 0 0 1 2.674.002M243.632 97.93a1.337 1.337 0 1 1-2.674-.002 1.337 1.337 0 0 1 2.674.002M190.581 121.11a1.336 1.336 0 1 1-2.672-.002 1.336 1.336 0 0 1 2.672.002M229.319 95.97a1.337 1.337 0 0 1-2.675 0 1.338 1.338 0 0 1 2.675 0M225.317 108.813a1.337 1.337 0 1 1-2.673 0 1.337 1.337 0 0 1 2.673 0M231.661 90.737a1.338 1.338 0 0 1-2.673 0 1.337 1.337 0 0 1 2.673 0M239.612 109.766a1.338 1.338 0 0 1-2.675 0 1.338 1.338 0 0 1 2.675 0M181.913 106.517a1.337 1.337 0 1 1-2.674-.002 1.337 1.337 0 0 1 2.674.002M221.641 103.629a1.337 1.337 0 1 1-2.673-.002 1.337 1.337 0 0 1 2.673.002M177.336 116.921a1.337 1.337 0 1 1-2.674-.002 1.337 1.337 0 0 1 2.674.002M151.06 138.22a1.337 1.337 0 1 1-2.674-.002 1.337 1.337 0 0 1 2.674.002M182.393 115.78a1.338 1.338 0 0 1-2.674 0 1.338 1.338 0 0 1 2.674 0M253.408 79.693a1.336 1.336 0 1 1-2.673-.003 1.336 1.336 0 0 1 2.673.003M178.132 111.478a1.337 1.337 0 1 1-2.674-.001 1.337 1.337 0 0 1 2.674.001M238.777 104.117a1.337 1.337 0 1 1-2.673-.002 1.337 1.337 0 0 1 2.673.002M223.943 98.796a1.338 1.338 0 0 1-2.675 0 1.337 1.337 0 0 1 2.675 0M170.164 128.423a1.338 1.338 0 0 1-2.675 0 1.337 1.337 0 0 1 2.675 0M240.596 101.562a1.336 1.336 0 1 1-2.673-.001 1.336 1.336 0 0 1 2.673 0M201.865 102.396a1.337 1.337 0 0 1-2.674 0 1.338 1.338 0 0 1 2.674 0M194.29 114.407a1.338 1.338 0 0 1-2.674 0 1.337 1.337 0 0 1 2.675 0" fill="red"/><path d="M228.4 96.017a1.336 1.336 0 1 1-2.673-.001 1.336 1.336 0 0 1 2.673 0M198.257 117.124a1.338 1.338 0 0 1-2.674 0 1.337 1.337 0 0 1 2.674 0M254.77 100.283a1.338 1.338 0 0 1-2.674 0 1.337 1.337 0 0 1 2.675 0" fill="red"/><path d="M305.453-432.644V-1640.62M305.453-651.175h-28.73M305.453-850.863h-28.73M305.453-1050.55h-28.73M305.453-1250.24h-28.73M305.453-1449.93h-28.73" fill="none" stroke="#000" stroke-width="5.008" stroke-linejoin="round" stroke-miterlimit="10" transform="matrix(.1334 0 0 .13327 0 224.347)"/><text style="-inkscape-font-specification:Helvetica" transform="matrix(1.33333 0 0 1.33213 27.289 141.17)" font-weight="400" font-size="8.02" font-family="Helvetica"><tspan y="0" x="0 2.6706872">-2</tspan><tspan y="-19.978" x="0 2.6706872">-1</tspan><tspan y="-39.956" x="2.406">0</tspan><tspan y="-59.934" x="2.406">1</tspan><tspan y="-79.913" x="2.406">2</tspan><tspan y="21.863" x="-10.827346 -8.1566591 -3.6974933 -1.4679106 2.9912548">-3.09</tspan><tspan y="-98.989" x="-8.421092 -3.9619267 -1.7323442 2.7268212">2.95</tspan></text><path d="M420.354-1039.28H362.9M420.354-1075.84H362.9M420.354-757.27H362.9M420.354-1081.04H362.9M420.354-869.832H362.9M420.354-1186.56H362.9M420.354-1064.83H362.9M420.354-944.651H362.9M420.354-1367.1H362.9M420.354-996.58H362.9M420.354-893.44H362.9M420.354-1025.73H362.9M420.354-1092.47H362.9M420.354-901.01H362.9M420.354-836.739H362.9M420.354-766.778H362.9M420.354-1026.92H362.9M420.354-880.474H362.9M420.354-983.403H362.9M420.354-1107.7H362.9M420.354-1262.9H362.9M420.354-1290.15H362.9M420.354-1037.91H362.9M420.354-1178.15H362.9M420.354-686.078H362.9M420.354-1147.99H362.9M420.354-1103.16H362.9M420.354-979.405H362.9M420.354-1211.14H362.9M420.354-861.125H362.9M420.354-1152.21H362.9M420.354-972.319H362.9M420.354-685.824H362.9M420.354-1193.04H362.9M420.354-1068.88H362.9M420.354-799.937H362.9M420.354-1009.87H362.9M420.354-1048.04H362.9M420.354-1021.2H362.9M420.354-1217.26H362.9M420.354-948.281H362.9M420.354-1281.6H362.9M420.354-1235.74H362.9M420.354-876.233H362.9M420.354-1058.59H362.9M420.354-1044.51H362.9M420.354-890.654H362.9M420.354-1031.15H362.9M420.354-1009.09H362.9M420.354-775.993H362.9M420.354-1514H362.9M420.354-1123.17H362.9M420.354-1061.56H362.9M420.354-1251.09H362.9M420.354-666.28H362.9M420.354-1422.53H362.9M420.354-432.644H362.9M420.354-886.539H362.9M420.354-1050.44H362.9M420.354-677.546H362.9M420.354-901.921H362.9M420.354-1322.26H362.9M420.354-1070.34H362.9M420.354-1141.05H362.9M420.354-1071.54H362.9M420.354-1198.3H362.9M420.354-1004.84H362.9M420.354-769.728H362.9M420.354-1200.39H362.9M420.354-895.859H362.9M420.354-879.414H362.9M420.354-731.532H362.9M420.354-1002.13H362.9M420.354-1445.14H362.9M420.354-1067.59H362.9M420.354-819.579H362.9M420.354-959.454H362.9M420.354-1046H362.9M420.354-1168.43H362.9M420.354-799.027H362.9M420.354-1092.38H362.9M420.354-1640.62H362.9M420.354-1006.81H362.9M420.354-1052.35H362.9M420.354-974.07H362.9M420.354-848.909H362.9M420.354-1168.62H362.9M420.354-1146.39H362.9M420.354-1004.91H362.9M420.354-1126.87H362.9M420.354-952.076H362.9M420.354-943.889H362.9M420.354-1097.87H362.9M420.354-682.158H362.9M420.354-1350.13H362.9M420.354-1189.39H362.9M420.354-984.079H362.9M420.354-890.47H362.9M420.354-1115.71H362.9M420.354-1486.98H362.9" fill="none" stroke="#00f" stroke-width="5.008" stroke-linejoin="round" stroke-miterlimit="10" transform="matrix(.1334 0 0 .13327 0 224.347)"/><path d="M362.9-822.975h-57.447M362.9-899.212h-57.447M362.9-1030.51h-57.447M362.9-843.359h-57.447M362.9-745.968h-57.447M362.9-948.434h-57.447M362.9-843.273h-57.447M362.9-838.373h-57.447M362.9-744.541h-57.447M362.9-836.817h-57.447M362.9-752.264h-57.447M362.9-796.913h-57.447M362.9-879.211h-57.447M362.9-980.12h-57.447M362.9-1034.25h-57.447M362.9-771.815h-57.447M362.9-600.019h-57.447M362.9-1237.89h-57.447M362.9-894.308h-57.447M362.9-956.891h-57.447M362.9-806.448h-57.447M362.9-856.615h-57.447M362.9-674.213h-57.447M362.9-836.743h-57.447M362.9-703.929h-57.447M362.9-759.712h-57.447M362.9-1018.42h-57.447M362.9-904.074h-57.447M362.9-902.276h-57.447M362.9-947.285h-57.447M362.9-1069.42h-57.447M362.9-849.276h-57.447M362.9-869.555h-57.447M362.9-904.211h-57.447M362.9-934.103h-57.447M362.9-1061.3h-57.447M362.9-807.519h-57.447M362.9-923.719h-57.447M362.9-757.813h-57.447M362.9-946.898h-57.447M362.9-1027.04h-57.447M362.9-873.963h-57.447M362.9-849.557h-57.447M362.9-757.985h-57.447M362.9-671.989h-57.447M362.9-804.955h-57.447M362.9-776.517h-57.447M362.9-795.127h-57.447M362.9-766.758h-57.447M362.9-883.69h-57.447M362.9-815.737h-57.447M362.9-706.888h-57.447M362.9-821.744h-57.447M362.9-924.411h-57.447M362.9-636.18h-57.447M362.9-788.405h-57.447M362.9-793.239h-57.447M362.9-451.355h-57.447M362.9-823.264h-57.447M362.9-1006.7h-57.447M362.9-899.709h-57.447M362.9-1170.52h-57.447M362.9-821.447h-57.447M362.9-608.168h-57.447M362.9-912.496h-57.447M362.9-821.291h-57.447M362.9-965.394h-57.447M362.9-823.499h-57.447M362.9-730.82h-57.447M362.9-1090.2h-57.447M362.9-759.032h-57.447M362.9-769.412h-57.447M362.9-884.897h-57.447M362.9-758.716h-57.447M362.9-759.31h-57.447M362.9-856.611h-57.447M362.9-999.683h-57.447M362.9-811.888h-57.447M362.9-948.559h-57.447M362.9-774.637h-57.447M362.9-963.265h-57.447M362.9-866.897h-57.447M362.9-1002.53h-57.447M362.9-859.749h-57.447M362.9-884.127h-57.447M362.9-905.797h-57.447M362.9-806.061h-57.447M362.9-646.251h-57.447M362.9-814.624h-57.447M362.9-1085.4h-57.447M362.9-846.9h-57.447M362.9-902.136h-57.447M362.9-942.06h-57.447M362.9-719.761h-57.447M362.9-921.304h-57.447M362.9-915.044h-57.447M362.9-824.929h-57.447M362.9-962.909h-57.447M362.9-804.541h-57.447M362.9-930.906h-57.447" fill="none" stroke="red" stroke-width="5.008" stroke-linejoin="round" stroke-miterlimit="10" transform="matrix(.1334 0 0 .13327 0 224.347)"/><text style="-inkscape-font-specification:Helvetica" transform="matrix(0 -1.33214 1.33333 0 10.877 91)" font-weight="400" font-size="10.026" font-family="Helvetica"><tspan y="0" x="0">Y</tspan></text><path d="M502.891-258.87H2153.6M790.582-258.87v28.341M1039.29-258.87v28.341M1288-258.87v28.341M1536.71-258.87v28.341M1785.42-258.87v28.341" fill="none" stroke="#000" stroke-width="5.008" stroke-linejoin="round" stroke-miterlimit="10" transform="matrix(.1334 0 0 .13327 0 224.347)"/><text style="-inkscape-font-specification:Helvetica" transform="matrix(1.33333 0 0 1.33213 100.645 203.24)" font-weight="400" font-size="8.02" font-family="Helvetica"><tspan y="0" x="0 2.6706872 26.084835 50.966896 75.848961 100.73102 -34.195347 -31.52466 -27.065496 -24.835913 -20.376747 132.15123 136.6104 138.83998 143.29915">-10123-2.164.48</tspan></text><path d="M913.762-372.249v56.693M916.83-372.249v56.693M1027.65-372.249v56.693M1073.05-372.249v56.693M970.615-372.249v56.693M1041.16-372.249v56.693M973.379-372.249v56.693M702.396-372.249v56.693M1516.33-372.249v56.693M951.729-372.249v56.693M1140.69-372.249v56.693M1114.77-372.249v56.693M1179.08-372.249v56.693M1092.38-372.249v56.693M1153.01-372.249v56.693M1134.43-372.249v56.693M1007.19-372.249v56.693M679.941-372.249v56.693M776.194-372.249v56.693M979.021-372.249v56.693M1431.69-372.249v56.693M1247.81-372.249v56.693M1151.6-372.249v56.693M1067.24-372.249v56.693M1167.71-372.249v56.693M1091.33-372.249v56.693M1208.46-372.249v56.693M531.972-372.249v56.693M892.771-372.249v56.693M1141.55-372.249v56.693M934.33-372.249v56.693M1107.11-372.249v56.693M1356.96-372.249v56.693M835.808-372.249v56.693M1349.96-372.249v56.693M1181.11-372.249v56.693M979.416-372.249v56.693M987.322-372.249v56.693M503.426-372.249v56.693M1238.83-372.249v56.693M1406.62-372.249v56.693M1248.22-372.249v56.693M762.251-372.249v56.693M916.061-372.249v56.693M797.411-372.249v56.693M666.076-372.249v56.693M870.547-372.249v56.693M1317.22-372.249v56.693M1088.16-372.249v56.693M934.612-372.249v56.693M1321.31-372.249v56.693M872.526-372.249v56.693M1273.25-372.249v56.693M852.66-372.249v56.693M1096.14-372.249v56.693M1225.16-372.249v56.693M864.908-372.249v56.693M1317.53-372.249v56.693M1350.35-372.249v56.693M1203.55-372.249v56.693M917.596-372.249v56.693M1112-372.249v56.693M1390.47-372.249v56.693M1035.2-372.249v56.693M680.503-372.249v56.693M1015.8-372.249v56.693M797.767-372.249v56.693M1222.06-372.249v56.693M1048.58-372.249v56.693M654.987-372.249v56.693M985.514-372.249v56.693M1374.57-372.249v56.693M1228.92-372.249v56.693M1176.89-372.249v56.693M643.602-372.249v56.693M886.633-372.249v56.693M1304.02-372.249v56.693M1168.38-372.249v56.693M1007.4-372.249v56.693M1186.69-372.249v56.693M1138.06-372.249v56.693M775.14-372.249v56.693M933.14-372.249v56.693M502.891-372.249v56.693M1431.38-372.249v56.693M725.725-372.249v56.693M870.308-372.249v56.693M1154.02-372.249v56.693M840.587-372.249v56.693M1052.11-372.249v56.693M856.736-372.249v56.693M1073.13-372.249v56.693M1023.23-372.249v56.693M1341.94-372.249v56.693M819.527-372.249v56.693M1329.96-372.249v56.693M990.395-372.249v56.693M1337.75-372.249v56.693M965.516-372.249v56.693M1453.48-372.249v56.693" fill="none" stroke="#00f" stroke-width="5.008" stroke-linejoin="round" stroke-miterlimit="10" transform="matrix(.1334 0 0 .13327 0 224.347)"/><path d="M1565.12-315.556v56.686M1381.97-315.556v56.686M2001.58-315.556v56.686M1399.95-315.556v56.686M1283.77-315.556v56.686M1590.2-315.556v56.686M1469.57-315.556v56.686M1469.82-315.556v56.686M1316.19-315.556v56.686M1294.29-315.556v56.686M1517.67-315.556v56.686M1536.12-315.556v56.686M1484.83-315.556v56.686M1815.4-315.556v56.686M2153.6-315.556v56.686M1437.68-315.556v56.686M1082.32-315.556v56.686M1971.53-315.556v56.686M1834.44-315.556v56.686M1911.56-315.556v56.686M1557.05-315.556v56.686M1512.79-315.556v56.686M1017.4-315.556v56.686M1862.04-315.556v56.686M1409-315.556v56.686M1376.21-315.556v56.686M1735.09-315.556v56.686M1798.35-315.556v56.686M1576.14-315.556v56.686M1693.15-315.556v56.686M1963.3-315.556v56.686M1357.13-315.556v56.686M1463.78-315.556v56.686M1583.06-315.556v56.686M1748.11-315.556v56.686M1697.37-315.556v56.686M1278.04-315.556v56.686M1816.24-315.556v56.686M1322.78-315.556v56.686M1551.08-315.556v56.686M1915.86-315.556v56.686M1723.92-315.556v56.686M1574.94-315.556v56.686M1441.81-315.556v56.686M1067.13-315.556v56.686M1359-315.556v56.686M1440.03-315.556v56.686M1485.42-315.556v56.686M1498.42-315.556v56.686M1560.11-315.556v56.686M1469.92-315.556v56.686M1396.07-315.556v56.686M1346.6-315.556v56.686M1585.05-315.556v56.686M1157.71-315.556v56.686M1548.62-315.556v56.686M1508.6-315.556v56.686M916.772-315.556v56.686M1416.02-315.556v56.686M1875.61-315.556v56.686M1420.74-315.556v56.686M2151.12-315.556v56.686M1615.61-315.556v56.686M1072.32-315.556v56.686M1871.82-315.556v56.686M1170.93-315.556v56.686M1804.37-315.556v56.686M1590.93-315.556v56.686M1493.71-315.556v56.686M2102.41-315.556v56.686M1305.95-315.556v56.686M1520.96-315.556v56.686M1562.56-315.556v56.686M1342.14-315.556v56.686M1154.92-315.556v56.686M1734.38-315.556v56.686M1764.34-315.556v56.686M1588.06-315.556v56.686M1816.41-315.556v56.686M1418.71-315.556v56.686M1709.1-315.556v56.686M1679.11-315.556v56.686M1726.67-315.556v56.686M1786.27-315.556v56.686M1353.72-315.556v56.686M1651.55-315.556v56.686M1319.41-315.556v56.686M1122.43-315.556v56.686M1357.32-315.556v56.686M1889.7-315.556v56.686M1325.38-315.556v56.686M1780.02-315.556v56.686M1668.8-315.556v56.686M1265.64-315.556v56.686M1793.65-315.556v56.686M1503.3-315.556v56.686M1446.51-315.556v56.686M1702.23-315.556v56.686M1476.24-315.556v56.686M1899.9-315.556v56.686" fill="none" stroke="red" stroke-width="5.008" stroke-linejoin="round" stroke-miterlimit="10" transform="matrix(.1334 0 0 .13327 0 224.347)"/><text style="-inkscape-font-specification:Helvetica" transform="matrix(1.33333 0 0 1.33213 172.365 221.696)" font-weight="400" font-size="10.026" font-family="Helvetica"><tspan y="0" x="0">X</tspan></text></svg>