<svg xmlns="http://www.w3.org/2000/svg" height="224.347" width="300.32"><path d="M137.317 5.696a1.337 1.337 0 0 1-2.673 0 1.336 1.336 0 0 1 2.673 0M89.446 12.83a1.337 1.337 0 1 1-2.674-.003 1.337 1.337 0 0 1 2.674.002M134.755 69.91a1.337 1.337 0 1 1-2.674-.001 1.337 1.337 0 0 1 2.674.002M135.032 87.799a1.336 1.336 0 1 1-2.672 0 1.336 1.336 0 0 1 2.672 0M122.74 41.025a1.337 1.337 0 1 1-2.674-.002 1.337 1.337 0 0 1 2.674.002M144.57 97.672a1.338 1.338 0 0 1-2.675 0 1.337 1.337 0 0 1 2.674 0M110.918 79.44a1.337 1.337 0 1 1-2.674-.002 1.337 1.337 0 0 1 2.674.002M96.006 28.008a1.337 1.337 0 0 1-2.674 0 1.337 1.337 0 0 1 2.674 0M123.952 110.6a1.337 1.337 0 0 1-2.674 0 1.337 1.337 0 0 1 2.674 0M113.698 98.905a1.337 1.337 0 0 1-2.673 0 1.337 1.337 0 0 1 2.673 0M92.859 40.065a1.337 1.337 0 0 1-2.674 0 1.337 1.337 0 0 1 2.674 0M158.16 141.505a1.337 1.337 0 1 1-2.673-.003 1.337 1.337 0 0 1 2.673.003M124.36 38.09a1.337 1.337 0 0 1-2.674 0 1.338 1.338 0 0 1 2.674 0M150.97 76.413a1.338 1.338 0 0 1-2.675 0 1.337 1.337 0 0 1 2.674 0M123.674 78.377a1.337 1.337 0 1 1-2.674-.002 1.337 1.337 0 0 1 2.674.002M148.633 78.601a1.337 1.337 0 1 1-2.673-.001 1.337 1.337 0 0 1 2.673.001M155.385 87.336a1.337 1.337 0 1 1-2.673-.001 1.337 1.337 0 0 1 2.673.001M136.821 74.933a1.338 1.338 0 0 1-2.674 0 1.337 1.337 0 0 1 2.674 0M95.195 90.133a1.338 1.338 0 0 1-2.674 0 1.336 1.336 0 0 1 2.674 0M125.216 102.315a1.338 1.338 0 0 1-2.674 0 1.337 1.337 0 0 1 2.674 0M101.957 35.144a1.337 1.337 0 0 1-2.674 0 1.337 1.337 0 0 1 2.674 0M150.78 72.979a1.337 1.337 0 1 1-2.674-.002 1.337 1.337 0 0 1 2.674.002M121.567 55.784a1.337 1.337 0 0 1-2.674 0 1.336 1.336 0 0 1 2.674 0M111.547 51.75a1.337 1.337 0 0 1-2.674 0 1.336 1.336 0 0 1 2.674 0M154.052 79.315a1.337 1.337 0 1 1-2.674-.002 1.337 1.337 0 0 1 2.674.002M164.935 86.259a1.337 1.337 0 1 1-2.674-.002 1.337 1.337 0 0 1 2.674.002M97.238 56.756a1.337 1.337 0 0 1-2.674 0 1.337 1.337 0 0 1 2.674 0M134.327 84.179a1.338 1.338 0 0 1-2.675 0 1.337 1.337 0 0 1 2.675 0M152.199 53.483a1.337 1.337 0 1 1-2.674-.002 1.337 1.337 0 0 1 2.674.002M132.506 113.54a1.337 1.337 0 1 1-2.674-.002 1.337 1.337 0 0 1 2.674.001M195.167 71.77a1.337 1.337 0 1 1-2.674-.003 1.337 1.337 0 0 1 2.674.002M126.31 68.397a1.337 1.337 0 1 1-2.675-.002 1.337 1.337 0 0 1 2.674.002M154.527 21.33a1.338 1.338 0 0 1-2.674 0 1.337 1.337 0 0 1 2.674 0M95.756 7.559a1.337 1.337 0 1 1-2.674-.002 1.337 1.337 0 0 1 2.674.002" fill="#00f"/><path d="M112.386 81.316a1.337 1.337 0 0 1-2.673 0 1.336 1.336 0 0 1 2.673 0M149.255 97.953a1.337 1.337 0 1 1-2.674-.002 1.337 1.337 0 0 1 2.674.002M156.281 111.9a1.338 1.338 0 0 1-2.674 0 1.337 1.337 0 0 1 2.674 0M144.55 94.338a1.336 1.336 0 1 1-2.672-.002 1.336 1.336 0 0 1 2.673.002M205.417 72.757a1.338 1.338 0 0 1-2.674 0 1.337 1.337 0 0 1 2.674 0M118.612 119.411a1.337 1.337 0 0 1-2.674 0 1.337 1.337 0 0 1 2.674 0M116.678 90.675a1.337 1.337 0 0 1-2.674 0 1.337 1.337 0 0 1 2.674 0M168.519 52.264a1.337 1.337 0 1 1-2.674-.001 1.337 1.337 0 0 1 2.674.001M108.394 19.63a1.337 1.337 0 1 1-2.674-.001 1.337 1.337 0 0 1 2.674.002M206.868 36.176a1.337 1.337 0 0 1-2.673 0 1.336 1.336 0 0 1 2.673 0M116.91 96.567a1.338 1.338 0 0 1-2.674 0 1.337 1.337 0 0 1 2.674 0M125.098 147.525a1.338 1.338 0 0 1-2.673 0 1.337 1.337 0 0 1 2.673 0M171.605 87.73a1.338 1.338 0 0 1-2.674 0 1.337 1.337 0 0 1 2.674 0M109.591 59.807a1.337 1.337 0 1 1-2.674-.003 1.337 1.337 0 0 1 2.674.003M165.39 70.981a1.338 1.338 0 0 1-2.674 0 1.337 1.337 0 0 1 2.675 0M160.69 95.458a1.337 1.337 0 1 1-2.674-.002 1.337 1.337 0 0 1 2.673.002M100.173 93.887a1.337 1.337 0 0 1-2.674 0 1.337 1.337 0 0 1 2.674 0M162.048 56.304a1.338 1.338 0 0 1-2.675 0 1.337 1.337 0 0 1 2.675 0M146.09 21.124a1.338 1.338 0 0 1-2.675 0 1.338 1.338 0 0 1 2.674 0M116.988 49.444a1.337 1.337 0 1 1-2.674-.002 1.337 1.337 0 0 1 2.674.002M114.564 154.675a1.338 1.338 0 0 1-2.674 0 1.337 1.337 0 0 1 2.674 0M135.627 104.274a1.338 1.338 0 0 1-2.675 0 1.338 1.338 0 0 1 2.675 0M142.899 113.117a1.337 1.337 0 1 1-2.674-.002 1.337 1.337 0 0 1 2.674.002M108.214 106.76a1.337 1.337 0 1 1-2.674-.003 1.337 1.337 0 0 1 2.674.003" fill="#00f"/><path d="M145.252 21.09a1.338 1.338 0 0 1-2.673 0 1.337 1.337 0 0 1 2.673 0M131.016 59.296a1.337 1.337 0 1 1-2.673-.001 1.337 1.337 0 0 1 2.673.001M107.794 71.959a1.337 1.337 0 1 1-2.674-.002 1.337 1.337 0 0 1 2.674.002M102.015 77.313a1.337 1.337 0 0 1-2.674 0 1.336 1.336 0 0 1 2.674 0M116.745 143.821a1.337 1.337 0 1 1-2.674-.002 1.337 1.337 0 0 1 2.674.002M108.913 83.856a1.336 1.336 0 1 1-2.673 0 1.336 1.336 0 0 1 2.673 0M169.779 95.635a1.337 1.337 0 1 1-2.674-.002 1.337 1.337 0 0 1 2.674.002M98.16 78.961a1.336 1.336 0 1 1-2.672-.002 1.336 1.336 0 0 1 2.672.002M139.328 102.594a1.338 1.338 0 0 1-2.675 0 1.337 1.337 0 0 1 2.675 0M151.885 48.127a1.338 1.338 0 0 1-2.673 0 1.337 1.337 0 0 1 2.673 0M103.599 85.06a1.337 1.337 0 1 1-2.674-.002 1.337 1.337 0 0 1 2.674.002M146.963 63.46a1.338 1.338 0 0 1-2.675 0 1.338 1.338 0 0 1 2.675 0M119.347 51.248a1.337 1.337 0 0 1-2.674 0 1.336 1.336 0 0 1 2.674 0" fill="#00f"/><path d="M106.383 71.63a1.337 1.337 0 1 1-2.674-.001 1.337 1.337 0 0 1 2.674.002M87.655 71.716a1.337 1.337 0 1 1-2.674-.002 1.337 1.337 0 0 1 2.674.002M104.223 38.77a1.337 1.337 0 1 1-2.674-.001 1.337 1.337 0 0 1 2.674.002M190.627 38.143a1.338 1.338 0 0 1-2.675 0 1.338 1.338 0 0 1 2.675 0M84.078 120.081a1.338 1.338 0 0 1-2.674 0 1.337 1.337 0 0 1 2.674 0M113.836 120.36a1.337 1.337 0 1 1-2.673-.002 1.337 1.337 0 0 1 2.673.003M97.57 22.088a1.337 1.337 0 0 1-2.675 0 1.337 1.337 0 0 1 2.674 0M159.692 83.215a1.337 1.337 0 1 1-2.674-.002 1.337 1.337 0 0 1 2.674.002M105.246 66.59a1.337 1.337 0 1 1-2.674-.001 1.337 1.337 0 0 1 2.674.002M120.625 64.26a1.337 1.337 0 1 1-2.674-.002 1.337 1.337 0 0 1 2.674.002" fill="#00f"/><path d="M158.439 81.928a1.338 1.338 0 0 1-2.675 0 1.338 1.338 0 0 1 2.675 0M165.199 67.953a1.337 1.337 0 0 1-2.675 0 1.337 1.337 0 0 1 2.675 0M99.58 87.492a1.337 1.337 0 1 1-2.675-.002 1.337 1.337 0 0 1 2.675.002M128.793 32.583a1.337 1.337 0 1 1-2.674-.002 1.337 1.337 0 0 1 2.674.002M147.273 51.563a1.338 1.338 0 0 1-2.674 0 1.337 1.337 0 1 1 2.675 0M134.66 101.173a1.337 1.337 0 1 1-2.673-.001 1.337 1.337 0 0 1 2.673.001M195.595 48.07a1.337 1.337 0 1 1-2.674 0 1.337 1.337 0 0 1 2.674 0M176.99 121.85a1.336 1.336 0 1 1-2.672-.002 1.336 1.336 0 0 1 2.673.002M178.228 116.408a1.336 1.336 0 1 1-2.673-.002 1.336 1.336 0 0 1 2.673.002M68.419 117.744a1.337 1.337 0 0 1-2.674 0 1.337 1.337 0 0 1 2.674 0M123.608 80.55a1.337 1.337 0 0 1-2.674 0 1.337 1.337 0 0 1 2.674 0M127.242 54.207a1.337 1.337 0 0 1-2.674 0 1.337 1.337 0 0 1 2.674 0M99.779 38.29a1.336 1.336 0 1 1-2.673-.001 1.336 1.336 0 0 1 2.673 0M109.386 94.298a1.338 1.338 0 0 1-2.673 0 1.337 1.337 0 0 1 2.673 0M158.53 102.931a1.338 1.338 0 0 1-2.674 0 1.337 1.337 0 0 1 2.675 0M89.715 66.337a1.337 1.337 0 0 1-2.674 0 1.337 1.337 0 0 1 2.674 0M172.955 48.943a1.338 1.338 0 0 1-2.675 0 1.337 1.337 0 0 1 2.675 0M188.933 115.378a1.337 1.337 0 1 1-2.674-.002 1.337 1.337 0 0 1 2.674.002M135.437 88.301a1.337 1.337 0 1 1-2.674-.002 1.337 1.337 0 0 1 2.674.002" fill="#00f"/><path d="M196.043 118.272a1.338 1.338 0 0 1-2.675 0 1.337 1.337 0 0 1 2.675 0M166.208 144.538a1.336 1.336 0 1 1-2.673 0 1.336 1.336 0 0 1 2.673 0M195.036 109.632a1.337 1.337 0 1 1-2.674-.002 1.337 1.337 0 0 1 2.674.002M172.901 132.42a1.337 1.337 0 1 1-2.673-.001 1.337 1.337 0 0 1 2.673.002M244.648 97.651a1.337 1.337 0 1 1-2.674-.002 1.337 1.337 0 0 1 2.674.002M134.727 146.255a1.337 1.337 0 1 1-2.674-.001 1.337 1.337 0 0 1 2.674.001M199.619 113.788a1.337 1.337 0 1 1-2.674-.001 1.337 1.337 0 0 1 2.674.001M262.356 76.681a1.337 1.337 0 1 1-2.674-.002 1.337 1.337 0 0 1 2.674.002M187.823 116.41a1.337 1.337 0 1 1-2.674-.002 1.337 1.337 0 0 1 2.674.003M222.317 84.368a1.338 1.338 0 0 1-2.674 0 1.337 1.337 0 0 1 2.674 0M129.28 147.672a1.337 1.337 0 1 1-2.675-.002 1.337 1.337 0 0 1 2.674.002M154.31 124.244a1.338 1.338 0 0 1-2.675 0 1.337 1.337 0 0 1 2.674 0M137.472 153.243a1.337 1.337 0 0 1-2.675 0 1.338 1.338 0 0 1 2.675 0M235.05 109.258a1.337 1.337 0 1 1-2.675-.003 1.337 1.337 0 0 1 2.674.003M200.088 134.392a1.338 1.338 0 0 1-2.675 0 1.337 1.337 0 0 1 2.675 0M175.952 128.02a1.337 1.337 0 1 1-2.673-.002 1.337 1.337 0 0 1 2.673.001M207.555 107.376a1.337 1.337 0 1 1-2.674-.001 1.337 1.337 0 0 1 2.674.001M258.212 86.572a1.336 1.336 0 1 1-2.673-.003 1.336 1.336 0 0 1 2.673.003M176.373 116.54a1.338 1.338 0 0 1-2.673 0 1.336 1.336 0 0 1 2.673 0M218.905 97.926a1.337 1.337 0 1 1-2.673-.002 1.337 1.337 0 0 1 2.673.002M212.368 118.005a1.337 1.337 0 1 1-2.673-.003 1.337 1.337 0 0 1 2.673.003M180.997 98.443a1.338 1.338 0 0 1-2.674 0 1.337 1.337 0 0 1 2.674 0M174.041 108.462a1.336 1.336 0 1 1-2.672-.002 1.336 1.336 0 0 1 2.672.002M220.207 91.847a1.338 1.338 0 0 1-2.675 0 1.338 1.338 0 0 1 2.675 0M214.643 108.182a1.338 1.338 0 0 1-2.675 0 1.338 1.338 0 0 1 2.675 0M172.233 104.578a1.336 1.336 0 1 1-2.672-.002 1.336 1.336 0 0 1 2.672.002M243.464 81.496a1.337 1.337 0 1 1-2.674-.002 1.337 1.337 0 0 1 2.674.002M201.147 94.857a1.338 1.338 0 0 1-2.675 0 1.338 1.338 0 0 1 2.675 0M130.556 151.644a1.337 1.337 0 0 1-2.674 0 1.337 1.337 0 0 1 2.674 0" fill="red"/><path d="M222.884 84.204a1.338 1.338 0 0 1-2.675 0 1.338 1.338 0 0 1 2.675 0M239.283 94.485a1.337 1.337 0 1 1-2.674-.002 1.337 1.337 0 0 1 2.674.002M181.979 127.53a1.338 1.338 0 0 1-2.675 0 1.337 1.337 0 0 1 2.675 0M232.315 108.075a1.337 1.337 0 1 1-2.675-.002 1.337 1.337 0 0 1 2.675.002M214.813 112.488a1.337 1.337 0 1 1-2.673-.002 1.337 1.337 0 0 1 2.673.002M134.995 160.519a1.337 1.337 0 0 1-2.674 0 1.337 1.337 0 0 1 2.674 0M164.521 134.207a1.338 1.338 0 0 1-2.674 0 1.338 1.338 0 0 1 2.674 0M185.93 128.81a1.337 1.337 0 1 1-2.674-.002 1.337 1.337 0 0 1 2.673.002M250.22 75.599a1.337 1.337 0 1 1-2.673-.002 1.337 1.337 0 0 1 2.673.002M236.153 74.123a1.337 1.337 0 1 1-2.673-.002 1.337 1.337 0 0 1 2.673.002M147.676 140.973a1.338 1.338 0 0 1-2.673 0 1.337 1.337 0 0 1 2.673 0M242.79 92.166a1.338 1.338 0 0 1-2.674 0 1.337 1.337 0 0 1 2.675 0M193.992 124.759a1.337 1.337 0 1 1-2.673-.003 1.337 1.337 0 0 1 2.673.003M241.395 77.887a1.337 1.337 0 1 1-2.674-.002 1.337 1.337 0 0 1 2.674.002M163.144 144.472a1.337 1.337 0 1 1-2.674-.003 1.337 1.337 0 0 1 2.674.003M184.819 99.703a1.336 1.336 0 1 1-2.673-.001 1.336 1.336 0 0 1 2.673 0M176.647 112.691a1.337 1.337 0 1 1-2.674-.001 1.337 1.337 0 0 1 2.674.001M210.337 129.613a1.337 1.337 0 1 1-2.673-.001 1.337 1.337 0 0 1 2.673.001M126.945 150.781a1.337 1.337 0 1 1-2.674-.003 1.337 1.337 0 0 1 2.674.003M195.323 117.47a1.337 1.337 0 1 1-2.674-.002 1.337 1.337 0 0 1 2.674.002M187.833 109.075a1.338 1.338 0 0 1-2.674 0 1.337 1.337 0 0 1 2.674 0M201.356 93.773a1.337 1.337 0 1 1-2.674-.002 1.337 1.337 0 0 1 2.674.002M180.353 120.059a1.337 1.337 0 0 1-2.674 0 1.338 1.338 0 0 1 2.674 0M183.388 125.067a1.337 1.337 0 1 1-2.674-.002 1.337 1.337 0 0 1 2.674.002M174.083 155.02a1.337 1.337 0 1 1-2.674-.003 1.337 1.337 0 0 1 2.674.002M168.663 132.352a1.336 1.336 0 1 1-2.673-.002 1.336 1.336 0 0 1 2.673.002M183.84 103.415a1.338 1.338 0 0 1-2.673 0 1.336 1.336 0 0 1 2.673 0M142.005 146.236a1.338 1.338 0 0 1-2.674 0 1.337 1.337 0 0 1 2.674 0M172.619 115.289a1.336 1.336 0 1 1-2.673-.001 1.336 1.336 0 0 1 2.673 0M248.273 83.064a1.337 1.337 0 1 1-2.674-.002 1.337 1.337 0 0 1 2.674.002" fill="red"/><path d="M165.315 145.644a1.337 1.337 0 0 1-2.675 0 1.337 1.337 0 0 1 2.675 0M145.324 138.372a1.337 1.337 0 1 1-2.673-.003 1.337 1.337 0 0 1 2.673.003M182.06 107.7a1.337 1.337 0 1 1-2.673-.003 1.337 1.337 0 0 1 2.673.002M216.01 96.64a1.336 1.336 0 1 1-2.673-.002 1.336 1.336 0 0 1 2.672.001M204.476 99.967a1.337 1.337 0 1 1-2.674-.002 1.337 1.337 0 0 1 2.674.002M202.675 108.263a1.337 1.337 0 1 1-2.674-.002 1.337 1.337 0 0 1 2.674.002M176.321 132.899a1.337 1.337 0 1 1-2.673-.002 1.337 1.337 0 0 1 2.673.002M249.093 81.51a1.337 1.337 0 1 1-2.673 0 1.337 1.337 0 0 1 2.673 0M179.132 117.401a1.337 1.337 0 1 1-2.674-.002 1.337 1.337 0 0 1 2.674.002M170.248 127.435a1.337 1.337 0 1 1-2.673-.001 1.337 1.337 0 0 1 2.673 0M119.734 166.688a1.338 1.338 0 0 1-2.674 0 1.337 1.337 0 0 1 2.674 0M195.121 112.083a1.337 1.337 0 1 1-2.673-.003 1.337 1.337 0 0 1 2.673.003" fill="red"/><path d="M177.863 131.2a1.337 1.337 0 1 1-2.675-.003 1.337 1.337 0 0 1 2.675.003M238.36 71.901a1.338 1.338 0 0 1-2.675 0 1.337 1.337 0 0 1 2.675 0M187.736 109.982a1.338 1.338 0 0 1-2.675 0 1.338 1.338 0 0 1 2.675 0M185.603 93.81a1.337 1.337 0 1 1-2.674-.002 1.337 1.337 0 0 1 2.674.002M137.252 137.704a1.337 1.337 0 1 1-2.674-.002 1.337 1.337 0 0 1 2.674.002M288.61 72.916a1.338 1.338 0 0 1-2.674 0 1.338 1.338 0 0 1 2.675 0M204.617 115.458a1.338 1.338 0 0 1-2.674 0 1.337 1.337 0 0 1 2.674 0M258.777 90.363a1.337 1.337 0 0 1-2.673 0 1.336 1.336 0 1 1 2.673 0M208.027 111.47a1.338 1.338 0 0 1-2.675 0 1.337 1.337 0 0 1 2.675 0M170.5 105.973a1.337 1.337 0 1 1-2.673-.002 1.337 1.337 0 0 1 2.673.002M217.161 116.876a1.337 1.337 0 1 1-2.673-.001 1.337 1.337 0 0 1 2.673.001M195.559 103.03a1.337 1.337 0 1 1-2.674-.003 1.337 1.337 0 0 1 2.674.002M237.852 94.077a1.336 1.336 0 1 1-2.673-.001 1.336 1.336 0 0 1 2.673.001M252.592 66.941a1.337 1.337 0 0 1-2.675 0 1.337 1.337 0 0 1 2.675 0M203.79 125.714a1.337 1.337 0 1 1-2.673-.002 1.337 1.337 0 0 1 2.674.002M215.284 99.155a1.337 1.337 0 1 1-2.674-.002 1.337 1.337 0 0 1 2.674.002" fill="red"/><path d="M179.93 132.413a1.338 1.338 0 0 1-2.675 0 1.338 1.338 0 0 1 2.674 0M252.492 92.682a1.337 1.337 0 1 1-2.674-.002 1.337 1.337 0 0 1 2.674.002M195.127 112.79a1.337 1.337 0 1 1-2.674-.002 1.337 1.337 0 0 1 2.674.003M153.788 137.738a1.337 1.337 0 0 1-2.675 0 1.337 1.337 0 0 1 2.675 0M163.6 122.28a1.336 1.336 0 1 1-2.673-.002 1.336 1.336 0 0 1 2.673.002M204.752 107.745a1.338 1.338 0 0 1-2.675 0 1.338 1.338 0 0 1 2.675 0M177.465 116.405a1.337 1.337 0 1 1-2.673-.002 1.337 1.337 0 0 1 2.673.002M128.744 161.45a1.337 1.337 0 0 1-2.674 0 1.337 1.337 0 0 1 2.674 0M184.325 121.842a1.337 1.337 0 1 1-2.674-.002 1.337 1.337 0 0 1 2.674.002M213.83 110.405a1.336 1.336 0 1 1-2.672-.002 1.336 1.336 0 0 1 2.673.002M230.667 96.437a1.337 1.337 0 1 1-2.674-.002 1.337 1.337 0 0 1 2.674.002" fill="red"/><path d="M196.419 112.62a1.336 1.336 0 1 1-2.673-.002 1.336 1.336 0 0 1 2.673.002M186.696 105.973a1.337 1.337 0 1 1-2.674-.002 1.337 1.337 0 0 1 2.674.002" fill="red"/><path d="M305.453-432.644V-1640.62M305.453-576.181h-28.73M305.453-856.447h-28.73M305.453-1136.71h-28.73M305.453-1416.98h-28.73" fill="none" stroke="#000" stroke-width="5.008" stroke-linejoin="round" stroke-miterlimit="10" transform="matrix(.1334 0 0 .13327 0 224.347)"/><text style="-inkscape-font-specification:Helvetica" transform="matrix(1.33333 0 0 1.33213 27.289 151.164)" font-weight="400" font-size="8.02" font-family="Helvetica"><tspan y="0" x="0 2.6706872">-2</tspan><tspan y="-28.04" x="0 2.6706872">-1</tspan><tspan y="-56.079" x="2.406">0</tspan><tspan y="-84.118" x="2.406">1</tspan><tspan y="14.36" x="-10.827346 -8.1566591 -3.6974933 -1.4679106 2.9912548">-2.51</tspan><tspan y="-106.492" x="-8.421092 -3.9619267 -1.7323442 2.7268212">1.80</tspan></text><path d="M420.354-1640.62H362.9M420.354-1587.09H362.9M420.354-1158.8H362.9M420.354-1024.57H362.9M420.354-1375.53H362.9M420.354-950.493H362.9M420.354-1087.3H362.9M420.354-1473.2H362.9M420.354-853.489H362.9M420.354-941.243H362.9M420.354-1382.73H362.9M420.354-621.603H362.9M420.354-1397.55H362.9M420.354-1110.01H362.9M420.354-1095.27H362.9M420.354-1093.58H362.9M420.354-1028.05H362.9M420.354-1121.11H362.9M420.354-1007.05H362.9M420.354-915.653H362.9M420.354-1419.66H362.9M420.354-1135.78H362.9M420.354-1264.79H362.9M420.354-1295.07H362.9M420.354-1088.23H362.9M420.354-1036.13H362.9M420.354-1257.5H362.9M420.354-1051.74H362.9M420.354-1282.06H362.9M420.354-831.436H362.9M420.354-1144.85H362.9M420.354-1170.15H362.9M420.354-1523.32H362.9M420.354-1626.64H362.9M420.354-1073.22H362.9M420.354-948.383H362.9M420.354-843.73H362.9M420.354-975.508H362.9M420.354-1137.44H362.9M420.354-787.377H362.9M420.354-1002.99H362.9M420.354-1291.2H362.9M420.354-1536.06H362.9M420.354-1411.91H362.9M420.354-958.778H362.9M420.354-576.435H362.9M420.354-1025.09H362.9M420.354-1234.61H362.9M420.354-1150.76H362.9M420.354-967.106H362.9M420.354-978.893H362.9M420.354-1260.89H362.9M420.354-1524.86H362.9M420.354-1312.36H362.9M420.354-522.778H362.9M420.354-900.951H362.9M420.354-834.605H362.9M420.354-882.306H362.9M420.354-1525.1H362.9M420.354-1238.44H362.9M420.354-1143.42H362.9M420.354-1103.25H362.9M420.354-604.224H362.9M420.354-1054.16H362.9M420.354-965.777H362.9M420.354-1090.89H362.9M420.354-913.566H362.9M420.354-1322.25H362.9M420.354-1045.13H362.9M420.354-1207.2H362.9M420.354-1298.82H362.9M420.354-1145.89H362.9M420.354-1145.24H362.9M420.354-1392.45H362.9M420.354-1397.16H362.9M420.354-782.347H362.9M420.354-780.249H362.9M420.354-1517.62H362.9M420.354-1058.97H362.9M420.354-1183.71H362.9M420.354-1201.19H362.9M420.354-1068.63H362.9M420.354-1173.48H362.9M420.354-1026.88H362.9M420.354-1438.88H362.9M420.354-1296.47H362.9M420.354-924.22H362.9M420.354-1322.67H362.9M420.354-769.08H362.9M420.354-809.911H362.9M420.354-799.894H362.9M420.354-1078.98H362.9M420.354-1276.63H362.9M420.354-1396.05H362.9M420.354-975.805H362.9M420.354-911.034H362.9M420.354-1185.61H362.9M420.354-1316.13H362.9M420.354-817.641H362.9M420.354-1020.81H362.9" fill="none" stroke="#00f" stroke-width="5.008" stroke-linejoin="round" stroke-miterlimit="10" transform="matrix(.1334 0 0 .13327 0 224.347)"/><path d="M362.9-795.924h-57.447M362.9-598.843h-57.447M362.9-860.754h-57.447M362.9-689.763h-57.447M362.9-950.65h-57.447M362.9-585.958h-57.447M362.9-829.564h-57.447M362.9-1107.99h-57.447M362.9-809.891h-57.447M362.9-1050.32h-57.447M362.9-575.329h-57.447M362.9-751.115h-57.447M362.9-533.533h-57.447M362.9-863.567h-57.447M362.9-674.971h-57.447M362.9-722.789h-57.447M362.9-877.675h-57.447M362.9-1033.78h-57.447M362.9-808.918h-57.447M362.9-948.582h-57.447M362.9-797.933h-57.447M362.9-944.709h-57.447M362.9-869.535h-57.447M362.9-994.204h-57.447M362.9-871.63h-57.447M362.9-898.677h-57.447M362.9-1071.87h-57.447M362.9-971.616h-57.447M362.9-545.522h-57.447M362.9-1051.55h-57.447M362.9-974.406h-57.447M362.9-726.455h-57.447M362.9-872.435h-57.447M362.9-839.322h-57.447M362.9-478.934h-57.447M362.9-676.362h-57.447M362.9-716.853h-57.447M362.9-1116.11h-57.447M362.9-1127.19h-57.447M362.9-625.59h-57.447M362.9-991.805h-57.447M362.9-747.254h-57.447M362.9-1098.95h-57.447M362.9-599.339h-57.447M362.9-935.252h-57.447M362.9-837.798h-57.447M362.9-710.823h-57.447M362.9-552.006h-57.447M362.9-801.942h-57.447M362.9-864.931h-57.447M362.9-979.752h-57.447M362.9-782.523h-57.447M362.9-744.94h-57.447M362.9-520.198h-57.447M362.9-690.279h-57.447M362.9-907.404h-57.447M362.9-586.099h-57.447M362.9-818.309h-57.447M362.9-1060.1h-57.447M362.9-590.55h-57.447M362.9-645.114h-57.447M362.9-875.252h-57.447M362.9-958.243h-57.447M362.9-933.275h-57.447M362.9-871.028h-57.447M362.9-686.171h-57.447M362.9-1071.75h-57.447M362.9-802.462h-57.447M362.9-727.174h-57.447M362.9-432.644h-57.447M362.9-842.367h-57.447M362.9-698.927h-57.447M362.9-1143.86h-57.447M362.9-858.131h-57.447M362.9-979.467h-57.447M362.9-650.124h-57.447M362.9-1136.25h-57.447M362.9-817.043h-57.447M362.9-1005.33h-57.447M362.9-846.97h-57.447M362.9-888.211h-57.447M362.9-806.397h-57.447M362.9-910.295h-57.447M362.9-977.466h-57.447M362.9-1181.07h-57.447M362.9-740.086h-57.447M362.9-939.367h-57.447M362.9-689.821h-57.447M362.9-987.936h-57.447M362.9-837.052h-57.447M362.9-649.87h-57.447M362.9-765.852h-57.447M362.9-874.916h-57.447M362.9-809.934h-57.447M362.9-471.946h-57.447M362.9-769.138h-57.447M362.9-854.954h-57.447M362.9-959.759h-57.447M362.9-838.33h-57.447M362.9-888.204h-57.447" fill="none" stroke="red" stroke-width="5.008" stroke-linejoin="round" stroke-miterlimit="10" transform="matrix(.1334 0 0 .13327 0 224.347)"/><text style="-inkscape-font-specification:Helvetica" transform="matrix(0 -1.33214 1.33333 0 10.877 91)" font-weight="400" font-size="10.026" font-family="Helvetica"><tspan y="0" x="0">Y</tspan></text><path d="M502.891-258.87H2153.6M759.058-258.87v28.341M1002.1-258.87v28.341M1245.14-258.87v28.341M1488.18-258.87v28.341M1731.21-258.87v28.341M1974.26-258.87v28.341" fill="none" stroke="#000" stroke-width="5.008" stroke-linejoin="round" stroke-miterlimit="10" transform="matrix(.1334 0 0 .13327 0 224.347)"/><text style="-inkscape-font-specification:Helvetica" transform="matrix(1.33333 0 0 1.33213 96.44 203.24)" font-weight="400" font-size="8.02" font-family="Helvetica"><tspan y="0" x="0 2.6706872 25.517654 49.832535 74.147018 98.461899 122.77678 -31.041813 -28.371126 -23.911961 -21.682377 -17.223211 135.30476 139.76393 141.99352 146.45268">-101234-2.054.74</tspan></text><path d="M1019.41-372.249v56.693M660.524-372.249v56.693M1000.19-372.249v56.693M1002.27-372.249v56.693M910.115-372.249v56.693M1073.76-372.249v56.693M821.49-372.249v56.693M709.701-372.249v56.693M919.208-372.249v56.693M842.337-372.249v56.693M686.11-372.249v56.693M1175.65-372.249v56.693M922.262-372.249v56.693M1121.74-372.249v56.693M917.119-372.249v56.693M1104.23-372.249v56.693M1154.86-372.249v56.693M1015.68-372.249v56.693M703.622-372.249v56.693M928.677-372.249v56.693M754.314-372.249v56.693M1120.33-372.249v56.693M901.326-372.249v56.693M826.211-372.249v56.693M1144.86-372.249v56.693M1226.44-372.249v56.693M718.935-372.249v56.693M996.978-372.249v56.693M1130.97-372.249v56.693M983.332-372.249v56.693M1453.08-372.249v56.693M936.876-372.249v56.693M1148.41-372.249v56.693M707.831-372.249v56.693M832.501-372.249v56.693M1108.89-372.249v56.693M1161.56-372.249v56.693M1073.63-372.249v56.693M1529.92-372.249v56.693M879.176-372.249v56.693M864.674-372.249v56.693M1253.31-372.249v56.693M802.577-372.249v56.693M1540.8-372.249v56.693M866.416-372.249v56.693M927.798-372.249v56.693M1276.44-372.249v56.693M811.546-372.249v56.693M1229.85-372.249v56.693M1194.61-372.249v56.693M740.941-372.249v56.693M1204.79-372.249v56.693M1085.16-372.249v56.693M867.001-372.249v56.693M848.826-372.249v56.693M1006.72-372.249v56.693M1061.25-372.249v56.693M801.218-372.249v56.693M1078.88-372.249v56.693M972.165-372.249v56.693M798.079-372.249v56.693M754.747-372.249v56.693M865.178-372.249v56.693M806.466-372.249v56.693M1262.76-372.249v56.693M725.85-372.249v56.693M1034.47-372.249v56.693M1128.61-372.249v56.693M766.628-372.249v56.693M1091.71-372.249v56.693M884.685-372.249v56.693M787.498-372.249v56.693M647.1-372.249v56.693M771.306-372.249v56.693M1419.04-372.249v56.693M620.284-372.249v56.693M843.371-372.249v56.693M721.418-372.249v56.693M1187.13-372.249v56.693M778.971-372.249v56.693M894.262-372.249v56.693M1177.74-372.249v56.693M1228.42-372.249v56.693M736.493-372.249v56.693M955.493-372.249v56.693M1094.03-372.249v56.693M999.481-372.249v56.693M1456.29-372.249v56.693M1316.82-372.249v56.693M1326.1-372.249v56.693M502.891-372.249v56.693M916.627-372.249v56.693M943.869-372.249v56.693M737.985-372.249v56.693M810.007-372.249v56.693M1178.43-372.249v56.693M662.538-372.249v56.693M1286.56-372.249v56.693M1406.35-372.249v56.693M1005.31-372.249v56.693" fill="none" stroke="#00f" stroke-width="5.008" stroke-linejoin="round" stroke-miterlimit="10" transform="matrix(.1334 0 0 .13327 0 224.347)"/><path d="M1459.64-315.556v56.686M1235.99-315.556v56.686M1452.1-315.556v56.686M1286.16-315.556v56.686M1824.02-315.556v56.686M999.985-315.556v56.686M1486.46-315.556v56.686M1956.78-315.556v56.686M1398.02-315.556v56.686M1656.62-315.556v56.686M959.144-315.556v56.686M1146.78-315.556v56.686M1020.56-315.556v56.686M1752.06-315.556v56.686M1489.97-315.556v56.686M1309.03-315.556v56.686M1545.95-315.556v56.686M1925.71-315.556v56.686M1312.19-315.556v56.686M1631.04-315.556v56.686M1582.03-315.556v56.686M1346.85-315.556v56.686M1294.71-315.556v56.686M1640.8-315.556v56.686M1599.08-315.556v56.686M1281.16-315.556v56.686M1815.15-315.556v56.686M1497.91-315.556v56.686M968.71-315.556v56.686M1660.86-315.556v56.686M1783.8-315.556v56.686M1354.21-315.556v56.686M1731.57-315.556v56.686M1600.37-315.556v56.686M1001.99-315.556v56.686M1223.34-315.556v56.686M1383.83-315.556v56.686M1865.8-315.556v56.686M1760.34-315.556v56.686M1097.06-315.556v56.686M1810.1-315.556v56.686M1444.27-315.556v56.686M1799.64-315.556v56.686M1213.01-315.556v56.686M1375.51-315.556v56.686M1314.24-315.556v56.686M1566.81-315.556v56.686M941.64-315.556v56.686M1454.25-315.556v56.686M1398.09-315.556v56.686M1499.48-315.556v56.686M1342.02-315.556v56.686M1364.78-315.556v56.686M1295.02-315.556v56.686M1254.39-315.556v56.686M1368.17-315.556v56.686M1054.54-315.556v56.686M1284.05-315.556v56.686M1851.2-315.556v56.686M1229.28-315.556v56.686M1079.43-315.556v56.686M1354.83-315.556v56.686M1609.34-315.556v56.686M1522.87-315.556v56.686M1509.37-315.556v56.686M1311.81-315.556v56.686M1857.36-315.556v56.686M1332.87-315.556v56.686M1266.27-315.556v56.686M887.586-315.556v56.686M1452.74-315.556v56.686M1323.35-315.556v56.686M1776.88-315.556v56.686M1397.37-315.556v56.686M1381.38-315.556v56.686M1018.92-315.556v56.686M2153.6-315.556v56.686M1523.92-315.556v56.686M1929.95-315.556v56.686M1549.48-315.556v56.686M1268.16-315.556v56.686M1617.97-315.556v56.686M1456.01-315.556v56.686M1773.08-315.556v56.686M1883.58-315.556v56.686M1517.73-315.556v56.686M1603.89-315.556v56.686M1338.85-315.556v56.686M1882.83-315.556v56.686M1452.78-315.556v56.686M1142.87-315.556v56.686M1216.43-315.556v56.686M1524.94-315.556v56.686M1320.38-315.556v56.686M955.134-315.556v56.686M1371.81-315.556v56.686M1593-315.556v56.686M1719.21-315.556v56.686M1462.47-315.556v56.686M1389.58-315.556v56.686" fill="none" stroke="red" stroke-width="5.008" stroke-linejoin="round" stroke-miterlimit="10" transform="matrix(.1334 0 0 .13327 0 224.347)"/><text style="-inkscape-font-specification:Helvetica" transform="matrix(1.33333 0 0 1.33213 172.365 221.696)" font-weight="400" font-size="10.026" font-family="Helvetica"><tspan y="0" x="0">X</tspan></text></svg>