<?xml version="1.0" encoding="UTF-8" standalone="no"?>
<svg xmlns:rdf="http://www.w3.org/1999/02/22-rdf-syntax-ns#" xmlns="http://www.w3.org/2000/svg" xml:space="preserve" height="226.77" viewBox="0 0 302.36221 226.77166" width="302.36" version="1.1" xmlns:cc="http://creativecommons.org/ns#" xmlns:dc="http://purl.org/dc/elements/1.1/"><metadata><rdf:RDF><cc:Work rdf:about=""><dc:format>image/svg+xml</dc:format><dc:type rdf:resource="http://purl.org/dc/dcmitype/StillImage"/><dc:title/></cc:Work></rdf:RDF></metadata><defs><clipPath id="clipPath20" clipPathUnits="userSpaceOnUse"><path d="m-0.00000989-0.00000114h377v283h-377z"/></clipPath></defs><g transform="matrix(1.3333 0 0 -1.3333 -245.67 674.79)"><g transform="matrix(.24 0 0 -.24 0 842)"><g transform="matrix(2.5063 0 0 2.5041 767.72 1399.6)"><g clip-path="url(#clipPath20)"><path d="m0 0h377v283h-377z" fill="#fff"/></g></g><g transform="matrix(2.5063 0 0 2.5041 767.72 1399.6)"><path d="m0 0h377v283h-377z" fill="#fff"/></g><g transform="matrix(2.5063 0 0 2.5041 1307.8 1682.7)"><path d="m1.6667 0c0 0.92047-0.74623 1.6667-1.6667 1.6667s-1.6667-0.74623-1.6667-1.6667 0.74619-1.6667 1.6667-1.6667c0.92047 0 1.6667 0.74619 1.6667 1.6667z" fill="#00f"/></g><g transform="matrix(2.5063 0 0 2.5041 1185.7 1732.2)"><path d="m1.6667 0c0 0.92047-0.74623 1.6667-1.6667 1.6667s-1.6667-0.74623-1.6667-1.6667 0.74619-1.6667 1.6667-1.6667c0.92047 0 1.6667 0.74619 1.6667 1.6667z" fill="#00f"/></g><g transform="matrix(2.5063 0 0 2.5041 1210.2 1565.7)"><path d="m1.6667 0c0 0.92047-0.74623 1.6667-1.6667 1.6667s-1.6667-0.74623-1.6667-1.6667 0.74619-1.6667 1.6667-1.6667c0.92047 0 1.6667 0.74619 1.6667 1.6667z" fill="#00f"/></g><g transform="matrix(2.5063 0 0 2.5041 1185.5 1804.6)"><path d="m1.6667 0c0 0.92047-0.74623 1.6667-1.6667 1.6667s-1.6667-0.74623-1.6667-1.6667 0.74619-1.6667 1.6667-1.6667c0.92047 0 1.6667 0.74619 1.6667 1.6667z" fill="#00f"/></g><g transform="matrix(2.5063 0 0 2.5041 1298.9 1829.4)"><path d="m1.6667 0c0 0.92047-0.74623 1.6667-1.6667 1.6667s-1.6667-0.74623-1.6667-1.6667 0.74619-1.6667 1.6667-1.6667c0.92047 0 1.6667 0.74619 1.6667 1.6667z" fill="#00f"/></g><g transform="matrix(2.5063 0 0 2.5041 1175.8 1661.4)"><path d="m1.6667 0c0 0.92047-0.74623 1.6667-1.6667 1.6667s-1.6667-0.74623-1.6667-1.6667 0.74619-1.6667 1.6667-1.6667c0.92047 0 1.6667 0.74619 1.6667 1.6667z" fill="#00f"/></g><g transform="matrix(2.5063 0 0 2.5041 1149.8 1576.2)"><path d="m1.6667 0c0 0.92047-0.74623 1.6667-1.6667 1.6667s-1.6667-0.74623-1.6667-1.6667 0.74619-1.6667 1.6667-1.6667c0.92047 0 1.6667 0.74619 1.6667 1.6667z" fill="#00f"/></g><g transform="matrix(2.5063 0 0 2.5041 1296.8 1748.4)"><path d="m1.6667 0c0 0.92047-0.74623 1.6667-1.6667 1.6667s-1.6667-0.74623-1.6667-1.6667 0.74619-1.6667 1.6667-1.6667c0.92047 0 1.6667 0.74619 1.6667 1.6667z" fill="#00f"/></g><g transform="matrix(2.5063 0 0 2.5041 1208 1788.3)"><path d="m1.6667 0c0 0.92047-0.74623 1.6667-1.6667 1.6667s-1.6667-0.74623-1.6667-1.6667 0.74619-1.6667 1.6667-1.6667c0.92047 0 1.6667 0.74619 1.6667 1.6667z" fill="#00f"/></g><g transform="matrix(2.5063 0 0 2.5041 1279.4 1692)"><path d="m1.6667 0c0 0.92047-0.74623 1.6667-1.6667 1.6667s-1.6667-0.74623-1.6667-1.6667 0.74619-1.6667 1.6667-1.6667c0.92047 0 1.6667 0.74619 1.6667 1.6667z" fill="#00f"/></g><g transform="matrix(2.5063 0 0 2.5041 1214.6 1820.3)"><path d="m1.6667 0c0 0.92047-0.74623 1.6667-1.6667 1.6667s-1.6667-0.74623-1.6667-1.6667 0.74619-1.6667 1.6667-1.6667c0.92047 0 1.6667 0.74619 1.6667 1.6667z" fill="#00f"/></g><g transform="matrix(2.5063 0 0 2.5041 1271.1 1677.6)"><path d="m1.6667 0c0 0.92047-0.74623 1.6667-1.6667 1.6667s-1.6667-0.74623-1.6667-1.6667 0.74619-1.6667 1.6667-1.6667c0.92047 0 1.6667 0.74619 1.6667 1.6667z" fill="#00f"/></g><g transform="matrix(2.5063 0 0 2.5041 1013.3 1607.6)"><path d="m1.6667 0c0 0.92047-0.74623 1.6667-1.6667 1.6667s-1.6667-0.74623-1.6667-1.6667 0.74619-1.6667 1.6667-1.6667c0.92047 0 1.6667 0.74619 1.6667 1.6667z" fill="#00f"/></g><g transform="matrix(2.5063 0 0 2.5041 1288.9 1660.3)"><path d="m1.6667 0c0 0.92047-0.74623 1.6667-1.6667 1.6667s-1.6667-0.74623-1.6667-1.6667 0.74619-1.6667 1.6667-1.6667c0.92047 0 1.6667 0.74619 1.6667 1.6667z" fill="#00f"/></g><g transform="matrix(2.5063 0 0 2.5041 1415.1 1843.8)"><path d="m1.6667 0c0 0.92047-0.74623 1.6667-1.6667 1.6667s-1.6667-0.74623-1.6667-1.6667 0.74619-1.6667 1.6667-1.6667c0.92047 0 1.6667 0.74619 1.6667 1.6667z" fill="#00f"/></g><g transform="matrix(2.5063 0 0 2.5041 1341.1 1725.4)"><path d="m1.6667 0c0 0.92047-0.74623 1.6667-1.6667 1.6667s-1.6667-0.74623-1.6667-1.6667 0.74619-1.6667 1.6667-1.6667c0.92047 0 1.6667 0.74619 1.6667 1.6667z" fill="#00f"/></g><g transform="matrix(2.5063 0 0 2.5041 1329.4 1705.2)"><path d="m1.6667 0c0 0.92047-0.74623 1.6667-1.6667 1.6667s-1.6667-0.74623-1.6667-1.6667 0.74619-1.6667 1.6667-1.6667c0.92047 0 1.6667 0.74619 1.6667 1.6667z" fill="#00f"/></g><g transform="matrix(2.5063 0 0 2.5041 1224.8 1522.6)"><path d="m1.6667 0c0 0.92047-0.74623 1.6667-1.6667 1.6667s-1.6667-0.74623-1.6667-1.6667 0.74619-1.6667 1.6667-1.6667c0.92047 0 1.6667 0.74619 1.6667 1.6667z" fill="#00f"/></g><g transform="matrix(2.5063 0 0 2.5041 1263 1600.2)"><path d="m1.6667 0c0 0.92047-0.74623 1.6667-1.6667 1.6667s-1.6667-0.74623-1.6667-1.6667 0.74619-1.6667 1.6667-1.6667c0.92047 0 1.6667 0.74619 1.6667 1.6667z" fill="#00f"/></g><g transform="matrix(2.5063 0 0 2.5041 1268.8 1684)"><path d="m1.6667 0c0 0.92047-0.74623 1.6667-1.6667 1.6667s-1.6667-0.74623-1.6667-1.6667 0.74619-1.6667 1.6667-1.6667c0.92047 0 1.6667 0.74619 1.6667 1.6667z" fill="#00f"/></g><g transform="matrix(2.5063 0 0 2.5041 1255.3 1566.1)"><path d="m1.6667 0c0 0.92047-0.74623 1.6667-1.6667 1.6667s-1.6667-0.74623-1.6667-1.6667 0.74619-1.6667 1.6667-1.6667c0.92047 0 1.6667 0.74619 1.6667 1.6667z" fill="#00f"/></g><g transform="matrix(2.5063 0 0 2.5041 1171 1769.2)"><path d="m1.6667 0c0 0.92047-0.74623 1.6667-1.6667 1.6667s-1.6667-0.74623-1.6667-1.6667 0.74619-1.6667 1.6667-1.6667c0.92047 0 1.6667 0.74619 1.6667 1.6667z" fill="#00f"/></g><g transform="matrix(2.5063 0 0 2.5041 1214.5 1709.1)"><path d="m1.6667 0c0 0.92047-0.74623 1.6667-1.6667 1.6667s-1.6667-0.74623-1.6667-1.6667 0.74619-1.6667 1.6667-1.6667c0.92047 0 1.6667 0.74619 1.6667 1.6667z" fill="#00f"/></g><g transform="matrix(2.5063 0 0 2.5041 1230.7 1557.2)"><path d="m1.6667 0c0 0.92047-0.74623 1.6667-1.6667 1.6667s-1.6667-0.74623-1.6667-1.6667 0.74619-1.6667 1.6667-1.6667c0.92047 0 1.6667 0.74619 1.6667 1.6667z" fill="#00f"/></g><g transform="matrix(2.5063 0 0 2.5041 1202.8 1549.5)"><path d="m1.6667 0c0 0.92047-0.74623 1.6667-1.6667 1.6667s-1.6667-0.74623-1.6667-1.6667 0.74619-1.6667 1.6667-1.6667c0.92047 0 1.6667 0.74619 1.6667 1.6667z" fill="#00f"/></g><g transform="matrix(2.5063 0 0 2.5041 1322.7 1616.1)"><path d="m1.6667 0c0 0.92047-0.74623 1.6667-1.6667 1.6667s-1.6667-0.74623-1.6667-1.6667 0.74619-1.6667 1.6667-1.6667c0.92047 0 1.6667 0.74619 1.6667 1.6667z" fill="#00f"/></g><g transform="matrix(2.5063 0 0 2.5041 1477.4 1636.8)"><path d="m1.6667 0c0 0.92047-0.74623 1.6667-1.6667 1.6667s-1.6667-0.74623-1.6667-1.6667 0.74619-1.6667 1.6667-1.6667c0.92047 0 1.6667 0.74619 1.6667 1.6667z" fill="#00f"/></g><g transform="matrix(2.5063 0 0 2.5041 1126.2 1729.7)"><path d="m1.6667 0c0 0.92047-0.74623 1.6667-1.6667 1.6667s-1.6667-0.74623-1.6667-1.6667 0.74619-1.6667 1.6667-1.6667c0.92047 0 1.6667 0.74619 1.6667 1.6667z" fill="#00f"/></g><g transform="matrix(2.5063 0 0 2.5041 1258.2 1614.8)"><path d="m1.6667 0c0 0.92047-0.74623 1.6667-1.6667 1.6667s-1.6667-0.74623-1.6667-1.6667 0.74619-1.6667 1.6667-1.6667c0.92047 0 1.6667 0.74619 1.6667 1.6667z" fill="#00f"/></g><g transform="matrix(2.5063 0 0 2.5041 1115.4 1750.5)"><path d="m1.6667 0c0 0.92047-0.74623 1.6667-1.6667 1.6667s-1.6667-0.74623-1.6667-1.6667 0.74619-1.6667 1.6667-1.6667c0.92047 0 1.6667 0.74619 1.6667 1.6667z" fill="#00f"/></g><g transform="matrix(2.5063 0 0 2.5041 1365 1629.5)"><path d="m1.6667 0c0 0.92047-0.74623 1.6667-1.6667 1.6667s-1.6667-0.74623-1.6667-1.6667 0.74619-1.6667 1.6667-1.6667c0.92047 0 1.6667 0.74619 1.6667 1.6667z" fill="#00f"/></g><g transform="matrix(2.5063 0 0 2.5041 1374.8 1654.8)"><path d="m1.6667 0c0 0.92047-0.74623 1.6667-1.6667 1.6667s-1.6667-0.74623-1.6667-1.6667 0.74619-1.6667 1.6667-1.6667c0.92047 0 1.6667 0.74619 1.6667 1.6667z" fill="#00f"/></g><g transform="matrix(2.5063 0 0 2.5041 1095.4 1580.8)"><path d="m1.6667 0c0 0.92047-0.74623 1.6667-1.6667 1.6667s-1.6667-0.74623-1.6667-1.6667 0.74619-1.6667 1.6667-1.6667c0.92047 0 1.6667 0.74619 1.6667 1.6667z" fill="#00f"/></g><g transform="matrix(2.5063 0 0 2.5041 1423.3 1715.8)"><path d="m1.6667 0c0 0.92047-0.74623 1.6667-1.6667 1.6667s-1.6667-0.74623-1.6667-1.6667 0.74619-1.6667 1.6667-1.6667c0.92047 0 1.6667 0.74619 1.6667 1.6667z" fill="#00f"/></g><g transform="matrix(2.5063 0 0 2.5041 1147.9 1624.2)"><path d="m1.6667 0c0 0.92047-0.74623 1.6667-1.6667 1.6667s-1.6667-0.74623-1.6667-1.6667 0.74619-1.6667 1.6667-1.6667c0.92047 0 1.6667 0.74619 1.6667 1.6667z" fill="#00f"/></g><g transform="matrix(2.5063 0 0 2.5041 1267.2 1610.7)"><path d="m1.6667 0c0 0.92047-0.74623 1.6667-1.6667 1.6667s-1.6667-0.74623-1.6667-1.6667 0.74619-1.6667 1.6667-1.6667c0.92047 0 1.6667 0.74619 1.6667 1.6667z" fill="#00f"/></g><g transform="matrix(2.5063 0 0 2.5041 1346.5 1756.6)"><path d="m1.6667 0c0 0.92047-0.74623 1.6667-1.6667 1.6667s-1.6667-0.74623-1.6667-1.6667 0.74619-1.6667 1.6667-1.6667c0.92047 0 1.6667 0.74619 1.6667 1.6667z" fill="#00f"/></g><g transform="matrix(2.5063 0 0 2.5041 1259.9 1665.6)"><path d="m1.6667 0c0 0.92047-0.74623 1.6667-1.6667 1.6667s-1.6667-0.74623-1.6667-1.6667 0.74619-1.6667 1.6667-1.6667c0.92047 0 1.6667 0.74619 1.6667 1.6667z" fill="#00f"/></g><g transform="matrix(2.5063 0 0 2.5041 1455.3 1541.3)"><path d="m1.6667 0c0 0.92047-0.74623 1.6667-1.6667 1.6667s-1.6667-0.74623-1.6667-1.6667 0.74619-1.6667 1.6667-1.6667c0.92047 0 1.6667 0.74619 1.6667 1.6667z" fill="#00f"/></g><g transform="matrix(2.5063 0 0 2.5041 1496.9 1669.4)"><path d="m1.6667 0c0 0.92047-0.74623 1.6667-1.6667 1.6667s-1.6667-0.74623-1.6667-1.6667 0.74619-1.6667 1.6667-1.6667c0.92047 0 1.6667 0.74619 1.6667 1.6667z" fill="#00f"/></g><g transform="matrix(2.5063 0 0 2.5041 1259.1 1705.7)"><path d="m1.6667 0c0 0.92047-0.74623 1.6667-1.6667 1.6667s-1.6667-0.74623-1.6667-1.6667 0.74619-1.6667 1.6667-1.6667c0.92047 0 1.6667 0.74619 1.6667 1.6667z" fill="#00f"/></g><g transform="matrix(2.5063 0 0 2.5041 1073.1 1639.7)"><path d="m1.6667 0c0 0.92047-0.74623 1.6667-1.6667 1.6667s-1.6667-0.74623-1.6667-1.6667 0.74619-1.6667 1.6667-1.6667c0.92047 0 1.6667 0.74619 1.6667 1.6667z" fill="#00f"/></g><g transform="matrix(2.5063 0 0 2.5041 1213.4 1702.8)"><path d="m1.6667 0c0 0.92047-0.74623 1.6667-1.6667 1.6667s-1.6667-0.74623-1.6667-1.6667 0.74619-1.6667 1.6667-1.6667c0.92047 0 1.6667 0.74619 1.6667 1.6667z" fill="#00f"/></g><g transform="matrix(2.5063 0 0 2.5041 1169.4 1640.9)"><path d="m1.6667 0c0 0.92047-0.74623 1.6667-1.6667 1.6667s-1.6667-0.74623-1.6667-1.6667 0.74619-1.6667 1.6667-1.6667c0.92047 0 1.6667 0.74619 1.6667 1.6667z" fill="#00f"/></g><g transform="matrix(2.5063 0 0 2.5041 1177 1690.7)"><path d="m1.6667 0c0 0.92047-0.74623 1.6667-1.6667 1.6667s-1.6667-0.74623-1.6667-1.6667 0.74619-1.6667 1.6667-1.6667c0.92047 0 1.6667 0.74619 1.6667 1.6667z" fill="#00f"/></g><g transform="matrix(2.5063 0 0 2.5041 1144 1680.7)"><path d="m1.6667 0c0 0.92047-0.74623 1.6667-1.6667 1.6667s-1.6667-0.74623-1.6667-1.6667 0.74619-1.6667 1.6667-1.6667c0.92047 0 1.6667 0.74619 1.6667 1.6667z" fill="#00f"/></g><g transform="matrix(2.5063 0 0 2.5041 1253.7 1639.3)"><path d="m1.6667 0c0 0.92047-0.74623 1.6667-1.6667 1.6667s-1.6667-0.74623-1.6667-1.6667 0.74619-1.6667 1.6667-1.6667c0.92047 0 1.6667 0.74619 1.6667 1.6667z" fill="#00f"/></g><g transform="matrix(2.5063 0 0 2.5041 1438.1 1561.6)"><path d="m1.6667 0c0 0.92047-0.74623 1.6667-1.6667 1.6667s-1.6667-0.74623-1.6667-1.6667 0.74619-1.6667 1.6667-1.6667c0.92047 0 1.6667 0.74619 1.6667 1.6667z" fill="#00f"/></g><g transform="matrix(2.5063 0 0 2.5041 1181.5 1640.1)"><path d="m1.6667 0c0 0.92047-0.74623 1.6667-1.6667 1.6667s-1.6667-0.74623-1.6667-1.6667 0.74619-1.6667 1.6667-1.6667c0.92047 0 1.6667 0.74619 1.6667 1.6667z" fill="#00f"/></g><g transform="matrix(2.5063 0 0 2.5041 1221 1536.9)"><path d="m1.6667 0c0 0.92047-0.74623 1.6667-1.6667 1.6667s-1.6667-0.74623-1.6667-1.6667 0.74619-1.6667 1.6667-1.6667c0.92047 0 1.6667 0.74619 1.6667 1.6667z" fill="#00f"/></g><g transform="matrix(2.5063 0 0 2.5041 1352.6 1854.1)"><path d="m1.6667 0c0 0.92047-0.74623 1.6667-1.6667 1.6667s-1.6667-0.74623-1.6667-1.6667 0.74619-1.6667 1.6667-1.6667c0.92047 0 1.6667 0.74619 1.6667 1.6667z" fill="#00f"/></g><g transform="matrix(2.5063 0 0 2.5041 1356.9 1717.9)"><path d="m1.6667 0c0 0.92047-0.74623 1.6667-1.6667 1.6667s-1.6667-0.74623-1.6667-1.6667 0.74619-1.6667 1.6667-1.6667c0.92047 0 1.6667 0.74619 1.6667 1.6667z" fill="#00f"/></g><g transform="matrix(2.5063 0 0 2.5041 1290.7 1658.7)"><path d="m1.6667 0c0 0.92047-0.74623 1.6667-1.6667 1.6667s-1.6667-0.74623-1.6667-1.6667 0.74619-1.6667 1.6667-1.6667c0.92047 0 1.6667 0.74619 1.6667 1.6667z" fill="#00f"/></g><g transform="matrix(2.5063 0 0 2.5041 1339.9 1751.2)"><path d="m1.6667 0c0 0.92047-0.74623 1.6667-1.6667 1.6667s-1.6667-0.74623-1.6667-1.6667 0.74619-1.6667 1.6667-1.6667c0.92047 0 1.6667 0.74619 1.6667 1.6667z" fill="#00f"/></g><g transform="matrix(2.5063 0 0 2.5041 1325.7 1789.2)"><path d="m1.6667 0c0 0.92047-0.74623 1.6667-1.6667 1.6667s-1.6667-0.74623-1.6667-1.6667 0.74619-1.6667 1.6667-1.6667c0.92047 0 1.6667 0.74619 1.6667 1.6667z" fill="#00f"/></g><g transform="matrix(2.5063 0 0 2.5041 1211.8 1625.9)"><path d="m1.6667 0c0 0.92047-0.74623 1.6667-1.6667 1.6667s-1.6667-0.74623-1.6667-1.6667 0.74619-1.6667 1.6667-1.6667c0.92047 0 1.6667 0.74619 1.6667 1.6667z" fill="#00f"/></g><g transform="matrix(2.5063 0 0 2.5041 1285.6 1626.2)"><path d="m1.6667 0c0 0.92047-0.74623 1.6667-1.6667 1.6667s-1.6667-0.74623-1.6667-1.6667 0.74619-1.6667 1.6667-1.6667c0.92047 0 1.6667 0.74619 1.6667 1.6667z" fill="#00f"/></g><g transform="matrix(2.5063 0 0 2.5041 1219.4 1654.1)"><path d="m1.6667 0c0 0.92047-0.74623 1.6667-1.6667 1.6667s-1.6667-0.74623-1.6667-1.6667 0.74619-1.6667 1.6667-1.6667c0.92047 0 1.6667 0.74619 1.6667 1.6667z" fill="#00f"/></g><g transform="matrix(2.5063 0 0 2.5041 1164.7 1645)"><path d="m1.6667 0c0 0.92047-0.74623 1.6667-1.6667 1.6667s-1.6667-0.74623-1.6667-1.6667 0.74619-1.6667 1.6667-1.6667c0.92047 0 1.6667 0.74619 1.6667 1.6667z" fill="#00f"/></g><g transform="matrix(2.5063 0 0 2.5041 1304.3 1754.2)"><path d="m1.6667 0c0 0.92047-0.74623 1.6667-1.6667 1.6667s-1.6667-0.74623-1.6667-1.6667 0.74619-1.6667 1.6667-1.6667c0.92047 0 1.6667 0.74619 1.6667 1.6667z" fill="#00f"/></g><g transform="matrix(2.5063 0 0 2.5041 1252.7 1722)"><path d="m1.6667 0c0 0.92047-0.74623 1.6667-1.6667 1.6667s-1.6667-0.74623-1.6667-1.6667 0.74619-1.6667 1.6667-1.6667c0.92047 0 1.6667 0.74619 1.6667 1.6667z" fill="#00f"/></g><g transform="matrix(2.5063 0 0 2.5041 1229.5 1688.3)"><path d="m1.6667 0c0 0.92047-0.74623 1.6667-1.6667 1.6667s-1.6667-0.74623-1.6667-1.6667 0.74619-1.6667 1.6667-1.6667c0.92047 0 1.6667 0.74619 1.6667 1.6667z" fill="#00f"/></g><g transform="matrix(2.5063 0 0 2.5041 1273.1 1738.4)"><path d="m1.6667 0c0 0.92047-0.74623 1.6667-1.6667 1.6667s-1.6667-0.74623-1.6667-1.6667 0.74619-1.6667 1.6667-1.6667c0.92047 0 1.6667 0.74619 1.6667 1.6667z" fill="#00f"/></g><g transform="matrix(2.5063 0 0 2.5041 1336.4 1650.5)"><path d="m1.6667 0c0 0.92047-0.74623 1.6667-1.6667 1.6667s-1.6667-0.74623-1.6667-1.6667 0.74619-1.6667 1.6667-1.6667c0.92047 0 1.6667 0.74619 1.6667 1.6667z" fill="#00f"/></g><g transform="matrix(2.5063 0 0 2.5041 1282.3 1475)"><path d="m1.6667 0c0 0.92047-0.74623 1.6667-1.6667 1.6667s-1.6667-0.74623-1.6667-1.6667 0.74619-1.6667 1.6667-1.6667c0.92047 0 1.6667 0.74619 1.6667 1.6667z" fill="#00f"/></g><g transform="matrix(2.5063 0 0 2.5041 1264.3 1720.7)"><path d="m1.6667 0c0 0.92047-0.74623 1.6667-1.6667 1.6667s-1.6667-0.74623-1.6667-1.6667 0.74619-1.6667 1.6667-1.6667c0.92047 0 1.6667 0.74619 1.6667 1.6667z" fill="#00f"/></g><g transform="matrix(2.5063 0 0 2.5041 1272 1623.2)"><path d="m1.6667 0c0 0.92047-0.74623 1.6667-1.6667 1.6667s-1.6667-0.74623-1.6667-1.6667 0.74619-1.6667 1.6667-1.6667c0.92047 0 1.6667 0.74619 1.6667 1.6667z" fill="#00f"/></g><g transform="matrix(2.5063 0 0 2.5041 1251.2 1768.3)"><path d="m1.6667 0c0 0.92047-0.74623 1.6667-1.6667 1.6667s-1.6667-0.74623-1.6667-1.6667 0.74619-1.6667 1.6667-1.6667c0.92047 0 1.6667 0.74619 1.6667 1.6667z" fill="#00f"/></g><g transform="matrix(2.5063 0 0 2.5041 1176.1 1563.5)"><path d="m1.6667 0c0 0.92047-0.74623 1.6667-1.6667 1.6667s-1.6667-0.74623-1.6667-1.6667 0.74619-1.6667 1.6667-1.6667c0.92047 0 1.6667 0.74619 1.6667 1.6667z" fill="#00f"/></g><g transform="matrix(2.5063 0 0 2.5041 1318.1 1762.7)"><path d="m1.6667 0c0 0.92047-0.74623 1.6667-1.6667 1.6667s-1.6667-0.74623-1.6667-1.6667 0.74619-1.6667 1.6667-1.6667c0.92047 0 1.6667 0.74619 1.6667 1.6667z" fill="#00f"/></g><g transform="matrix(2.5063 0 0 2.5041 1374.7 1661.1)"><path d="m1.6667 0c0 0.92047-0.74623 1.6667-1.6667 1.6667s-1.6667-0.74623-1.6667-1.6667 0.74619-1.6667 1.6667-1.6667c0.92047 0 1.6667 0.74619 1.6667 1.6667z" fill="#00f"/></g><g transform="matrix(2.5063 0 0 2.5041 1198 1732.5)"><path d="m1.6667 0c0 0.92047-0.74623 1.6667-1.6667 1.6667s-1.6667-0.74623-1.6667-1.6667 0.74619-1.6667 1.6667-1.6667c0.92047 0 1.6667 0.74619 1.6667 1.6667z" fill="#00f"/></g><g transform="matrix(2.5063 0 0 2.5041 1421.9 1634.9)"><path d="m1.6667 0c0 0.92047-0.74623 1.6667-1.6667 1.6667s-1.6667-0.74623-1.6667-1.6667 0.74619-1.6667 1.6667-1.6667c0.92047 0 1.6667 0.74619 1.6667 1.6667z" fill="#00f"/></g><g transform="matrix(2.5063 0 0 2.5041 1230.5 1678.1)"><path d="m1.6667 0c0 0.92047-0.74623 1.6667-1.6667 1.6667s-1.6667-0.74623-1.6667-1.6667 0.74619-1.6667 1.6667-1.6667c0.92047 0 1.6667 0.74619 1.6667 1.6667z" fill="#00f"/></g><g transform="matrix(2.5063 0 0 2.5041 1224.4 1682.9)"><path d="m1.6667 0c0 0.92047-0.74623 1.6667-1.6667 1.6667s-1.6667-0.74623-1.6667-1.6667 0.74619-1.6667 1.6667-1.6667c0.92047 0 1.6667 0.74619 1.6667 1.6667z" fill="#00f"/></g><g transform="matrix(2.5063 0 0 2.5041 1164.9 1424.6)"><path d="m1.6667 0c0 0.92047-0.74623 1.6667-1.6667 1.6667s-1.6667-0.74623-1.6667-1.6667 0.74619-1.6667 1.6667-1.6667c0.92047 0 1.6667 0.74619 1.6667 1.6667z" fill="#00f"/></g><g transform="matrix(2.5063 0 0 2.5041 1174.5 1733.5)"><path d="m1.6667 0c0 0.92047-0.74623 1.6667-1.6667 1.6667s-1.6667-0.74623-1.6667-1.6667 0.74619-1.6667 1.6667-1.6667c0.92047 0 1.6667 0.74619 1.6667 1.6667z" fill="#00f"/></g><g transform="matrix(2.5063 0 0 2.5041 1159.9 1683.1)"><path d="m1.6667 0c0 0.92047-0.74623 1.6667-1.6667 1.6667s-1.6667-0.74623-1.6667-1.6667 0.74619-1.6667 1.6667-1.6667c0.92047 0 1.6667 0.74619 1.6667 1.6667z" fill="#00f"/></g><g transform="matrix(2.5063 0 0 2.5041 1278.7 1447.6)"><path d="m1.6667 0c0 0.92047-0.74623 1.6667-1.6667 1.6667s-1.6667-0.74623-1.6667-1.6667 0.74619-1.6667 1.6667-1.6667c0.92047 0 1.6667 0.74619 1.6667 1.6667z" fill="#00f"/></g><g transform="matrix(2.5063 0 0 2.5041 1391.8 1778)"><path d="m1.6667 0c0 0.92047-0.74623 1.6667-1.6667 1.6667s-1.6667-0.74623-1.6667-1.6667 0.74619-1.6667 1.6667-1.6667c0.92047 0 1.6667 0.74619 1.6667 1.6667z" fill="#00f"/></g><g transform="matrix(2.5063 0 0 2.5041 1294.5 1631.4)"><path d="m1.6667 0c0 0.92047-0.74623 1.6667-1.6667 1.6667s-1.6667-0.74623-1.6667-1.6667 0.74619-1.6667 1.6667-1.6667c0.92047 0 1.6667 0.74619 1.6667 1.6667z" fill="#00f"/></g><g transform="matrix(2.5063 0 0 2.5041 1324.2 1772)"><path d="m1.6667 0c0 0.92047-0.74623 1.6667-1.6667 1.6667s-1.6667-0.74623-1.6667-1.6667 0.74619-1.6667 1.6667-1.6667c0.92047 0 1.6667 0.74619 1.6667 1.6667z" fill="#00f"/></g><g transform="matrix(2.5063 0 0 2.5041 1368.6 1590.2)"><path d="m1.6667 0c0 0.92047-0.74623 1.6667-1.6667 1.6667s-1.6667-0.74623-1.6667-1.6667 0.74619-1.6667 1.6667-1.6667c0.92047 0 1.6667 0.74619 1.6667 1.6667z" fill="#00f"/></g><g transform="matrix(2.5063 0 0 2.5041 1019.2 1650.8)"><path d="m1.6667 0c0 0.92047-0.74623 1.6667-1.6667 1.6667s-1.6667-0.74623-1.6667-1.6667 0.74619-1.6667 1.6667-1.6667c0.92047 0 1.6667 0.74619 1.6667 1.6667z" fill="#00f"/></g><g transform="matrix(2.5063 0 0 2.5041 1231.3 1622.8)"><path d="m1.6667 0c0 0.92047-0.74623 1.6667-1.6667 1.6667s-1.6667-0.74623-1.6667-1.6667 0.74619-1.6667 1.6667-1.6667c0.92047 0 1.6667 0.74619 1.6667 1.6667z" fill="#00f"/></g><g transform="matrix(2.5063 0 0 2.5041 1278.7 1703.2)"><path d="m1.6667 0c0 0.92047-0.74623 1.6667-1.6667 1.6667s-1.6667-0.74623-1.6667-1.6667 0.74619-1.6667 1.6667-1.6667c0.92047 0 1.6667 0.74619 1.6667 1.6667z" fill="#00f"/></g><g transform="matrix(2.5063 0 0 2.5041 1311.8 1657.9)"><path d="m1.6667 0c0 0.92047-0.74623 1.6667-1.6667 1.6667s-1.6667-0.74623-1.6667-1.6667 0.74619-1.6667 1.6667-1.6667c0.92047 0 1.6667 0.74619 1.6667 1.6667z" fill="#00f"/></g><g transform="matrix(2.5063 0 0 2.5041 1127.9 1552)"><path d="m1.6667 0c0 0.92047-0.74623 1.6667-1.6667 1.6667s-1.6667-0.74623-1.6667-1.6667 0.74619-1.6667 1.6667-1.6667c0.92047 0 1.6667 0.74619 1.6667 1.6667z" fill="#00f"/></g><g transform="matrix(2.5063 0 0 2.5041 1155.1 1875.4)"><path d="m1.6667 0c0 0.92047-0.74623 1.6667-1.6667 1.6667s-1.6667-0.74623-1.6667-1.6667 0.74619-1.6667 1.6667-1.6667c0.92047 0 1.6667 0.74619 1.6667 1.6667z" fill="#00f"/></g><g transform="matrix(2.5063 0 0 2.5041 1318.5 1820)"><path d="m1.6667 0c0 0.92047-0.74623 1.6667-1.6667 1.6667s-1.6667-0.74623-1.6667-1.6667 0.74619-1.6667 1.6667-1.6667c0.92047 0 1.6667 0.74619 1.6667 1.6667z" fill="#00f"/></g><g transform="matrix(2.5063 0 0 2.5041 1236 1643.2)"><path d="m1.6667 0c0 0.92047-0.74623 1.6667-1.6667 1.6667s-1.6667-0.74623-1.6667-1.6667 0.74619-1.6667 1.6667-1.6667c0.92047 0 1.6667 0.74619 1.6667 1.6667z" fill="#00f"/></g><g transform="matrix(2.5063 0 0 2.5041 1296.9 1735.6)"><path d="m1.6667 0c0 0.92047-0.74623 1.6667-1.6667 1.6667s-1.6667-0.74623-1.6667-1.6667 0.74619-1.6667 1.6667-1.6667c0.92047 0 1.6667 0.74619 1.6667 1.6667z" fill="#00f"/></g><g transform="matrix(2.5063 0 0 2.5041 1159.2 1704.7)"><path d="m1.6667 0c0 0.92047-0.74623 1.6667-1.6667 1.6667s-1.6667-0.74623-1.6667-1.6667 0.74619-1.6667 1.6667-1.6667c0.92047 0 1.6667 0.74619 1.6667 1.6667z" fill="#00f"/></g><g transform="matrix(2.5063 0 0 2.5041 1098 1808.2)"><path d="m1.6667 0c0 0.92047-0.74623 1.6667-1.6667 1.6667s-1.6667-0.74623-1.6667-1.6667 0.74619-1.6667 1.6667-1.6667c0.92047 0 1.6667 0.74619 1.6667 1.6667z" fill="#00f"/></g><g transform="matrix(2.5063 0 0 2.5041 1315.8 1757.2)"><path d="m1.6667 0c0 0.92047-0.74623 1.6667-1.6667 1.6667s-1.6667-0.74623-1.6667-1.6667 0.74619-1.6667 1.6667-1.6667c0.92047 0 1.6667 0.74619 1.6667 1.6667z" fill="#00f"/></g><g transform="matrix(2.5063 0 0 2.5041 1355.1 1714)"><path d="m1.6667 0c0 0.92047-0.74623 1.6667-1.6667 1.6667s-1.6667-0.74623-1.6667-1.6667 0.74619-1.6667 1.6667-1.6667c0.92047 0 1.6667 0.74619 1.6667 1.6667z" fill="#00f"/></g><g transform="matrix(2.5063 0 0 2.5041 1395 1741.7)"><path d="m1.6667 0c0 0.92047-0.74623 1.6667-1.6667 1.6667s-1.6667-0.74623-1.6667-1.6667 0.74619-1.6667 1.6667-1.6667c0.92047 0 1.6667 0.74619 1.6667 1.6667z" fill="#00f"/></g><g transform="matrix(2.5063 0 0 2.5041 1107.2 1753.9)"><path d="m1.6667 0c0 0.92047-0.74623 1.6667-1.6667 1.6667s-1.6667-0.74623-1.6667-1.6667 0.74619-1.6667 1.6667-1.6667c0.92047 0 1.6667 0.74619 1.6667 1.6667z" fill="#00f"/></g><g transform="matrix(2.5063 0 0 2.5041 1125 1715.5)"><path d="m1.6667 0c0 0.92047-0.74623 1.6667-1.6667 1.6667s-1.6667-0.74623-1.6667-1.6667 0.74619-1.6667 1.6667-1.6667c0.92047 0 1.6667 0.74619 1.6667 1.6667z" fill="#00f"/></g><g transform="matrix(2.5063 0 0 2.5041 1112.5 1760.4)"><path d="m1.6667 0c0 0.92047-0.74623 1.6667-1.6667 1.6667s-1.6667-0.74623-1.6667-1.6667 0.74619-1.6667 1.6667-1.6667c0.92047 0 1.6667 0.74619 1.6667 1.6667z" fill="#00f"/></g><g transform="matrix(2.5063 0 0 2.5041 1535.8 1736.5)"><path d="m1.6667 0c0 0.92047-0.74623 1.6667-1.6667 1.6667s-1.6667-0.74623-1.6667-1.6667 0.74619-1.6667 1.6667-1.6667c0.92047 0 1.6667 0.74619 1.6667 1.6667z" fill="#f00"/></g><g transform="matrix(2.5063 0 0 2.5041 1357.8 1776.7)"><path d="m1.6667 0c0 0.92047-0.74623 1.6667-1.6667 1.6667s-1.6667-0.74623-1.6667-1.6667 0.74619-1.6667 1.6667-1.6667c0.92047 0 1.6667 0.74619 1.6667 1.6667z" fill="#f00"/></g><g transform="matrix(2.5063 0 0 2.5041 1557.1 1746.1)"><path d="m1.6667 0c0 0.92047-0.74623 1.6667-1.6667 1.6667s-1.6667-0.74623-1.6667-1.6667 0.74619-1.6667 1.6667-1.6667c0.92047 0 1.6667 0.74619 1.6667 1.6667z" fill="#f00"/></g><g transform="matrix(2.5063 0 0 2.5041 1434 1731.3)"><path d="m1.6667 0c0 0.92047-0.74623 1.6667-1.6667 1.6667s-1.6667-0.74623-1.6667-1.6667 0.74619-1.6667 1.6667-1.6667c0.92047 0 1.6667 0.74619 1.6667 1.6667z" fill="#f00"/></g><g transform="matrix(2.5063 0 0 2.5041 1361.3 1738.5)"><path d="m1.6667 0c0 0.92047-0.74623 1.6667-1.6667 1.6667s-1.6667-0.74623-1.6667-1.6667 0.74619-1.6667 1.6667-1.6667c0.92047 0 1.6667 0.74619 1.6667 1.6667z" fill="#f00"/></g><g transform="matrix(2.5063 0 0 2.5041 1361.1 1799.8)"><path d="m1.6667 0c0 0.92047-0.74623 1.6667-1.6667 1.6667s-1.6667-0.74623-1.6667-1.6667 0.74619-1.6667 1.6667-1.6667c0.92047 0 1.6667 0.74619 1.6667 1.6667z" fill="#f00"/></g><g transform="matrix(2.5063 0 0 2.5041 1513.1 1733.5)"><path d="m1.6667 0c0 0.92047-0.74623 1.6667-1.6667 1.6667s-1.6667-0.74623-1.6667-1.6667 0.74619-1.6667 1.6667-1.6667c0.92047 0 1.6667 0.74619 1.6667 1.6667z" fill="#f00"/></g><g transform="matrix(2.5063 0 0 2.5041 1542.9 1707.1)"><path d="m1.6667 0c0 0.92047-0.74623 1.6667-1.6667 1.6667s-1.6667-0.74623-1.6667-1.6667 0.74619-1.6667 1.6667-1.6667c0.92047 0 1.6667 0.74619 1.6667 1.6667z" fill="#f00"/></g><g transform="matrix(2.5063 0 0 2.5041 1486.8 1707.9)"><path d="m1.6667 0c0 0.92047-0.74623 1.6667-1.6667 1.6667s-1.6667-0.74623-1.6667-1.6667 0.74619-1.6667 1.6667-1.6667c0.92047 0 1.6667 0.74619 1.6667 1.6667z" fill="#f00"/></g><g transform="matrix(2.5063 0 0 2.5041 1473.6 1732.9)"><path d="m1.6667 0c0 0.92047-0.74623 1.6667-1.6667 1.6667s-1.6667-0.74623-1.6667-1.6667 0.74619-1.6667 1.6667-1.6667c0.92047 0 1.6667 0.74619 1.6667 1.6667z" fill="#f00"/></g><g transform="matrix(2.5063 0 0 2.5041 1500.4 1726.4)"><path d="m1.6667 0c0 0.92047-0.74623 1.6667-1.6667 1.6667s-1.6667-0.74623-1.6667-1.6667 0.74619-1.6667 1.6667-1.6667c0.92047 0 1.6667 0.74619 1.6667 1.6667z" fill="#f00"/></g><g transform="matrix(2.5063 0 0 2.5041 1278.2 1836.6)"><path d="m1.6667 0c0 0.92047-0.74623 1.6667-1.6667 1.6667s-1.6667-0.74623-1.6667-1.6667 0.74619-1.6667 1.6667-1.6667c0.92047 0 1.6667 0.74619 1.6667 1.6667z" fill="#f00"/></g><g transform="matrix(2.5063 0 0 2.5041 1367.1 1795.4)"><path d="m1.6667 0c0 0.92047-0.74623 1.6667-1.6667 1.6667s-1.6667-0.74623-1.6667-1.6667 0.74619-1.6667 1.6667-1.6667c0.92047 0 1.6667 0.74619 1.6667 1.6667z" fill="#f00"/></g><g transform="matrix(2.5063 0 0 2.5041 1284.3 1802.1)"><path d="m1.6667 0c0 0.92047-0.74623 1.6667-1.6667 1.6667s-1.6667-0.74623-1.6667-1.6667 0.74619-1.6667 1.6667-1.6667c0.92047 0 1.6667 0.74619 1.6667 1.6667z" fill="#f00"/></g><g transform="matrix(2.5063 0 0 2.5041 1448.8 1708.3)"><path d="m1.6667 0c0 0.92047-0.74623 1.6667-1.6667 1.6667s-1.6667-0.74623-1.6667-1.6667 0.74619-1.6667 1.6667-1.6667c0.92047 0 1.6667 0.74619 1.6667 1.6667z" fill="#f00"/></g><g transform="matrix(2.5063 0 0 2.5041 1535.5 1708.1)"><path d="m1.6667 0c0 0.92047-0.74623 1.6667-1.6667 1.6667s-1.6667-0.74623-1.6667-1.6667 0.74619-1.6667 1.6667-1.6667c0.92047 0 1.6667 0.74619 1.6667 1.6667z" fill="#f00"/></g><g transform="matrix(2.5063 0 0 2.5041 1449.8 1792.6)"><path d="m1.6667 0c0 0.92047-0.74623 1.6667-1.6667 1.6667s-1.6667-0.74623-1.6667-1.6667 0.74619-1.6667 1.6667-1.6667c0.92047 0 1.6667 0.74619 1.6667 1.6667z" fill="#f00"/></g><g transform="matrix(2.5063 0 0 2.5041 1652.3 1667.7)"><path d="m1.6667 0c0 0.92047-0.74623 1.6667-1.6667 1.6667s-1.6667-0.74623-1.6667-1.6667 0.74619-1.6667 1.6667-1.6667c0.92047 0 1.6667 0.74619 1.6667 1.6667z" fill="#f00"/></g><g transform="matrix(2.5063 0 0 2.5041 1440.3 1763.6)"><path d="m1.6667 0c0 0.92047-0.74623 1.6667-1.6667 1.6667s-1.6667-0.74623-1.6667-1.6667 0.74619-1.6667 1.6667-1.6667c0.92047 0 1.6667 0.74619 1.6667 1.6667z" fill="#f00"/></g><g transform="matrix(2.5063 0 0 2.5041 1223.4 1850.3)"><path d="m1.6667 0c0 0.92047-0.74623 1.6667-1.6667 1.6667s-1.6667-0.74623-1.6667-1.6667 0.74619-1.6667 1.6667-1.6667c0.92047 0 1.6667 0.74619 1.6667 1.6667z" fill="#f00"/></g><g transform="matrix(2.5063 0 0 2.5041 1574.1 1716.5)"><path d="m1.6667 0c0 0.92047-0.74623 1.6667-1.6667 1.6667s-1.6667-0.74623-1.6667-1.6667 0.74619-1.6667 1.6667-1.6667c0.92047 0 1.6667 0.74619 1.6667 1.6667z" fill="#f00"/></g><g transform="matrix(2.5063 0 0 2.5041 1513.1 1759.1)"><path d="m1.6667 0c0 0.92047-0.74623 1.6667-1.6667 1.6667s-1.6667-0.74623-1.6667-1.6667 0.74619-1.6667 1.6667-1.6667c0.92047 0 1.6667 0.74619 1.6667 1.6667z" fill="#f00"/></g><g transform="matrix(2.5063 0 0 2.5041 1363.8 1799.3)"><path d="m1.6667 0c0 0.92047-0.74623 1.6667-1.6667 1.6667s-1.6667-0.74623-1.6667-1.6667 0.74619-1.6667 1.6667-1.6667c0.92047 0 1.6667 0.74619 1.6667 1.6667z" fill="#f00"/></g><g transform="matrix(2.5063 0 0 2.5041 1420.2 1791.5)"><path d="m1.6667 0c0 0.92047-0.74623 1.6667-1.6667 1.6667s-1.6667-0.74623-1.6667-1.6667 0.74619-1.6667 1.6667-1.6667c0.92047 0 1.6667 0.74619 1.6667 1.6667z" fill="#f00"/></g><g transform="matrix(2.5063 0 0 2.5041 1486.1 1754.2)"><path d="m1.6667 0c0 0.92047-0.74623 1.6667-1.6667 1.6667s-1.6667-0.74623-1.6667-1.6667 0.74619-1.6667 1.6667-1.6667c0.92047 0 1.6667 0.74619 1.6667 1.6667z" fill="#f00"/></g><g transform="matrix(2.5063 0 0 2.5041 1467.7 1747)"><path d="m1.6667 0c0 0.92047-0.74623 1.6667-1.6667 1.6667s-1.6667-0.74623-1.6667-1.6667 0.74619-1.6667 1.6667-1.6667c0.92047 0 1.6667 0.74619 1.6667 1.6667z" fill="#f00"/></g><g transform="matrix(2.5063 0 0 2.5041 1498.1 1733.8)"><path d="m1.6667 0c0 0.92047-0.74623 1.6667-1.6667 1.6667s-1.6667-0.74623-1.6667-1.6667 0.74619-1.6667 1.6667-1.6667c0.92047 0 1.6667 0.74619 1.6667 1.6667z" fill="#f00"/></g><g transform="matrix(2.5063 0 0 2.5041 1410.4 1778.6)"><path d="m1.6667 0c0 0.92047-0.74623 1.6667-1.6667 1.6667s-1.6667-0.74623-1.6667-1.6667 0.74619-1.6667 1.6667-1.6667c0.92047 0 1.6667 0.74619 1.6667 1.6667z" fill="#f00"/></g><g transform="matrix(2.5063 0 0 2.5041 1419.4 1773.3)"><path d="m1.6667 0c0 0.92047-0.74623 1.6667-1.6667 1.6667s-1.6667-0.74623-1.6667-1.6667 0.74619-1.6667 1.6667-1.6667c0.92047 0 1.6667 0.74619 1.6667 1.6667z" fill="#f00"/></g><g transform="matrix(2.5063 0 0 2.5041 1437.7 1760.9)"><path d="m1.6667 0c0 0.92047-0.74623 1.6667-1.6667 1.6667s-1.6667-0.74623-1.6667-1.6667 0.74619-1.6667 1.6667-1.6667c0.92047 0 1.6667 0.74619 1.6667 1.6667z" fill="#f00"/></g><g transform="matrix(2.5063 0 0 2.5041 1373.3 1772.9)"><path d="m1.6667 0c0 0.92047-0.74623 1.6667-1.6667 1.6667s-1.6667-0.74623-1.6667-1.6667 0.74619-1.6667 1.6667-1.6667c0.92047 0 1.6667 0.74619 1.6667 1.6667z" fill="#f00"/></g><g transform="matrix(2.5063 0 0 2.5041 1604.5 1661)"><path d="m1.6667 0c0 0.92047-0.74623 1.6667-1.6667 1.6667s-1.6667-0.74623-1.6667-1.6667 0.74619-1.6667 1.6667-1.6667c0.92047 0 1.6667 0.74619 1.6667 1.6667z" fill="#f00"/></g><g transform="matrix(2.5063 0 0 2.5041 1451.6 1738.4)"><path d="m1.6667 0c0 0.92047-0.74623 1.6667-1.6667 1.6667s-1.6667-0.74623-1.6667-1.6667 0.74619-1.6667 1.6667-1.6667c0.92047 0 1.6667 0.74619 1.6667 1.6667z" fill="#f00"/></g><g transform="matrix(2.5063 0 0 2.5041 1480.4 1754)"><path d="m1.6667 0c0 0.92047-0.74623 1.6667-1.6667 1.6667s-1.6667-0.74623-1.6667-1.6667 0.74619-1.6667 1.6667-1.6667c0.92047 0 1.6667 0.74619 1.6667 1.6667z" fill="#f00"/></g><g transform="matrix(2.5063 0 0 2.5041 1372.4 1769.1)"><path d="m1.6667 0c0 0.92047-0.74623 1.6667-1.6667 1.6667s-1.6667-0.74623-1.6667-1.6667 0.74619-1.6667 1.6667-1.6667c0.92047 0 1.6667 0.74619 1.6667 1.6667z" fill="#f00"/></g><g transform="matrix(2.5063 0 0 2.5041 1321.7 1813.1)"><path d="m1.6667 0c0 0.92047-0.74623 1.6667-1.6667 1.6667s-1.6667-0.74623-1.6667-1.6667 0.74619-1.6667 1.6667-1.6667c0.92047 0 1.6667 0.74619 1.6667 1.6667z" fill="#f00"/></g><g transform="matrix(2.5063 0 0 2.5041 1355.4 1845.3)"><path d="m1.6667 0c0 0.92047-0.74623 1.6667-1.6667 1.6667s-1.6667-0.74623-1.6667-1.6667 0.74619-1.6667 1.6667-1.6667c0.92047 0 1.6667 0.74619 1.6667 1.6667z" fill="#f00"/></g><g transform="matrix(2.5063 0 0 2.5041 1320.1 1875.4)"><path d="m1.6667 0c0 0.92047-0.74623 1.6667-1.6667 1.6667s-1.6667-0.74623-1.6667-1.6667 0.74619-1.6667 1.6667-1.6667c0.92047 0 1.6667 0.74619 1.6667 1.6667z" fill="#f00"/></g><g transform="matrix(2.5063 0 0 2.5041 1474.8 1798.1)"><path d="m1.6667 0c0 0.92047-0.74623 1.6667-1.6667 1.6667s-1.6667-0.74623-1.6667-1.6667 0.74619-1.6667 1.6667-1.6667c0.92047 0 1.6667 0.74619 1.6667 1.6667z" fill="#f00"/></g><g transform="matrix(2.5063 0 0 2.5041 1474.9 1754.7)"><path d="m1.6667 0c0 0.92047-0.74623 1.6667-1.6667 1.6667s-1.6667-0.74623-1.6667-1.6667 0.74619-1.6667 1.6667-1.6667c0.92047 0 1.6667 0.74619 1.6667 1.6667z" fill="#f00"/></g><g transform="matrix(2.5063 0 0 2.5041 1455.1 1773.4)"><path d="m1.6667 0c0 0.92047-0.74623 1.6667-1.6667 1.6667s-1.6667-0.74623-1.6667-1.6667 0.74619-1.6667 1.6667-1.6667c0.92047 0 1.6667 0.74619 1.6667 1.6667z" fill="#f00"/></g><g transform="matrix(2.5063 0 0 2.5041 1270.8 1846.3)"><path d="m1.6667 0c0 0.92047-0.74623 1.6667-1.6667 1.6667s-1.6667-0.74623-1.6667-1.6667 0.74619-1.6667 1.6667-1.6667c0.92047 0 1.6667 0.74619 1.6667 1.6667z" fill="#f00"/></g><g transform="matrix(2.5063 0 0 2.5041 1341.9 1797)"><path d="m1.6667 0c0 0.92047-0.74623 1.6667-1.6667 1.6667s-1.6667-0.74623-1.6667-1.6667 0.74619-1.6667 1.6667-1.6667c0.92047 0 1.6667 0.74619 1.6667 1.6667z" fill="#f00"/></g><g transform="matrix(2.5063 0 0 2.5041 1422.8 1786.8)"><path d="m1.6667 0c0 0.92047-0.74623 1.6667-1.6667 1.6667s-1.6667-0.74623-1.6667-1.6667 0.74619-1.6667 1.6667-1.6667c0.92047 0 1.6667 0.74619 1.6667 1.6667z" fill="#f00"/></g><g transform="matrix(2.5063 0 0 2.5041 1373.9 1804.6)"><path d="m1.6667 0c0 0.92047-0.74623 1.6667-1.6667 1.6667s-1.6667-0.74623-1.6667-1.6667 0.74619-1.6667 1.6667-1.6667c0.92047 0 1.6667 0.74619 1.6667 1.6667z" fill="#f00"/></g><g transform="matrix(2.5063 0 0 2.5041 1567.9 1694.5)"><path d="m1.6667 0c0 0.92047-0.74623 1.6667-1.6667 1.6667s-1.6667-0.74623-1.6667-1.6667 0.74619-1.6667 1.6667-1.6667c0.92047 0 1.6667 0.74619 1.6667 1.6667z" fill="#f00"/></g><g transform="matrix(2.5063 0 0 2.5041 1578.9 1685.3)"><path d="m1.6667 0c0 0.92047-0.74623 1.6667-1.6667 1.6667s-1.6667-0.74623-1.6667-1.6667 0.74619-1.6667 1.6667-1.6667c0.92047 0 1.6667 0.74619 1.6667 1.6667z" fill="#f00"/></g><g transform="matrix(2.5063 0 0 2.5041 1464.3 1680.3)"><path d="m1.6667 0c0 0.92047-0.74623 1.6667-1.6667 1.6667s-1.6667-0.74623-1.6667-1.6667 0.74619-1.6667 1.6667-1.6667c0.92047 0 1.6667 0.74619 1.6667 1.6667z" fill="#f00"/></g><g transform="matrix(2.5063 0 0 2.5041 1519 1722.1)"><path d="m1.6667 0c0 0.92047-0.74623 1.6667-1.6667 1.6667s-1.6667-0.74623-1.6667-1.6667 0.74619-1.6667 1.6667-1.6667c0.92047 0 1.6667 0.74619 1.6667 1.6667z" fill="#f00"/></g><g transform="matrix(2.5063 0 0 2.5041 1557.5 1714.7)"><path d="m1.6667 0c0 0.92047-0.74623 1.6667-1.6667 1.6667s-1.6667-0.74623-1.6667-1.6667 0.74619-1.6667 1.6667-1.6667c0.92047 0 1.6667 0.74619 1.6667 1.6667z" fill="#f00"/></g><g transform="matrix(2.5063 0 0 2.5041 1436.8 1779.1)"><path d="m1.6667 0c0 0.92047-0.74623 1.6667-1.6667 1.6667s-1.6667-0.74623-1.6667-1.6667 0.74619-1.6667 1.6667-1.6667c0.92047 0 1.6667 0.74619 1.6667 1.6667z" fill="#f00"/></g><g transform="matrix(2.5063 0 0 2.5041 1569 1717.8)"><path d="m1.6667 0c0 0.92047-0.74623 1.6667-1.6667 1.6667s-1.6667-0.74623-1.6667-1.6667 0.74619-1.6667 1.6667-1.6667c0.92047 0 1.6667 0.74619 1.6667 1.6667z" fill="#f00"/></g><g transform="matrix(2.5063 0 0 2.5041 1523.2 1730.9)"><path d="m1.6667 0c0 0.92047-0.74623 1.6667-1.6667 1.6667s-1.6667-0.74623-1.6667-1.6667 0.74619-1.6667 1.6667-1.6667c0.92047 0 1.6667 0.74619 1.6667 1.6667z" fill="#f00"/></g><g transform="matrix(2.5063 0 0 2.5041 1384 1833.7)"><path d="m1.6667 0c0 0.92047-0.74623 1.6667-1.6667 1.6667s-1.6667-0.74623-1.6667-1.6667 0.74619-1.6667 1.6667-1.6667c0.92047 0 1.6667 0.74619 1.6667 1.6667z" fill="#f00"/></g><g transform="matrix(2.5063 0 0 2.5041 1498.8 1746.2)"><path d="m1.6667 0c0 0.92047-0.74623 1.6667-1.6667 1.6667s-1.6667-0.74623-1.6667-1.6667 0.74619-1.6667 1.6667-1.6667c0.92047 0 1.6667 0.74619 1.6667 1.6667z" fill="#f00"/></g><g transform="matrix(2.5063 0 0 2.5041 1473.4 1726.3)"><path d="m1.6667 0c0 0.92047-0.74623 1.6667-1.6667 1.6667s-1.6667-0.74623-1.6667-1.6667 0.74619-1.6667 1.6667-1.6667c0.92047 0 1.6667 0.74619 1.6667 1.6667z" fill="#f00"/></g><g transform="matrix(2.5063 0 0 2.5041 1370 1804.3)"><path d="m1.6667 0c0 0.92047-0.74623 1.6667-1.6667 1.6667s-1.6667-0.74623-1.6667-1.6667 0.74619-1.6667 1.6667-1.6667c0.92047 0 1.6667 0.74619 1.6667 1.6667z" fill="#f00"/></g><g transform="matrix(2.5063 0 0 2.5041 1479 1731.7)"><path d="m1.6667 0c0 0.92047-0.74623 1.6667-1.6667 1.6667s-1.6667-0.74623-1.6667-1.6667 0.74619-1.6667 1.6667-1.6667c0.92047 0 1.6667 0.74619 1.6667 1.6667z" fill="#f00"/></g><g transform="matrix(2.5063 0 0 2.5041 1467.8 1721.4)"><path d="m1.6667 0c0 0.92047-0.74623 1.6667-1.6667 1.6667s-1.6667-0.74623-1.6667-1.6667 0.74619-1.6667 1.6667-1.6667c0.92047 0 1.6667 0.74619 1.6667 1.6667z" fill="#f00"/></g><g transform="matrix(2.5063 0 0 2.5041 1434.5 1731.5)"><path d="m1.6667 0c0 0.92047-0.74623 1.6667-1.6667 1.6667s-1.6667-0.74623-1.6667-1.6667 0.74619-1.6667 1.6667-1.6667c0.92047 0 1.6667 0.74619 1.6667 1.6667z" fill="#f00"/></g><g transform="matrix(2.5063 0 0 2.5041 1617.8 1670.7)"><path d="m1.6667 0c0 0.92047-0.74623 1.6667-1.6667 1.6667s-1.6667-0.74623-1.6667-1.6667 0.74619-1.6667 1.6667-1.6667c0.92047 0 1.6667 0.74619 1.6667 1.6667z" fill="#f00"/></g><g transform="matrix(2.5063 0 0 2.5041 1366.4 1855.2)"><path d="m1.6667 0c0 0.92047-0.74623 1.6667-1.6667 1.6667s-1.6667-0.74623-1.6667-1.6667 0.74619-1.6667 1.6667-1.6667c0.92047 0 1.6667 0.74619 1.6667 1.6667z" fill="#f00"/></g><g transform="matrix(2.5063 0 0 2.5041 1656.2 1695.5)"><path d="m1.6667 0c0 0.92047-0.74623 1.6667-1.6667 1.6667s-1.6667-0.74623-1.6667-1.6667 0.74619-1.6667 1.6667-1.6667c0.92047 0 1.6667 0.74619 1.6667 1.6667z" fill="#f00"/></g><g transform="matrix(2.5063 0 0 2.5041 1434.3 1736.7)"><path d="m1.6667 0c0 0.92047-0.74623 1.6667-1.6667 1.6667s-1.6667-0.74623-1.6667-1.6667 0.74619-1.6667 1.6667-1.6667c0.92047 0 1.6667 0.74619 1.6667 1.6667z" fill="#f00"/></g><g transform="matrix(2.5063 0 0 2.5041 1494.1 1728.9)"><path d="m1.6667 0c0 0.92047-0.74623 1.6667-1.6667 1.6667s-1.6667-0.74623-1.6667-1.6667 0.74619-1.6667 1.6667-1.6667c0.92047 0 1.6667 0.74619 1.6667 1.6667z" fill="#f00"/></g><g transform="matrix(2.5063 0 0 2.5041 1572.6 1710.5)"><path d="m1.6667 0c0 0.92047-0.74623 1.6667-1.6667 1.6667s-1.6667-0.74623-1.6667-1.6667 0.74619-1.6667 1.6667-1.6667c0.92047 0 1.6667 0.74619 1.6667 1.6667z" fill="#f00"/></g><g transform="matrix(2.5063 0 0 2.5041 1692.5 1652.3)"><path d="m1.6667 0c0 0.92047-0.74623 1.6667-1.6667 1.6667s-1.6667-0.74623-1.6667-1.6667 0.74619-1.6667 1.6667-1.6667c0.92047 0 1.6667 0.74619 1.6667 1.6667z" fill="#f00"/></g><g transform="matrix(2.5063 0 0 2.5041 1497.2 1706.1)"><path d="m1.6667 0c0 0.92047-0.74623 1.6667-1.6667 1.6667s-1.6667-0.74623-1.6667-1.6667 0.74619-1.6667 1.6667-1.6667c0.92047 0 1.6667 0.74619 1.6667 1.6667z" fill="#f00"/></g><g transform="matrix(2.5063 0 0 2.5041 1362.2 1786)"><path d="m1.6667 0c0 0.92047-0.74623 1.6667-1.6667 1.6667s-1.6667-0.74623-1.6667-1.6667 0.74619-1.6667 1.6667-1.6667c0.92047 0 1.6667 0.74619 1.6667 1.6667z" fill="#f00"/></g><g transform="matrix(2.5063 0 0 2.5041 1473.9 1770.4)"><path d="m1.6667 0c0 0.92047-0.74623 1.6667-1.6667 1.6667s-1.6667-0.74623-1.6667-1.6667 0.74619-1.6667 1.6667-1.6667c0.92047 0 1.6667 0.74619 1.6667 1.6667z" fill="#f00"/></g><g transform="matrix(2.5063 0 0 2.5041 1301.9 1818.7)"><path d="m1.6667 0c0 0.92047-0.74623 1.6667-1.6667 1.6667s-1.6667-0.74623-1.6667-1.6667 0.74619-1.6667 1.6667-1.6667c0.92047 0 1.6667 0.74619 1.6667 1.6667z" fill="#f00"/></g><g transform="matrix(2.5063 0 0 2.5041 1396 1783.8)"><path d="m1.6667 0c0 0.92047-0.74623 1.6667-1.6667 1.6667s-1.6667-0.74623-1.6667-1.6667 0.74619-1.6667 1.6667-1.6667c0.92047 0 1.6667 0.74619 1.6667 1.6667z" fill="#f00"/></g><g transform="matrix(2.5063 0 0 2.5041 1485.8 1717.3)"><path d="m1.6667 0c0 0.92047-0.74623 1.6667-1.6667 1.6667s-1.6667-0.74623-1.6667-1.6667 0.74619-1.6667 1.6667-1.6667c0.92047 0 1.6667 0.74619 1.6667 1.6667z" fill="#f00"/></g><g transform="matrix(2.5063 0 0 2.5041 1578.9 1696.2)"><path d="m1.6667 0c0 0.92047-0.74623 1.6667-1.6667 1.6667s-1.6667-0.74623-1.6667-1.6667 0.74619-1.6667 1.6667-1.6667c0.92047 0 1.6667 0.74619 1.6667 1.6667z" fill="#f00"/></g><g transform="matrix(2.5063 0 0 2.5041 1579.1 1692.2)"><path d="m1.6667 0c0 0.92047-0.74623 1.6667-1.6667 1.6667s-1.6667-0.74623-1.6667-1.6667 0.74619-1.6667 1.6667-1.6667c0.92047 0 1.6667 0.74619 1.6667 1.6667z" fill="#f00"/></g><g transform="matrix(2.5063 0 0 2.5041 1431.3 1759.9)"><path d="m1.6667 0c0 0.92047-0.74623 1.6667-1.6667 1.6667s-1.6667-0.74623-1.6667-1.6667 0.74619-1.6667 1.6667-1.6667c0.92047 0 1.6667 0.74619 1.6667 1.6667z" fill="#f00"/></g><g transform="matrix(2.5063 0 0 2.5041 1499.3 1749.1)"><path d="m1.6667 0c0 0.92047-0.74623 1.6667-1.6667 1.6667s-1.6667-0.74623-1.6667-1.6667 0.74619-1.6667 1.6667-1.6667c0.92047 0 1.6667 0.74619 1.6667 1.6667z" fill="#f00"/></g><g transform="matrix(2.5063 0 0 2.5041 1401.5 1773.8)"><path d="m1.6667 0c0 0.92047-0.74623 1.6667-1.6667 1.6667s-1.6667-0.74623-1.6667-1.6667 0.74619-1.6667 1.6667-1.6667c0.92047 0 1.6667 0.74619 1.6667 1.6667z" fill="#f00"/></g><g transform="matrix(2.5063 0 0 2.5041 1496.5 1733.2)"><path d="m1.6667 0c0 0.92047-0.74623 1.6667-1.6667 1.6667s-1.6667-0.74623-1.6667-1.6667 0.74619-1.6667 1.6667-1.6667c0.92047 0 1.6667 0.74619 1.6667 1.6667z" fill="#f00"/></g><g transform="matrix(2.5063 0 0 2.5041 1551.8 1759.6)"><path d="m1.6667 0c0 0.92047-0.74623 1.6667-1.6667 1.6667s-1.6667-0.74623-1.6667-1.6667 0.74619-1.6667 1.6667-1.6667c0.92047 0 1.6667 0.74619 1.6667 1.6667z" fill="#f00"/></g><g transform="matrix(2.5063 0 0 2.5041 1449.2 1752.2)"><path d="m1.6667 0c0 0.92047-0.74623 1.6667-1.6667 1.6667s-1.6667-0.74623-1.6667-1.6667 0.74619-1.6667 1.6667-1.6667c0.92047 0 1.6667 0.74619 1.6667 1.6667z" fill="#f00"/></g><g transform="matrix(2.5063 0 0 2.5041 1434.9 1735.7)"><path d="m1.6667 0c0 0.92047-0.74623 1.6667-1.6667 1.6667s-1.6667-0.74623-1.6667-1.6667 0.74619-1.6667 1.6667-1.6667c0.92047 0 1.6667 0.74619 1.6667 1.6667z" fill="#f00"/></g><g transform="matrix(2.5063 0 0 2.5041 1379 1787.4)"><path d="m1.6667 0c0 0.92047-0.74623 1.6667-1.6667 1.6667s-1.6667-0.74623-1.6667-1.6667 0.74619-1.6667 1.6667-1.6667c0.92047 0 1.6667 0.74619 1.6667 1.6667z" fill="#f00"/></g><g transform="matrix(2.5063 0 0 2.5041 1550.8 1672.8)"><path d="m1.6667 0c0 0.92047-0.74623 1.6667-1.6667 1.6667s-1.6667-0.74623-1.6667-1.6667 0.74619-1.6667 1.6667-1.6667c0.92047 0 1.6667 0.74619 1.6667 1.6667z" fill="#f00"/></g><g transform="matrix(2.5063 0 0 2.5041 1570.5 1695)"><path d="m1.6667 0c0 0.92047-0.74623 1.6667-1.6667 1.6667s-1.6667-0.74623-1.6667-1.6667 0.74619-1.6667 1.6667-1.6667c0.92047 0 1.6667 0.74619 1.6667 1.6667z" fill="#f00"/></g><g transform="matrix(2.5063 0 0 2.5041 1606.5 1710.1)"><path d="m1.6667 0c0 0.92047-0.74623 1.6667-1.6667 1.6667s-1.6667-0.74623-1.6667-1.6667 0.74619-1.6667 1.6667-1.6667c0.92047 0 1.6667 0.74619 1.6667 1.6667z" fill="#f00"/></g><g transform="matrix(2.5063 0 0 2.5041 1427.8 1770.1)"><path d="m1.6667 0c0 0.92047-0.74623 1.6667-1.6667 1.6667s-1.6667-0.74623-1.6667-1.6667 0.74619-1.6667 1.6667-1.6667c0.92047 0 1.6667 0.74619 1.6667 1.6667z" fill="#f00"/></g><g transform="matrix(2.5063 0 0 2.5041 1433.3 1771.6)"><path d="m1.6667 0c0 0.92047-0.74623 1.6667-1.6667 1.6667s-1.6667-0.74623-1.6667-1.6667 0.74619-1.6667 1.6667-1.6667c0.92047 0 1.6667 0.74619 1.6667 1.6667z" fill="#f00"/></g><g transform="matrix(2.5063 0 0 2.5041 1379.7 1776.8)"><path d="m1.6667 0c0 0.92047-0.74623 1.6667-1.6667 1.6667s-1.6667-0.74623-1.6667-1.6667 0.74619-1.6667 1.6667-1.6667c0.92047 0 1.6667 0.74619 1.6667 1.6667z" fill="#f00"/></g><g transform="matrix(2.5063 0 0 2.5041 1602.5 1677.2)"><path d="m1.6667 0c0 0.92047-0.74623 1.6667-1.6667 1.6667s-1.6667-0.74623-1.6667-1.6667 0.74619-1.6667 1.6667-1.6667c0.92047 0 1.6667 0.74619 1.6667 1.6667z" fill="#f00"/></g><g transform="matrix(2.5063 0 0 2.5041 1411 1780.6)"><path d="m1.6667 0c0 0.92047-0.74623 1.6667-1.6667 1.6667s-1.6667-0.74623-1.6667-1.6667 0.74619-1.6667 1.6667-1.6667c0.92047 0 1.6667 0.74619 1.6667 1.6667z" fill="#f00"/></g><g transform="matrix(2.5063 0 0 2.5041 1402.1 1761.9)"><path d="m1.6667 0c0 0.92047-0.74623 1.6667-1.6667 1.6667s-1.6667-0.74623-1.6667-1.6667 0.74619-1.6667 1.6667-1.6667c0.92047 0 1.6667 0.74619 1.6667 1.6667z" fill="#f00"/></g><g transform="matrix(2.5063 0 0 2.5041 1690.9 1614.3)"><path d="m1.6667 0c0 0.92047-0.74623 1.6667-1.6667 1.6667s-1.6667-0.74623-1.6667-1.6667 0.74619-1.6667 1.6667-1.6667c0.92047 0 1.6667 0.74619 1.6667 1.6667z" fill="#f00"/></g><g transform="matrix(2.5063 0 0 2.5041 1536 1697.2)"><path d="m1.6667 0c0 0.92047-0.74623 1.6667-1.6667 1.6667s-1.6667-0.74623-1.6667-1.6667 0.74619-1.6667 1.6667-1.6667c0.92047 0 1.6667 0.74619 1.6667 1.6667z" fill="#f00"/></g><g transform="matrix(2.5063 0 0 2.5041 1523.6 1705)"><path d="m1.6667 0c0 0.92047-0.74623 1.6667-1.6667 1.6667s-1.6667-0.74623-1.6667-1.6667 0.74619-1.6667 1.6667-1.6667c0.92047 0 1.6667 0.74619 1.6667 1.6667z" fill="#f00"/></g><g transform="matrix(2.5063 0 0 2.5041 1307.4 1835.2)"><path d="m1.6667 0c0 0.92047-0.74623 1.6667-1.6667 1.6667s-1.6667-0.74623-1.6667-1.6667 0.74619-1.6667 1.6667-1.6667c0.92047 0 1.6667 0.74619 1.6667 1.6667z" fill="#f00"/></g><g transform="matrix(2.5063 0 0 2.5041 1448.5 1773.4)"><path d="m1.6667 0c0 0.92047-0.74623 1.6667-1.6667 1.6667s-1.6667-0.74623-1.6667-1.6667 0.74619-1.6667 1.6667-1.6667c0.92047 0 1.6667 0.74619 1.6667 1.6667z" fill="#f00"/></g><g transform="matrix(2.5063 0 0 2.5041 1484.6 1737)"><path d="m1.6667 0c0 0.92047-0.74623 1.6667-1.6667 1.6667s-1.6667-0.74623-1.6667-1.6667 0.74619-1.6667 1.6667-1.6667c0.92047 0 1.6667 0.74619 1.6667 1.6667z" fill="#f00"/></g><g transform="matrix(2.5063 0 0 2.5041 1325.5 1807.4)"><path d="m1.6667 0c0 0.92047-0.74623 1.6667-1.6667 1.6667s-1.6667-0.74623-1.6667-1.6667 0.74619-1.6667 1.6667-1.6667c0.92047 0 1.6667 0.74619 1.6667 1.6667z" fill="#f00"/></g><g transform="matrix(2.5063 0 0 2.5041 1348.8 1843.3)"><path d="m1.6667 0c0 0.92047-0.74623 1.6667-1.6667 1.6667s-1.6667-0.74623-1.6667-1.6667 0.74619-1.6667 1.6667-1.6667c0.92047 0 1.6667 0.74619 1.6667 1.6667z" fill="#f00"/></g><g transform="matrix(2.5063 0 0 2.5041 767.72 1399.6)"><path d="m51 190h5.0167v-25.71h-5.017z" fill-opacity=".10196" fill="#00f"/></g><g transform="matrix(2.5063 0 0 2.5041 767.72 1399.6)"><path d="m51 164.29h14.214v-25.72h-14.214z" fill-opacity=".10196" fill="#00f"/></g><g transform="matrix(2.5063 0 0 2.5041 767.72 1399.6)"><path d="m51 138.57h22.575v-25.71h-22.575z" fill-opacity=".10196" fill="#00f"/></g><g transform="matrix(2.5063 0 0 2.5041 767.72 1399.6)"><path d="m51 112.86h24.247v-25.717h-24.247z" fill-opacity=".10196" fill="#00f"/></g><g transform="matrix(2.5063 0 0 2.5041 767.72 1399.6)"><path d="m51 87.143h10.869v-25.714h-10.869z" fill-opacity=".10196" fill="#00f"/></g><g transform="matrix(2.5063 0 0 2.5041 767.72 1399.6)"><path d="m51 61.429h4.1806v-25.715h-4.181z" fill-opacity=".10196" fill="#00f"/></g><g transform="matrix(2.5063 0 0 2.5041 767.72 1399.6)"><path d="m51 35.714h2.5083v-25.714h-2.508z" fill-opacity=".10196" fill="#00f"/></g><g transform="matrix(2.5063 0 0 2.5041 767.72 1399.6)"><path d="m51 190h8.6v-15h-8.6z" fill-opacity=".10196" fill="#f00"/></g><g transform="matrix(2.5063 0 0 2.5041 767.72 1399.6)"><path d="m51 175h12.9v-15h-12.9z" fill-opacity=".10196" fill="#f00"/></g><g transform="matrix(2.5063 0 0 2.5041 767.72 1399.6)"><path d="m51 160h37.267v-15h-37.267z" fill-opacity=".10196" fill="#f00"/></g><g transform="matrix(2.5063 0 0 2.5041 767.72 1399.6)"><path d="m51 145h43v-15h-43z" fill-opacity=".10196" fill="#f00"/></g><g transform="matrix(2.5063 0 0 2.5041 767.72 1399.6)"><path d="m51 130h28.667v-15h-28.667z" fill-opacity=".10196" fill="#f00"/></g><g transform="matrix(2.5063 0 0 2.5041 767.72 1399.6)"><path d="m51 115h11.467v-15h-11.467z" fill-opacity=".10196" fill="#f00"/></g><g transform="matrix(2.5063 0 0 2.5041 767.72 1399.6)"><path d="m51 100h1.4333v-15h-1.433z" fill-opacity=".10196" fill="#f00"/></g><g transform="matrix(2.5063 0 0 2.5041 767.72 1399.6)"><path d="m51 85v-15z" fill-opacity=".10196" fill="#f00"/></g><g transform="matrix(2.5063 0 0 2.5041 767.72 1399.6)"><path d="m51 70v-15z" fill-opacity=".10196" fill="#f00"/></g><g transform="matrix(2.5063 0 0 2.5041 767.72 1399.6)"><path d="m51 55v-15z" fill-opacity=".10196" fill="#f00"/></g><g transform="matrix(2.5063 0 0 2.5041 767.72 1399.6)"><path d="m51 40v-15z" fill-opacity=".10196" fill="#f00"/></g><g transform="matrix(2.5063 0 0 2.5041 767.72 1399.6)"><path d="m51 25v-15z" fill-opacity=".10196" fill="#f00"/></g><g transform="matrix(2.5063 0 0 2.5041 767.72 1399.6)"><path stroke-linejoin="round" d="m46.2 180.52h4.8" stroke="#000" stroke-miterlimit="10" stroke-width=".83333" fill="none"/></g><g transform="matrix(2.5063 0 0 2.5041 767.72 1399.6)"><path stroke-linejoin="round" d="m46.2 146.07h4.8" stroke="#000" stroke-miterlimit="10" stroke-width=".83333" fill="none"/></g><g transform="matrix(2.5063 0 0 2.5041 767.72 1399.6)"><path stroke-linejoin="round" d="m46.2 111.61h4.8" stroke="#000" stroke-miterlimit="10" stroke-width=".83333" fill="none"/></g><g transform="matrix(2.5063 0 0 2.5041 767.72 1399.6)"><path stroke-linejoin="round" d="m46.2 77.156h4.8" stroke="#000" stroke-miterlimit="10" stroke-width=".83333" fill="none"/></g><g transform="matrix(2.5063 0 0 2.5041 767.72 1399.6)"><path stroke-linejoin="round" d="m46.2 42.701h4.8" stroke="#000" stroke-miterlimit="10" stroke-width=".83333" fill="none"/></g><g transform="matrix(2.5063 0 0 2.5041 871.48 1851.7)"><text transform="translate(-16,6)" font-size="16.667px" font-family="Helvetica" fill="#000000"><tspan y="0" x="0 5.5501108">-2</tspan></text>
</g><g transform="matrix(2.5063 0 0 2.5041 871.48 1765.4)"><text transform="translate(-16,6)" font-size="16.667px" font-family="Helvetica" fill="#000000"><tspan y="0" x="0 5.5501108">-1</tspan></text>
</g><g transform="matrix(2.5063 0 0 2.5041 871.48 1679.1)"><text transform="translate(-10,6)" font-size="16.667px" font-family="Helvetica" fill="#000000"><tspan y="0" x="0">0</tspan></text>
</g><g transform="matrix(2.5063 0 0 2.5041 871.48 1592.8)"><text transform="translate(-10,6)" font-size="16.667px" font-family="Helvetica" fill="#000000"><tspan y="0" x="0">1</tspan></text>
</g><g transform="matrix(2.5063 0 0 2.5041 871.48 1506.5)"><text transform="translate(-10,6)" font-size="16.667px" font-family="Helvetica" fill="#000000"><tspan y="0" x="0">2</tspan></text>
</g><g transform="matrix(-1.1e-7 -2.5041 2.5063 -1.1e-7 812.05 1650)"><text transform="translate(-6,-4)" font-size="16.667px" font-family="Helvetica" fill="#000000"><tspan y="0" x="0">Y</tspan></text>
</g><g transform="matrix(2.5063 0 0 2.5041 767.72 1399.6)"><path d="m98 238v-2.5066h27.1v2.51z" fill-opacity=".10196" fill="#00f"/></g><g transform="matrix(2.5063 0 0 2.5041 767.72 1399.6)"><path d="m125.1 238v-8.3552h27.1v8.36z" fill-opacity=".10196" fill="#00f"/></g><g transform="matrix(2.5063 0 0 2.5041 767.72 1399.6)"><path d="m152.2 238v-19.217h27.1v19.22z" fill-opacity=".10196" fill="#00f"/></g><g transform="matrix(2.5063 0 0 2.5041 767.72 1399.6)"><path d="m179.3 238v-22.559h27.1v22.56z" fill-opacity=".10196" fill="#00f"/></g><g transform="matrix(2.5063 0 0 2.5041 767.72 1399.6)"><path d="m206.4 238v-18.38h27.1v18.38z" fill-opacity=".10196" fill="#00f"/></g><g transform="matrix(2.5063 0 0 2.5041 767.72 1399.6)"><path d="m233.5 238v-7.5196h27.1v7.52z" fill-opacity=".10196" fill="#00f"/></g><g transform="matrix(2.5063 0 0 2.5041 767.72 1399.6)"><path d="m260.6 238v-4.1776h27.1v4.18z" fill-opacity=".10196" fill="#00f"/></g><g transform="matrix(2.5063 0 0 2.5041 767.72 1399.6)"><path d="m287.7 238v-0.83551h27.1v0.84z" fill-opacity=".10196" fill="#00f"/></g><g transform="matrix(2.5063 0 0 2.5041 767.72 1399.6)"><path d="m314.8 238h27.1z" fill-opacity=".10196" fill="#00f"/></g><g transform="matrix(2.5063 0 0 2.5041 767.72 1399.6)"><path d="m341.9 238h27.1z" fill-opacity=".10196" fill="#00f"/></g><g transform="matrix(2.5063 0 0 2.5041 767.72 1399.6)"><path d="m98 238h27.1z" fill-opacity=".10196" fill="#f00"/></g><g transform="matrix(2.5063 0 0 2.5041 767.72 1399.6)"><path d="m125.1 238h27.1z" fill-opacity=".10196" fill="#f00"/></g><g transform="matrix(2.5063 0 0 2.5041 767.72 1399.6)"><path d="m152.2 238h27.1z" fill-opacity=".10196" fill="#f00"/></g><g transform="matrix(2.5063 0 0 2.5041 767.72 1399.6)"><path d="m179.3 238v-3.3421h27.1v3.34z" fill-opacity=".10196" fill="#f00"/></g><g transform="matrix(2.5063 0 0 2.5041 767.72 1399.6)"><path d="m206.4 238v-5.8486h27.1v5.85z" fill-opacity=".10196" fill="#f00"/></g><g transform="matrix(2.5063 0 0 2.5041 767.72 1399.6)"><path d="m233.5 238v-18.381h27.1v18.38z" fill-opacity=".10196" fill="#f00"/></g><g transform="matrix(2.5063 0 0 2.5041 767.72 1399.6)"><path d="m260.6 238v-25.901h27.1v25.9z" fill-opacity=".10196" fill="#f00"/></g><g transform="matrix(2.5063 0 0 2.5041 767.72 1399.6)"><path d="m287.7 238v-15.039h27.1v15.04z" fill-opacity=".10196" fill="#f00"/></g><g transform="matrix(2.5063 0 0 2.5041 767.72 1399.6)"><path d="m314.8 238v-11.697h27.1v11.7z" fill-opacity=".10196" fill="#f00"/></g><g transform="matrix(2.5063 0 0 2.5041 767.72 1399.6)"><path d="m341.9 238v-3.3421h27.1v3.34z" fill-opacity=".10196" fill="#f00"/></g><g transform="matrix(2.5063 0 0 2.5041 767.72 1399.6)"><path stroke-linejoin="round" d="m118.48 242.75v-4.75" stroke="#000" stroke-miterlimit="10" stroke-width=".83333" fill="none"/></g><g transform="matrix(2.5063 0 0 2.5041 767.72 1399.6)"><path stroke-linejoin="round" d="m154.77 242.75v-4.75" stroke="#000" stroke-miterlimit="10" stroke-width=".83333" fill="none"/></g><g transform="matrix(2.5063 0 0 2.5041 767.72 1399.6)"><path stroke-linejoin="round" d="m191.05 242.75v-4.75" stroke="#000" stroke-miterlimit="10" stroke-width=".83333" fill="none"/></g><g transform="matrix(2.5063 0 0 2.5041 767.72 1399.6)"><path stroke-linejoin="round" d="m227.34 242.75v-4.75" stroke="#000" stroke-miterlimit="10" stroke-width=".83333" fill="none"/></g><g transform="matrix(2.5063 0 0 2.5041 767.72 1399.6)"><path stroke-linejoin="round" d="m263.63 242.75v-4.75" stroke="#000" stroke-miterlimit="10" stroke-width=".83333" fill="none"/></g><g transform="matrix(2.5063 0 0 2.5041 767.72 1399.6)"><path stroke-linejoin="round" d="m299.91 242.75v-4.75" stroke="#000" stroke-miterlimit="10" stroke-width=".83333" fill="none"/></g><g transform="matrix(2.5063 0 0 2.5041 767.72 1399.6)"><path stroke-linejoin="round" d="m336.2 242.75v-4.75" stroke="#000" stroke-miterlimit="10" stroke-width=".83333" fill="none"/></g><g transform="matrix(2.5063 0 0 2.5041 1064.7 2019.4)"><text transform="translate(-8,16)" font-size="16.667px" font-family="Helvetica" fill="#000000"><tspan y="0" x="0 5.5501108">-2</tspan></text>
</g><g transform="matrix(2.5063 0 0 2.5041 1155.6 2019.4)"><text transform="translate(-8,16)" font-size="16.667px" font-family="Helvetica" fill="#000000"><tspan y="0" x="0 5.5501108">-1</tspan></text>
</g><g transform="matrix(2.5063 0 0 2.5041 1246.6 2019.4)"><text transform="translate(-5,16)" font-size="16.667px" font-family="Helvetica" fill="#000000"><tspan y="0" x="0">0</tspan></text>
</g><g transform="matrix(2.5063 0 0 2.5041 1337.5 2019.4)"><text transform="translate(-5,16)" font-size="16.667px" font-family="Helvetica" fill="#000000"><tspan y="0" x="0">1</tspan></text>
</g><g transform="matrix(2.5063 0 0 2.5041 1428.4 2019.4)"><text transform="translate(-5,16)" font-size="16.667px" font-family="Helvetica" fill="#000000"><tspan y="0" x="0">2</tspan></text>
</g><g transform="matrix(2.5063 0 0 2.5041 1519.4 2019.4)"><text transform="translate(-5,16)" font-size="16.667px" font-family="Helvetica" fill="#000000"><tspan y="0" x="0">3</tspan></text>
</g><g transform="matrix(2.5063 0 0 2.5041 1610.3 2019.4)"><text transform="translate(-5,16)" font-size="16.667px" font-family="Helvetica" fill="#000000"><tspan y="0" x="0">4</tspan></text>
</g><g transform="matrix(2.5063 0 0 2.5041 1352.9 2066.5)"><text transform="translate(-6,16)" font-size="16.667px" font-family="Helvetica" fill="#000000"><tspan y="0" x="0">X</tspan></text>
</g></g></g></svg>
