<svg xmlns="http://www.w3.org/2000/svg" height="226.772" width="302.362"><defs><clipPath id="a"><path d="M0 0h377v283H0z"/></clipPath></defs><g clip-path="url(#a)" transform="matrix(.80202 0 0 .80131 0 0)"><path d="M0 0h377v283H0z" fill="#fff"/></g><path d="M0 0h302.362v226.772H0z" fill="#fff"/><path d="M196.123 78.496a1.336 1.336 0 1 1-2.672-.001 1.336 1.336 0 0 1 2.672 0zM137.34 102.3a1.336 1.336 0 1 1-2.672-.001 1.336 1.336 0 0 1 2.672.001zM153.718 92.894a1.336 1.336 0 1 1-2.673-.001 1.336 1.336 0 0 1 2.673.001zM169.188 59.385a1.336 1.336 0 1 1-2.672-.001 1.336 1.336 0 0 1 2.672 0zM143.896 74.423a1.336 1.336 0 1 1-2.672-.001 1.336 1.336 0 0 1 2.672.001zM124.51 92.744a1.336 1.336 0 1 1-2.672-.002 1.336 1.336 0 0 1 2.672.002zM124.929 133.848a1.336 1.336 0 1 1-2.672-.001 1.336 1.336 0 0 1 2.672 0zM105.022 97.881a1.336 1.336 0 1 1-2.672 0 1.336 1.336 0 0 1 2.672 0zM148.086 103.457a1.336 1.336 0 1 1-2.672-.001 1.336 1.336 0 0 1 2.672 0zM138.828 97.772a1.336 1.336 0 1 1-2.672 0 1.336 1.336 0 0 1 2.672 0zM139.789 73.832a1.336 1.336 0 1 1-2.672-.001 1.336 1.336 0 0 1 2.672 0zM158.16 64.895a1.336 1.336 0 1 1-2.671-.001 1.336 1.336 0 0 1 2.672.001zM160.309 144.884a1.336 1.336 0 1 1-2.673-.001 1.336 1.336 0 0 1 2.673 0zM167.088 42.241a1.336 1.336 0 1 1-2.672-.001 1.336 1.336 0 0 1 2.672.001zM76.727 68.06a1.336 1.336 0 1 1-2.672 0 1.336 1.336 0 0 1 2.672 0zM125.272 128.631a1.336 1.336 0 1 1-2.672 0 1.336 1.336 0 0 1 2.672 0zM161.436 74.059a1.336 1.336 0 1 1-2.672-.002 1.336 1.336 0 0 1 2.672.002zM205.48 61.005a1.336 1.336 0 1 1-2.673 0 1.336 1.336 0 0 1 2.672 0zM187.775 57.873a1.336 1.336 0 1 1-2.673-.001 1.336 1.336 0 0 1 2.673 0zM156.696 81.641a1.336 1.336 0 1 1-2.672-.001 1.336 1.336 0 0 1 2.672.001zM126.43 81.102a1.336 1.336 0 1 1-2.673 0 1.336 1.336 0 0 1 2.672 0zM186.275 64.73a1.336 1.336 0 1 1-2.672-.002 1.336 1.336 0 0 1 2.672.001zM162.079 8.013a1.336 1.336 0 1 1-2.673-.001 1.336 1.336 0 0 1 2.673.001zM188.903 94.018a1.336 1.336 0 1 1-2.673-.001 1.336 1.336 0 0 1 2.673.001zM153.065 71.557a1.336 1.336 0 1 1-2.672-.002 1.336 1.336 0 0 1 2.672.002zM141.135 141.746a1.336 1.336 0 1 1-2.672-.001 1.336 1.336 0 0 1 2.672 0zM162.746 63.232a1.336 1.336 0 1 1-2.673-.001 1.336 1.336 0 0 1 2.673 0z" fill="#00f"/><path d="M144.752 74.273a1.336 1.336 0 1 1-2.672 0 1.336 1.336 0 0 1 2.672 0zM222.798 92.577a1.336 1.336 0 1 1-2.672 0 1.336 1.336 0 0 1 2.672 0zM147.451 59.924a1.336 1.336 0 1 1-2.672-.001 1.336 1.336 0 0 1 2.672 0zM137.873 90.03a1.336 1.336 0 1 1-2.673 0 1.336 1.336 0 0 1 2.673 0zM115.557 31.115a1.336 1.336 0 1 1-2.672-.001 1.336 1.336 0 0 1 2.672 0zM156.696 87.783a1.336 1.336 0 1 1-2.673-.001 1.336 1.336 0 0 1 2.673.001zM98.62 85.001a1.336 1.336 0 1 1-2.673 0 1.336 1.336 0 0 1 2.673 0zM201.506 121.337a1.336 1.336 0 1 1-2.673-.001 1.336 1.336 0 0 1 2.673.001zM189.62 99.029a1.336 1.336 0 1 1-2.672-.001 1.336 1.336 0 0 1 2.672 0zM150.184 70.803a1.336 1.336 0 1 1-2.672 0 1.336 1.336 0 0 1 2.672 0zM122.184 121.354a1.336 1.336 0 1 1-2.672-.002 1.336 1.336 0 0 1 2.672.002zM194.828 94.629a1.336 1.336 0 1 1-2.672-.001 1.336 1.336 0 0 1 2.672 0zM127.675 67.886a1.336 1.336 0 1 1-2.673 0 1.336 1.336 0 0 1 2.673 0z" fill="#00f"/><path d="M157.5 87.712a1.336 1.336 0 1 1-2.672 0 1.336 1.336 0 0 1 2.672 0zM160.46 125.449a1.336 1.336 0 1 1-2.672-.001 1.336 1.336 0 0 1 2.672.001zM134.736 76.58a1.336 1.336 0 1 1-2.672-.002 1.336 1.336 0 0 1 2.672.001zM139.158 111.616a1.336 1.336 0 1 1-2.672 0 1.336 1.336 0 0 1 2.672 0zM180.625 105.212a1.336 1.336 0 1 1-2.672-.002 1.336 1.336 0 0 1 2.672.002zM161.349 108.507a1.336 1.336 0 1 1-2.673-.001 1.336 1.336 0 0 1 2.673.001zM192.01 83.429a1.336 1.336 0 1 1-2.673-.001 1.336 1.336 0 0 1 2.673 0zM163.945 78.82a1.336 1.336 0 1 1-2.673-.002 1.336 1.336 0 0 1 2.673.001zM95.082 129.99a1.336 1.336 0 1 1-2.672 0 1.336 1.336 0 0 1 2.672 0zM113.138 122.305a1.336 1.336 0 1 1-2.672-.001 1.336 1.336 0 0 1 2.672 0zM151.563 94.865a1.336 1.336 0 1 1-2.672-.001 1.336 1.336 0 0 1 2.672.001zM192.562 122.066a1.336 1.336 0 1 1-2.672-.001 1.336 1.336 0 0 1 2.672.001zM177.623 38.047a1.336 1.336 0 1 1-2.672-.002 1.336 1.336 0 0 1 2.672.002zM122.875 61.742a1.336 1.336 0 1 1-2.672 0 1.336 1.336 0 0 1 2.672 0zM153.05 90.56a1.336 1.336 0 1 1-2.672 0 1.336 1.336 0 0 1 2.672 0zM119.373 110.266a1.336 1.336 0 1 1-2.673-.001 1.336 1.336 0 0 1 2.673.001zM123.357 85.845a1.336 1.336 0 1 1-2.672 0 1.336 1.336 0 0 1 2.672 0zM166.471 59.032a1.336 1.336 0 1 1-2.672 0 1.336 1.336 0 0 1 2.672 0zM139.59 79.999a1.336 1.336 0 1 1-2.672-.001 1.336 1.336 0 0 1 2.673 0zM129.022 71.492a1.336 1.336 0 1 1-2.672-.001 1.336 1.336 0 0 1 2.672.001zM111.526 88.15a1.336 1.336 0 1 1-2.672-.002 1.336 1.336 0 0 1 2.672.002zM230.263 74.326a1.336 1.336 0 1 1-2.672-.002 1.336 1.336 0 0 1 2.672.002zM142.385 99.41a1.336 1.336 0 1 1-2.672-.001 1.336 1.336 0 0 1 2.672 0zM177.984 152.25a1.336 1.336 0 1 1-2.672-.002 1.336 1.336 0 0 1 2.672.002zM167.355 86.49a1.336 1.336 0 1 1-2.673 0 1.336 1.336 0 0 1 2.673 0zM203.957 128.496a1.336 1.336 0 1 1-2.672-.002 1.336 1.336 0 0 1 2.672.002zM184.882 12.397a1.336 1.336 0 1 1-2.672 0 1.336 1.336 0 0 1 2.672 0zM157.04 65.241a1.336 1.336 0 1 1-2.672 0 1.336 1.336 0 0 1 2.672 0zM123.33 76.893a1.336 1.336 0 1 1-2.673-.001 1.336 1.336 0 0 1 2.673.001zM200.997 96.304a1.336 1.336 0 1 1-2.672-.001 1.336 1.336 0 0 1 2.672 0zM179.651 52.196a1.336 1.336 0 1 1-2.672 0 1.336 1.336 0 0 1 2.672 0zM104.77 83.74a1.336 1.336 0 1 1-2.672 0 1.336 1.336 0 0 1 2.672 0zM113.188 46.546a1.336 1.336 0 1 1-2.673-.001 1.336 1.336 0 0 1 2.673.001zM173.289 92.336a1.336 1.336 0 1 1-2.672-.001 1.336 1.336 0 0 1 2.672 0zM145.835 95.447a1.336 1.336 0 1 1-2.673-.002 1.336 1.336 0 0 1 2.673.002zM106.675 69.737a1.336 1.336 0 1 1-2.672-.001 1.336 1.336 0 0 1 2.672.001zM168.01 61.984a1.336 1.336 0 1 1-2.672 0 1.336 1.336 0 0 1 2.673 0zM127.674 94.72a1.336 1.336 0 1 1-2.672 0 1.336 1.336 0 0 1 2.672 0zM129.277 56.889a1.336 1.336 0 1 1-2.673-.002 1.336 1.336 0 0 1 2.673.002zM139.948 85.706a1.336 1.336 0 1 1-2.672-.001 1.336 1.336 0 0 1 2.672 0zM92.705 92.242a1.336 1.336 0 1 1-2.673-.001 1.336 1.336 0 0 1 2.673 0z" fill="#00f"/><path d="M150.477 97.147a1.336 1.336 0 1 1-2.672 0 1.336 1.336 0 0 1 2.672 0zM119.426 64.195a1.336 1.336 0 1 1-2.672-.001 1.336 1.336 0 0 1 2.672 0zM169.892 57.031a1.336 1.336 0 1 1-2.673 0 1.336 1.336 0 0 1 2.673 0zM161.855 58.895a1.336 1.336 0 1 1-2.673-.001 1.336 1.336 0 0 1 2.673 0zM158.536 87.342a1.336 1.336 0 1 1-2.672-.002 1.336 1.336 0 0 1 2.672.002zM159.278 92.718a1.336 1.336 0 1 1-2.672 0 1.336 1.336 0 0 1 2.672 0zM150.297 58.516a1.336 1.336 0 1 1-2.672-.001 1.336 1.336 0 0 1 2.672 0zM147.95 95.756a1.336 1.336 0 1 1-2.672 0 1.336 1.336 0 0 1 2.672 0zM133.103 104.37a1.336 1.336 0 1 1-2.672-.002 1.336 1.336 0 0 1 2.672.001zM207.288 111.446a1.336 1.336 0 1 1-2.672 0 1.336 1.336 0 0 1 2.672 0zM195.25 55.684a1.336 1.336 0 1 1-2.672-.001 1.336 1.336 0 0 1 2.673.001z" fill="#00f"/><path d="M197.674 55.45a1.336 1.336 0 1 1-2.672 0 1.336 1.336 0 0 1 2.672 0zM167.896 86.573a1.336 1.336 0 1 1-2.673-.002 1.336 1.336 0 0 1 2.673.002zM122.808 93.735a1.336 1.336 0 1 1-2.672-.001 1.336 1.336 0 0 1 2.672.001zM136.113 71.154a1.336 1.336 0 1 1-2.673-.001 1.336 1.336 0 0 1 2.673 0zM150.903 101.418a1.336 1.336 0 1 1-2.672 0 1.336 1.336 0 0 1 2.672 0zM159.25 95.72a1.336 1.336 0 1 1-2.671 0 1.336 1.336 0 0 1 2.672 0zM165.046 89.637a1.336 1.336 0 1 1-2.672-.001 1.336 1.336 0 0 1 2.672 0zM128.328 97.74a1.336 1.336 0 1 1-2.672 0 1.336 1.336 0 0 1 2.672 0z" fill="#00f"/><path d="M181.891 132.134a1.336 1.336 0 1 1-2.672 0 1.336 1.336 0 0 1 2.672 0zM265.322 94.044a1.336 1.336 0 1 1-2.672-.001 1.336 1.336 0 0 1 2.672.001zM255.646 108.141a1.336 1.336 0 1 1-2.672-.001 1.336 1.336 0 0 1 2.672.001zM148.131 134.39a1.336 1.336 0 1 1-2.672 0 1.336 1.336 0 0 1 2.672 0zM247.003 91.487a1.336 1.336 0 1 1-2.673 0 1.336 1.336 0 0 1 2.673 0zM193.868 127.856a1.336 1.336 0 1 1-2.672 0 1.336 1.336 0 0 1 2.672 0zM170.033 123.243a1.336 1.336 0 1 1-2.672-.002 1.336 1.336 0 0 1 2.672.002zM218.856 105.946a1.336 1.336 0 1 1-2.672-.001 1.336 1.336 0 0 1 2.672 0zM187.85 119.164a1.336 1.336 0 1 1-2.672-.001 1.336 1.336 0 0 1 2.672 0zM205.514 125.21a1.336 1.336 0 1 1-2.672-.001 1.336 1.336 0 0 1 2.672.001zM226.464 106.765a1.336 1.336 0 1 1-2.672-.001 1.336 1.336 0 0 1 2.672 0zM241.495 99.004a1.336 1.336 0 1 1-2.672-.002 1.336 1.336 0 0 1 2.672.002zM288.216 82.524a1.336 1.336 0 1 1-2.672-.002 1.336 1.336 0 0 1 2.672.002zM169.38 133.5a1.336 1.336 0 1 1-2.672 0 1.336 1.336 0 0 1 2.672 0zM219.627 116.35a1.336 1.336 0 1 1-2.672 0 1.336 1.336 0 0 1 2.672 0zM283.582 94.023a1.336 1.336 0 1 1-2.672-.001 1.336 1.336 0 0 1 2.672.001zM296.71 74.395a1.336 1.336 0 1 1-2.672-.001 1.336 1.336 0 0 1 2.672 0zM208.35 116.688a1.336 1.336 0 1 1-2.672-.001 1.336 1.336 0 0 1 2.672.001zM215.341 95.285a1.336 1.336 0 1 1-2.672-.001 1.336 1.336 0 0 1 2.672 0zM282.573 83.102a1.336 1.336 0 1 1-2.673-.002 1.336 1.336 0 0 1 2.673.002z" fill="red"/><path d="M209.779 118.654a1.336 1.336 0 1 1-2.673-.001 1.336 1.336 0 0 1 2.673.001zM202.16 121.58a1.336 1.336 0 1 1-2.672 0 1.336 1.336 0 0 1 2.672 0zM218.767 105.505a1.336 1.336 0 1 1-2.672-.002 1.336 1.336 0 0 1 2.672.002zM215.154 99.354a1.336 1.336 0 1 1-2.673-.002 1.336 1.336 0 0 1 2.673.002zM198.987 130.647a1.336 1.336 0 1 1-2.673 0 1.336 1.336 0 0 1 2.673 0zM190.252 113.065a1.336 1.336 0 1 1-2.672-.001 1.336 1.336 0 0 1 2.672.001zM166.873 138.76a1.336 1.336 0 1 1-2.672 0 1.336 1.336 0 0 1 2.672 0zM196.36 117.863a1.336 1.336 0 1 1-2.673-.001 1.336 1.336 0 0 1 2.673 0zM252.633 94.013a1.336 1.336 0 1 1-2.673-.001 1.336 1.336 0 0 1 2.673 0zM193.157 127.013a1.336 1.336 0 1 1-2.672 0 1.336 1.336 0 0 1 2.672 0zM188.421 140.944a1.336 1.336 0 1 1-2.672 0 1.336 1.336 0 0 1 2.672 0zM246.934 95.222a1.336 1.336 0 1 1-2.672 0 1.336 1.336 0 0 1 2.672 0zM145.154 152.234a1.336 1.336 0 1 1-2.672 0 1.336 1.336 0 0 1 2.672 0zM214.985 105.758a1.336 1.336 0 1 1-2.672-.002 1.336 1.336 0 0 1 2.672.002zM226.825 114.832a1.336 1.336 0 1 1-2.672-.001 1.336 1.336 0 0 1 2.672 0zM236.845 106.994a1.336 1.336 0 1 1-2.673-.002 1.336 1.336 0 0 1 2.673.002zM172.753 133.27a1.336 1.336 0 1 1-2.672 0 1.336 1.336 0 0 1 2.672 0zM230.967 98.312a1.336 1.336 0 1 1-2.672-.001 1.336 1.336 0 0 1 2.672.001zM213.172 125.754a1.336 1.336 0 1 1-2.672 0 1.336 1.336 0 0 1 2.672 0zM272.32 95.203a1.336 1.336 0 1 1-2.673 0 1.336 1.336 0 0 1 2.672 0zM271.808 70.942a1.336 1.336 0 1 1-2.672-.001 1.336 1.336 0 0 1 2.672.001zM234.402 110.559a1.336 1.336 0 1 1-2.672-.001 1.336 1.336 0 0 1 2.672 0zM219.436 114.643a1.336 1.336 0 1 1-2.673-.001 1.336 1.336 0 0 1 2.673 0zM153.268 118.769a1.336 1.336 0 1 1-2.672-.001 1.336 1.336 0 0 1 2.672.001z" fill="red"/><path d="M215.1 98.1a1.336 1.336 0 1 1-2.673-.001 1.336 1.336 0 0 1 2.672.001zM280.027 102.546a1.336 1.336 0 1 1-2.672-.001 1.336 1.336 0 0 1 2.672 0zM214.359 111.994a1.336 1.336 0 1 1-2.673-.001 1.336 1.336 0 0 1 2.673 0zM275.164 88.94a1.336 1.336 0 1 1-2.673 0 1.336 1.336 0 0 1 2.673 0zM271.995 97.736a1.336 1.336 0 1 1-2.672 0 1.336 1.336 0 0 1 2.672 0zM232.845 111.779a1.336 1.336 0 1 1-2.672-.001 1.336 1.336 0 0 1 2.672 0zM223.99 123.635a1.336 1.336 0 1 1-2.673-.002 1.336 1.336 0 0 1 2.672.002zM297.283 83.517a1.336 1.336 0 1 1-2.673-.001 1.336 1.336 0 0 1 2.673 0zM248.639 92.182a1.336 1.336 0 1 1-2.673-.001 1.336 1.336 0 0 1 2.673 0zM239.718 101.588a1.336 1.336 0 1 1-2.672-.001 1.336 1.336 0 0 1 2.672 0zM209.924 111.311a1.336 1.336 0 1 1-2.672-.001 1.336 1.336 0 0 1 2.672.001zM230.489 90.085a1.336 1.336 0 1 1-2.672-.001 1.336 1.336 0 0 1 2.672.001zM182.892 127.408a1.336 1.336 0 1 1-2.672 0 1.336 1.336 0 0 1 2.672 0zM195.058 128.282a1.336 1.336 0 1 1-2.672 0 1.336 1.336 0 0 1 2.672 0zM271.659 94.86a1.336 1.336 0 1 1-2.672 0 1.336 1.336 0 0 1 2.672 0zM178.48 136.492a1.336 1.336 0 1 1-2.672 0 1.336 1.336 0 0 1 2.672 0zM254.394 104.532a1.336 1.336 0 1 1-2.672 0 1.336 1.336 0 0 1 2.672 0zM211.42 99.963a1.336 1.336 0 1 1-2.673-.001 1.336 1.336 0 0 1 2.672 0z" fill="red"/><path d="M182.632 129.353a1.336 1.336 0 1 1-2.672 0 1.336 1.336 0 0 1 2.672 0zM187.973 140.432a1.336 1.336 0 1 1-2.672-.001 1.336 1.336 0 0 1 2.672 0zM248.456 111.773a1.336 1.336 0 1 1-2.673-.001 1.336 1.336 0 0 1 2.673.001zM162.868 141.244a1.336 1.336 0 1 1-2.672-.001 1.336 1.336 0 0 1 2.672 0zM143.064 132.92a1.336 1.336 0 1 1-2.672-.002 1.336 1.336 0 0 1 2.672.001zM202.425 116.703a1.336 1.336 0 1 1-2.672 0 1.336 1.336 0 0 1 2.672 0zM211.714 113.75a1.336 1.336 0 1 1-2.672 0 1.336 1.336 0 0 1 2.672 0zM184.49 116.793a1.336 1.336 0 1 1-2.673-.001 1.336 1.336 0 0 1 2.672.001zM220.182 98.419a1.336 1.336 0 1 1-2.672-.002 1.336 1.336 0 0 1 2.672.002z" fill="red"/><path d="M184.308 129.557a1.336 1.336 0 1 1-2.672-.002 1.336 1.336 0 0 1 2.672.002zM256.619 90.392a1.336 1.336 0 1 1-2.672-.001 1.336 1.336 0 0 1 2.672 0zM232.717 102.352a1.336 1.336 0 1 1-2.672 0 1.336 1.336 0 0 1 2.672 0zM246.67 107.74a1.336 1.336 0 1 1-2.672-.001 1.336 1.336 0 0 1 2.672.001zM198.758 111.638a1.336 1.336 0 1 1-2.672-.001 1.336 1.336 0 0 1 2.672 0zM239.614 91.258a1.336 1.336 0 1 1-2.672-.001 1.336 1.336 0 0 1 2.672 0zM198.231 102.006a1.336 1.336 0 1 1-2.672 0 1.336 1.336 0 0 1 2.672 0zM195.539 127.441a1.336 1.336 0 1 1-2.672-.001 1.336 1.336 0 0 1 2.672.001zM197.353 130.112a1.336 1.336 0 1 1-2.673 0 1.336 1.336 0 0 1 2.673 0zM193.207 123.775a1.336 1.336 0 1 1-2.672 0 1.336 1.336 0 0 1 2.672 0zM235.157 111.607a1.336 1.336 0 1 1-2.672-.001 1.336 1.336 0 0 1 2.672 0z" fill="red"/><path d="M233.84 113a1.336 1.336 0 1 1-2.671 0 1.336 1.336 0 0 1 2.672 0zM219.756 118.401a1.336 1.336 0 1 1-2.672-.001 1.336 1.336 0 0 1 2.672.001zM236.174 110.546a1.336 1.336 0 1 1-2.672-.002 1.336 1.336 0 0 1 2.672.002zM258.614 81.437a1.336 1.336 0 1 1-2.672-.001 1.336 1.336 0 0 1 2.672 0zM225.826 105.794a1.336 1.336 0 1 1-2.673 0 1.336 1.336 0 0 1 2.673 0zM225.492 117.771a1.336 1.336 0 1 1-2.672 0 1.336 1.336 0 0 1 2.672 0zM239.793 95.413a1.336 1.336 0 1 1-2.672-.002 1.336 1.336 0 0 1 2.672.002zM269.09 88.703a1.336 1.336 0 1 1-2.672 0 1.336 1.336 0 0 1 2.672 0zM260.965 93.131a1.336 1.336 0 1 1-2.672 0 1.336 1.336 0 0 1 2.672 0zM200.444 116.338a1.336 1.336 0 1 1-2.672-.001 1.336 1.336 0 0 1 2.672.001zM187.395 125.132a1.336 1.336 0 1 1-2.672 0 1.336 1.336 0 0 1 2.672 0zM203.61 120.493a1.336 1.336 0 1 1-2.672-.001 1.336 1.336 0 0 1 2.673 0zM191.321 128.06a1.336 1.336 0 1 1-2.672-.001 1.336 1.336 0 0 1 2.672 0zM170.782 133.39a1.336 1.336 0 1 1-2.672-.002 1.336 1.336 0 0 1 2.672.001zM156.347 150.135a1.336 1.336 0 1 1-2.672 0 1.336 1.336 0 0 1 2.672 0zM288.366 83.76a1.336 1.336 0 1 1-2.672-.002 1.336 1.336 0 0 1 2.672.001zM250.898 107.758a1.336 1.336 0 1 1-2.672-.002 1.336 1.336 0 0 1 2.672.002zM236.724 104.334a1.336 1.336 0 1 1-2.673 0 1.336 1.336 0 0 1 2.673 0z" fill="red"/><path d="M36.893 152.25h2.874v-18.03h-2.874zM36.893 134.22h8.622v-18.03h-8.622zM36.893 116.19h10.538V98.16H36.893zM36.893 98.16h33.529V80.132H36.893zM36.893 80.131h21.075v-18.03H36.893z" fill="#00f" fill-opacity=".102"/><path d="M36.893 62.102h14.37v-18.03h-14.37z" fill="#00f" fill-opacity=".102"/><path d="M36.893 44.072h2.874v-18.03h-2.874z" fill="#00f" fill-opacity=".102"/><path d="M36.893 26.043h1.916V8.013h-1.916z" fill="#00f" fill-opacity=".102"/><path d="M36.893 152.25h7.185v-12.02h-7.185zM36.893 140.23h18.68v-12.02h-18.68z" fill="red" fill-opacity=".102"/><path d="M36.893 128.21H71.38v-12.02H36.893zM36.893 116.19H71.38v-12.02H36.893zM36.893 104.17h30.176V92.152H36.893zM36.893 92.151H52.7v-12.02H36.893zM36.893 80.131h2.874v-12.02h-2.874zM36.893 68.112v-12.02zM36.893 56.092v-12.02zM36.893 44.072v-12.02zM36.893 32.053v-12.02zM36.893 20.033V8.013z" fill="red" fill-opacity=".102"/><path d="M41.25 170.933H46M41.25 139.336H46M41.25 107.739H46M41.25 76.142H46M41.25 44.545H46M41.25 12.948H46" fill="none" stroke="#000" stroke-width=".833" stroke-linejoin="round" stroke-miterlimit="10" transform="matrix(.80202 0 0 .80131 0 0)"/><text style="-inkscape-font-specification:Helvetica" transform="matrix(.80202 0 0 .80131 19.65 140.577)" font-weight="400" font-size="13.333" font-family="Helvetica"><tspan y="0" x="0 4.439889">-2</tspan></text><text style="-inkscape-font-specification:Helvetica" transform="matrix(.80202 0 0 .80131 19.65 115.258)" font-weight="400" font-size="13.333" font-family="Helvetica"><tspan y="0" x="0 4.439889">-1</tspan></text><text style="-inkscape-font-specification:Helvetica" transform="matrix(.80202 0 0 .80131 22.858 89.939)" font-weight="400" font-size="13.333" font-family="Helvetica"><tspan y="0" x="0">0</tspan></text><text style="-inkscape-font-specification:Helvetica" transform="matrix(.80202 0 0 .80131 22.858 64.62)" font-weight="400" font-size="13.333" font-family="Helvetica"><tspan y="0" x="0">1</tspan></text><text style="-inkscape-font-specification:Helvetica" transform="matrix(.80202 0 0 .80131 22.858 39.3)" font-weight="400" font-size="13.333" font-family="Helvetica"><tspan y="0" x="0">2</tspan></text><text style="-inkscape-font-specification:Helvetica" transform="matrix(.80202 0 0 .80131 22.858 13.981)" font-weight="400" font-size="13.333" font-family="Helvetica"><tspan y="0" x="0">3</tspan></text><text style="-inkscape-font-specification:Helvetica" transform="matrix(0 -.80131 .80202 0 10.98 84.94)" font-weight="400" font-size="16.667" font-family="Helvetica"><tspan y="0" x="0">Y</tspan></text><path d="M75.39 190.713v-4.595h22.056v4.595zM97.446 190.713v-10.337H119.5v10.337zM119.501 190.713V160.85h22.056v29.863z" fill="#00f" fill-opacity=".102"/><path d="M141.557 190.713v-34.457h22.055v34.457zM163.612 190.713v-17.229h22.056v17.229zM185.668 190.713v-16.08h22.056v16.08z" fill="#00f" fill-opacity=".102"/><path d="M207.724 190.713v-2.298h22.055v2.298zM229.78 190.713h22.055zM251.835 190.713h22.055zM273.89 190.713h22.056z" fill="#00f" fill-opacity=".102"/><path d="M75.39 190.713h24.506zM99.896 190.713h24.506zM124.402 190.713v-3.102h24.507v3.102zM148.909 190.713v-8.27h24.506v8.27zM173.415 190.713V167.97h24.506v22.742zM197.921 190.713V167.97h24.506v22.742zM222.427 190.713V167.97h24.507v22.742zM246.934 190.713v-15.506h24.506v15.506zM271.44 190.713v-8.27h24.506v8.27z" fill="red" fill-opacity=".102"/><path d="M110.501 242.75V238M150.393 242.75V238M190.284 242.75V238M230.175 242.75V238M270.066 242.75V238M309.957 242.75V238M349.848 242.75V238" fill="none" stroke="#000" stroke-width=".833" stroke-linejoin="round" stroke-miterlimit="10" transform="matrix(.80202 0 0 .80131 0 0)"/><text style="-inkscape-font-specification:Helvetica" transform="matrix(.80202 0 0 .80131 83.812 207.94)" font-weight="400" font-size="13.333" font-family="Helvetica"><tspan y="0" x="0 4.439889">-2</tspan></text><text style="-inkscape-font-specification:Helvetica" transform="matrix(.80202 0 0 .80131 115.806 207.94)" font-weight="400" font-size="13.333" font-family="Helvetica"><tspan y="0" x="0 4.439889">-1</tspan></text><text style="-inkscape-font-specification:Helvetica" transform="matrix(.80202 0 0 .80131 149.404 207.94)" font-weight="400" font-size="13.333" font-family="Helvetica"><tspan y="0" x="0">0</tspan></text><text style="-inkscape-font-specification:Helvetica" transform="matrix(.80202 0 0 .80131 181.397 207.94)" font-weight="400" font-size="13.333" font-family="Helvetica"><tspan y="0" x="0">1</tspan></text><text style="-inkscape-font-specification:Helvetica" transform="matrix(.80202 0 0 .80131 213.39 207.94)" font-weight="400" font-size="13.333" font-family="Helvetica"><tspan y="0" x="0">2</tspan></text><text style="-inkscape-font-specification:Helvetica" transform="matrix(.80202 0 0 .80131 245.384 207.94)" font-weight="400" font-size="13.333" font-family="Helvetica"><tspan y="0" x="0">3</tspan></text><text style="-inkscape-font-specification:Helvetica" transform="matrix(.80202 0 0 .80131 277.378 207.94)" font-weight="400" font-size="13.333" font-family="Helvetica"><tspan y="0" x="0">4</tspan></text><text style="-inkscape-font-specification:Helvetica" transform="matrix(.80202 0 0 .80131 180.856 226.219)" font-weight="400" font-size="16.667" font-family="Helvetica"><tspan y="0" x="0">X</tspan></text></svg>