<svg xmlns="http://www.w3.org/2000/svg" height="226.667" width="302.667"><path d="M152.875 86.991a1.336 1.336 0 1 1-2.673-.001 1.336 1.336 0 0 1 2.673.001zM185.377 61.205a1.336 1.336 0 1 1-2.673-.001 1.336 1.336 0 0 1 2.673 0zM183.7 86.025a1.336 1.336 0 1 1-2.672 0 1.336 1.336 0 0 1 2.673 0zM107.149 18.814a1.336 1.336 0 1 1-2.673-.001 1.336 1.336 0 0 1 2.673 0zM114.706 28.786a1.336 1.336 0 1 1-2.672 0 1.336 1.336 0 0 1 2.672 0zM124.975 53.473a1.336 1.336 0 1 1-2.672 0 1.336 1.336 0 0 1 2.672 0z" fill="#00f"/><path d="M154.475 87.409a1.336 1.336 0 1 1-2.672-.001 1.336 1.336 0 0 1 2.672 0zM113.302 114.389a1.336 1.336 0 1 1-2.672-.002 1.336 1.336 0 0 1 2.672.002zM156.264 66.225a1.336 1.336 0 1 1-2.672-.001 1.336 1.336 0 0 1 2.672 0zM160.883 40.841a1.336 1.336 0 1 1-2.672 0 1.336 1.336 0 0 1 2.672 0zM144.88 79.534a1.336 1.336 0 1 1-2.673-.001 1.336 1.336 0 0 1 2.673.001zM136.757 119.86a1.336 1.336 0 1 1-2.672 0 1.336 1.336 0 0 1 2.672 0zM198.448 13.816a1.336 1.336 0 1 1-2.673 0 1.336 1.336 0 0 1 2.673 0zM141.019 113.606a1.336 1.336 0 1 1-2.672-.001 1.336 1.336 0 0 1 2.672 0zM170.302 26.813a1.336 1.336 0 1 1-2.672-.001 1.336 1.336 0 0 1 2.672.001zM133.104 52.111a1.336 1.336 0 1 1-2.672-.001 1.336 1.336 0 0 1 2.672.001zM185.238 67.547a1.336 1.336 0 1 1-2.672 0 1.336 1.336 0 0 1 2.672 0zM92.438 71.92a1.336 1.336 0 1 1-2.672-.001 1.336 1.336 0 0 1 2.672.001zM134.074 62.982a1.336 1.336 0 1 1-2.672 0 1.336 1.336 0 0 1 2.672 0zM149.38 88.146a1.336 1.336 0 1 1-2.672 0 1.336 1.336 0 0 1 2.672 0zM89.97 59.372a1.336 1.336 0 1 1-2.672 0 1.336 1.336 0 0 1 2.672 0zM241.294 58.845a1.336 1.336 0 1 1-2.673-.002 1.336 1.336 0 0 1 2.673.002zM142.724 47.486a1.336 1.336 0 1 1-2.672 0 1.336 1.336 0 0 1 2.672 0zM215.249 108.103a1.336 1.336 0 1 1-2.672-.001 1.336 1.336 0 0 1 2.672.001zM168.705 68.163a1.336 1.336 0 1 1-2.673-.001 1.336 1.336 0 0 1 2.673 0z" fill="#00f"/><path d="M146.165 79.426a1.336 1.336 0 1 1-2.672-.001 1.336 1.336 0 0 1 2.672.001zM105.229 16.831a1.336 1.336 0 1 1-2.672 0 1.336 1.336 0 0 1 2.672 0zM133.472 129.215a1.336 1.336 0 1 1-2.673-.002 1.336 1.336 0 0 1 2.673.002zM156.417 55.39a1.336 1.336 0 1 1-2.672-.002 1.336 1.336 0 0 1 2.672.001zM88.91 92.933a1.336 1.336 0 1 1-2.672-.001 1.336 1.336 0 0 1 2.672 0zM132.341 107.522a1.336 1.336 0 1 1-2.672 0 1.336 1.336 0 0 1 2.672 0zM166.662 35.42a1.336 1.336 0 1 1-2.673 0 1.336 1.336 0 0 1 2.673 0zM172.618 46.45a1.336 1.336 0 1 1-2.672-.001 1.336 1.336 0 0 1 2.672 0zM145.61 48.523a1.336 1.336 0 1 1-2.673 0 1.336 1.336 0 0 1 2.672 0zM113.073 8.239a1.336 1.336 0 1 1-2.672-.002 1.336 1.336 0 0 1 2.672.002zM109.536 54.69a1.336 1.336 0 1 1-2.672 0 1.336 1.336 0 0 1 2.672 0zM150.781 112.224a1.336 1.336 0 1 1-2.672-.002 1.336 1.336 0 0 1 2.672.002zM153.853 76.092a1.336 1.336 0 1 1-2.672 0 1.336 1.336 0 0 1 2.672 0zM202.46 106.618a1.336 1.336 0 1 1-2.672-.001 1.336 1.336 0 0 1 2.672.001zM162.777 65.315a1.336 1.336 0 1 1-2.672 0 1.336 1.336 0 0 1 2.672 0zM150.397 78.197a1.336 1.336 0 1 1-2.672-.002 1.336 1.336 0 0 1 2.672.002zM152.45 58.514a1.336 1.336 0 1 1-2.673-.001 1.336 1.336 0 0 1 2.673.001zM141.745 51.43a1.336 1.336 0 1 1-2.672-.002 1.336 1.336 0 0 1 2.672.001zM130.566 25.981a1.336 1.336 0 1 1-2.672-.001 1.336 1.336 0 0 1 2.672.001zM177.254 92.212a1.336 1.336 0 1 1-2.672-.001 1.336 1.336 0 0 1 2.672 0zM143.909 54.956a1.336 1.336 0 1 1-2.673-.001 1.336 1.336 0 0 1 2.673 0zM156.898 109.59a1.336 1.336 0 1 1-2.672-.001 1.336 1.336 0 0 1 2.672.001zM159.204 43.33a1.336 1.336 0 1 1-2.673 0 1.336 1.336 0 0 1 2.673 0zM123.183 45.81a1.336 1.336 0 1 1-2.672-.002 1.336 1.336 0 0 1 2.672.001zM118.965 98.477a1.336 1.336 0 1 1-2.672-.001 1.336 1.336 0 0 1 2.672 0zM133.007 75.33a1.336 1.336 0 1 1-2.673-.002 1.336 1.336 0 0 1 2.673.001zM84.556 17.667a1.336 1.336 0 1 1-2.672-.001 1.336 1.336 0 0 1 2.672.001zM166.88 119.328a1.336 1.336 0 1 1-2.672-.001 1.336 1.336 0 0 1 2.673 0zM172.885 65.78a1.336 1.336 0 1 1-2.672-.001 1.336 1.336 0 0 1 2.672.001zM188.971 105.725a1.336 1.336 0 1 1-2.672-.002 1.336 1.336 0 0 1 2.672.002zM101.82 101.839a1.336 1.336 0 1 1-2.672-.001 1.336 1.336 0 0 1 2.673.001zM184.054 49.193a1.336 1.336 0 1 1-2.672-.001 1.336 1.336 0 0 1 2.672 0zM105.16 59.136a1.336 1.336 0 1 1-2.671-.001 1.336 1.336 0 0 1 2.672 0zM129.944 43.842a1.336 1.336 0 1 1-2.673 0 1.336 1.336 0 0 1 2.673 0zM142.71 32.827a1.336 1.336 0 1 1-2.672-.002 1.336 1.336 0 0 1 2.672.002zM98.697 114.532a1.336 1.336 0 1 1-2.672 0 1.336 1.336 0 0 1 2.672 0zM164.948 99.548a1.336 1.336 0 1 1-2.672 0 1.336 1.336 0 0 1 2.672 0zM149.384 104.846a1.336 1.336 0 1 1-2.672 0 1.336 1.336 0 0 1 2.672 0zM146.633 70.417a1.336 1.336 0 1 1-2.672-.001 1.336 1.336 0 0 1 2.672 0zM104.889 29.62a1.336 1.336 0 1 1-2.672 0 1.336 1.336 0 0 1 2.672 0zM163.9 71.73a1.336 1.336 0 1 1-2.673-.002 1.336 1.336 0 0 1 2.673.002zM136.829 86.324a1.336 1.336 0 1 1-2.672 0 1.336 1.336 0 0 1 2.672 0zM192.751 71.166a1.336 1.336 0 1 1-2.672-.001 1.336 1.336 0 0 1 2.672 0zM190.52 116.58a1.336 1.336 0 1 1-2.672 0 1.336 1.336 0 0 1 2.673 0zM145.458 99.687a1.336 1.336 0 1 1-2.672 0 1.336 1.336 0 0 1 2.672 0zM154.812 73.516a1.336 1.336 0 1 1-2.672-.001 1.336 1.336 0 0 1 2.672 0zM184.613 108.922a1.336 1.336 0 1 1-2.672-.001 1.336 1.336 0 0 1 2.672 0zM188.686 113.039a1.336 1.336 0 1 1-2.672-.001 1.336 1.336 0 0 1 2.672 0zM152.33 8.013a1.336 1.336 0 1 1-2.671-.001 1.336 1.336 0 0 1 2.672.001zM218.686 55.949a1.336 1.336 0 1 1-2.672-.001 1.336 1.336 0 0 1 2.672 0zM174.104 104.082a1.336 1.336 0 1 1-2.672-.001 1.336 1.336 0 0 1 2.672.001z" fill="#00f"/><path d="M188.054 103.852a1.336 1.336 0 1 1-2.672 0 1.336 1.336 0 0 1 2.672 0zM135.533 87.366a1.336 1.336 0 1 1-2.672 0 1.336 1.336 0 0 1 2.672 0zM106.637 101.164a1.336 1.336 0 1 1-2.672 0 1.336 1.336 0 0 1 2.672 0zM181.423 111.3a1.336 1.336 0 1 1-2.672-.001 1.336 1.336 0 0 1 2.672 0zM167.508 25.046a1.336 1.336 0 1 1-2.672-.001 1.336 1.336 0 0 1 2.672 0zM170.58 55.66a1.336 1.336 0 1 1-2.672-.002 1.336 1.336 0 0 1 2.672.001zM124.8 70.904a1.336 1.336 0 1 1-2.672-.001 1.336 1.336 0 0 1 2.673 0zM131.084 68.36a1.336 1.336 0 1 1-2.673-.002 1.336 1.336 0 0 1 2.673.001zM182.07 105.198a1.336 1.336 0 1 1-2.672 0 1.336 1.336 0 0 1 2.672 0zM137.062 95.678a1.336 1.336 0 1 1-2.672-.001 1.336 1.336 0 0 1 2.672 0zM195.247 70.771a1.336 1.336 0 1 1-2.673 0 1.336 1.336 0 0 1 2.673 0zM125.93 102.687a1.336 1.336 0 1 1-2.672-.001 1.336 1.336 0 0 1 2.673.001zM207.226 42.918a1.336 1.336 0 1 1-2.672-.001 1.336 1.336 0 0 1 2.672 0zM97.656 118.894a1.336 1.336 0 1 1-2.672-.001 1.336 1.336 0 0 1 2.672.001zM76.727 55.183a1.336 1.336 0 1 1-2.672 0 1.336 1.336 0 0 1 2.672 0zM155.519 93.244a1.336 1.336 0 1 1-2.672-.001 1.336 1.336 0 0 1 2.672 0zM203.542 36.949a1.336 1.336 0 1 1-2.673-.001 1.336 1.336 0 0 1 2.673 0zM179.861 60.77a1.336 1.336 0 1 1-2.672-.001 1.336 1.336 0 0 1 2.672.001zM182.485 98.694a1.336 1.336 0 1 1-2.673 0 1.336 1.336 0 0 1 2.673 0zM142.673 78.755a1.336 1.336 0 1 1-2.672-.001 1.336 1.336 0 0 1 2.672.001zM155.082 72.064a1.336 1.336 0 1 1-2.673-.002 1.336 1.336 0 0 1 2.673.002zM157.95 50.074a1.336 1.336 0 1 1-2.672-.001 1.336 1.336 0 0 1 2.672.001zM112.515 96.974a1.336 1.336 0 1 1-2.673-.002 1.336 1.336 0 0 1 2.673.002zM197.515 56.672a1.336 1.336 0 1 1-2.672-.002 1.336 1.336 0 0 1 2.672.002z" fill="#00f"/><path d="M186.043 126.106a1.336 1.336 0 1 1-2.673-.001 1.336 1.336 0 0 1 2.673.001zM238.038 87.628a1.336 1.336 0 1 1-2.673-.001 1.336 1.336 0 0 1 2.673 0zM254.81 71.788a1.336 1.336 0 1 1-2.673 0 1.336 1.336 0 0 1 2.673 0zM259.503 90.59a1.336 1.336 0 1 1-2.672-.001 1.336 1.336 0 0 1 2.672.001zM163.304 141.326a1.336 1.336 0 1 1-2.672-.002 1.336 1.336 0 0 1 2.672.002zM185.01 120.702a1.336 1.336 0 1 1-2.671 0 1.336 1.336 0 0 1 2.672 0zM297.283 43.413a1.336 1.336 0 1 1-2.672-.001 1.336 1.336 0 0 1 2.672 0z" fill="red"/><path d="M182.859 119.825a1.336 1.336 0 1 1-2.672-.002 1.336 1.336 0 0 1 2.672.002zM196.562 121.581a1.336 1.336 0 1 1-2.672-.001 1.336 1.336 0 0 1 2.672.001zM194.309 118.912a1.336 1.336 0 1 1-2.673 0 1.336 1.336 0 0 1 2.673 0zM232.375 104.35a1.336 1.336 0 1 1-2.672 0 1.336 1.336 0 0 1 2.672 0zM211.449 115.03a1.336 1.336 0 1 1-2.673-.001 1.336 1.336 0 0 1 2.673.001zM138.555 130.992a1.336 1.336 0 1 1-2.673-.001 1.336 1.336 0 0 1 2.673.001zM256.541 78.267a1.336 1.336 0 1 1-2.672 0 1.336 1.336 0 0 1 2.672 0zM150.944 142.675a1.336 1.336 0 1 1-2.672-.001 1.336 1.336 0 0 1 2.672 0zM199.763 120.974a1.336 1.336 0 1 1-2.673-.001 1.336 1.336 0 0 1 2.673.001zM235.902 79.836a1.336 1.336 0 1 1-2.672-.002 1.336 1.336 0 0 1 2.672.002zM233.755 86.79a1.336 1.336 0 1 1-2.673 0 1.336 1.336 0 0 1 2.673 0zM249.904 91.006a1.336 1.336 0 1 1-2.673-.001 1.336 1.336 0 0 1 2.673 0zM147.105 140.089a1.336 1.336 0 1 1-2.672-.001 1.336 1.336 0 0 1 2.672.001zM224.62 101.192a1.336 1.336 0 1 1-2.673-.001 1.336 1.336 0 0 1 2.672.001zM232.6 93.243a1.336 1.336 0 1 1-2.672-.002 1.336 1.336 0 0 1 2.672.002zM267.435 75.533a1.336 1.336 0 1 1-2.672-.002 1.336 1.336 0 0 1 2.672.002zM177.806 131.853a1.336 1.336 0 1 1-2.672-.001 1.336 1.336 0 0 1 2.672.001zM200.861 93.775a1.336 1.336 0 1 1-2.672-.001 1.336 1.336 0 0 1 2.672 0zM182.292 123.225a1.336 1.336 0 1 1-2.672-.001 1.336 1.336 0 0 1 2.672.001zM216.615 86.966a1.336 1.336 0 1 1-2.672-.002 1.336 1.336 0 0 1 2.672.002zM247.263 84.493a1.336 1.336 0 1 1-2.672-.001 1.336 1.336 0 0 1 2.672 0zM205.534 107.191a1.336 1.336 0 1 1-2.672-.001 1.336 1.336 0 0 1 2.672.001zM189.572 117.632a1.336 1.336 0 1 1-2.672-.002 1.336 1.336 0 0 1 2.672.002zM200.179 115.695a1.336 1.336 0 1 1-2.672-.001 1.336 1.336 0 0 1 2.672.001zM164.083 144.178a1.336 1.336 0 1 1-2.673-.001 1.336 1.336 0 0 1 2.673 0zM192.475 125.044a1.336 1.336 0 1 1-2.672-.001 1.336 1.336 0 0 1 2.672 0zM246.496 81.576a1.336 1.336 0 1 1-2.673 0 1.336 1.336 0 0 1 2.673 0z" fill="red"/><path d="M201.284 96.463a1.336 1.336 0 1 1-2.672 0 1.336 1.336 0 0 1 2.672 0zM179.604 118.428a1.336 1.336 0 1 1-2.672-.002 1.336 1.336 0 0 1 2.672.002zM222.602 106.161a1.336 1.336 0 1 1-2.672 0 1.336 1.336 0 0 1 2.672 0zM204.376 102.642a1.336 1.336 0 1 1-2.673-.001 1.336 1.336 0 0 1 2.673 0zM229.297 88.104a1.336 1.336 0 1 1-2.672-.001 1.336 1.336 0 0 1 2.672 0zM235.372 109.317a1.336 1.336 0 1 1-2.672-.001 1.336 1.336 0 0 1 2.672 0z" fill="red"/><path d="M227.408 89.427a1.336 1.336 0 1 1-2.672 0 1.336 1.336 0 0 1 2.672 0zM164.139 122.858a1.336 1.336 0 1 1-2.672 0 1.336 1.336 0 0 1 2.672 0zM149.911 129.684a1.336 1.336 0 1 1-2.672-.001 1.336 1.336 0 0 1 2.672 0zM178.098 117.867a1.336 1.336 0 1 1-2.673-.001 1.336 1.336 0 0 1 2.673.001zM212.031 107.522a1.336 1.336 0 1 1-2.672-.001 1.336 1.336 0 0 1 2.672.001zM181.22 119.39a1.336 1.336 0 1 1-2.673-.002 1.336 1.336 0 0 1 2.673.001zM188.6 105.574a1.336 1.336 0 1 1-2.673-.001 1.336 1.336 0 0 1 2.672.001zM212.56 101.045a1.336 1.336 0 1 1-2.672-.001 1.336 1.336 0 0 1 2.672 0zM227.701 85.594a1.336 1.336 0 1 1-2.672-.001 1.336 1.336 0 0 1 2.672.001zM265.794 81.225a1.336 1.336 0 1 1-2.672-.001 1.336 1.336 0 0 1 2.672 0zM196.83 125.278a1.336 1.336 0 1 1-2.673-.001 1.336 1.336 0 0 1 2.672.001zM207.111 100.26a1.336 1.336 0 1 1-2.672-.001 1.336 1.336 0 0 1 2.672.001zM198.748 115.635a1.336 1.336 0 1 1-2.672 0 1.336 1.336 0 0 1 2.672 0zM125.994 152.25a1.336 1.336 0 1 1-2.672-.002 1.336 1.336 0 0 1 2.672.002z" fill="red"/><path d="M197.385 114.437a1.336 1.336 0 1 1-2.672-.001 1.336 1.336 0 0 1 2.672.001zM199.663 98.183a1.336 1.336 0 1 1-2.673-.001 1.336 1.336 0 0 1 2.673 0zM190.732 127.14a1.336 1.336 0 1 1-2.672-.002 1.336 1.336 0 0 1 2.672.001zM240.642 86.57a1.336 1.336 0 1 1-2.672 0 1.336 1.336 0 0 1 2.672 0zM212.427 108.657a1.336 1.336 0 1 1-2.672-.001 1.336 1.336 0 0 1 2.672.001zM145.127 135.683a1.336 1.336 0 1 1-2.673-.001 1.336 1.336 0 0 1 2.673 0zM158.885 134.64a1.336 1.336 0 1 1-2.672-.002 1.336 1.336 0 0 1 2.672.001zM118.161 147.232a1.336 1.336 0 1 1-2.672-.002 1.336 1.336 0 0 1 2.672.002zM205.702 95.976a1.336 1.336 0 1 1-2.673-.001 1.336 1.336 0 0 1 2.673 0zM157.97 130.82a1.336 1.336 0 1 1-2.673-.002 1.336 1.336 0 0 1 2.673.001zM190.134 114.82a1.336 1.336 0 1 1-2.672 0 1.336 1.336 0 0 1 2.672 0zM164.619 136.978a1.336 1.336 0 1 1-2.673-.001 1.336 1.336 0 0 1 2.673 0zM174.155 130.812a1.336 1.336 0 1 1-2.672 0 1.336 1.336 0 0 1 2.672 0zM235.419 97.221a1.336 1.336 0 1 1-2.672-.001 1.336 1.336 0 0 1 2.672.001zM261.045 79.293a1.336 1.336 0 1 1-2.672-.001 1.336 1.336 0 0 1 2.672 0zM264.056 82.84a1.336 1.336 0 1 1-2.672-.002 1.336 1.336 0 0 1 2.672.002zM263.917 90.473a1.336 1.336 0 1 1-2.672-.001 1.336 1.336 0 0 1 2.672.001zM175.202 121.93a1.336 1.336 0 1 1-2.672 0 1.336 1.336 0 0 1 2.672 0zM209.59 96.65a1.336 1.336 0 1 1-2.672-.001 1.336 1.336 0 0 1 2.673.001zM273.979 81.38a1.336 1.336 0 1 1-2.673 0 1.336 1.336 0 0 1 2.673 0zM237.74 78.585a1.336 1.336 0 1 1-2.673-.001 1.336 1.336 0 0 1 2.672 0zM138.379 144.16a1.336 1.336 0 1 1-2.673 0 1.336 1.336 0 0 1 2.673 0z" fill="red"/><path d="M190.945 128.23a1.336 1.336 0 1 1-2.672 0 1.336 1.336 0 0 1 2.672 0zM187.423 111.718a1.336 1.336 0 1 1-2.672 0 1.336 1.336 0 0 1 2.672 0zM255.083 91.112a1.336 1.336 0 1 1-2.672-.001 1.336 1.336 0 0 1 2.672.001z" fill="red"/><path d="M253.502 88.52a1.336 1.336 0 1 1-2.672-.002 1.336 1.336 0 0 1 2.672.001zM224.531 98.439a1.336 1.336 0 1 1-2.672-.001 1.336 1.336 0 0 1 2.672 0zM188.52 97.693a1.336 1.336 0 1 1-2.673-.001 1.336 1.336 0 0 1 2.672.001zM227.251 109.352a1.336 1.336 0 1 1-2.672 0 1.336 1.336 0 0 1 2.672 0zM232.208 93.62a1.336 1.336 0 1 1-2.672-.001 1.336 1.336 0 0 1 2.672 0zM201.983 98.007a1.336 1.336 0 1 1-2.672-.001 1.336 1.336 0 0 1 2.672 0zM179.237 125.96a1.336 1.336 0 1 1-2.672-.002 1.336 1.336 0 0 1 2.672.002z" fill="red"/><path d="M233.808 96.076a1.336 1.336 0 1 1-2.673-.001 1.336 1.336 0 0 1 2.673.001zM184.773 103.362a1.336 1.336 0 1 1-2.672-.001 1.336 1.336 0 0 1 2.672.001zM149.072 140.652a1.336 1.336 0 1 1-2.672 0 1.336 1.336 0 0 1 2.672 0zM176.428 115.278a1.336 1.336 0 1 1-2.673 0 1.336 1.336 0 0 1 2.673 0zM194.703 116.368a1.336 1.336 0 1 1-2.672 0 1.336 1.336 0 0 1 2.672 0zM227.242 95.266a1.336 1.336 0 1 1-2.672-.001 1.336 1.336 0 0 1 2.672 0zM156.915 119.71a1.336 1.336 0 1 1-2.672 0 1.336 1.336 0 0 1 2.672 0zM232.784 75.099a1.336 1.336 0 1 1-2.672-.001 1.336 1.336 0 0 1 2.672 0zM152.876 144.914a1.336 1.336 0 1 1-2.672-.002 1.336 1.336 0 0 1 2.672.002z" fill="red"/><path d="M228.608 95.32a1.336 1.336 0 1 1-2.672-.002 1.336 1.336 0 0 1 2.672.001zM212.317 106.853a1.336 1.336 0 1 1-2.672 0 1.336 1.336 0 0 1 2.672 0z" fill="red"/><path d="M211.857 107.564a1.336 1.336 0 1 1-2.672-.001 1.336 1.336 0 0 1 2.672.001zM232.011 100.421a1.336 1.336 0 1 1-2.672-.001 1.336 1.336 0 0 1 2.672.001zM194.645 125.116a1.336 1.336 0 1 1-2.672-.001 1.336 1.336 0 0 1 2.672 0z" fill="red"/><path d="M36.893 152.25v-20.606zM36.893 131.644h10.622V111.04H36.893zM36.893 111.04h21.244V90.433H36.893z" fill="#00f" fill-opacity=".102"/><path d="M36.893 90.434h19.313V69.829H36.893zM36.893 69.829h23.175V49.224H36.893zM36.893 49.224h13.519V28.618H36.893zM36.893 28.618h8.69V8.013h-8.69z" fill="#00f" fill-opacity=".102"/><path d="M36.893 152.25h12.415v-14.424H36.893zM36.893 137.826h20.692v-14.424H36.893z" fill="red" fill-opacity=".102"/><path d="M36.893 123.402h31.728V108.98H36.893zM36.893 108.979H71.38V94.555H36.893zM36.893 94.555h27.59V80.131h-27.59zM36.893 80.131h9.656V65.708h-9.656zM36.893 65.708V51.284zM36.893 51.284h1.38V36.86h-1.38zM36.893 36.86V22.437zM36.893 22.437V8.013z" fill="red" fill-opacity=".102"/><path d="M41.25 170.225H46M41.25 132.17H46M41.25 94.114H46M41.25 56.058H46M41.25 18.003H46" fill="none" stroke="#000" stroke-width=".833" stroke-linejoin="round" stroke-miterlimit="10" transform="matrix(.80202 0 0 .80131 0 0)"/><text style="-inkscape-font-specification:Helvetica" transform="matrix(.80202 0 0 .80131 19.65 140.01)" font-weight="400" font-size="13.333" font-family="Helvetica"><tspan y="0" x="0 4.439889">-2</tspan></text><text style="-inkscape-font-specification:Helvetica" transform="matrix(.80202 0 0 .80131 19.65 109.515)" font-weight="400" font-size="13.333" font-family="Helvetica"><tspan y="0" x="0 4.439889">-1</tspan></text><text style="-inkscape-font-specification:Helvetica" transform="matrix(.80202 0 0 .80131 22.858 79.02)" font-weight="400" font-size="13.333" font-family="Helvetica"><tspan y="0" x="0">0</tspan></text><text style="-inkscape-font-specification:Helvetica" transform="matrix(.80202 0 0 .80131 22.858 48.526)" font-weight="400" font-size="13.333" font-family="Helvetica"><tspan y="0" x="0">1</tspan></text><text style="-inkscape-font-specification:Helvetica" transform="matrix(.80202 0 0 .80131 22.858 18.032)" font-weight="400" font-size="13.333" font-family="Helvetica"><tspan y="0" x="0">2</tspan></text><text style="-inkscape-font-specification:Helvetica" transform="matrix(0 -.80131 .80202 0 10.98 84.94)" font-weight="400" font-size="16.667" font-family="Helvetica"><tspan y="0" x="0">Y</tspan></text><path d="M75.39 190.713v-8.615h24.506v8.615zM99.896 190.713v-18.46h24.506v18.46zM124.402 190.713v-31.996h24.507v31.996zM148.909 190.713v-34.457h24.506v34.457zM173.415 190.713v-22.151h24.506v22.15zM197.921 190.713v-6.153h24.506v6.153zM222.427 190.713v-1.231h24.507v1.23zM246.934 190.713h24.506zM271.44 190.713h24.506z" fill="#00f" fill-opacity=".102"/><path d="M75.39 190.713h24.506zM99.896 190.713v-1.231h24.506v1.23zM124.402 190.713v-8.615h24.507v8.615zM148.909 190.713v-12.306h24.506v12.306zM173.415 190.713v-33.226h24.506v33.226zM197.921 190.713V167.33h24.506v23.382zM222.427 190.713v-28.304h24.507v28.304zM246.934 190.713v-13.537h24.506v13.537zM271.44 190.713v-2.462h24.506v2.462z" fill="red" fill-opacity=".102"/><path d="M110.242 242.75V238M147.35 242.75V238M184.459 242.75V238M221.568 242.75V238M258.676 242.75V238M295.785 242.75V238M332.894 242.75V238" fill="none" stroke="#000" stroke-width=".833" stroke-linejoin="round" stroke-miterlimit="10" transform="matrix(.80202 0 0 .80131 0 0)"/><text style="-inkscape-font-specification:Helvetica" transform="matrix(.80202 0 0 .80131 83.604 207.94)" font-weight="400" font-size="13.333" font-family="Helvetica"><tspan y="0" x="0 4.439889">-2</tspan></text><text style="-inkscape-font-specification:Helvetica" transform="matrix(.80202 0 0 .80131 113.366 207.94)" font-weight="400" font-size="13.333" font-family="Helvetica"><tspan y="0" x="0 4.439889">-1</tspan></text><text style="-inkscape-font-specification:Helvetica" transform="matrix(.80202 0 0 .80131 144.732 207.94)" font-weight="400" font-size="13.333" font-family="Helvetica"><tspan y="0" x="0">0</tspan></text><text style="-inkscape-font-specification:Helvetica" transform="matrix(.80202 0 0 .80131 174.494 207.94)" font-weight="400" font-size="13.333" font-family="Helvetica"><tspan y="0" x="0">1</tspan></text><text style="-inkscape-font-specification:Helvetica" transform="matrix(.80202 0 0 .80131 204.256 207.94)" font-weight="400" font-size="13.333" font-family="Helvetica"><tspan y="0" x="0">2</tspan></text><text style="-inkscape-font-specification:Helvetica" transform="matrix(.80202 0 0 .80131 234.018 207.94)" font-weight="400" font-size="13.333" font-family="Helvetica"><tspan y="0" x="0">3</tspan></text><text style="-inkscape-font-specification:Helvetica" transform="matrix(.80202 0 0 .80131 263.78 207.94)" font-weight="400" font-size="13.333" font-family="Helvetica"><tspan y="0" x="0">4</tspan></text><text style="-inkscape-font-specification:Helvetica" transform="matrix(.80202 0 0 .80131 180.856 226.219)" font-weight="400" font-size="16.667" font-family="Helvetica"><tspan y="0" x="0">X</tspan></text></svg>