<?xml version="1.0" encoding="UTF-8" standalone="no"?>
<svg xmlns:rdf="http://www.w3.org/1999/02/22-rdf-syntax-ns#" xmlns="http://www.w3.org/2000/svg" xml:space="preserve" height="221.35" viewBox="0 0 304.33334 221.34666" width="304.33" version="1.1" xmlns:cc="http://creativecommons.org/ns#" xmlns:dc="http://purl.org/dc/elements/1.1/"><metadata><rdf:RDF><cc:Work rdf:about=""><dc:format>image/svg+xml</dc:format><dc:type rdf:resource="http://purl.org/dc/dcmitype/StillImage"/><dc:title/></cc:Work></rdf:RDF></metadata><g transform="matrix(1.3333 0 0 -1.3333 0 221.35)"><g transform="scale(.1)"><path d="m0 2.5234h2262.7v1700.8h-2262.7z" fill="#fff"/><path d="m0 2.5234h2262.7v1700.8h-2262.7z" fill="#fff"/><g fill="#0072bd"><path d="m1502.1 1209.2c0-5.53-4.5-10.02-10.03-10.02-5.54 0-10.03 4.49-10.03 10.02s4.49 10.02 10.03 10.02c5.53 0 10.03-4.49 10.03-10.02"/><path d="m555.85 952.88c0-5.531-4.493-10.02-10.028-10.02s-10.027 4.489-10.027 10.02c0 5.527 4.492 10.015 10.027 10.015s10.028-4.488 10.028-10.015"/><path d="m1163.8 1118.1c0-5.53-4.49-10.02-10.02-10.02-5.54 0-10.03 4.49-10.03 10.02s4.49 10.02 10.03 10.02c5.53 0 10.02-4.49 10.02-10.02"/><path d="m1028.9 1416.2c0-5.53-4.5-10.02-10.03-10.02-5.54 0-10.03 4.49-10.03 10.02s4.49 10.02 10.03 10.02c5.53 0 10.03-4.49 10.03-10.02"/><path d="m1430.2 1123.1c0-5.53-4.49-10.02-10.02-10.02-5.54 0-10.03 4.49-10.03 10.02 0 5.52 4.49 10.01 10.03 10.01 5.53 0 10.02-4.49 10.02-10.01"/><path d="m1443.4 807.81c0-5.528-4.49-10.016-10.03-10.016-5.53 0-10.02 4.488-10.02 10.016 0 5.531 4.49 10.019 10.02 10.019 5.54 0 10.03-4.488 10.03-10.019"/><path d="m1440.4 856.78c0-5.527-4.5-10.015-10.03-10.015s-10.03 4.488-10.03 10.015c0 5.532 4.5 10.02 10.03 10.02s10.03-4.488 10.03-10.02"/><path d="m1090.8 1044c0-5.53-4.5-10.02-10.03-10.02s-10.03 4.49-10.03 10.02 4.5 10.02 10.03 10.02 10.03-4.49 10.03-10.02"/><path d="m983.79 1038.1c0-5.52-4.496-10.02-10.027-10.02-5.536 0-10.028 4.5-10.028 10.02 0 5.54 4.492 10.02 10.028 10.02 5.531 0 10.027-4.48 10.027-10.02"/><path d="m988.19 854.41c0-5.531-4.492-10.019-10.027-10.019-5.531 0-10.027 4.488-10.027 10.019 0 5.528 4.496 10.02 10.027 10.02 5.535 0 10.027-4.492 10.027-10.02"/><path d="m1644.1 1139.5c0-5.54-4.5-10.02-10.03-10.02-5.54 0-10.03 4.48-10.03 10.02 0 5.52 4.49 10.02 10.03 10.02 5.53 0 10.03-4.5 10.03-10.02"/><path d="m414 1435.4c0-5.54-4.496-10.02-10.027-10.02-5.535 0-10.028 4.48-10.028 10.02 0 5.52 4.493 10.02 10.028 10.02 5.531 0 10.027-4.5 10.027-10.02"/><path d="m1161.9 1021.9c0-5.52-4.49-10.02-10.02-10.02-5.54 0-10.03 4.5-10.03 10.02 0 5.53 4.49 10.02 10.03 10.02 5.53 0 10.02-4.49 10.02-10.02"/><path d="m1379 1034.6c0-5.53-4.49-10.02-10.03-10.02-5.53 0-10.02 4.49-10.02 10.02s4.49 10.02 10.02 10.02c5.54 0 10.03-4.49 10.03-10.02"/><path d="m959.48 490.5c0-5.527-4.493-10.016-10.028-10.016-5.531 0-10.027 4.489-10.027 10.016 0 5.531 4.496 10.02 10.027 10.02 5.535 0 10.028-4.489 10.028-10.02"/><path d="m1473 879.28c0-5.531-4.5-10.019-10.03-10.019s-10.03 4.488-10.03 10.019c0 5.528 4.5 10.016 10.03 10.016s10.03-4.488 10.03-10.016"/><path d="m1223.7 710.7c0-5.531-4.49-10.019-10.02-10.019-5.54 0-10.03 4.488-10.03 10.019 0 5.527 4.49 10.016 10.03 10.016 5.53 0 10.02-4.489 10.02-10.016"/><path d="m829.71 985.07c0-5.531-4.496-10.019-10.027-10.019-5.536 0-10.028 4.488-10.028 10.019 0 5.528 4.492 10.016 10.028 10.016 5.531 0 10.027-4.488 10.027-10.016"/><path d="m1329.5 1233.5c0-5.53-4.49-10.02-10.02-10.02-5.54 0-10.03 4.49-10.03 10.02s4.49 10.02 10.03 10.02c5.53 0 10.02-4.49 10.02-10.02"/><path d="m1134.3 1505.3c0-5.53-4.5-10.01-10.03-10.01-5.54 0-10.03 4.48-10.03 10.01s4.49 10.02 10.03 10.02c5.53 0 10.03-4.49 10.03-10.02"/><path d="m1069.9 1580.3c0-5.53-4.49-10.02-10.03-10.02-5.53 0-10.02 4.49-10.02 10.02s4.49 10.01 10.02 10.01c5.54 0 10.03-4.48 10.03-10.01"/><path d="m932.87 1058.4c0-5.53-4.492-10.02-10.027-10.02s-10.027 4.49-10.027 10.02 4.492 10.02 10.027 10.02 10.027-4.49 10.027-10.02"/><path d="m1284.1 1003.1c0-5.533-4.49-10.021-10.02-10.021-5.54 0-10.03 4.488-10.03 10.021 0 5.53 4.49 10.01 10.03 10.01 5.53 0 10.02-4.48 10.02-10.01"/><path d="m417.12 1313c0-5.52-4.492-10.02-10.027-10.02s-10.028 4.5-10.028 10.02c0 5.53 4.493 10.02 10.028 10.02s10.027-4.49 10.027-10.02"/><path d="m1075.1 1223.8c0-5.53-4.49-10.02-10.02-10.02-5.54 0-10.03 4.49-10.03 10.02 0 5.52 4.49 10.02 10.03 10.02 5.53 0 10.02-4.5 10.02-10.02"/><path d="m1009.1 1298.8c0-5.54-4.49-10.02-10.03-10.02-5.535 0-10.027 4.48-10.027 10.02 0 5.52 4.492 10.01 10.027 10.01 5.54 0 10.03-4.49 10.03-10.01"/><path d="m841.71 1302.3c0-5.53-4.496-10.01-10.027-10.01-5.536 0-10.028 4.48-10.028 10.01s4.492 10.02 10.028 10.02c5.531 0 10.027-4.49 10.027-10.02"/><path d="m1552.8 686.99c0-5.527-4.5-10.015-10.03-10.015s-10.03 4.488-10.03 10.015c0 5.532 4.5 10.02 10.03 10.02s10.03-4.488 10.03-10.02"/><path d="m922.44 1237.5c0-5.54-4.493-10.02-10.028-10.02s-10.027 4.48-10.027 10.02c0 5.52 4.492 10.01 10.027 10.01s10.028-4.49 10.028-10.01"/><path d="m1501.9 1065.4c0-5.54-4.5-10.02-10.03-10.02-5.54 0-10.03 4.48-10.03 10.02 0 5.52 4.49 10.01 10.03 10.01 5.53 0 10.03-4.49 10.03-10.01"/><path d="m1699.6 883.16c0-5.527-4.5-10.016-10.03-10.016s-10.03 4.489-10.03 10.016c0 5.531 4.5 10.02 10.03 10.02s10.03-4.489 10.03-10.02"/><path d="m1184.9 901.33c0-5.531-4.5-10.019-10.03-10.019-5.54 0-10.03 4.488-10.03 10.019 0 5.527 4.49 10.016 10.03 10.016 5.53 0 10.03-4.489 10.03-10.016"/><path d="m1382.4 1439.4c0-5.53-4.49-10.01-10.02-10.01-5.54 0-10.03 4.48-10.03 10.01s4.49 10.02 10.03 10.02c5.53 0 10.02-4.49 10.02-10.02"/><path d="m1546.8 869.68c0-5.528-4.5-10.02-10.03-10.02-5.54 0-10.03 4.492-10.03 10.02 0 5.527 4.49 10.019 10.03 10.019 5.53 0 10.03-4.492 10.03-10.019"/><path d="m1219.3 753.33c0-5.531-4.49-10.019-10.02-10.019s-10.03 4.488-10.03 10.019c0 5.527 4.5 10.016 10.03 10.016s10.02-4.489 10.02-10.016"/><path d="m1502 1148.8c0-5.54-4.49-10.02-10.03-10.02-5.53 0-10.02 4.48-10.02 10.02 0 5.52 4.49 10.01 10.02 10.01 5.54 0 10.03-4.49 10.03-10.01"/><path d="m682.34 1638.1c0-5.53-4.496-10.02-10.027-10.02-5.536 0-10.028 4.49-10.028 10.02s4.492 10.02 10.028 10.02c5.531 0 10.027-4.49 10.027-10.02"/><path d="m1760.8 1097.3c0-5.53-4.49-10.02-10.02-10.02-5.54 0-10.03 4.49-10.03 10.02s4.49 10.01 10.03 10.01c5.53 0 10.02-4.48 10.02-10.01"/><path d="m806.41 1174.3c0-5.53-4.496-10.02-10.027-10.02-5.535 0-10.028 4.49-10.028 10.02s4.493 10.02 10.028 10.02c5.531 0 10.027-4.49 10.027-10.02"/><path d="m424.98 834.67c0-5.527-4.492-10.02-10.027-10.02s-10.027 4.493-10.027 10.02 4.492 10.019 10.027 10.019 10.027-4.492 10.027-10.019"/><path d="m1885.4 1546.4c0-5.53-4.5-10.02-10.03-10.02-5.54 0-10.03 4.49-10.03 10.02s4.49 10.02 10.03 10.02c5.53 0 10.03-4.49 10.03-10.02"/><path d="m1227.6 1124.4c0-5.53-4.49-10.02-10.03-10.02-5.53 0-10.02 4.49-10.02 10.02s4.49 10.01 10.02 10.01c5.54 0 10.03-4.48 10.03-10.01"/><path d="m1460.2 1234.7c0-5.53-4.49-10.02-10.03-10.02-5.53 0-10.02 4.49-10.02 10.02s4.49 10.02 10.02 10.02c5.54 0 10.03-4.49 10.03-10.02"/><path d="m1091 830.91c0-5.527-4.49-10.019-10.02-10.019-5.54 0-10.03 4.492-10.03 10.019 0 5.528 4.49 10.02 10.03 10.02 5.53 0 10.02-4.492 10.02-10.02"/><path d="m792.31 1323c0-5.53-4.493-10.02-10.028-10.02-5.531 0-10.027 4.49-10.027 10.02 0 5.52 4.496 10.01 10.027 10.01 5.535 0 10.028-4.49 10.028-10.01"/><path d="m1540.8 775.34c0-5.528-4.49-10.016-10.03-10.016-5.53 0-10.03 4.488-10.03 10.016 0 5.531 4.5 10.019 10.03 10.019 5.54 0 10.03-4.488 10.03-10.019"/><path d="m1125.9 1101.1c0-5.53-4.5-10.02-10.03-10.02-5.54 0-10.03 4.49-10.03 10.02s4.49 10.02 10.03 10.02c5.53 0 10.03-4.49 10.03-10.02"/><path d="m1166.5 967.53c0-5.531-4.5-10.019-10.03-10.019s-10.02 4.488-10.02 10.019c0 5.528 4.49 10.016 10.02 10.016s10.03-4.488 10.03-10.016"/><path d="m1440.5 1120.1c0-5.53-4.5-10.02-10.03-10.02s-10.03 4.49-10.03 10.02 4.5 10.02 10.03 10.02 10.03-4.49 10.03-10.02"/><path d="m611.09 1022c0-5.53-4.496-10.02-10.027-10.02-5.536 0-10.028 4.49-10.028 10.02s4.492 10.02 10.028 10.02c5.531 0 10.027-4.49 10.027-10.02"/><path d="m924.63 1038.6c0-5.52-4.492-10.01-10.027-10.01-5.532 0-10.028 4.49-10.028 10.01 0 5.54 4.496 10.02 10.028 10.02 5.535 0 10.027-4.48 10.027-10.02"/><path d="m1777.6 808.88c0-5.527-4.5-10.016-10.03-10.016-5.54 0-10.03 4.489-10.03 10.016 0 5.531 4.49 10.019 10.03 10.019 5.53 0 10.03-4.488 10.03-10.019"/><path d="m1527.9 1002.2c0-5.526-4.49-10.015-10.02-10.015-5.54 0-10.03 4.489-10.03 10.015 0 5.53 4.49 10.02 10.03 10.02 5.53 0 10.02-4.49 10.02-10.02"/><path d="m673.83 1299.1c0-5.53-4.492-10.02-10.027-10.02s-10.028 4.49-10.028 10.02 4.493 10.02 10.028 10.02 10.027-4.49 10.027-10.02"/><path d="m254.81 1565.6c0-5.54-4.497-10.02-10.028-10.02-5.535 0-10.027 4.48-10.027 10.02 0 5.52 4.492 10.01 10.027 10.01 5.531 0 10.028-4.49 10.028-10.01"/><path d="m996.53 774.11c0-5.527-4.492-10.015-10.027-10.015-5.531 0-10.027 4.488-10.027 10.015 0 5.532 4.496 10.02 10.027 10.02 5.535 0 10.027-4.488 10.027-10.02"/><path d="m1684.4 1506.1c0-5.53-4.49-10.02-10.03-10.02-5.53 0-10.03 4.49-10.03 10.02s4.5 10.02 10.03 10.02c5.54 0 10.03-4.49 10.03-10.02"/><path d="m1298.8 1136.2c0-5.52-4.5-10.02-10.03-10.02-5.54 0-10.03 4.5-10.03 10.02 0 5.53 4.49 10.02 10.03 10.02 5.53 0 10.03-4.49 10.03-10.02"/><path d="m746.08 1008.2c0-5.53-4.496-10.015-10.027-10.015-5.535 0-10.028 4.485-10.028 10.015s4.493 10.02 10.028 10.02c5.531 0 10.027-4.49 10.027-10.02"/><path d="m1395.3 899.95c0-5.531-4.49-10.019-10.03-10.019-5.53 0-10.03 4.488-10.03 10.019 0 5.528 4.5 10.016 10.03 10.016 5.54 0 10.03-4.488 10.03-10.016"/><path d="m723.35 1317.2c0-5.53-4.496-10.02-10.028-10.02-5.535 0-10.027 4.49-10.027 10.02s4.492 10.02 10.027 10.02c5.532 0 10.028-4.49 10.028-10.02"/><path d="m819.41 901.05c0-5.528-4.496-10.02-10.027-10.02-5.535 0-10.028 4.492-10.028 10.02 0 5.527 4.493 10.019 10.028 10.019 5.531 0 10.027-4.492 10.027-10.019"/><path d="m959.04 964.46c0-5.531-4.492-10.019-10.027-10.019s-10.028 4.488-10.028 10.019c0 5.527 4.493 10.016 10.028 10.016s10.027-4.489 10.027-10.016"/><path d="m697.41 1331c0-5.53-4.492-10.01-10.027-10.01s-10.028 4.48-10.028 10.01 4.493 10.02 10.028 10.02 10.027-4.49 10.027-10.02"/><path d="m1133 1209.1c0-5.53-4.49-10.02-10.03-10.02-5.53 0-10.02 4.49-10.02 10.02 0 5.52 4.49 10.01 10.02 10.01 5.54 0 10.03-4.49 10.03-10.01"/><path d="m847.14 1334.6c0-5.53-4.496-10.02-10.028-10.02-5.535 0-10.027 4.49-10.027 10.02s4.492 10.02 10.027 10.02c5.532 0 10.028-4.49 10.028-10.02"/><path d="m1126.3 1227.8c0-5.52-4.49-10.01-10.03-10.01-5.53 0-10.03 4.49-10.03 10.01 0 5.54 4.5 10.02 10.03 10.02 5.54 0 10.03-4.48 10.03-10.02"/><path d="m1046 981.07c0-5.527-4.5-10.019-10.03-10.019s-10.03 4.492-10.03 10.019c0 5.532 4.5 10.02 10.03 10.02s10.03-4.488 10.03-10.02"/><path d="m1069.9 950.3c0-5.527-4.49-10.016-10.03-10.016-5.53 0-10.02 4.489-10.02 10.016 0 5.531 4.49 10.019 10.02 10.019 5.54 0 10.03-4.488 10.03-10.019"/><path d="m1027.3 1307.3c0-5.53-4.49-10.02-10.03-10.02-5.53 0-10.02 4.49-10.02 10.02s4.49 10.02 10.02 10.02c5.54 0 10.03-4.49 10.03-10.02"/><path d="m1816.7 907.43c0-5.528-4.5-10.016-10.03-10.016-5.54 0-10.03 4.488-10.03 10.016 0 5.531 4.49 10.019 10.03 10.019 5.53 0 10.03-4.488 10.03-10.019"/><path d="m1533.5 1413.6c0-5.52-4.49-10.01-10.03-10.01-5.53 0-10.03 4.49-10.03 10.01 0 5.54 4.5 10.02 10.03 10.02 5.54 0 10.03-4.48 10.03-10.02"/><path d="m1283 1305.7c0-5.53-4.5-10.02-10.03-10.02-5.54 0-10.03 4.49-10.03 10.02s4.49 10.01 10.03 10.01c5.53 0 10.03-4.48 10.03-10.01"/><path d="m589.45 1168.7c0-5.53-4.496-10.02-10.027-10.02-5.535 0-10.028 4.49-10.028 10.02s4.493 10.02 10.028 10.02c5.531 0 10.027-4.49 10.027-10.02"/><path d="m517.25 1091.2c0-5.53-4.492-10.01-10.027-10.01-5.532 0-10.028 4.48-10.028 10.01s4.496 10.02 10.028 10.02c5.535 0 10.027-4.49 10.027-10.02"/><path d="m363.21 1189.9c0-5.53-4.496-10.02-10.027-10.02-5.536 0-10.028 4.49-10.028 10.02 0 5.52 4.492 10.01 10.028 10.01 5.531 0 10.027-4.49 10.027-10.01"/><path d="m1698.1 1059.7c0-5.53-4.49-10.02-10.03-10.02-5.53 0-10.02 4.49-10.02 10.02s4.49 10.02 10.02 10.02c5.54 0 10.03-4.49 10.03-10.02"/><path d="m1372.9 666.21c0-5.531-4.49-10.019-10.03-10.019-5.53 0-10.02 4.488-10.02 10.019 0 5.527 4.49 10.016 10.02 10.016 5.54 0 10.03-4.489 10.03-10.016"/><path d="m813.38 1612.1c0-5.53-4.492-10.02-10.027-10.02-5.532 0-10.028 4.49-10.028 10.02s4.496 10.01 10.028 10.01c5.535 0 10.027-4.48 10.027-10.01"/><path d="m735.15 1256.4c0-5.54-4.492-10.02-10.027-10.02-5.531 0-10.027 4.48-10.027 10.02 0 5.52 4.496 10.01 10.027 10.01 5.535 0 10.027-4.49 10.027-10.01"/><path d="m1505 913.77c0-5.531-4.49-10.019-10.03-10.019-5.53 0-10.03 4.488-10.03 10.019 0 5.528 4.5 10.016 10.03 10.016 5.54 0 10.03-4.488 10.03-10.016"/><path d="m486.56 1240.4c0-5.53-4.493-10.02-10.028-10.02s-10.027 4.49-10.027 10.02 4.492 10.02 10.027 10.02 10.028-4.49 10.028-10.02"/><path d="m1051.9 1170.4c0-5.53-4.5-10.02-10.03-10.02-5.54 0-10.03 4.49-10.03 10.02s4.49 10.02 10.03 10.02c5.53 0 10.03-4.49 10.03-10.02"/><path d="m1217.8 878.37c0-5.527-4.49-10.016-10.03-10.016-5.53 0-10.02 4.489-10.02 10.016 0 5.531 4.49 10.02 10.02 10.02 5.54 0 10.03-4.489 10.03-10.02"/><path d="m350.83 800.16c0-5.527-4.492-10.015-10.027-10.015s-10.028 4.488-10.028 10.015c0 5.532 4.493 10.02 10.028 10.02s10.027-4.488 10.027-10.02"/><path d="m1638.5 608.5c0-5.531-4.5-10.019-10.03-10.019-5.54 0-10.03 4.488-10.03 10.019 0 5.527 4.49 10.02 10.03 10.02 5.53 0 10.03-4.493 10.03-10.02"/><path d="m1067.7 975.07c0-5.527-4.5-10.019-10.03-10.019-5.54 0-10.03 4.492-10.03 10.019 0 5.532 4.49 10.02 10.03 10.02 5.53 0 10.03-4.488 10.03-10.02"/><path d="m2125.2 803.38c0-5.527-4.5-10.016-10.03-10.016-5.54 0-10.03 4.489-10.03 10.016 0 5.531 4.49 10.019 10.03 10.019 5.53 0 10.03-4.488 10.03-10.019"/><path d="m1078.5 1266.8c0-5.53-4.49-10.02-10.03-10.02-5.53 0-10.02 4.49-10.02 10.02s4.49 10.02 10.02 10.02c5.54 0 10.03-4.49 10.03-10.02"/><path d="m1442.1 1003.8c0-5.533-4.49-10.022-10.02-10.022-5.54 0-10.03 4.489-10.03 10.022 0 5.53 4.49 10.02 10.03 10.02 5.53 0 10.02-4.49 10.02-10.02"/><path d="m736.94 1572.2c0-5.53-4.493-10.02-10.028-10.02-5.531 0-10.027 4.49-10.027 10.02s4.496 10.02 10.027 10.02c5.535 0 10.028-4.49 10.028-10.02"/><path d="m972.16 1501.8c0-5.53-4.492-10.02-10.027-10.02s-10.028 4.49-10.028 10.02 4.493 10.01 10.028 10.01 10.027-4.48 10.027-10.01"/><path d="m724.99 1135c0-5.53-4.492-10.02-10.027-10.02s-10.027 4.49-10.027 10.02 4.492 10.02 10.027 10.02 10.027-4.49 10.027-10.02"/><path d="m1434.6 1013.2c0-5.52-4.5-10.01-10.03-10.01-5.54 0-10.03 4.49-10.03 10.01 0 5.54 4.49 10.02 10.03 10.02 5.53 0 10.03-4.48 10.03-10.02"/><path d="m1847.8 1404.2c0-5.53-4.5-10.02-10.03-10.02s-10.03 4.49-10.03 10.02 4.5 10.01 10.03 10.01 10.03-4.48 10.03-10.01"/><path d="m986.35 777.93c0-5.532-4.497-10.02-10.028-10.02-5.535 0-10.027 4.488-10.027 10.02 0 5.527 4.492 10.015 10.027 10.015 5.531 0 10.028-4.488 10.028-10.015"/></g><g transform="scale(1.0004 -.99955)"><path stroke-linejoin="round" d="m337.01-304.36v28.86" stroke="#000" stroke-miterlimit="10" stroke-width="5.0084" fill="none"/></g><g transform="scale(1.0004 -.99955)"><path stroke-linejoin="round" d="m564.15-304.36v28.86" stroke="#000" stroke-miterlimit="10" stroke-width="5.0084" fill="none"/></g><g transform="scale(1.0004 -.99955)"><path stroke-linejoin="round" d="m791.29-304.36v28.86" stroke="#000" stroke-miterlimit="10" stroke-width="5.0084" fill="none"/></g><g transform="scale(1.0004 -.99955)"><path stroke-linejoin="round" d="m1018.4-304.36v28.86" stroke="#000" stroke-miterlimit="10" stroke-width="5.0084" fill="none"/></g><g transform="scale(1.0004 -.99955)"><path stroke-linejoin="round" d="m1245.6-304.36v28.86" stroke="#000" stroke-miterlimit="10" stroke-width="5.0084" fill="none"/></g><g transform="scale(1.0004 -.99955)"><path stroke-linejoin="round" d="m1472.7-304.36v28.86" stroke="#000" stroke-miterlimit="10" stroke-width="5.0084" fill="none"/></g><g transform="scale(1.0004 -.99955)"><path stroke-linejoin="round" d="m1699.8-304.36v28.86" stroke="#000" stroke-miterlimit="10" stroke-width="5.0084" fill="none"/></g><g transform="scale(1.0004 -.99955)"><path stroke-linejoin="round" d="m1927-304.36v28.86" stroke="#000" stroke-miterlimit="10" stroke-width="5.0084" fill="none"/></g><g transform="scale(1.0004 -.99955)"><path stroke-linejoin="round" d="m2154.1-304.36v28.86" stroke="#000" stroke-miterlimit="10" stroke-width="5.0084" fill="none"/></g><g transform="scale(10)"><text transform="matrix(1 0 0 -.99910 28.904 32.825)" font-size="10.026px" font-family="Helvetica" fill="#000000"><tspan y="0" x="0 3.3384964 22.723831 26.062328 45.447662 48.78616 68.171799 71.510292 92.699921 115.42406 138.14789 160.87172 183.59586">-4-3-2-101234</tspan></text>
</g><g transform="scale(1.0004 -.99955)"><path stroke-linejoin="round" d="m223.24-275.5h2044.5" stroke="#000" stroke-miterlimit="10" stroke-width="5.0084" fill="none"/></g><g transform="scale(1.0004 -.99955)"><path stroke-linejoin="round" d="m668.63-275.5v28.861" stroke="#000" stroke-miterlimit="10" stroke-width="5.0084" fill="none"/></g><g transform="scale(1.0004 -.99955)"><path stroke-linejoin="round" d="m1245.6-275.5v28.861" stroke="#000" stroke-miterlimit="10" stroke-width="5.0084" fill="none"/></g><g transform="scale(1.0004 -.99955)"><path stroke-linejoin="round" d="m1822.5-275.5v28.861" stroke="#000" stroke-miterlimit="10" stroke-width="5.0084" fill="none"/></g><g transform="scale(10)"><text transform="matrix(1 0 0 -.99910 62.081 15.036)" font-size="10.026px" font-family="Helvetica" fill="#000000"><tspan y="0" x="0 3.3384964 59.522884 117.24188">-101</tspan><tspan y="-17.564194" x="-56.418831 -51.406075">cm</tspan><tspan y="-0.24041618" x="-61.832508 -59.606846 -54.032658 -49.019901">inch</tspan><tspan y="11.40986" x="46.891254 52.465439 58.039627 63.613811 69.187996 71.97509">Length</tspan></text>
</g></g></g></svg>
