<svg xmlns="http://www.w3.org/2000/svg" height="221.347" width="298.32"><path d="M162.176 40.845a1.338 1.338 0 0 1-2.673 0 1.337 1.337 0 0 1 2.673 0M193.29 64.92a1.338 1.338 0 0 1-2.674 0 1.337 1.337 0 0 1 2.675 0M151.228 129.936a1.337 1.337 0 1 1-2.673-.002 1.337 1.337 0 0 1 2.673.002M62.787 75.41a1.338 1.338 0 0 1-2.673 0 1.337 1.337 0 0 1 2.673 0M166.748 67.23a1.337 1.337 0 1 1-2.675 0 1.338 1.338 0 0 1 2.675 0M249.573 71.98a1.338 1.338 0 0 1-2.674 0 1.338 1.338 0 0 1 2.674 0M84.973 118.078a1.338 1.338 0 0 1-2.674 0 1.337 1.337 0 0 1 2.674 0M66.572 46.704a1.337 1.337 0 0 1-2.674 0 1.337 1.337 0 0 1 2.674 0M169.873 99.922a1.338 1.338 0 0 1-2.674 0 1.337 1.337 0 0 1 2.674 0M122.972 80.457a1.337 1.337 0 0 1-2.674 0 1.336 1.336 0 0 1 2.674 0M114.37 118.007a1.337 1.337 0 1 1-2.674-.002 1.337 1.337 0 0 1 2.674.002M82.067 104.032a1.337 1.337 0 0 1-2.674 0 1.337 1.337 0 0 1 2.674 0M74.703 60.315a1.337 1.337 0 0 1-2.674 0 1.337 1.337 0 0 1 2.674 0M150.605 87.13a1.338 1.338 0 0 1-2.674 0 1.337 1.337 0 1 1 2.675 0" fill="#0072bd"/><path d="M73.7 60.659a1.337 1.337 0 0 1-2.675 0 1.337 1.337 0 0 1 2.674 0M154.005 116.322a1.338 1.338 0 0 1-2.674 0 1.337 1.337 0 0 1 2.674 0M104.771 95.321a1.337 1.337 0 1 1-2.673-.002 1.337 1.337 0 0 1 2.673.002M236.237 110.302a1.337 1.337 0 1 1-2.673-.001 1.337 1.337 0 0 1 2.673.001M153.54 98.886a1.337 1.337 0 1 1-2.674-.003 1.337 1.337 0 0 1 2.674.003M216.73 77.807a1.337 1.337 0 1 1-2.674-.002 1.337 1.337 0 0 1 2.673.002M109.256 70.835a1.337 1.337 0 1 1-2.674-.002 1.337 1.337 0 0 1 2.674.002M207.392 69.17a1.337 1.337 0 1 1-2.674-.001 1.337 1.337 0 0 1 2.674.002M267.24 21.39a1.337 1.337 0 0 1-2.673 0 1.336 1.336 0 0 1 2.673 0M41.518 34.68a1.336 1.336 0 1 1-2.673 0 1.336 1.336 0 0 1 2.673 0M141.172 75.125a1.338 1.338 0 0 1-2.675 0 1.337 1.337 0 0 1 2.675 0M164.517 75.665a1.337 1.337 0 1 1-2.675 0 1.338 1.338 0 0 1 2.675 0M96.028 65.483a1.337 1.337 0 0 1-2.674 0 1.336 1.336 0 0 1 2.674 0M288.24 69.785a1.337 1.337 0 1 1-2.673-.001 1.337 1.337 0 0 1 2.673.001M151.888 39.99a1.338 1.338 0 0 1-2.675 0 1.337 1.337 0 0 1 2.675 0M273.38 26.103a1.337 1.337 0 1 1-2.674-.002 1.337 1.337 0 0 1 2.674.002M101.248 63.292a1.337 1.337 0 1 1-2.674-.002 1.337 1.337 0 0 1 2.674.002M147.14 53.916a1.338 1.338 0 0 1-2.673 0 1.337 1.337 0 0 1 2.673 0M129.12 83.73a1.337 1.337 0 0 1-2.674 0 1.336 1.336 0 0 1 2.674 0M113.17 71.91a1.337 1.337 0 1 1-2.675-.003 1.337 1.337 0 0 1 2.674.002M136.46 147.453a1.337 1.337 0 1 1-2.673-.002 1.337 1.337 0 0 1 2.673.002M166.992 92.384a1.337 1.337 0 1 1-2.674-.002 1.337 1.337 0 0 1 2.674.002M67.605 2.319a1.337 1.337 0 0 1-2.674 0 1.336 1.336 0 0 1 2.674 0M167.521 36.277a1.338 1.338 0 0 1-2.674 0 1.337 1.337 0 0 1 2.674 0M201.745 123.874a1.337 1.337 0 1 1-2.673-.001 1.337 1.337 0 0 1 2.673 0M181.664 91.69a1.336 1.336 0 1 1-2.673-.002 1.336 1.336 0 0 1 2.673.001M162.15 81.413a1.337 1.337 0 1 1-2.675-.002 1.337 1.337 0 0 1 2.674.002M185.29 115.774a1.337 1.337 0 1 1-2.674-.002 1.337 1.337 0 0 1 2.673.002M197.525 74.461a1.337 1.337 0 1 1-2.674-.002 1.337 1.337 0 0 1 2.674.002M135.644 68.82a1.337 1.337 0 0 1-2.674 0 1.336 1.336 0 0 1 2.674 0M173.036 98.536a1.338 1.338 0 0 1-2.675 0 1.338 1.338 0 0 1 2.675 0M232.359 88.294a1.337 1.337 0 1 1-2.674-.002 1.337 1.337 0 0 1 2.674.002M78.948 58.861a1.337 1.337 0 1 1-2.674-.002 1.337 1.337 0 0 1 2.674.002M219.979 50.983a1.338 1.338 0 0 1-2.675 0 1.338 1.338 0 0 1 2.675 0M185.373 72.987a1.337 1.337 0 1 1-2.674-.002 1.337 1.337 0 0 1 2.674.002M278.659 89.851a1.337 1.337 0 0 1-2.675 0 1.338 1.338 0 0 1 2.675 0M192.325 44.496a1.338 1.338 0 0 1-2.674 0 1.338 1.338 0 0 1 2.674 0M184.74 83.813a1.338 1.338 0 0 1-2.675 0 1.337 1.337 0 1 1 2.675 0M125.194 72.959a1.337 1.337 0 1 1-2.674-.002 1.337 1.337 0 0 1 2.674.002M271.373 52.288a1.336 1.336 0 1 1-2.671-.002 1.336 1.336 0 0 1 2.671.002M123.686 54.992a1.337 1.337 0 0 1-2.674 0 1.337 1.337 0 0 1 2.674 0M124.497 49.68a1.337 1.337 0 1 1-2.674-.002 1.337 1.337 0 0 1 2.674.002M143.336 85.765a1.337 1.337 0 1 1-2.673-.001 1.337 1.337 0 0 1 2.673.001M164.09 13.408a1.336 1.336 0 1 1-2.672-.003 1.336 1.336 0 0 1 2.673.003M94.802 78.272a1.337 1.337 0 1 1-2.674-.002 1.337 1.337 0 0 1 2.674.002M170.263 80.773a1.337 1.337 0 1 1-2.674-.002 1.337 1.337 0 0 1 2.674.002M138.655 77.641a1.337 1.337 0 0 1-2.674 0 1.336 1.336 0 0 1 2.674 0M268.705 113.325a1.337 1.337 0 1 1-2.673-.002 1.337 1.337 0 0 1 2.673.002M138.74 86.433a1.338 1.338 0 0 1-2.675 0 1.337 1.337 0 0 1 2.675 0M141.02 57.645a1.337 1.337 0 1 1-2.673-.001 1.337 1.337 0 0 1 2.673.001M230.587 40.821a1.337 1.337 0 1 1-2.674-.001 1.337 1.337 0 0 1 2.674.001M138.855 132.196a1.338 1.338 0 0 1-2.675 0 1.338 1.338 0 0 1 2.675 0M211.196 80.588a1.338 1.338 0 0 1-2.675 0 1.338 1.338 0 0 1 2.675 0M162.83 125.563a1.337 1.337 0 1 1-2.675-.002 1.337 1.337 0 0 1 2.674.002M131.5 28.145a1.337 1.337 0 0 1-2.675 0 1.337 1.337 0 0 1 2.674 0M159.763 41.21a1.337 1.337 0 1 1-2.674-.003 1.337 1.337 0 0 1 2.674.002M187.877 80.241a1.338 1.338 0 0 1-2.674 0 1.338 1.338 0 0 1 2.674 0M275.43 11.432a1.336 1.336 0 1 1-2.671 0 1.336 1.336 0 0 1 2.672 0M178.588 76.163a1.338 1.338 0 0 1-2.675 0 1.337 1.337 0 0 1 2.675 0M221.35 57.983a1.337 1.337 0 1 1-2.673-.002 1.337 1.337 0 0 1 2.674.002M111.01 54.808a1.336 1.336 0 1 1-2.672 0 1.336 1.336 0 0 1 2.672 0M100.125 90.414a1.337 1.337 0 0 1-2.674 0 1.338 1.338 0 0 1 2.674 0M128.194 138.716a1.337 1.337 0 0 1-2.674 0 1.338 1.338 0 0 1 2.674 0M167.768 53.17a1.337 1.337 0 1 1-2.674-.001 1.337 1.337 0 0 1 2.674.002M180.372 78.573a1.337 1.337 0 0 1-2.673 0 1.337 1.337 0 0 1 2.673 0M91.262 123.925a1.337 1.337 0 1 1-2.674-.002 1.337 1.337 0 0 1 2.674.002M129.76 99.243a1.337 1.337 0 1 1-2.675-.003 1.337 1.337 0 0 1 2.674.003M294.985 63.095a1.338 1.338 0 0 1-2.674 0 1.337 1.337 0 0 1 2.674 0M194.163 119.376a1.337 1.337 0 1 1-2.674-.003 1.337 1.337 0 0 1 2.674.003M216.7 104.818a1.337 1.337 0 1 1-2.674-.002 1.337 1.337 0 0 1 2.674.002M80.186 69.61a1.337 1.337 0 0 1-2.673 0 1.338 1.338 0 0 1 2.673 0M156.99 68.548a1.338 1.338 0 0 1-2.674 0 1.338 1.338 0 0 1 2.675 0M66.947 100.926a1.337 1.337 0 0 1-2.674 0 1.337 1.337 0 0 1 2.674 0M156.587 81.23a1.337 1.337 0 1 1-2.674 0 1.337 1.337 0 0 1 2.674 0M172.905 53.46a1.338 1.338 0 0 1-2.674 0 1.337 1.337 0 1 1 2.675 0M248.387 125.015a1.338 1.338 0 0 1-2.675 0 1.338 1.338 0 0 1 2.675 0M143.17 68.773a1.337 1.337 0 1 1-2.673-.002 1.337 1.337 0 0 1 2.674.002M213.381 69.113a1.337 1.337 0 1 1-2.674-.002 1.337 1.337 0 0 1 2.674.002M107.92 97.948a1.337 1.337 0 1 1-2.673-.003 1.337 1.337 0 0 1 2.673.003M71.088 89.377a1.337 1.337 0 1 1-2.674-.002 1.337 1.337 0 0 1 2.674.002M242.984 86.544a1.338 1.338 0 0 1-2.675 0 1.337 1.337 0 0 1 2.675 0M194.876 86.01a1.338 1.338 0 0 1-2.675 0 1.338 1.338 0 0 1 2.675 0" fill="#0072bd"/><path d="M291.935-304.355v28.86M519.075-304.355v28.86M746.208-304.355v28.86M973.348-304.355v28.86M1200.49-304.355v28.86M1427.63-304.355v28.86M1654.77-304.355v28.86M1881.9-304.355v28.86M2109.05-304.355v28.86" fill="none" stroke="#000" stroke-width="5.008" stroke-linejoin="round" stroke-miterlimit="10" transform="matrix(.1334 0 0 .13327 0 221.347)"/><text style="-inkscape-font-specification:Helvetica" transform="matrix(1.33333 0 0 1.33213 34.13 178.382)" font-weight="400" font-size="8.02" font-family="Helvetica"><tspan y="0" x="0 2.6706872 22.723858 25.394547 45.448116 48.118805 68.171974 70.842667 92.099007 114.82287 137.54712 160.27098 182.99484">-4-3-2-101234</tspan></text><path d="M178.162-275.495H2222.62M623.556-275.495v28.861M1200.49-275.495v28.861M1777.42-275.495v28.861" fill="none" stroke="#000" stroke-width="5.008" stroke-linejoin="round" stroke-miterlimit="10" transform="matrix(.1334 0 0 .13327 0 221.347)"/><g font-weight="400" font-family="Helvetica"><text style="-inkscape-font-specification:Helvetica" transform="matrix(1.33333 0 0 1.33213 78.366 198.094)" font-size="8.02"><tspan y="0" x="0 2.6706872 58.922016 116.64086">-101</tspan><tspan y="-16.061" x="-54.614109 -50.604069">cm</tspan><tspan y="1.263" x="-58.223095 -56.442635 -51.983471 -47.973431">inch</tspan></text><text style="-inkscape-font-specification:Helvetica" transform="matrix(1.33333 0 0 1.33213 139.284 216.499)" font-size="10.026"><tspan y="0" x="0 5.5741863 11.148373 16.722559 22.296745 25.083838">Length</tspan></text></g></svg>