<svg xmlns="http://www.w3.org/2000/svg" height="226.333" width="298.32"><path d="M0 225.997h295.68V-.773H0z" fill="#fff"/><path d="M0 225.997h295.68V-.773H0z" fill="#fff"/><path d="M119.436 125.151a1.337 1.337 0 1 1-2.673-.002 1.337 1.337 0 0 1 2.673.002M166.79 97.776a1.337 1.337 0 1 1-2.673-.002 1.337 1.337 0 0 1 2.674.002M206.457 116.503a1.338 1.338 0 0 1-2.674 0 1.338 1.338 0 0 1 2.674 0M181.588 65.077a1.337 1.337 0 0 1-2.673 0 1.336 1.336 0 1 1 2.673 0M150.292 93.36a1.337 1.337 0 0 1-2.673 0 1.337 1.337 0 0 1 2.673 0M50.14 73.605a1.337 1.337 0 1 1-2.674-.002 1.337 1.337 0 0 1 2.674.002M153.073 64.95a1.337 1.337 0 0 1-2.673 0 1.336 1.336 0 0 1 2.673 0M174.536 59.555a1.337 1.337 0 0 1-2.675 0 1.337 1.337 0 0 1 2.675 0M113.022 76.723a1.337 1.337 0 1 1-2.674-.002 1.337 1.337 0 0 1 2.674.002M85.252 87.26a1.337 1.337 0 0 1-2.674 0 1.336 1.336 0 0 1 2.674 0" fill="#0072bd"/><path d="M168.157 100.151a1.336 1.336 0 1 1-2.672-.002 1.336 1.336 0 0 1 2.672.002M276.281 140.707a1.337 1.337 0 1 1-2.673-.001 1.337 1.337 0 0 1 2.673.001M129.866 83.47a1.338 1.338 0 0 1-2.674 0 1.337 1.337 0 0 1 2.674 0M292.853 98.67a1.336 1.336 0 1 1-2.672-.002 1.336 1.336 0 0 1 2.672.002M186.77 65.812a1.337 1.337 0 1 1-2.673-.002 1.337 1.337 0 0 1 2.674.002M147.545 58.495a1.337 1.337 0 1 1-2.674-.002 1.337 1.337 0 0 1 2.674.002M145.2 99.996a1.337 1.337 0 0 1-2.675 0 1.337 1.337 0 0 1 2.675 0M139.793 122.053a1.338 1.338 0 0 1-2.674 0 1.337 1.337 0 0 1 2.674 0M167.593 64.059a1.337 1.337 0 1 1-2.673-.002 1.337 1.337 0 0 1 2.673.002M78.028 89.381a1.337 1.337 0 1 1-2.674-.002 1.337 1.337 0 0 1 2.674.002M109.972 31.213a1.337 1.337 0 1 1-2.674-.002 1.337 1.337 0 0 1 2.674.002M83.754 46.995a1.338 1.338 0 0 1-2.674 0 1.337 1.337 0 0 1 2.674 0M153.308 84.75a1.337 1.337 0 1 1-2.673-.002 1.337 1.337 0 0 1 2.673.001M157.036 142.494a1.337 1.337 0 1 1-2.674-.002 1.337 1.337 0 0 1 2.674.002M187.76 72.005a1.338 1.338 0 0 1-2.675 0 1.337 1.337 0 0 1 2.675 0M144.508 105.706a1.337 1.337 0 1 1-2.673-.002 1.337 1.337 0 0 1 2.673.002M140.461 96.84a1.338 1.338 0 0 1-2.674 0 1.337 1.337 0 0 1 2.674 0M43.933 101.736a1.338 1.338 0 0 1-2.674 0 1.337 1.337 0 0 1 2.674 0M243.645 114.132a1.338 1.338 0 0 1-2.674 0 1.337 1.337 0 0 1 2.674 0M37.175 128.385a1.337 1.337 0 1 1-2.674-.003 1.337 1.337 0 0 1 2.674.003M292.877 81.995a1.337 1.337 0 0 1-2.673 0 1.336 1.336 0 1 1 2.673 0M121.527 89.485a1.337 1.337 0 1 1-2.675-.002 1.337 1.337 0 0 1 2.675.002M92.428 25.636a1.337 1.337 0 0 1-2.674 0 1.337 1.337 0 0 1 2.674 0M195.59 103.307a1.336 1.336 0 1 1-2.672-.002 1.336 1.336 0 0 1 2.673.002M241.19 109.21a1.338 1.338 0 0 1-2.675 0 1.338 1.338 0 0 1 2.674 0M220.807 74.27a1.337 1.337 0 1 1-2.674-.002 1.337 1.337 0 0 1 2.674.001M189.661 49.928a1.338 1.338 0 0 1-2.673 0 1.337 1.337 0 0 1 2.673 0M158.56 33.808a1.338 1.338 0 0 1-2.675 0 1.337 1.337 0 0 1 2.675 0M115.777 99.557a1.337 1.337 0 1 1-2.674-.002 1.337 1.337 0 0 1 2.674.002M155.892 92.443a1.337 1.337 0 1 1-2.674-.003 1.337 1.337 0 0 1 2.674.003M159.368 69.939a1.336 1.336 0 1 1-2.672-.003 1.336 1.336 0 0 1 2.672.003M165.12 81.82a1.337 1.337 0 1 1-2.675 0 1.338 1.338 0 0 1 2.675 0M213.276 101.589a1.337 1.337 0 1 1-2.674-.003 1.337 1.337 0 0 1 2.674.003M125.29 56.83a1.337 1.337 0 1 1-2.675-.001 1.337 1.337 0 0 1 2.674.002M228.21 76.495c0 .736-.6 1.336-1.337 1.336s-1.337-.6-1.337-1.336a1.338 1.338 0 0 1 2.675 0M170.553 51.567a1.337 1.337 0 1 1-2.673-.002 1.337 1.337 0 0 1 2.673.002" fill="#0072bd"/><path d="M79.432 88.539a1.337 1.337 0 0 1-2.674 0 1.337 1.337 0 0 1 2.674 0M199.847 53.73a1.337 1.337 0 1 1-2.674-.001 1.337 1.337 0 0 1 2.674.002M218.73 54.768a1.336 1.336 0 1 1-2.67-.002 1.336 1.336 0 0 1 2.67.002M75.879 90.043a1.337 1.337 0 1 1-2.674-.002 1.337 1.337 0 0 1 2.674.002M151.203 128.575a1.338 1.338 0 0 1-2.675 0 1.338 1.338 0 0 1 2.675 0M214.33 64.703a1.338 1.338 0 0 1-2.674 0 1.337 1.337 0 0 1 2.675 0M117.888 83.515a1.337 1.337 0 0 1-2.674 0 1.336 1.336 0 0 1 2.674 0M160.47 37.735c0 .737-.6 1.334-1.338 1.334a1.337 1.337 0 0 1-1.337-1.334 1.338 1.338 0 0 1 2.674 0M122.566 90.197a1.337 1.337 0 0 1-2.674 0 1.338 1.338 0 0 1 2.674 0M89.998 66.85a1.336 1.336 0 1 1-2.672-.001 1.336 1.336 0 0 1 2.672 0M153.145 83.217a1.337 1.337 0 0 1-2.673 0 1.336 1.336 0 0 1 2.673 0M58.516 102.03a1.337 1.337 0 1 1-2.673-.004 1.337 1.337 0 0 1 2.673.003M135.867 81.841a1.337 1.337 0 1 1-2.674-.001 1.337 1.337 0 0 1 2.674.001M160.161 64.267a1.337 1.337 0 1 1-2.673-.002 1.337 1.337 0 0 1 2.673.002M152.719 90.761a1.336 1.336 0 1 1-2.672 0 1.336 1.336 0 0 1 2.672 0M181.864 99.967a1.337 1.337 0 1 1-2.674-.002 1.337 1.337 0 0 1 2.674.002M114.487 57.333a1.337 1.337 0 1 1-2.674-.002 1.337 1.337 0 0 1 2.674.002M242.653 113.834a1.337 1.337 0 0 1-2.674 0 1.338 1.338 0 0 1 2.674 0M174.364 131.073a1.336 1.336 0 1 1-2.673-.002 1.336 1.336 0 0 1 2.673.002M258.627 76.939a1.336 1.336 0 1 1-2.673-.004 1.336 1.336 0 0 1 2.673.004M31.671 123.259a1.337 1.337 0 0 1-2.674 0 1.337 1.337 0 0 1 2.674 0M104.004 136.446a1.337 1.337 0 1 1-2.674-.003 1.337 1.337 0 0 1 2.674.003M174.6 77.18a1.338 1.338 0 0 1-2.675 0 1.337 1.337 0 0 1 2.675 0M95.085 60.799a1.336 1.336 0 1 1-2.672-.004 1.336 1.336 0 0 1 2.672.004M212.712 102.402a1.337 1.337 0 1 1-2.674-.002 1.337 1.337 0 0 1 2.674.002M110.456 130.15a1.337 1.337 0 0 1-2.674 0 1.337 1.337 0 0 1 2.674 0M227.415 80.89a1.337 1.337 0 1 1-2.674-.001 1.337 1.337 0 0 1 2.674.002M91.008 123.095a1.337 1.337 0 0 1-2.674 0 1.337 1.337 0 0 1 2.674 0M182.8 115.246a1.336 1.336 0 1 1-2.673 0 1.336 1.336 0 0 1 2.673 0M223.623 114.403a1.337 1.337 0 1 1-2.674-.002 1.337 1.337 0 0 1 2.674.002M139.435 54.645a1.337 1.337 0 1 1-2.674-.002 1.337 1.337 0 0 1 2.674.002M132.48 82.052a1.337 1.337 0 1 1-2.674-.002 1.337 1.337 0 0 1 2.674.002M258.872 69.145a1.338 1.338 0 0 1-2.673 0 1.337 1.337 0 0 1 2.673 0M56.49 114.293a1.337 1.337 0 0 1-2.674 0 1.337 1.337 0 0 1 2.674 0M88.383 82.272a1.337 1.337 0 0 1-2.674 0 1.336 1.336 0 0 1 2.674 0M67.715 2.317a1.337 1.337 0 1 1-2.675-.002 1.337 1.337 0 0 1 2.675.002M193.53 96.65a1.337 1.337 0 1 1-2.675-.002 1.337 1.337 0 0 1 2.674.002M187.803 107.22a1.337 1.337 0 1 1-2.674 0 1.337 1.337 0 0 1 2.674 0M179.736 91.088a1.338 1.338 0 0 1-2.675 0 1.337 1.337 0 1 1 2.675 0M174.772 115.784a1.337 1.337 0 0 1-2.675 0 1.337 1.337 0 0 1 2.675 0M42.9 62.504a1.337 1.337 0 0 1-2.674 0 1.336 1.336 0 0 1 2.674 0M234.47 93.999a1.337 1.337 0 1 1-2.674-.001 1.337 1.337 0 0 1 2.673 0M186.333 31.456a1.337 1.337 0 1 1-2.674-.002 1.337 1.337 0 0 1 2.674.002M194.601 74.208a1.337 1.337 0 1 1-2.675 0 1.338 1.338 0 0 1 2.675 0M173.8 49.825a1.338 1.338 0 0 1-2.673 0 1.337 1.337 0 0 1 2.673 0M205.592 90.557a1.337 1.337 0 0 1-2.673 0 1.336 1.336 0 0 1 2.673 0M169.108 100.097a1.336 1.336 0 1 1-2.673-.001 1.336 1.336 0 0 1 2.673 0M190.679 102.025a1.336 1.336 0 1 1-2.673-.002 1.336 1.336 0 0 1 2.673.002" fill="#0072bd"/><path d="M291.935-304.355v28.86M519.075-304.355v28.86M746.208-304.355v28.86M973.348-304.355v28.86M1200.49-304.355v28.86M1427.63-304.355v28.86M1654.77-304.355v28.86M1881.9-304.355v28.86M2109.05-304.355v28.86" fill="none" stroke="#000" stroke-width="5.008" stroke-linejoin="round" stroke-miterlimit="10" transform="matrix(.1334 0 0 .13327 0 226.333)"/><text style="-inkscape-font-specification:Helvetica" transform="matrix(1.33333 0 0 1.33213 34.13 183.369)" font-weight="400" font-size="8.02" font-family="Helvetica"><tspan y="0" x="0 2.6706872 22.723858 25.394547 45.448116 48.118805 68.171974 70.842667 92.099007 114.82287 137.54712 160.27098 182.99484">-4-3-2-101234</tspan></text><path d="M178.162-275.495H2222.62M623.556-275.495v28.861M1200.49-275.495v28.861M1777.42-275.495v28.861" fill="none" stroke="#000" stroke-width="5.008" stroke-linejoin="round" stroke-miterlimit="10" transform="matrix(.1334 0 0 .13327 0 226.333)"/><g font-weight="400" font-family="Helvetica"><text style="-inkscape-font-specification:Helvetica" transform="matrix(1.33333 0 0 1.33213 78.366 203.08)" font-size="8.02"><tspan y="0" x="0 2.6706872 58.922016 116.64086">-101</tspan><tspan y="-16.061" x="-54.614109 -50.604069">cm</tspan><tspan y="1.263" x="-58.223095 -56.442635 -51.983471 -47.973431">inch</tspan></text><text style="-inkscape-font-specification:Helvetica" transform="matrix(1.33333 0 0 1.33213 139.284 221.485)" font-size="10.026"><tspan y="0" x="0 5.5741863 11.148373 16.722559 22.296745 25.083838">Length</tspan></text></g></svg>