<svg xmlns="http://www.w3.org/2000/svg" height="229.33" viewBox="0 0 285.293 229.333" width="285.29"><path d="M0 227.995h293.673V1.227H0z" fill="#fff"/><path d="M0 227.995h293.673V1.227H0z" fill="#fff"/><g fill="#0072bd"><path d="M169.542 109.88a1.337 1.337 0 1 1-2.674-.003 1.337 1.337 0 0 1 2.674.003M122.173 84.84a1.337 1.337 0 0 1-2.674 0 1.337 1.337 0 0 1 2.674 0M194.888 91.467a1.337 1.337 0 0 1-2.673 0 1.337 1.337 0 0 1 2.673 0M84.426 47.108a1.337 1.337 0 1 1-2.674-.002 1.337 1.337 0 0 1 2.674.002M30.711 85.587a1.336 1.336 0 1 1-1.337-1.336c.738 0 1.337.599 1.337 1.336M87.5 117.795a1.337 1.337 0 0 1-2.673 0 1.337 1.337 0 0 1 2.673 0M112.445 89.64a1.337 1.337 0 1 1-2.674-.002 1.337 1.337 0 0 1 2.674.002M104.563 34.522a1.337 1.337 0 0 1-2.674 0 1.337 1.337 0 0 1 2.674 0M82.993 100.305a1.337 1.337 0 0 1-2.674 0 1.337 1.337 0 0 1 2.674 0M182.275 110.304a1.337 1.337 0 0 1-2.674 0 1.338 1.338 0 0 1 2.674 0M48.047 42.908a1.337 1.337 0 1 1-2.674-.002 1.337 1.337 0 0 1 2.674.002M99.152 79.134a1.337 1.337 0 1 1-2.674-.002 1.337 1.337 0 0 1 2.674.002M77.451 98.164a1.337 1.337 0 1 1-2.673-.002 1.337 1.337 0 0 1 2.673.002M99.958 113.594a1.337 1.337 0 1 1-2.675-.002 1.337 1.337 0 0 1 2.675.002M91.228 143.996a1.337 1.337 0 1 1-2.673-.003 1.337 1.337 0 0 1 2.673.003M143.25 76.987a1.338 1.338 0 0 1-2.675 0 1.338 1.338 0 0 1 2.675 0M74.19 96.29a1.337 1.337 0 0 1-2.674 0 1.337 1.337 0 0 1 2.674 0M84.207 70.2a1.337 1.337 0 0 1-2.674 0 1.337 1.337 0 0 1 2.674 0M126.1 143.04a1.337 1.337 0 1 1-2.674-.003 1.337 1.337 0 0 1 2.674.003M170.77 29.055a1.338 1.338 0 0 1-2.675 0 1.337 1.337 0 0 1 2.674 0M37.22 63.294a1.338 1.338 0 0 1-2.674 0 1.337 1.337 0 0 1 2.674 0M203.302 147.556a1.337 1.337 0 1 1-2.674-.003 1.337 1.337 0 0 1 2.674.003M81.585 39.921a1.337 1.337 0 1 1-2.675-.002 1.337 1.337 0 0 1 2.675.002M150.943 107.389a1.337 1.337 0 1 1-2.674-.002 1.337 1.337 0 0 1 2.674.002M169.196 70.88a1.336 1.336 0 1 1-2.672 0 1.336 1.336 0 0 1 2.672 0M181.635 74.28a1.338 1.338 0 0 1-2.674 0 1.338 1.338 0 0 1 2.674 0M97.99 119.313a1.337 1.337 0 0 1-2.673 0 1.337 1.337 0 0 1 2.674 0M122.609 200.676a1.337 1.337 0 1 1-2.674-.003 1.337 1.337 0 0 1 2.674.003M114.124 61.308a1.337 1.337 0 1 1-2.674-.003 1.337 1.337 0 0 1 2.674.003M93.978 97.316a1.337 1.337 0 0 1-2.674 0 1.337 1.337 0 0 1 2.674 0M133.85 107.812a1.337 1.337 0 1 1-2.673-.003 1.337 1.337 0 0 1 2.673.003M137.797 66.094a1.337 1.337 0 1 1-2.674-.001 1.337 1.337 0 0 1 2.674.001M105.492 111.578a1.337 1.337 0 1 1-2.673-.003 1.337 1.337 0 0 1 2.673.003M127.518 55.748a1.337 1.337 0 1 1-2.674-.002 1.337 1.337 0 0 1 2.674.002M243.007 77.094a1.337 1.337 0 1 1-2.673-.002 1.337 1.337 0 0 1 2.673.002M121.16 123.953a1.337 1.337 0 1 1-2.674-.002 1.337 1.337 0 0 1 2.674.002M153.783 48.948a1.337 1.337 0 0 1-2.673 0 1.336 1.336 0 0 1 2.673 0M100.483 63.814a1.337 1.337 0 1 1-2.674-.002 1.337 1.337 0 0 1 2.674.002M97.514 31.908a1.337 1.337 0 0 1-2.674 0 1.338 1.338 0 0 1 2.674 0M105.788 119.903a1.337 1.337 0 0 1-2.674 0 1.337 1.337 0 0 1 2.674 0M147.156 120.013a1.336 1.336 0 1 1-2.672-.002 1.336 1.336 0 0 1 2.672.002"/><path d="M85.077 70.427a1.337 1.337 0 1 1-2.674-.002 1.337 1.337 0 0 1 2.674.002M37.292 55.921a1.337 1.337 0 0 1-2.674 0 1.336 1.336 0 0 1 2.674 0M123.922 49.308a1.336 1.336 0 1 1-2.672 0 1.336 1.336 0 0 1 2.672 0M101.67 83.014a1.337 1.337 0 0 1-2.674 0 1.337 1.337 0 0 1 2.673 0M134.223 92.96a1.336 1.336 0 1 1-2.673-.004 1.336 1.336 0 0 1 2.673.004M125.349 56.508a1.337 1.337 0 0 1-2.674 0 1.336 1.336 0 0 1 2.674 0M154.636 2.682a1.336 1.336 0 1 1-2.671 0 1.336 1.336 0 0 1 2.671 0M162.436 46.988a1.337 1.337 0 1 1-2.674-.002 1.337 1.337 0 0 1 2.674.002M61.257 79.814a1.336 1.336 0 1 1-2.672-.003 1.336 1.336 0 0 1 2.672.003M52.216 106.853a1.337 1.337 0 0 1-2.674 0 1.337 1.337 0 0 1 2.674 0M144.343 62.774a1.338 1.338 0 0 1-2.675 0 1.337 1.337 0 0 1 2.675 0M135.423 103.144a1.337 1.337 0 1 1-2.673-.002 1.337 1.337 0 0 1 2.673.002M78.822 73.494a1.337 1.337 0 1 1-2.674-.002 1.337 1.337 0 0 1 2.674.002M177.742 51.361a1.337 1.337 0 1 1-2.674-.002 1.337 1.337 0 0 1 2.674.002M123.004 45.361a1.337 1.337 0 1 1-2.674-.002 1.337 1.337 0 0 1 2.674.002M127.12 59.148a1.337 1.337 0 1 1-2.675-.002 1.337 1.337 0 0 1 2.674.002M133.957 26.748a1.337 1.337 0 0 1-2.674 0 1.336 1.336 0 0 1 2.674 0M155.783 7.336a1.337 1.337 0 1 1-2.673-.002 1.337 1.337 0 0 1 2.673.002M190.782 161.137a1.337 1.337 0 1 1-2.674-.002 1.337 1.337 0 0 1 2.674.002M109.597 156.256a1.337 1.337 0 1 1-2.674-.003 1.337 1.337 0 0 1 2.674.003M42.85 121.135a1.337 1.337 0 1 1-2.674-.002 1.337 1.337 0 0 1 2.674.002M167.57 165.25a1.338 1.338 0 0 1-2.675 0 1.337 1.337 0 0 1 2.674 0M79.34 97.933a1.337 1.337 0 1 1-2.673-.002 1.337 1.337 0 0 1 2.674.002M178.022 97.084a1.338 1.338 0 0 1-2.674 0 1.338 1.338 0 0 1 2.674 0M94.714 73.014a1.337 1.337 0 0 1-2.674 0 1.337 1.337 0 0 1 2.674 0M189.289 71.547a1.337 1.337 0 1 1-2.674-.001 1.337 1.337 0 0 1 2.674.001M84.874 111.434a1.337 1.337 0 0 1-2.674 0 1.337 1.337 0 0 1 2.674 0M70.94 116.65a1.337 1.337 0 1 1-2.674-.003 1.337 1.337 0 0 1 2.674.003M164.996 50.734a1.337 1.337 0 1 1-2.674-.001 1.337 1.337 0 0 1 2.674.001M59.557 98.953a1.337 1.337 0 1 1-2.673-.003 1.337 1.337 0 0 1 2.673.003M152.436 139.539a1.337 1.337 0 1 1-2.674-.003 1.337 1.337 0 0 1 2.674.003M141.396 82.854a1.338 1.338 0 0 1-2.674 0 1.337 1.337 0 0 1 2.674 0M114.992 74.907a1.337 1.337 0 0 1-2.674 0 1.337 1.337 0 0 1 2.674 0M105.981 100.145a1.337 1.337 0 1 1-2.673-.002 1.337 1.337 0 0 1 2.673.002M215.021 56.054a1.337 1.337 0 1 1-2.673-.001 1.337 1.337 0 0 1 2.673.001M104.481 74.027a1.336 1.336 0 1 1-2.671-.002 1.336 1.336 0 0 1 2.671.002M112.859 92.013a1.337 1.337 0 1 1-2.674-.002 1.337 1.337 0 0 1 2.674.002M78.84 85.094a1.337 1.337 0 0 1-2.673 0 1.337 1.337 0 0 1 2.674 0M84.534 64.48a1.338 1.338 0 0 1-2.674 0 1.337 1.337 0 0 1 2.674 0M94.98 101.392a1.337 1.337 0 0 1-2.674 0 1.337 1.337 0 0 1 2.674 0M199.195 126.563a1.336 1.336 0 1 1-2.673-.002 1.336 1.336 0 0 1 2.673.002M103.76 89.667a1.337 1.337 0 0 1-2.674 0 1.336 1.336 0 0 1 2.674 0M90.142 77.987a1.337 1.337 0 1 1-2.674-.002 1.337 1.337 0 0 1 2.674.002M101.133 62.388a1.337 1.337 0 0 1-2.673 0 1.337 1.337 0 0 1 2.673 0M153.97 84.52a1.338 1.338 0 0 1-2.674 0 1.337 1.337 0 0 1 2.673 0M61.708 102.048a1.337 1.337 0 0 1-2.674 0 1.337 1.337 0 0 1 2.674 0M150.01 58.814a1.337 1.337 0 1 1-2.675 0 1.337 1.337 0 0 1 2.675 0M61.001 87.947a1.337 1.337 0 0 1-2.674 0 1.336 1.336 0 1 1 2.674 0M115.557 50.174a1.337 1.337 0 0 1-2.674 0 1.337 1.337 0 0 1 2.674 0M38.476 86.96a1.337 1.337 0 1 1-2.674-.002 1.337 1.337 0 0 1 2.674.002M145.863 83.547a1.336 1.336 0 1 1-1.336-1.336c.737 0 1.336.599 1.336 1.336M152.996 87.054c0 .736-.6 1.336-1.337 1.336s-1.337-.6-1.337-1.336a1.338 1.338 0 0 1 2.674 0M90.256 121.078a1.337 1.337 0 0 1-2.673 0 1.337 1.337 0 0 1 2.673 0M135.943 121.313a1.338 1.338 0 0 1-2.674 0 1.337 1.337 0 0 1 2.674 0M128.903 122.72a1.337 1.337 0 1 1-2.673-.004 1.337 1.337 0 0 1 2.673.003M174.182 10.055a1.337 1.337 0 1 1-2.673 0 1.337 1.337 0 0 1 2.673 0M127.338 91.493a1.337 1.337 0 1 1-2.674-.002 1.337 1.337 0 0 1 2.674.002M168.742 44.695a1.338 1.338 0 0 1-2.674 0 1.338 1.338 0 0 1 2.674 0M116.197 68.96a1.337 1.337 0 1 1-2.674-.001 1.337 1.337 0 0 1 2.674.002"/></g><path stroke-linejoin="round" d="M49.103-144.35v-28.005M389.81-144.35v-28.005M730.52-144.35v-28.005M1071.2-144.35v-28.005M1411.9-144.35v-28.005M1752.6-144.35v-28.005M2093.4-144.35v-28.005" stroke="#000" stroke-miterlimit="10" stroke-width="5.008" fill="none" transform="matrix(.1334 0 0 .1333 0 229.33)"/><text transform="matrix(1.3333 0 0 1.3321 .133 226.647)" font-size="10.026" font-family="Helvetica"><tspan y="0" x="0 3.3384964 34.08585 37.424343 69.976387 104.06224 138.14809 172.23393 206.31978">-2-101234</tspan></text><path stroke-linejoin="round" d="M220.22-172.36h435.64" stroke="#000" stroke-miterlimit="10" stroke-width="5.008" fill="none" transform="matrix(.1334 0 0 .1333 0 229.33)"/><path d="M116.768 206.361a2.227 2.227 0 0 1-4.456 0 2.227 2.227 0 0 1 4.456 0"/><text transform="matrix(1.3333 0 0 1.3321 104.916 226.647)" font-size="10.026" font-family="Helvetica"><tspan y="0" x="0 5.5741863 8.3612795">0.4</tspan></text><path stroke-linejoin="round" d="M1127.2-172.36h684.64" stroke="#000" stroke-miterlimit="10" stroke-width="5.008" fill="none" transform="matrix(.1334 0 0 .1333 0 229.33)"/></svg>