<?xml version="1.0" encoding="UTF-8" standalone="no"?>
<svg xmlns:rdf="http://www.w3.org/1999/02/22-rdf-syntax-ns#" xmlns="http://www.w3.org/2000/svg" xml:space="preserve" height="229.33" viewBox="0 0 285.29333 229.33333" width="285.29" version="1.1" xmlns:cc="http://creativecommons.org/ns#" xmlns:dc="http://purl.org/dc/elements/1.1/"><metadata><rdf:RDF><cc:Work rdf:about=""><dc:format>image/svg+xml</dc:format><dc:type rdf:resource="http://purl.org/dc/dcmitype/StillImage"/><dc:title/></cc:Work></rdf:RDF></metadata><g transform="matrix(1.3333 0 0 -1.3333 0 229.33)"><g transform="scale(.1)"><path d="m0 10.016h2202.6v1700.8h-2202.6z" fill="#fff"/><path d="m0 10.016h2202.6v1700.8h-2202.6z" fill="#fff"/><g fill="#0072bd"><path d="m1271.6 895.9c0-5.528-4.49-10.02-10.03-10.02-5.53 0-10.02 4.492-10.02 10.02 0 5.531 4.49 10.019 10.02 10.019 5.54 0 10.03-4.488 10.03-10.019"/><path d="m916.32 1083.7c0-5.53-4.496-10.02-10.027-10.02-5.535 0-10.027 4.49-10.027 10.02s4.492 10.02 10.027 10.02c5.531 0 10.027-4.49 10.027-10.02"/><path d="m1461.7 1034c0-5.53-4.49-10.02-10.02-10.02-5.54 0-10.03 4.49-10.03 10.02 0 5.52 4.49 10.01 10.03 10.01 5.53 0 10.02-4.49 10.02-10.01"/><path d="m633.21 1366.7c0-5.53-4.492-10.02-10.027-10.02s-10.028 4.49-10.028 10.02 4.493 10.02 10.028 10.02 10.027-4.49 10.027-10.02"/><path d="m230.34 1078.1c0-5.53-4.492-10.01-10.028-10.01-5.535 0-10.027 4.48-10.027 10.01s4.492 10.02 10.027 10.02c5.536 0 10.028-4.49 10.028-10.02"/><path d="m656.27 836.53c0-5.531-4.493-10.019-10.028-10.019s-10.027 4.488-10.027 10.019c0 5.528 4.492 10.016 10.027 10.016s10.028-4.488 10.028-10.016"/><path d="m843.36 1047.7c0-5.53-4.492-10.02-10.027-10.02s-10.027 4.49-10.027 10.02 4.492 10.02 10.027 10.02 10.027-4.49 10.027-10.02"/><path d="m784.24 1461.1c0-5.52-4.492-10.01-10.027-10.01-5.531 0-10.027 4.49-10.027 10.01 0 5.53 4.496 10.02 10.027 10.02 5.535 0 10.027-4.49 10.027-10.02"/><path d="m622.46 967.71c0-5.531-4.496-10.02-10.027-10.02-5.536 0-10.028 4.489-10.028 10.02 0 5.527 4.492 10.016 10.028 10.016 5.531 0 10.027-4.489 10.027-10.016"/><path d="m1367.1 892.72c0-5.528-4.5-10.016-10.03-10.016s-10.03 4.488-10.03 10.016c0 5.531 4.5 10.019 10.03 10.019s10.03-4.488 10.03-10.019"/><path d="m360.36 1398.2c0-5.53-4.492-10.02-10.027-10.02-5.531 0-10.027 4.49-10.027 10.02s4.496 10.02 10.027 10.02c5.535 0 10.027-4.49 10.027-10.02"/><path d="m743.66 1126.5c0-5.53-4.492-10.02-10.027-10.02-5.531 0-10.027 4.49-10.027 10.02 0 5.52 4.496 10.02 10.027 10.02 5.535 0 10.027-4.5 10.027-10.02"/><path d="m580.9 983.77c0-5.531-4.492-10.019-10.027-10.019s-10.027 4.488-10.027 10.019c0 5.528 4.492 10.02 10.027 10.02s10.027-4.492 10.027-10.02"/><path d="m749.7 868.04c0-5.531-4.496-10.019-10.027-10.019-5.535 0-10.027 4.488-10.027 10.019 0 5.527 4.492 10.02 10.027 10.02 5.531 0 10.027-4.493 10.027-10.02"/><path d="m684.23 640.02c0-5.527-4.492-10.015-10.027-10.015s-10.027 4.488-10.027 10.015c0 5.532 4.492 10.02 10.027 10.02s10.027-4.488 10.027-10.02"/><path d="m1074.4 1142.6c0-5.53-4.5-10.02-10.03-10.02s-10.03 4.49-10.03 10.02 4.5 10.02 10.03 10.02 10.03-4.49 10.03-10.02"/><path d="m556.44 997.83c0-5.531-4.496-10.019-10.027-10.019-5.535 0-10.027 4.488-10.027 10.019 0 5.528 4.492 10.018 10.027 10.018 5.531 0 10.027-4.49 10.027-10.018"/><path d="m631.57 1193.5c0-5.53-4.496-10.02-10.027-10.02-5.535 0-10.027 4.49-10.027 10.02s4.492 10.02 10.027 10.02c5.531 0 10.027-4.49 10.027-10.02"/><path d="m945.77 647.19c0-5.527-4.493-10.015-10.028-10.015s-10.027 4.488-10.027 10.015c0 5.532 4.492 10.02 10.027 10.02s10.028-4.488 10.028-10.02"/><path d="m1280.8 1502.1c0-5.52-4.5-10.02-10.03-10.02-5.54 0-10.03 4.5-10.03 10.02 0 5.53 4.49 10.02 10.03 10.02 5.53 0 10.03-4.49 10.03-10.02"/><path d="m279.16 1245.3c0-5.52-4.492-10.02-10.027-10.02-5.532 0-10.028 4.5-10.028 10.02 0 5.53 4.496 10.02 10.028 10.02 5.535 0 10.027-4.49 10.027-10.02"/><path d="m1524.8 613.32c0-5.527-4.49-10.015-10.03-10.015-5.53 0-10.02 4.488-10.02 10.015 0 5.532 4.49 10.02 10.02 10.02 5.54 0 10.03-4.488 10.03-10.02"/><path d="m611.9 1420.6c0-5.53-4.493-10.02-10.028-10.02-5.531 0-10.027 4.49-10.027 10.02s4.496 10.02 10.027 10.02c5.535 0 10.028-4.49 10.028-10.02"/><path d="m1132.1 914.58c0-5.527-4.49-10.019-10.03-10.019-5.53 0-10.02 4.492-10.02 10.019 0 5.531 4.49 10.02 10.02 10.02 5.54 0 10.03-4.489 10.03-10.02"/><path d="m1269 1188.4c0-5.54-4.49-10.02-10.03-10.02-5.53 0-10.02 4.48-10.02 10.02 0 5.52 4.49 10.01 10.02 10.01 5.54 0 10.03-4.49 10.03-10.01"/><path d="m1362.3 1162.9c0-5.53-4.5-10.02-10.03-10.02s-10.03 4.49-10.03 10.02 4.5 10.02 10.03 10.02 10.03-4.49 10.03-10.02"/><path d="m734.95 825.15c0-5.527-4.496-10.019-10.027-10.019-5.535 0-10.028 4.492-10.028 10.019 0 5.528 4.493 10.02 10.028 10.02 5.531 0 10.027-4.492 10.027-10.02"/><path d="m919.59 214.91c0-5.527-4.492-10.019-10.027-10.019-5.536 0-10.028 4.492-10.028 10.019s4.492 10.02 10.028 10.02c5.535 0 10.027-4.493 10.027-10.02"/><path d="m855.95 1260.2c0-5.53-4.492-10.02-10.027-10.02s-10.028 4.49-10.028 10.02 4.493 10.02 10.028 10.02 10.027-4.49 10.027-10.02"/><path d="m704.85 990.13c0-5.528-4.493-10.02-10.028-10.02-5.531 0-10.027 4.492-10.027 10.02 0 5.527 4.496 10.017 10.027 10.017 5.535 0 10.028-4.49 10.028-10.017"/><path d="m1003.9 911.41c0-5.527-4.492-10.016-10.023-10.016-5.535 0-10.028 4.489-10.028 10.016 0 5.531 4.493 10.02 10.028 10.02 5.531 0 10.023-4.489 10.023-10.02"/><path d="m1033.5 1224.3c0-5.53-4.49-10.02-10.02-10.02-5.54 0-10.03 4.49-10.03 10.02s4.49 10.02 10.03 10.02c5.53 0 10.02-4.49 10.02-10.02"/><path d="m791.21 883.16c0-5.527-4.492-10.015-10.027-10.015-5.532 0-10.028 4.488-10.028 10.015 0 5.531 4.496 10.02 10.028 10.02 5.535 0 10.027-4.489 10.027-10.02"/><path d="m956.41 1301.9c0-5.53-4.492-10.02-10.027-10.02s-10.028 4.49-10.028 10.02 4.493 10.02 10.028 10.02 10.027-4.49 10.027-10.02"/><path d="m1822.6 1141.8c0-5.53-4.49-10.02-10.02-10.02-5.54 0-10.03 4.49-10.03 10.02s4.49 10.02 10.03 10.02c5.53 0 10.02-4.49 10.02-10.02"/><path d="m908.72 790.35c0-5.532-4.492-10.02-10.028-10.02-5.535 0-10.027 4.488-10.027 10.02 0 5.527 4.492 10.015 10.027 10.015 5.536 0 10.028-4.488 10.028-10.015"/><path d="m1153.4 1352.9c0-5.53-4.49-10.02-10.03-10.02-5.53 0-10.02 4.49-10.02 10.02 0 5.52 4.49 10.01 10.02 10.01 5.54 0 10.03-4.49 10.03-10.01"/><path d="m753.64 1241.4c0-5.53-4.492-10.02-10.028-10.02-5.535 0-10.027 4.49-10.027 10.02s4.492 10.02 10.027 10.02c5.536 0 10.028-4.49 10.028-10.02"/><path d="m731.37 1480.7c0-5.53-4.496-10.02-10.027-10.02-5.535 0-10.027 4.49-10.027 10.02 0 5.52 4.492 10.02 10.027 10.02 5.531 0 10.027-4.5 10.027-10.02"/><path d="m793.43 820.72c0-5.527-4.493-10.02-10.028-10.02s-10.027 4.493-10.027 10.02 4.492 10.019 10.027 10.019 10.028-4.492 10.028-10.019"/><path d="m1103.7 819.9c0-5.527-4.49-10.015-10.02-10.015-5.54 0-10.03 4.488-10.03 10.015 0 5.532 4.49 10.02 10.03 10.02 5.53 0 10.02-4.488 10.02-10.02"/><path d="m638.09 1191.8c0-5.53-4.492-10.02-10.027-10.02-5.536 0-10.028 4.49-10.028 10.02s4.492 10.02 10.028 10.02c5.535 0 10.027-4.49 10.027-10.02"/><path d="m279.7 1300.6c0-5.53-4.492-10.02-10.027-10.02-5.531 0-10.028 4.49-10.028 10.02s4.497 10.01 10.028 10.01c5.535 0 10.027-4.48 10.027-10.01"/><path d="m929.44 1350.2c0-5.54-4.493-10.02-10.028-10.02s-10.027 4.48-10.027 10.02c0 5.52 4.492 10.01 10.027 10.01s10.028-4.49 10.028-10.01"/><path d="m762.54 1097.4c0-5.53-4.496-10.02-10.027-10.02-5.536 0-10.028 4.49-10.028 10.02s4.492 10.02 10.028 10.02c5.531 0 10.027-4.49 10.027-10.02"/><path d="m1006.7 1022.8c0-5.52-4.49-10.01-10.025-10.01s-10.027 4.49-10.027 10.01c0 5.53 4.492 10.02 10.027 10.02s10.025-4.49 10.025-10.02"/><path d="m940.14 1296.2c0-5.52-4.492-10.01-10.028-10.01-5.535 0-10.027 4.49-10.027 10.01 0 5.54 4.492 10.02 10.027 10.02 5.536 0 10.028-4.48 10.028-10.02"/><path d="m1159.8 1699.9c0-5.54-4.49-10.02-10.02-10.02s-10.03 4.48-10.03 10.02c0 5.52 4.5 10.01 10.03 10.01s10.02-4.49 10.02-10.01"/><path d="m1218.3 1367.6c0-5.53-4.49-10.02-10.03-10.02-5.53 0-10.03 4.49-10.03 10.02s4.5 10.02 10.03 10.02c5.54 0 10.03-4.49 10.03-10.02"/><path d="m459.44 1121.4c0-5.53-4.492-10.01-10.027-10.01s-10.027 4.48-10.027 10.01 4.492 10.02 10.027 10.02 10.027-4.49 10.027-10.02"/><path d="m391.63 918.6c0-5.528-4.496-10.016-10.028-10.016-5.535 0-10.027 4.488-10.027 10.016 0 5.531 4.492 10.019 10.027 10.019 5.532 0 10.028-4.488 10.028-10.019"/><path d="m1082.6 1249.2c0-5.53-4.5-10.02-10.03-10.02s-10.03 4.49-10.03 10.02c0 5.52 4.5 10.01 10.03 10.01s10.03-4.49 10.03-10.01"/><path d="m1015.7 946.42c0-5.527-4.49-10.02-10.02-10.02-5.54 0-10.03 4.493-10.03 10.02s4.49 10.02 10.03 10.02c5.53 0 10.02-4.493 10.02-10.02"/><path d="m591.18 1168.8c0-5.53-4.492-10.02-10.028-10.02-5.535 0-10.027 4.49-10.027 10.02s4.492 10.02 10.027 10.02c5.536 0 10.028-4.49 10.028-10.02"/><path d="m1333.1 1334.8c0-5.53-4.49-10.02-10.03-10.02-5.53 0-10.03 4.49-10.03 10.02s4.5 10.02 10.03 10.02c5.54 0 10.03-4.49 10.03-10.02"/><path d="m922.55 1379.8c0-5.53-4.492-10.02-10.028-10.02-5.535 0-10.027 4.49-10.027 10.02s4.492 10.02 10.027 10.02c5.536 0 10.028-4.49 10.028-10.02"/><path d="m953.42 1276.4c0-5.53-4.492-10.02-10.027-10.02-5.536 0-10.028 4.49-10.028 10.02s4.492 10.02 10.028 10.02c5.535 0 10.027-4.49 10.027-10.02"/><path d="m1004.7 1519.4c0-5.53-4.49-10.02-10.025-10.02-5.532 0-10.028 4.49-10.028 10.02s4.496 10.01 10.028 10.01c5.535 0 10.025-4.48 10.025-10.01"/><path d="m1168.4 1665c0-5.53-4.49-10.02-10.02-10.02-5.54 0-10.03 4.49-10.03 10.02s4.49 10.02 10.03 10.02c5.53 0 10.02-4.49 10.02-10.02"/><path d="m1430.9 511.46c0-5.531-4.49-10.02-10.03-10.02-5.53 0-10.03 4.489-10.03 10.02 0 5.527 4.5 10.016 10.03 10.016 5.54 0 10.03-4.489 10.03-10.016"/><path d="m822 548.07c0-5.527-4.492-10.019-10.027-10.019-5.532 0-10.028 4.492-10.028 10.019 0 5.528 4.496 10.02 10.028 10.02 5.535 0 10.027-4.492 10.027-10.02"/><path d="m321.38 811.48c0-5.528-4.492-10.016-10.027-10.016-5.536 0-10.028 4.488-10.028 10.016 0 5.531 4.492 10.019 10.028 10.019 5.535 0 10.027-4.488 10.027-10.019"/><path d="m1256.8 480.61c0-5.531-4.5-10.019-10.03-10.019-5.54 0-10.03 4.488-10.03 10.019 0 5.528 4.49 10.016 10.03 10.016 5.53 0 10.03-4.488 10.03-10.016"/><path d="m595.07 985.5c0-5.527-4.492-10.016-10.027-10.016s-10.027 4.489-10.027 10.016c0 5.531 4.492 10.02 10.027 10.02s10.027-4.489 10.027-10.02"/><path d="m1335.2 991.87c0-5.527-4.5-10.019-10.03-10.019s-10.03 4.492-10.03 10.019c0 5.528 4.5 10.023 10.03 10.023s10.03-4.495 10.03-10.023"/><path d="m710.37 1172.4c0-5.53-4.496-10.02-10.027-10.02-5.535 0-10.027 4.49-10.027 10.02 0 5.52 4.492 10.01 10.027 10.01 5.531 0 10.027-4.49 10.027-10.01"/><path d="m1419.7 1183.4c0-5.53-4.49-10.02-10.02-10.02-5.54 0-10.03 4.49-10.03 10.02s4.49 10.02 10.03 10.02c5.53 0 10.02-4.49 10.02-10.02"/><path d="m636.57 884.24c0-5.527-4.496-10.019-10.027-10.019-5.535 0-10.027 4.492-10.027 10.019 0 5.528 4.492 10.02 10.027 10.02 5.531 0 10.027-4.492 10.027-10.02"/><path d="m532.06 845.12c0-5.527-4.493-10.015-10.028-10.015s-10.027 4.488-10.027 10.015c0 5.531 4.492 10.02 10.027 10.02s10.028-4.489 10.028-10.02"/><path d="m1237.5 1339.5c0-5.53-4.49-10.02-10.03-10.02-5.53 0-10.02 4.49-10.02 10.02s4.49 10.02 10.02 10.02c5.54 0 10.03-4.49 10.03-10.02"/><path d="m446.69 977.85c0-5.528-4.493-10.016-10.028-10.016-5.531 0-10.027 4.488-10.027 10.016 0 5.531 4.496 10.019 10.027 10.019 5.535 0 10.028-4.488 10.028-10.019"/><path d="m1143.3 673.45c0-5.527-4.49-10.019-10.03-10.019-5.53 0-10.02 4.492-10.02 10.019 0 5.531 4.49 10.02 10.02 10.02 5.54 0 10.03-4.489 10.03-10.02"/><path d="m1060.5 1098.6c0-5.53-4.5-10.02-10.03-10.02-5.54 0-10.03 4.49-10.03 10.02s4.49 10.02 10.03 10.02c5.53 0 10.03-4.49 10.03-10.02"/><path d="m862.46 1158.2c0-5.53-4.496-10.02-10.027-10.02-5.536 0-10.028 4.49-10.028 10.02s4.492 10.02 10.028 10.02c5.531 0 10.027-4.49 10.027-10.02"/><path d="m794.88 968.91c0-5.531-4.492-10.019-10.028-10.019-5.535 0-10.027 4.488-10.027 10.019 0 5.528 4.492 10.016 10.027 10.016 5.536 0 10.028-4.488 10.028-10.016"/><path d="m1612.7 1299.6c0-5.53-4.49-10.02-10.02-10.02-5.54 0-10.03 4.49-10.03 10.02s4.49 10.02 10.03 10.02c5.53 0 10.02-4.49 10.02-10.02"/><path d="m783.63 1164.8c0-5.53-4.492-10.01-10.028-10.01-5.531 0-10.027 4.48-10.027 10.01s4.496 10.02 10.027 10.02c5.536 0 10.028-4.49 10.028-10.02"/><path d="m846.46 1029.9c0-5.53-4.492-10.02-10.027-10.02-5.536 0-10.028 4.49-10.028 10.02 0 5.52 4.492 10.02 10.028 10.02 5.535 0 10.027-4.5 10.027-10.02"/><path d="m591.32 1081.8c0-5.53-4.496-10.02-10.027-10.02-5.535 0-10.027 4.49-10.027 10.02s4.492 10.02 10.027 10.02c5.531 0 10.027-4.49 10.027-10.02"/><path d="m634.02 1236.4c0-5.52-4.496-10.02-10.027-10.02-5.535 0-10.027 4.5-10.027 10.02 0 5.53 4.492 10.02 10.027 10.02 5.531 0 10.027-4.49 10.027-10.02"/><path d="m712.37 959.56c0-5.532-4.496-10.02-10.027-10.02-5.535 0-10.027 4.488-10.027 10.02 0 5.527 4.492 10.015 10.027 10.015 5.531 0 10.027-4.488 10.027-10.015"/><path d="m1494 770.77c0-5.528-4.49-10.016-10.02-10.016s-10.03 4.488-10.03 10.016c0 5.531 4.5 10.019 10.03 10.019s10.02-4.488 10.02-10.019"/><path d="m778.22 1047.5c0-5.52-4.492-10.01-10.028-10.01-5.531 0-10.027 4.49-10.027 10.01 0 5.54 4.496 10.02 10.027 10.02 5.536 0 10.028-4.48 10.028-10.02"/><path d="m676.08 1135.1c0-5.53-4.492-10.02-10.027-10.02-5.532 0-10.028 4.49-10.028 10.02s4.496 10.02 10.028 10.02c5.535 0 10.027-4.49 10.027-10.02"/><path d="m758.52 1252.1c0-5.53-4.497-10.02-10.028-10.02-5.535 0-10.027 4.49-10.027 10.02s4.492 10.02 10.027 10.02c5.531 0 10.028-4.49 10.028-10.02"/><path d="m1154.8 1086.1c0-5.53-4.5-10.02-10.03-10.02s-10.02 4.49-10.02 10.02 4.49 10.02 10.02 10.02 10.03-4.49 10.03-10.02"/><path d="m462.82 954.64c0-5.528-4.496-10.016-10.027-10.016-5.535 0-10.027 4.488-10.027 10.016 0 5.531 4.492 10.019 10.027 10.019 5.531 0 10.027-4.488 10.027-10.019"/><path d="m1125.1 1278.9c0-5.54-4.49-10.02-10.03-10.02-5.53 0-10.03 4.48-10.03 10.02 0 5.52 4.5 10.01 10.03 10.01 5.54 0 10.03-4.49 10.03-10.01"/><path d="m457.52 1060.4c0-5.53-4.496-10.02-10.028-10.02-5.535 0-10.027 4.49-10.027 10.02s4.492 10.01 10.027 10.01c5.532 0 10.028-4.48 10.028-10.01"/><path d="m866.7 1343.7c0-5.52-4.492-10.01-10.027-10.01-5.531 0-10.027 4.49-10.027 10.01 0 5.53 4.496 10.02 10.027 10.02 5.535 0 10.027-4.49 10.027-10.02"/><path d="m288.58 1067.8c0-5.53-4.492-10.02-10.027-10.02-5.532 0-10.028 4.49-10.028 10.02 0 5.52 4.496 10.02 10.028 10.02 5.535 0 10.027-4.5 10.027-10.02"/><path d="m1094 1093.4c0-5.53-4.49-10.01-10.02-10.01-5.54 0-10.03 4.48-10.03 10.01s4.49 10.02 10.03 10.02c5.53 0 10.02-4.49 10.02-10.02"/><path d="m1147.5 1067.1c0-5.52-4.5-10.02-10.03-10.02s-10.03 4.5-10.03 10.02c0 5.53 4.5 10.02 10.03 10.02s10.03-4.49 10.03-10.02"/><path d="m676.94 811.91c0-5.527-4.496-10.019-10.027-10.019-5.535 0-10.027 4.492-10.027 10.019 0 5.528 4.492 10.02 10.027 10.02 5.531 0 10.027-4.492 10.027-10.02"/><path d="m1019.6 810.15c0-5.531-4.5-10.019-10.03-10.019-5.54 0-10.028 4.488-10.028 10.019 0 5.528 4.488 10.02 10.028 10.02 5.53 0 10.03-4.492 10.03-10.02"/><path d="m966.8 799.6c0-5.527-4.492-10.015-10.028-10.015-5.535 0-10.027 4.488-10.027 10.015 0 5.532 4.492 10.02 10.027 10.02 5.536 0 10.028-4.488 10.028-10.02"/><path d="m1306.4 1644.6c0-5.53-4.49-10.02-10.02-10.02-5.54 0-10.03 4.49-10.03 10.02s4.49 10.02 10.03 10.02c5.53 0 10.02-4.49 10.02-10.02"/><path d="m955.06 1033.8c0-5.53-4.493-10.02-10.028-10.02-5.531 0-10.027 4.49-10.027 10.02s4.496 10.02 10.027 10.02c5.535 0 10.028-4.49 10.028-10.02"/><path d="m1265.6 1384.8c0-5.53-4.5-10.02-10.03-10.02s-10.03 4.49-10.03 10.02 4.5 10.02 10.03 10.02 10.03-4.49 10.03-10.02"/><path d="m871.5 1202.8c0-5.53-4.492-10.02-10.027-10.02s-10.028 4.49-10.028 10.02c0 5.52 4.493 10.02 10.028 10.02s10.027-4.5 10.027-10.02"/></g><g transform="scale(1.0004 -.99955)"><path stroke-linejoin="round" d="m49.103-144.35v-28.005" stroke="#000" stroke-miterlimit="10" stroke-width="5.0084" fill="none"/></g><g transform="scale(1.0004 -.99955)"><path stroke-linejoin="round" d="m389.81-144.35v-28.005" stroke="#000" stroke-miterlimit="10" stroke-width="5.0084" fill="none"/></g><g transform="scale(1.0004 -.99955)"><path stroke-linejoin="round" d="m730.52-144.35v-28.005" stroke="#000" stroke-miterlimit="10" stroke-width="5.0084" fill="none"/></g><g transform="scale(1.0004 -.99955)"><path stroke-linejoin="round" d="m1071.2-144.35v-28.005" stroke="#000" stroke-miterlimit="10" stroke-width="5.0084" fill="none"/></g><g transform="scale(1.0004 -.99955)"><path stroke-linejoin="round" d="m1411.9-144.35v-28.005" stroke="#000" stroke-miterlimit="10" stroke-width="5.0084" fill="none"/></g><g transform="scale(1.0004 -.99955)"><path stroke-linejoin="round" d="m1752.6-144.35v-28.005" stroke="#000" stroke-miterlimit="10" stroke-width="5.0084" fill="none"/></g><g transform="scale(1.0004 -.99955)"><path stroke-linejoin="round" d="m2093.4-144.35v-28.005" stroke="#000" stroke-miterlimit="10" stroke-width="5.0084" fill="none"/></g><g transform="scale(10)"><text transform="matrix(1 0 0 -.99910 .1 2.0121)" font-size="10.026px" font-family="Helvetica" fill="#000000"><tspan y="0" x="0 3.3384964 34.08585 37.424343 69.976387 104.06224 138.14809 172.23393 206.31978">-2-101234</tspan></text>
</g><g transform="scale(1.0004 -.99955)"><path stroke-linejoin="round" d="m220.22-172.36h435.64" stroke="#000" stroke-miterlimit="10" stroke-width="5.0084" fill="none"/></g><path d="m875.78 172.27c0-9.219-7.484-16.696-16.711-16.696-9.226 0-16.711 7.477-16.711 16.696 0 9.218 7.485 16.695 16.711 16.695 9.227 0 16.711-7.477 16.711-16.695"/><g transform="scale(10)"><text transform="matrix(1 0 0 -.99910 78.689 2.0121)" font-size="10.026px" font-family="Helvetica" fill="#000000"><tspan y="0" x="0 5.5741863 8.3612795">0.4</tspan></text>
</g><g transform="scale(1.0004 -.99955)"><path stroke-linejoin="round" d="m1127.2-172.36h684.64" stroke="#000" stroke-miterlimit="10" stroke-width="5.0084" fill="none"/></g></g></g></svg>
