<svg xmlns="http://www.w3.org/2000/svg" height="223.347" width="300.32"><path d="M110.093 66.519a1.337 1.337 0 1 1-2.674-.002 1.337 1.337 0 0 1 2.674.002M97.09 100.97a1.337 1.337 0 1 1-2.673-.003 1.337 1.337 0 0 1 2.674.003M84.089 87.19a1.337 1.337 0 0 1-2.674 0 1.337 1.337 0 0 1 2.674 0M77.587 94.08a1.337 1.337 0 1 1-2.674-.003 1.337 1.337 0 0 1 2.674.002M103.592 59.63a1.338 1.338 0 0 1-2.674 0 1.337 1.337 0 0 1 2.674 0M129.597 38.959a1.337 1.337 0 1 1-2.674-.003 1.337 1.337 0 0 1 2.674.003M77.587 73.41a1.337 1.337 0 1 1-2.674-.003 1.337 1.337 0 0 1 2.674.002M103.592 73.41a1.337 1.337 0 0 1-2.674 0 1.337 1.337 0 0 1 2.674 0M64.584 107.86a1.337 1.337 0 1 1-2.673-.003 1.337 1.337 0 0 1 2.673.003M97.09 94.08a1.337 1.337 0 1 1-2.673-.003 1.337 1.337 0 0 1 2.674.002M129.597 52.739a1.337 1.337 0 1 1-2.674-.003 1.337 1.337 0 0 1 2.674.003M90.59 73.41a1.337 1.337 0 1 1-2.674-.003 1.337 1.337 0 0 1 2.674.002M90.59 100.97a1.337 1.337 0 1 1-2.674-.003 1.337 1.337 0 0 1 2.674.003M58.083 100.97a1.337 1.337 0 1 1-2.673-.003 1.337 1.337 0 0 1 2.673.003M155.603 32.068a1.337 1.337 0 1 1-2.674-.002 1.337 1.337 0 0 1 2.674.002M149.1 4.508a1.337 1.337 0 0 1-2.673 0 1.337 1.337 0 0 1 2.673 0" fill="#0072bd"/><path d="M129.597 38.959a1.337 1.337 0 1 1-2.674-.003 1.337 1.337 0 0 1 2.674.003M110.093 66.519a1.337 1.337 0 1 1-2.674-.002 1.337 1.337 0 0 1 2.674.002M149.1 45.85a1.338 1.338 0 0 1-2.673 0 1.338 1.338 0 0 1 2.673 0M110.093 45.85a1.338 1.338 0 0 1-2.674 0 1.337 1.337 0 0 1 2.674 0M129.597 73.41a1.337 1.337 0 1 1-2.674-.003 1.337 1.337 0 0 1 2.674.002M110.093 52.739a1.337 1.337 0 1 1-2.674-.002 1.337 1.337 0 0 1 2.674.002M77.587 59.63a1.338 1.338 0 0 1-2.674 0 1.337 1.337 0 0 1 2.674 0M110.093 80.299a1.337 1.337 0 1 1-2.674-.002 1.337 1.337 0 0 1 2.674.002M90.59 73.41a1.337 1.337 0 1 1-2.674-.003 1.337 1.337 0 0 1 2.674.002M103.592 100.97a1.337 1.337 0 0 1-2.674 0 1.337 1.337 0 0 1 2.674 0M103.592 73.41a1.337 1.337 0 0 1-2.674 0 1.337 1.337 0 0 1 2.674 0M116.594 66.519a1.337 1.337 0 1 1-2.674-.002 1.337 1.337 0 0 1 2.674.002M116.594 73.41a1.337 1.337 0 1 1-2.674-.003 1.337 1.337 0 0 1 2.674.002M84.089 87.19a1.337 1.337 0 0 1-2.674 0 1.337 1.337 0 0 1 2.674 0M90.59 94.08a1.337 1.337 0 1 1-2.674-.003 1.337 1.337 0 0 1 2.674.002" fill="#0072bd"/><path d="M129.597 73.41a1.337 1.337 0 1 1-2.674-.003 1.337 1.337 0 0 1 2.674.002M116.594 25.179a1.337 1.337 0 1 1-2.674-.002 1.337 1.337 0 0 1 2.674.002M136.099 18.288a1.338 1.338 0 0 1-2.675 0 1.338 1.338 0 0 1 2.675 0M97.09 94.08a1.337 1.337 0 1 1-2.673-.003 1.337 1.337 0 0 1 2.674.002M103.592 87.19a1.337 1.337 0 0 1-2.674 0 1.337 1.337 0 0 1 2.674 0M136.099 66.519a1.338 1.338 0 0 1-2.675 0 1.338 1.338 0 0 1 2.675 0" fill="#0072bd"/><path d="M97.09 94.08a1.337 1.337 0 1 1-2.673-.003 1.337 1.337 0 0 1 2.674.002M64.584 100.97a1.337 1.337 0 1 1-2.673-.003 1.337 1.337 0 0 1 2.673.003M110.093 73.41a1.337 1.337 0 1 1-2.674-.003 1.337 1.337 0 0 1 2.674.002M103.592 66.519a1.337 1.337 0 0 1-2.674 0 1.337 1.337 0 0 1 2.674 0M71.086 149.2a1.337 1.337 0 0 1-2.674 0 1.337 1.337 0 0 1 2.674 0M64.584 87.19a1.337 1.337 0 1 1-2.674-.003 1.337 1.337 0 0 1 2.674.002" fill="#0072bd"/><path d="M103.592 66.519a1.337 1.337 0 0 1-2.674 0 1.337 1.337 0 0 1 2.674 0M110.093 45.85a1.338 1.338 0 0 1-2.674 0 1.337 1.337 0 0 1 2.674 0M90.59 100.97a1.337 1.337 0 1 1-2.674-.003 1.337 1.337 0 0 1 2.674.003" fill="#0072bd"/><path d="M110.093 45.85a1.338 1.338 0 0 1-2.674 0 1.337 1.337 0 0 1 2.674 0M77.587 87.19a1.337 1.337 0 1 1-2.674-.003 1.337 1.337 0 0 1 2.674.002M123.096 52.739a1.337 1.337 0 1 1-2.674-.002 1.337 1.337 0 0 1 2.674.002M103.592 80.299a1.337 1.337 0 0 1-2.674 0 1.337 1.337 0 0 1 2.674 0" fill="#0072bd"/><path d="M233.617 87.19a1.338 1.338 0 0 1-2.674 0 1.338 1.338 0 0 1 2.674 0M194.61 87.19a1.337 1.337 0 1 1-2.675-.003 1.337 1.337 0 0 1 2.674.002M227.116 94.08a1.337 1.337 0 1 1-2.674-.003 1.337 1.337 0 0 1 2.674.002M136.099 149.2a1.338 1.338 0 0 1-2.675 0 1.337 1.337 0 0 1 2.675 0M201.11 114.75a1.337 1.337 0 1 1-2.673-.003 1.337 1.337 0 0 1 2.674.003M149.1 114.75a1.336 1.336 0 1 1-2.673-.002 1.336 1.336 0 0 1 2.673.002M188.108 80.299a1.337 1.337 0 1 1-2.673-.002 1.337 1.337 0 0 1 2.673.002M97.09 142.31a1.337 1.337 0 1 1-2.673-.002 1.337 1.337 0 0 1 2.674.002M207.612 107.86a1.337 1.337 0 0 1-2.673 0 1.336 1.336 0 0 1 2.673 0M116.594 121.64a1.337 1.337 0 1 1-2.673-.003 1.337 1.337 0 0 1 2.673.003M103.592 169.87a1.337 1.337 0 0 1-2.674 0 1.337 1.337 0 0 1 2.674 0M162.103 100.97a1.336 1.336 0 1 1-2.673-.002 1.336 1.336 0 0 1 2.673.002M168.604 156.09a1.337 1.337 0 1 1-2.674-.002 1.337 1.337 0 0 1 2.674.002M175.105 107.86a1.336 1.336 0 1 1-2.672-.002 1.336 1.336 0 0 1 2.672.002M142.6 107.86a1.337 1.337 0 0 1-2.675 0 1.337 1.337 0 0 1 2.675 0M214.113 94.08a1.337 1.337 0 1 1-2.673-.003 1.337 1.337 0 0 1 2.673.002M142.6 100.97a1.337 1.337 0 0 1-2.675 0 1.337 1.337 0 0 1 2.675 0M155.603 121.64a1.338 1.338 0 0 1-2.675 0 1.337 1.337 0 0 1 2.675 0M181.607 156.09a1.337 1.337 0 1 1-2.674-.002 1.337 1.337 0 0 1 2.674.002M142.6 135.42a1.338 1.338 0 0 1-2.675 0 1.337 1.337 0 0 1 2.675 0M162.103 87.19a1.337 1.337 0 1 1-2.674-.002 1.337 1.337 0 0 1 2.674.001M175.105 114.75a1.336 1.336 0 1 1-2.672-.002 1.336 1.336 0 0 1 2.672.002M188.108 135.42a1.336 1.336 0 1 1-2.673-.002 1.336 1.336 0 0 1 2.673.002" fill="#d95319"/><path d="M175.105 114.75a1.336 1.336 0 1 1-2.672-.002 1.336 1.336 0 0 1 2.672.002M194.61 107.86a1.337 1.337 0 1 1-2.674-.003 1.337 1.337 0 0 1 2.673.003M207.612 100.97a1.337 1.337 0 0 1-2.673 0 1.337 1.337 0 0 1 2.673 0M220.615 114.75a1.338 1.338 0 0 1-2.675 0 1.338 1.338 0 0 1 2.675 0M214.113 100.97a1.337 1.337 0 1 1-2.673-.003 1.337 1.337 0 0 1 2.673.003M168.604 107.86a1.337 1.337 0 1 1-2.673-.003 1.337 1.337 0 0 1 2.673.003M149.1 128.53a1.336 1.336 0 1 1-2.673-.002 1.336 1.336 0 0 1 2.673.002M136.099 142.31a1.338 1.338 0 0 1-2.675 0 1.338 1.338 0 0 1 2.675 0" fill="#d95319"/><path d="M136.099 142.31a1.338 1.338 0 0 1-2.675 0 1.338 1.338 0 0 1 2.675 0M155.603 121.64a1.338 1.338 0 0 1-2.675 0 1.337 1.337 0 0 1 2.675 0M168.604 121.64a1.337 1.337 0 1 1-2.673-.003 1.337 1.337 0 0 1 2.673.003M129.597 100.97a1.337 1.337 0 1 1-2.674-.003 1.337 1.337 0 0 1 2.674.003M168.604 73.41a1.337 1.337 0 1 1-2.674-.003 1.337 1.337 0 0 1 2.674.002M214.113 94.08a1.337 1.337 0 1 1-2.673-.003 1.337 1.337 0 0 1 2.673.002M188.108 149.2a1.336 1.336 0 1 1-2.673-.001 1.336 1.336 0 0 1 2.673 0M142.6 100.97a1.337 1.337 0 0 1-2.675 0 1.337 1.337 0 0 1 2.675 0M136.099 135.42a1.338 1.338 0 0 1-2.675 0 1.338 1.338 0 0 1 2.675 0M136.099 128.53a1.338 1.338 0 0 1-2.675 0 1.338 1.338 0 0 1 2.675 0M175.105 100.97a1.336 1.336 0 1 1-2.672-.002 1.336 1.336 0 0 1 2.672.002M155.603 128.53a1.338 1.338 0 0 1-2.675 0 1.337 1.337 0 0 1 2.675 0M103.592 149.2a1.337 1.337 0 0 1-2.674 0 1.337 1.337 0 0 1 2.674 0M142.6 121.64a1.338 1.338 0 0 1-2.675 0 1.337 1.337 0 0 1 2.675 0M149.1 100.97a1.336 1.336 0 1 1-2.673-.002 1.336 1.336 0 0 1 2.673.002M149.1 107.86a1.336 1.336 0 1 1-2.673-.002 1.336 1.336 0 0 1 2.673.002M181.607 107.86a1.337 1.337 0 1 1-2.674-.003 1.337 1.337 0 0 1 2.674.003M110.093 135.42a1.337 1.337 0 1 1-2.673-.002 1.337 1.337 0 0 1 2.673.002M149.1 114.75a1.336 1.336 0 1 1-2.673-.002 1.336 1.336 0 0 1 2.673.002" fill="#d95319"/><path d="M188.108 80.299a1.337 1.337 0 1 1-2.673-.002 1.337 1.337 0 0 1 2.673.002M155.603 121.64a1.338 1.338 0 0 1-2.675 0 1.337 1.337 0 0 1 2.675 0M240.119 100.97a1.337 1.337 0 0 1-2.675 0 1.337 1.337 0 0 1 2.675 0M188.108 107.86a1.336 1.336 0 1 1-2.673-.002 1.336 1.336 0 0 1 2.673.002M201.11 100.97a1.337 1.337 0 1 1-2.673-.003 1.337 1.337 0 0 1 2.674.003M272.624 100.97a1.337 1.337 0 1 1-2.673-.003 1.337 1.337 0 0 1 2.673.003M97.09 135.42a1.337 1.337 0 1 1-2.673-.002 1.337 1.337 0 0 1 2.674.002M253.12 107.86a1.336 1.336 0 1 1-2.673-.002 1.336 1.336 0 0 1 2.673.002M214.113 135.42a1.337 1.337 0 1 1-2.673-.002 1.337 1.337 0 0 1 2.673.002M246.619 59.63a1.338 1.338 0 0 1-2.674 0 1.337 1.337 0 0 1 2.674 0M201.11 87.19a1.337 1.337 0 1 1-2.673-.003 1.337 1.337 0 0 1 2.674.002M194.61 121.64a1.337 1.337 0 1 1-2.674-.003 1.337 1.337 0 0 1 2.673.003M220.615 100.97a1.337 1.337 0 0 1-2.675 0 1.338 1.338 0 0 1 2.675 0M149.1 135.42a1.336 1.336 0 1 1-2.673-.002 1.336 1.336 0 0 1 2.673.002M155.603 114.75a1.338 1.338 0 0 1-2.675 0 1.337 1.337 0 0 1 2.675 0M194.61 87.19a1.337 1.337 0 1 1-2.675-.003 1.337 1.337 0 0 1 2.674.002" fill="#edb120"/><path d="M201.11 100.97a1.337 1.337 0 1 1-2.673-.003 1.337 1.337 0 0 1 2.674.003M279.125 45.85a1.338 1.338 0 0 1-2.673 0 1.337 1.337 0 0 1 2.673 0M279.125 128.53a1.337 1.337 0 1 1-2.673-.003 1.337 1.337 0 0 1 2.673.003M168.604 156.09a1.337 1.337 0 1 1-2.674-.002 1.337 1.337 0 0 1 2.674.002M227.116 87.19a1.337 1.337 0 1 1-2.674-.003 1.337 1.337 0 0 1 2.674.002M142.6 114.75a1.338 1.338 0 0 1-2.675 0 1.337 1.337 0 0 1 2.675 0M279.125 114.75a1.337 1.337 0 1 1-2.673-.003 1.337 1.337 0 0 1 2.673.003M188.108 121.64a1.336 1.336 0 1 1-2.673-.002 1.336 1.336 0 0 1 2.673.002M214.113 80.299a1.337 1.337 0 1 1-2.674-.002 1.337 1.337 0 0 1 2.674.002M246.619 87.19a1.337 1.337 0 1 1-2.674-.002 1.337 1.337 0 0 1 2.674.001M181.607 114.75a1.337 1.337 0 1 1-2.674-.003 1.337 1.337 0 0 1 2.674.003M175.105 100.97a1.336 1.336 0 1 1-2.672-.002 1.336 1.336 0 0 1 2.672.002M194.61 114.75a1.337 1.337 0 1 1-2.674-.003 1.337 1.337 0 0 1 2.673.003M246.619 100.97a1.336 1.336 0 1 1-2.673-.002 1.336 1.336 0 0 1 2.673.002M259.621 114.75a1.336 1.336 0 1 1-2.672-.002 1.336 1.336 0 0 1 2.672.002M292.128 45.85a1.338 1.338 0 0 1-2.673 0 1.337 1.337 0 0 1 2.673 0" fill="#edb120"/><path d="M194.61 114.75a1.337 1.337 0 1 1-2.674-.003 1.337 1.337 0 0 1 2.673.003M188.108 114.75a1.336 1.336 0 1 1-2.673-.002 1.336 1.336 0 0 1 2.673.002M175.105 128.53a1.336 1.336 0 1 1-2.673-.002 1.336 1.336 0 0 1 2.673.002M279.125 100.97a1.337 1.337 0 1 1-2.673-.003 1.337 1.337 0 0 1 2.673.003M188.108 73.41a1.337 1.337 0 1 1-2.673-.002 1.337 1.337 0 0 1 2.673.001M194.61 94.08a1.337 1.337 0 1 1-2.674-.003 1.337 1.337 0 0 1 2.673.002M168.604 100.97a1.337 1.337 0 1 1-2.673-.003 1.337 1.337 0 0 1 2.673.003M227.116 94.08a1.337 1.337 0 1 1-2.674-.003 1.337 1.337 0 0 1 2.674.002M214.113 94.08a1.337 1.337 0 1 1-2.673-.003 1.337 1.337 0 0 1 2.673.002" fill="#edb120"/><path d="M227.116 94.08a1.337 1.337 0 1 1-2.674-.003 1.337 1.337 0 0 1 2.674.002M155.603 121.64a1.338 1.338 0 0 1-2.675 0 1.337 1.337 0 0 1 2.675 0M220.615 87.19a1.338 1.338 0 0 1-2.675 0 1.338 1.338 0 0 1 2.675 0M214.113 80.299a1.337 1.337 0 1 1-2.674-.002 1.337 1.337 0 0 1 2.674.002M214.113 100.97a1.337 1.337 0 1 1-2.673-.003 1.337 1.337 0 0 1 2.673.003M188.108 135.42a1.336 1.336 0 1 1-2.673-.002 1.336 1.336 0 0 1 2.673.002M201.11 100.97a1.337 1.337 0 1 1-2.673-.003 1.337 1.337 0 0 1 2.674.003M181.607 73.41a1.337 1.337 0 1 1-2.674-.003 1.337 1.337 0 0 1 2.674.002M162.103 100.97a1.336 1.336 0 1 1-2.673-.002 1.336 1.336 0 0 1 2.673.002" fill="#edb120"/><path d="M337.68-401.262V-1642.03M308.623-659.757h29.057M308.623-918.248h29.057M308.623-1176.74h29.057M308.623-1435.23h29.057" fill="none" stroke="#000" stroke-width="5.008" stroke-linejoin="round" stroke-miterlimit="10" transform="matrix(.1334 0 0 .13327 0 223.347)"/><g font-weight="400" font-family="Helvetica"><text style="-inkscape-font-specification:Helvetica" transform="matrix(1.33333 0 0 1.33213 22.053 139.026)" font-size="8.02"><tspan y="0" x="0 4.4591656 6.6887479">2.5</tspan><tspan y="-25.861" x="6.617">3</tspan><tspan y="-51.722" x="0 4.4591656 6.6887479">3.5</tspan><tspan y="-77.583" x="6.617">4</tspan><tspan y="25.862" x="6.617">2</tspan><tspan y="-98.271" x="0 4.4591656 6.6887479">4.4</tspan></text><text style="-inkscape-font-specification:Helvetica" transform="matrix(0 -1.33214 1.33333 0 11.094 140.877)" font-size="10.026"><tspan y="0" x="0 6.6870084 12.261187 17.835365 23.409542 25.635204 28.422293 30.647953 36.22213 41.79631 47.370487 50.157578 55.731754 58.518845 61.857334 66.870087 75.221329">Sepal length (cm)</tspan></text></g><path d="M425.411-339.227H2179.97M766.57-310.366v-28.861M1010.27-310.366v-28.861M1253.95-310.366v-28.861M1497.64-310.366v-28.861M1741.33-310.366v-28.861M1985.01-310.366v-28.861" fill="none" stroke="#000" stroke-width="5.008" stroke-linejoin="round" stroke-miterlimit="10" transform="matrix(.1334 0 0 .13327 0 223.347)"/><g font-weight="400" font-family="Helvetica"><text style="-inkscape-font-specification:Helvetica" transform="matrix(1.33333 0 0 1.33213 99.047 195.447)" font-size="8.02"><tspan y="0" x="0 21.071562 25.530727 27.760309 48.759529 69.830688 74.289856 76.51944 97.519058 118.59022 123.04939 125.27897 -37.439865 -32.980701 -30.751118 138.09398 142.55313 144.78271">55.566.577.54.37.9</tspan></text><text style="-inkscape-font-specification:Helvetica" transform="matrix(1.33333 0 0 1.33213 122.84 217.722)" font-size="10.026"><tspan y="0" x="0 6.6870184 12.261205 17.83539 23.409576 25.635241 28.422335 35.660755 37.886421 43.460606 46.2477 51.821888 54.608978 57.947475 62.960232 71.311485">Sepal width (cm)</tspan></text></g></svg>