<?xml version="1.0" encoding="UTF-8" standalone="no"?>
<svg xmlns:rdf="http://www.w3.org/1999/02/22-rdf-syntax-ns#" xmlns="http://www.w3.org/2000/svg" xml:space="preserve" height="224.35" viewBox="0 0 302.32001 224.34666" width="302.32" version="1.1" xmlns:cc="http://creativecommons.org/ns#" xmlns:dc="http://purl.org/dc/elements/1.1/"><metadata><rdf:RDF><cc:Work rdf:about=""><dc:format>image/svg+xml</dc:format><dc:type rdf:resource="http://purl.org/dc/dcmitype/StillImage"/><dc:title/></cc:Work></rdf:RDF></metadata><g transform="matrix(1.3333 0 0 -1.3333 0 224.35)"><g transform="scale(.1)"><path d="m0 2.5234h2262.7v1700.8h-2262.7z" fill="#fff"/><path d="m0 2.5234h2262.7v1700.8h-2262.7z" fill="#fff"/><g fill="#0072bd"><path d="m825.7 1176.2c0-5.53-4.492-10.02-10.027-10.02s-10.027 4.49-10.027 10.02 4.492 10.02 10.027 10.02 10.027-4.49 10.027-10.02"/><path d="m728.18 917.83c0-5.527-4.492-10.015-10.028-10.015-5.531 0-10.027 4.488-10.027 10.015 0 5.531 4.496 10.02 10.027 10.02 5.536 0 10.028-4.489 10.028-10.02"/><path d="m630.66 1021.2c0-5.53-4.496-10.02-10.027-10.02-5.535 0-10.028 4.49-10.028 10.02s4.493 10.02 10.028 10.02c5.531 0 10.027-4.49 10.027-10.02"/><path d="m581.9 969.5c0-5.527-4.492-10.016-10.027-10.016s-10.027 4.489-10.027 10.016c0 5.531 4.492 10.019 10.027 10.019s10.027-4.488 10.027-10.019"/><path d="m776.94 1227.9c0-5.52-4.496-10.02-10.027-10.02-5.535 0-10.027 4.5-10.027 10.02 0 5.53 4.492 10.02 10.027 10.02 5.531 0 10.027-4.49 10.027-10.02"/><path d="m971.98 1382.9c0-5.53-4.493-10.02-10.028-10.02-5.531 0-10.027 4.49-10.027 10.02s4.496 10.02 10.027 10.02c5.535 0 10.028-4.49 10.028-10.02"/><path d="m581.9 1124.5c0-5.53-4.492-10.02-10.027-10.02s-10.027 4.49-10.027 10.02 4.492 10.02 10.027 10.02 10.027-4.49 10.027-10.02"/><path d="m776.94 1124.5c0-5.53-4.496-10.02-10.027-10.02-5.535 0-10.027 4.49-10.027 10.02s4.492 10.02 10.027 10.02c5.531 0 10.027-4.49 10.027-10.02"/><path d="m484.38 866.15c0-5.527-4.492-10.015-10.028-10.015-5.531 0-10.027 4.488-10.027 10.015 0 5.532 4.496 10.02 10.027 10.02 5.536 0 10.028-4.488 10.028-10.02"/><path d="m728.18 969.5c0-5.527-4.492-10.016-10.028-10.016-5.531 0-10.027 4.489-10.027 10.016 0 5.531 4.496 10.019 10.027 10.019 5.536 0 10.028-4.488 10.028-10.019"/><path d="m971.98 1279.6c0-5.53-4.493-10.02-10.028-10.02-5.531 0-10.027 4.49-10.027 10.02s4.496 10.02 10.027 10.02c5.535 0 10.028-4.49 10.028-10.02"/><path d="m679.42 1124.5c0-5.53-4.492-10.02-10.027-10.02-5.536 0-10.028 4.49-10.028 10.02s4.492 10.02 10.028 10.02c5.535 0 10.027-4.49 10.027-10.02"/><path d="m679.42 917.83c0-5.527-4.492-10.015-10.027-10.015-5.536 0-10.028 4.488-10.028 10.015 0 5.531 4.492 10.02 10.028 10.02 5.535 0 10.027-4.489 10.027-10.02"/><path d="m435.62 917.83c0-5.527-4.492-10.015-10.027-10.015s-10.028 4.488-10.028 10.015c0 5.531 4.493 10.02 10.028 10.02s10.027-4.489 10.027-10.02"/><path d="m1167 1434.6c0-5.54-4.5-10.02-10.03-10.02-5.54 0-10.03 4.48-10.03 10.02 0 5.52 4.49 10.02 10.03 10.02 5.53 0 10.03-4.5 10.03-10.02"/><path d="m1118.2 1641.3c0-5.53-4.49-10.02-10.02-10.02s-10.03 4.49-10.03 10.02 4.5 10.01 10.03 10.01 10.02-4.48 10.02-10.01"/><path d="m971.98 1382.9c0-5.53-4.493-10.02-10.028-10.02-5.531 0-10.027 4.49-10.027 10.02s4.496 10.02 10.027 10.02c5.535 0 10.028-4.49 10.028-10.02"/><path d="m825.7 1176.2c0-5.53-4.492-10.02-10.027-10.02s-10.027 4.49-10.027 10.02 4.492 10.02 10.027 10.02 10.027-4.49 10.027-10.02"/><path d="m1118.2 1331.2c0-5.52-4.49-10.02-10.02-10.02s-10.03 4.5-10.03 10.02c0 5.53 4.5 10.02 10.03 10.02s10.02-4.49 10.02-10.02"/><path d="m825.7 1331.2c0-5.52-4.492-10.02-10.027-10.02s-10.027 4.5-10.027 10.02c0 5.53 4.492 10.02 10.027 10.02s10.027-4.49 10.027-10.02"/><path d="m971.98 1124.5c0-5.53-4.493-10.02-10.028-10.02-5.531 0-10.027 4.49-10.027 10.02s4.496 10.02 10.027 10.02c5.535 0 10.028-4.49 10.028-10.02"/><path d="m825.7 1279.6c0-5.53-4.492-10.02-10.027-10.02s-10.027 4.49-10.027 10.02 4.492 10.02 10.027 10.02 10.027-4.49 10.027-10.02"/><path d="m581.9 1227.9c0-5.52-4.492-10.02-10.027-10.02s-10.027 4.5-10.027 10.02c0 5.53 4.492 10.02 10.027 10.02s10.027-4.49 10.027-10.02"/><path d="m825.7 1072.9c0-5.53-4.492-10.02-10.027-10.02s-10.027 4.49-10.027 10.02 4.492 10.02 10.027 10.02 10.027-4.49 10.027-10.02"/><path d="m679.42 1124.5c0-5.53-4.492-10.02-10.027-10.02-5.536 0-10.028 4.49-10.028 10.02s4.492 10.02 10.028 10.02c5.535 0 10.027-4.49 10.027-10.02"/><path d="m776.94 917.83c0-5.527-4.496-10.015-10.027-10.015-5.535 0-10.027 4.488-10.027 10.015 0 5.531 4.492 10.02 10.027 10.02 5.531 0 10.027-4.489 10.027-10.02"/><path d="m776.94 1124.5c0-5.53-4.496-10.02-10.027-10.02-5.535 0-10.027 4.49-10.027 10.02s4.492 10.02 10.027 10.02c5.531 0 10.027-4.49 10.027-10.02"/><path d="m874.46 1176.2c0-5.53-4.492-10.02-10.027-10.02-5.532 0-10.028 4.49-10.028 10.02s4.496 10.02 10.028 10.02c5.535 0 10.027-4.49 10.027-10.02"/><path d="m874.46 1124.5c0-5.53-4.492-10.02-10.027-10.02-5.532 0-10.028 4.49-10.028 10.02s4.496 10.02 10.028 10.02c5.535 0 10.027-4.49 10.027-10.02"/><path d="m630.66 1021.2c0-5.53-4.496-10.02-10.027-10.02-5.535 0-10.028 4.49-10.028 10.02s4.493 10.02 10.028 10.02c5.531 0 10.027-4.49 10.027-10.02"/><path d="m679.42 969.5c0-5.527-4.492-10.016-10.027-10.016-5.536 0-10.028 4.489-10.028 10.016 0 5.531 4.492 10.019 10.028 10.019 5.535 0 10.027-4.488 10.027-10.019"/><path d="m971.98 1124.5c0-5.53-4.493-10.02-10.028-10.02-5.531 0-10.027 4.49-10.027 10.02s4.496 10.02 10.027 10.02c5.535 0 10.028-4.49 10.028-10.02"/><path d="m874.46 1486.3c0-5.53-4.492-10.02-10.027-10.02-5.532 0-10.028 4.49-10.028 10.02s4.496 10.02 10.028 10.02c5.535 0 10.027-4.49 10.027-10.02"/><path d="m1020.7 1537.9c0-5.53-4.5-10.02-10.03-10.02s-10.03 4.49-10.03 10.02c0 5.52 4.5 10.01 10.03 10.01s10.03-4.49 10.03-10.01"/><path d="m728.18 969.5c0-5.527-4.492-10.016-10.028-10.016-5.531 0-10.027 4.489-10.027 10.016 0 5.531 4.496 10.019 10.027 10.019 5.536 0 10.028-4.488 10.028-10.019"/><path d="m776.94 1021.2c0-5.53-4.496-10.02-10.027-10.02-5.535 0-10.027 4.49-10.027 10.02s4.492 10.02 10.027 10.02c5.531 0 10.027-4.49 10.027-10.02"/><path d="m1020.7 1176.2c0-5.53-4.5-10.02-10.03-10.02s-10.03 4.49-10.03 10.02 4.5 10.02 10.03 10.02 10.03-4.49 10.03-10.02"/><path d="m728.18 969.5c0-5.527-4.492-10.016-10.028-10.016-5.531 0-10.027 4.489-10.027 10.016 0 5.531 4.496 10.019 10.027 10.019 5.536 0 10.028-4.488 10.028-10.019"/><path d="m484.38 917.83c0-5.527-4.492-10.015-10.028-10.015-5.531 0-10.027 4.488-10.027 10.015 0 5.531 4.496 10.02 10.027 10.02 5.536 0 10.028-4.489 10.028-10.02"/><path d="m825.7 1124.5c0-5.53-4.492-10.02-10.027-10.02s-10.027 4.49-10.027 10.02 4.492 10.02 10.027 10.02 10.027-4.49 10.027-10.02"/><path d="m776.94 1176.2c0-5.53-4.496-10.02-10.027-10.02-5.535 0-10.027 4.49-10.027 10.02s4.492 10.02 10.027 10.02c5.531 0 10.027-4.49 10.027-10.02"/><path d="m533.14 556.1c0-5.532-4.493-10.02-10.028-10.02s-10.027 4.488-10.027 10.02c0 5.527 4.492 10.015 10.027 10.015s10.028-4.488 10.028-10.015"/><path d="m484.38 1021.2c0-5.53-4.492-10.02-10.028-10.02-5.531 0-10.027 4.49-10.027 10.02s4.496 10.02 10.027 10.02c5.536 0 10.028-4.49 10.028-10.02"/><path d="m776.94 1176.2c0-5.53-4.496-10.02-10.027-10.02-5.535 0-10.027 4.49-10.027 10.02s4.492 10.02 10.027 10.02c5.531 0 10.027-4.49 10.027-10.02"/><path d="m825.7 1331.2c0-5.52-4.492-10.02-10.027-10.02s-10.027 4.5-10.027 10.02c0 5.53 4.492 10.02 10.027 10.02s10.027-4.49 10.027-10.02"/><path d="m679.42 917.83c0-5.527-4.492-10.015-10.027-10.015-5.536 0-10.028 4.488-10.028 10.015 0 5.531 4.492 10.02 10.028 10.02 5.535 0 10.027-4.489 10.027-10.02"/><path d="m825.7 1331.2c0-5.52-4.492-10.02-10.027-10.02s-10.027 4.5-10.027 10.02c0 5.53 4.492 10.02 10.027 10.02s10.027-4.49 10.027-10.02"/><path d="m581.9 1021.2c0-5.53-4.492-10.02-10.027-10.02s-10.027 4.49-10.027 10.02 4.492 10.02 10.027 10.02 10.027-4.49 10.027-10.02"/><path d="m923.22 1279.6c0-5.53-4.492-10.02-10.028-10.02-5.535 0-10.027 4.49-10.027 10.02s4.492 10.02 10.027 10.02c5.536 0 10.028-4.49 10.028-10.02"/><path d="m776.94 1072.9c0-5.53-4.496-10.02-10.027-10.02-5.535 0-10.027 4.49-10.027 10.02s4.492 10.02 10.027 10.02c5.531 0 10.027-4.49 10.027-10.02"/></g><g fill="#d95319"><path d="m1752.1 1021.2c0-5.53-4.5-10.02-10.03-10.02s-10.03 4.49-10.03 10.02 4.5 10.02 10.03 10.02 10.03-4.49 10.03-10.02"/><path d="m1459.6 1021.2c0-5.53-4.49-10.02-10.03-10.02-5.53 0-10.02 4.49-10.02 10.02s4.49 10.02 10.02 10.02c5.54 0 10.03-4.49 10.03-10.02"/><path d="m1703.4 969.5c0-5.527-4.49-10.016-10.03-10.016s-10.03 4.489-10.03 10.016c0 5.531 4.49 10.019 10.03 10.019s10.03-4.488 10.03-10.019"/><path d="m1020.7 556.1c0-5.532-4.5-10.02-10.03-10.02s-10.03 4.488-10.03 10.02c0 5.527 4.5 10.015 10.03 10.015s10.03-4.488 10.03-10.015"/><path d="m1508.3 814.48c0-5.528-4.49-10.016-10.03-10.016-5.53 0-10.03 4.488-10.03 10.016 0 5.531 4.5 10.019 10.03 10.019 5.54 0 10.03-4.488 10.03-10.019"/><path d="m1118.2 814.48c0-5.528-4.49-10.016-10.02-10.016s-10.03 4.488-10.03 10.016c0 5.531 4.5 10.019 10.03 10.019s10.02-4.488 10.02-10.019"/><path d="m1410.8 1072.9c0-5.53-4.49-10.02-10.02-10.02-5.54 0-10.03 4.49-10.03 10.02s4.49 10.02 10.03 10.02c5.53 0 10.02-4.49 10.02-10.02"/><path d="m728.18 607.78c0-5.531-4.492-10.019-10.028-10.019-5.531 0-10.027 4.488-10.027 10.019 0 5.528 4.496 10.016 10.027 10.016 5.536 0 10.028-4.488 10.028-10.016"/><path d="m1557.1 866.15c0-5.527-4.5-10.015-10.03-10.015s-10.02 4.488-10.02 10.015c0 5.532 4.49 10.02 10.02 10.02s10.03-4.488 10.03-10.02"/><path d="m874.46 762.8c0-5.528-4.492-10.016-10.027-10.016-5.532 0-10.028 4.488-10.028 10.016 0 5.531 4.496 10.019 10.028 10.019 5.535 0 10.027-4.488 10.027-10.019"/><path d="m776.94 401.07c0-5.531-4.496-10.019-10.027-10.019-5.535 0-10.027 4.488-10.027 10.019 0 5.528 4.492 10.016 10.027 10.016 5.531 0 10.027-4.488 10.027-10.016"/><path d="m1215.8 917.83c0-5.527-4.49-10.015-10.02-10.015-5.54 0-10.03 4.488-10.03 10.015 0 5.531 4.49 10.02 10.03 10.02 5.53 0 10.02-4.489 10.02-10.02"/><path d="m1264.5 504.43c0-5.531-4.49-10.02-10.03-10.02-5.53 0-10.02 4.489-10.02 10.02 0 5.527 4.49 10.015 10.02 10.015 5.54 0 10.03-4.488 10.03-10.015"/><path d="m1313.3 866.15c0-5.527-4.49-10.015-10.02-10.015-5.54 0-10.03 4.488-10.03 10.015 0 5.532 4.49 10.02 10.03 10.02 5.53 0 10.02-4.488 10.02-10.02"/><path d="m1069.5 866.15c0-5.527-4.5-10.015-10.03-10.015-5.54 0-10.03 4.488-10.03 10.015 0 5.532 4.49 10.02 10.03 10.02 5.53 0 10.03-4.488 10.03-10.02"/><path d="m1605.8 969.5c0-5.527-4.49-10.016-10.03-10.016-5.53 0-10.03 4.489-10.03 10.016 0 5.531 4.5 10.019 10.03 10.019 5.54 0 10.03-4.488 10.03-10.019"/><path d="m1069.5 917.83c0-5.527-4.5-10.015-10.03-10.015-5.54 0-10.03 4.488-10.03 10.015 0 5.531 4.49 10.02 10.03 10.02 5.53 0 10.03-4.489 10.03-10.02"/><path d="m1167 762.8c0-5.528-4.5-10.016-10.03-10.016-5.54 0-10.03 4.488-10.03 10.016 0 5.531 4.49 10.019 10.03 10.019 5.53 0 10.03-4.488 10.03-10.019"/><path d="m1362 504.43c0-5.531-4.49-10.02-10.03-10.02-5.53 0-10.02 4.489-10.02 10.02 0 5.527 4.49 10.015 10.02 10.015 5.54 0 10.03-4.488 10.03-10.015"/><path d="m1069.5 659.45c0-5.531-4.5-10.019-10.03-10.019-5.54 0-10.03 4.488-10.03 10.019 0 5.527 4.49 10.016 10.03 10.016 5.53 0 10.03-4.489 10.03-10.016"/><path d="m1215.8 1021.2c0-5.53-4.49-10.02-10.02-10.02-5.54 0-10.03 4.49-10.03 10.02s4.49 10.02 10.03 10.02c5.53 0 10.02-4.49 10.02-10.02"/><path d="m1313.3 814.48c0-5.528-4.49-10.016-10.02-10.016-5.54 0-10.03 4.488-10.03 10.016 0 5.531 4.49 10.019 10.03 10.019 5.53 0 10.02-4.488 10.02-10.019"/><path d="m1410.8 659.45c0-5.531-4.49-10.019-10.02-10.019-5.54 0-10.03 4.488-10.03 10.019 0 5.527 4.49 10.016 10.03 10.016 5.53 0 10.02-4.489 10.02-10.016"/><path d="m1313.3 814.48c0-5.528-4.49-10.016-10.02-10.016-5.54 0-10.03 4.488-10.03 10.016 0 5.531 4.49 10.019 10.03 10.019 5.53 0 10.02-4.488 10.02-10.019"/><path d="m1459.6 866.15c0-5.527-4.49-10.015-10.03-10.015-5.53 0-10.02 4.488-10.02 10.015 0 5.532 4.49 10.02 10.02 10.02 5.54 0 10.03-4.488 10.03-10.02"/><path d="m1557.1 917.83c0-5.527-4.5-10.015-10.03-10.015s-10.02 4.488-10.02 10.015c0 5.531 4.49 10.02 10.02 10.02s10.03-4.489 10.03-10.02"/><path d="m1654.6 814.48c0-5.528-4.5-10.016-10.03-10.016s-10.03 4.488-10.03 10.016c0 5.531 4.5 10.019 10.03 10.019s10.03-4.488 10.03-10.019"/><path d="m1605.8 917.83c0-5.527-4.49-10.015-10.03-10.015-5.53 0-10.03 4.488-10.03 10.015 0 5.531 4.5 10.02 10.03 10.02 5.54 0 10.03-4.489 10.03-10.02"/><path d="m1264.5 866.15c0-5.527-4.49-10.015-10.03-10.015-5.53 0-10.02 4.488-10.02 10.015 0 5.532 4.49 10.02 10.02 10.02 5.54 0 10.03-4.488 10.03-10.02"/><path d="m1118.2 711.12c0-5.527-4.49-10.016-10.02-10.016s-10.03 4.489-10.03 10.016c0 5.531 4.5 10.02 10.03 10.02s10.02-4.489 10.02-10.02"/><path d="m1020.7 607.78c0-5.531-4.5-10.019-10.03-10.019s-10.03 4.488-10.03 10.019c0 5.528 4.5 10.016 10.03 10.016s10.03-4.488 10.03-10.016"/><path d="m1020.7 607.78c0-5.531-4.5-10.019-10.03-10.019s-10.03 4.488-10.03 10.019c0 5.528 4.5 10.016 10.03 10.016s10.03-4.488 10.03-10.016"/><path d="m1167 762.8c0-5.528-4.5-10.016-10.03-10.016-5.54 0-10.03 4.488-10.03 10.016 0 5.531 4.49 10.019 10.03 10.019 5.53 0 10.03-4.488 10.03-10.019"/><path d="m1264.5 762.8c0-5.528-4.49-10.016-10.03-10.016-5.53 0-10.02 4.488-10.02 10.016 0 5.531 4.49 10.019 10.02 10.019 5.54 0 10.03-4.488 10.03-10.019"/><path d="m971.98 917.83c0-5.527-4.493-10.015-10.028-10.015-5.531 0-10.027 4.488-10.027 10.015 0 5.531 4.496 10.02 10.027 10.02 5.535 0 10.028-4.489 10.028-10.02"/><path d="m1264.5 1124.5c0-5.53-4.49-10.02-10.03-10.02-5.53 0-10.02 4.49-10.02 10.02s4.49 10.02 10.02 10.02c5.54 0 10.03-4.49 10.03-10.02"/><path d="m1605.8 969.5c0-5.527-4.49-10.016-10.03-10.016-5.53 0-10.03 4.489-10.03 10.016 0 5.531 4.5 10.019 10.03 10.019 5.54 0 10.03-4.488 10.03-10.019"/><path d="m1410.8 556.1c0-5.532-4.49-10.02-10.02-10.02-5.54 0-10.03 4.488-10.03 10.02 0 5.527 4.49 10.015 10.03 10.015 5.53 0 10.02-4.488 10.02-10.015"/><path d="m1069.5 917.83c0-5.527-4.5-10.015-10.03-10.015-5.54 0-10.03 4.488-10.03 10.015 0 5.531 4.49 10.02 10.03 10.02 5.53 0 10.03-4.489 10.03-10.02"/><path d="m1020.7 659.45c0-5.531-4.5-10.019-10.03-10.019s-10.03 4.488-10.03 10.019c0 5.527 4.5 10.016 10.03 10.016s10.03-4.489 10.03-10.016"/><path d="m1020.7 711.12c0-5.527-4.5-10.016-10.03-10.016s-10.03 4.489-10.03 10.016c0 5.531 4.5 10.02 10.03 10.02s10.03-4.489 10.03-10.02"/><path d="m1313.3 917.83c0-5.527-4.49-10.015-10.02-10.015-5.54 0-10.03 4.488-10.03 10.015 0 5.531 4.49 10.02 10.03 10.02 5.53 0 10.02-4.489 10.02-10.02"/><path d="m1167 711.12c0-5.527-4.5-10.016-10.03-10.016-5.54 0-10.03 4.489-10.03 10.016 0 5.531 4.49 10.02 10.03 10.02 5.53 0 10.03-4.489 10.03-10.02"/><path d="m776.94 556.1c0-5.532-4.496-10.02-10.027-10.02-5.535 0-10.027 4.488-10.027 10.02 0 5.527 4.492 10.015 10.027 10.015 5.531 0 10.027-4.488 10.027-10.015"/><path d="m1069.5 762.8c0-5.528-4.5-10.016-10.03-10.016-5.54 0-10.03 4.488-10.03 10.016 0 5.531 4.49 10.019 10.03 10.019 5.53 0 10.03-4.488 10.03-10.019"/><path d="m1118.2 917.83c0-5.527-4.49-10.015-10.02-10.015s-10.03 4.488-10.03 10.015c0 5.531 4.5 10.02 10.03 10.02s10.02-4.489 10.02-10.02"/><path d="m1118.2 866.15c0-5.527-4.49-10.015-10.02-10.015s-10.03 4.488-10.03 10.015c0 5.532 4.5 10.02 10.03 10.02s10.02-4.488 10.02-10.02"/><path d="m1362 866.15c0-5.527-4.49-10.015-10.03-10.015-5.53 0-10.02 4.488-10.02 10.015 0 5.532 4.49 10.02 10.02 10.02 5.54 0 10.03-4.488 10.03-10.02"/><path d="m825.7 659.45c0-5.531-4.492-10.019-10.027-10.019s-10.027 4.488-10.027 10.019c0 5.527 4.492 10.016 10.027 10.016s10.027-4.489 10.027-10.016"/><path d="m1118.2 814.48c0-5.528-4.49-10.016-10.02-10.016s-10.03 4.488-10.03 10.016c0 5.531 4.5 10.019 10.03 10.019s10.02-4.488 10.02-10.019"/></g><g fill="#edb120"><path d="m1410.8 1072.9c0-5.53-4.49-10.02-10.02-10.02-5.54 0-10.03 4.49-10.03 10.02s4.49 10.02 10.03 10.02c5.53 0 10.02-4.49 10.02-10.02"/><path d="m1167 762.8c0-5.528-4.5-10.016-10.03-10.016-5.54 0-10.03 4.488-10.03 10.016 0 5.531 4.49 10.019 10.03 10.019 5.53 0 10.03-4.488 10.03-10.019"/><path d="m1800.9 917.83c0-5.527-4.5-10.015-10.03-10.015-5.54 0-10.03 4.488-10.03 10.015 0 5.531 4.49 10.02 10.03 10.02 5.53 0 10.03-4.489 10.03-10.02"/><path d="m1410.8 866.15c0-5.527-4.49-10.015-10.02-10.015-5.54 0-10.03 4.488-10.03 10.015 0 5.532 4.49 10.02 10.03 10.02 5.53 0 10.02-4.488 10.02-10.02"/><path d="m1508.3 917.83c0-5.527-4.49-10.015-10.03-10.015-5.53 0-10.03 4.488-10.03 10.015 0 5.531 4.5 10.02 10.03 10.02 5.54 0 10.03-4.489 10.03-10.02"/><path d="m2044.7 917.83c0-5.527-4.49-10.015-10.03-10.015-5.53 0-10.02 4.488-10.02 10.015 0 5.531 4.49 10.02 10.02 10.02 5.54 0 10.03-4.489 10.03-10.02"/><path d="m728.18 659.45c0-5.531-4.492-10.019-10.028-10.019-5.531 0-10.027 4.488-10.027 10.019 0 5.527 4.496 10.016 10.027 10.016 5.536 0 10.028-4.489 10.028-10.016"/><path d="m1898.4 866.15c0-5.527-4.49-10.015-10.02-10.015-5.54 0-10.03 4.488-10.03 10.015 0 5.532 4.49 10.02 10.03 10.02 5.53 0 10.02-4.488 10.02-10.02"/><path d="m1605.8 659.45c0-5.531-4.49-10.019-10.03-10.019-5.53 0-10.03 4.488-10.03 10.019 0 5.527 4.5 10.016 10.03 10.016 5.54 0 10.03-4.489 10.03-10.016"/><path d="m1849.6 1227.9c0-5.52-4.49-10.02-10.02-10.02-5.54 0-10.03 4.5-10.03 10.02 0 5.53 4.49 10.02 10.03 10.02 5.53 0 10.02-4.49 10.02-10.02"/><path d="m1508.3 1021.2c0-5.53-4.49-10.02-10.03-10.02-5.53 0-10.03 4.49-10.03 10.02s4.5 10.02 10.03 10.02c5.54 0 10.03-4.49 10.03-10.02"/><path d="m1459.6 762.8c0-5.528-4.49-10.016-10.03-10.016-5.53 0-10.02 4.488-10.02 10.016 0 5.531 4.49 10.019 10.02 10.019 5.54 0 10.03-4.488 10.03-10.019"/><path d="m1654.6 917.83c0-5.527-4.5-10.015-10.03-10.015s-10.03 4.488-10.03 10.015c0 5.531 4.5 10.02 10.03 10.02s10.03-4.489 10.03-10.02"/><path d="m1118.2 659.45c0-5.531-4.49-10.019-10.02-10.019s-10.03 4.488-10.03 10.019c0 5.527 4.5 10.016 10.03 10.016s10.02-4.489 10.02-10.016"/><path d="m1167 814.48c0-5.528-4.5-10.016-10.03-10.016-5.54 0-10.03 4.488-10.03 10.016 0 5.531 4.49 10.019 10.03 10.019 5.53 0 10.03-4.488 10.03-10.019"/><path d="m1459.6 1021.2c0-5.53-4.49-10.02-10.03-10.02-5.53 0-10.02 4.49-10.02 10.02s4.49 10.02 10.02 10.02c5.54 0 10.03-4.49 10.03-10.02"/><path d="m1508.3 917.83c0-5.527-4.49-10.015-10.03-10.015-5.53 0-10.03 4.488-10.03 10.015 0 5.531 4.5 10.02 10.03 10.02 5.54 0 10.03-4.489 10.03-10.02"/><path d="m2093.4 1331.2c0-5.52-4.49-10.02-10.03-10.02-5.53 0-10.02 4.5-10.02 10.02 0 5.53 4.49 10.02 10.02 10.02 5.54 0 10.03-4.49 10.03-10.02"/><path d="m2093.4 711.12c0-5.527-4.49-10.016-10.03-10.016-5.53 0-10.02 4.489-10.02 10.016 0 5.531 4.49 10.02 10.02 10.02 5.54 0 10.03-4.489 10.03-10.02"/><path d="m1264.5 504.43c0-5.531-4.49-10.02-10.03-10.02-5.53 0-10.02 4.489-10.02 10.02 0 5.527 4.49 10.015 10.02 10.015 5.54 0 10.03-4.488 10.03-10.015"/><path d="m1703.4 1021.2c0-5.53-4.49-10.02-10.03-10.02s-10.03 4.49-10.03 10.02 4.49 10.02 10.03 10.02 10.03-4.49 10.03-10.02"/><path d="m1069.5 814.48c0-5.528-4.5-10.016-10.03-10.016-5.54 0-10.03 4.488-10.03 10.016 0 5.531 4.49 10.019 10.03 10.019 5.53 0 10.03-4.488 10.03-10.019"/><path d="m2093.4 814.48c0-5.528-4.49-10.016-10.03-10.016-5.53 0-10.02 4.488-10.02 10.016 0 5.531 4.49 10.019 10.02 10.019 5.54 0 10.03-4.488 10.03-10.019"/><path d="m1410.8 762.8c0-5.528-4.49-10.016-10.02-10.016-5.54 0-10.03 4.488-10.03 10.016 0 5.531 4.49 10.019 10.03 10.019 5.53 0 10.02-4.488 10.02-10.019"/><path d="m1605.8 1072.9c0-5.53-4.49-10.02-10.03-10.02-5.53 0-10.03 4.49-10.03 10.02s4.5 10.02 10.03 10.02c5.54 0 10.03-4.49 10.03-10.02"/><path d="m1849.6 1021.2c0-5.53-4.49-10.02-10.02-10.02-5.54 0-10.03 4.49-10.03 10.02s4.49 10.02 10.03 10.02c5.53 0 10.02-4.49 10.02-10.02"/><path d="m1362 814.48c0-5.528-4.49-10.016-10.03-10.016-5.53 0-10.02 4.488-10.02 10.016 0 5.531 4.49 10.019 10.02 10.019 5.54 0 10.03-4.488 10.03-10.019"/><path d="m1313.3 917.83c0-5.527-4.49-10.015-10.02-10.015-5.54 0-10.03 4.488-10.03 10.015 0 5.531 4.49 10.02 10.03 10.02 5.53 0 10.02-4.489 10.02-10.02"/><path d="m1459.6 814.48c0-5.528-4.49-10.016-10.03-10.016-5.53 0-10.02 4.488-10.02 10.016 0 5.531 4.49 10.019 10.02 10.019 5.54 0 10.03-4.488 10.03-10.019"/><path d="m1849.6 917.83c0-5.527-4.49-10.015-10.02-10.015-5.54 0-10.03 4.488-10.03 10.015 0 5.531 4.49 10.02 10.03 10.02 5.53 0 10.02-4.489 10.02-10.02"/><path d="m1947.2 814.48c0-5.528-4.49-10.016-10.02-10.016-5.54 0-10.03 4.488-10.03 10.016 0 5.531 4.49 10.019 10.03 10.019 5.53 0 10.02-4.488 10.02-10.019"/><path d="m2191 1331.2c0-5.52-4.5-10.02-10.03-10.02s-10.02 4.5-10.02 10.02c0 5.53 4.49 10.02 10.02 10.02s10.03-4.49 10.03-10.02"/><path d="m1459.6 814.48c0-5.528-4.49-10.016-10.03-10.016-5.53 0-10.02 4.488-10.02 10.016 0 5.531 4.49 10.019 10.02 10.019 5.54 0 10.03-4.488 10.03-10.019"/><path d="m1410.8 814.48c0-5.528-4.49-10.016-10.02-10.016-5.54 0-10.03 4.488-10.03 10.016 0 5.531 4.49 10.019 10.03 10.019 5.53 0 10.02-4.488 10.02-10.019"/><path d="m1313.3 711.12c0-5.527-4.49-10.016-10.02-10.016-5.54 0-10.03 4.489-10.03 10.016 0 5.531 4.49 10.02 10.03 10.02 5.53 0 10.02-4.489 10.02-10.02"/><path d="m2093.4 917.83c0-5.527-4.49-10.015-10.03-10.015-5.53 0-10.02 4.488-10.02 10.015 0 5.531 4.49 10.02 10.02 10.02 5.54 0 10.03-4.489 10.03-10.02"/><path d="m1410.8 1124.5c0-5.53-4.49-10.02-10.02-10.02-5.54 0-10.03 4.49-10.03 10.02s4.49 10.02 10.03 10.02c5.53 0 10.02-4.49 10.02-10.02"/><path d="m1459.6 969.5c0-5.527-4.49-10.016-10.03-10.016-5.53 0-10.02 4.489-10.02 10.016 0 5.531 4.49 10.019 10.02 10.019 5.54 0 10.03-4.488 10.03-10.019"/><path d="m1264.5 917.83c0-5.527-4.49-10.015-10.03-10.015-5.53 0-10.02 4.488-10.02 10.015 0 5.531 4.49 10.02 10.02 10.02 5.54 0 10.03-4.489 10.03-10.02"/><path d="m1703.4 969.5c0-5.527-4.49-10.016-10.03-10.016s-10.03 4.489-10.03 10.016c0 5.531 4.49 10.019 10.03 10.019s10.03-4.488 10.03-10.019"/><path d="m1605.8 969.5c0-5.527-4.49-10.016-10.03-10.016-5.53 0-10.03 4.489-10.03 10.016 0 5.531 4.5 10.019 10.03 10.019 5.54 0 10.03-4.488 10.03-10.019"/><path d="m1703.4 969.5c0-5.527-4.49-10.016-10.03-10.016s-10.03 4.489-10.03 10.016c0 5.531 4.49 10.019 10.03 10.019s10.03-4.488 10.03-10.019"/><path d="m1167 762.8c0-5.528-4.5-10.016-10.03-10.016-5.54 0-10.03 4.488-10.03 10.016 0 5.531 4.49 10.019 10.03 10.019 5.53 0 10.03-4.488 10.03-10.019"/><path d="m1654.6 1021.2c0-5.53-4.5-10.02-10.03-10.02s-10.03 4.49-10.03 10.02 4.5 10.02 10.03 10.02 10.03-4.49 10.03-10.02"/><path d="m1605.8 1072.9c0-5.53-4.49-10.02-10.03-10.02-5.53 0-10.03 4.49-10.03 10.02s4.5 10.02 10.03 10.02c5.54 0 10.03-4.49 10.03-10.02"/><path d="m1605.8 917.83c0-5.527-4.49-10.015-10.03-10.015-5.53 0-10.03 4.488-10.03 10.015 0 5.531 4.5 10.02 10.03 10.02 5.54 0 10.03-4.489 10.03-10.02"/><path d="m1410.8 659.45c0-5.531-4.49-10.019-10.02-10.019-5.54 0-10.03 4.488-10.03 10.019 0 5.527 4.49 10.016 10.03 10.016 5.53 0 10.02-4.489 10.02-10.016"/><path d="m1508.3 917.83c0-5.527-4.49-10.015-10.03-10.015-5.53 0-10.03 4.488-10.03 10.015 0 5.531 4.5 10.02 10.03 10.02 5.54 0 10.03-4.489 10.03-10.02"/><path d="m1362 1124.5c0-5.53-4.49-10.02-10.03-10.02-5.53 0-10.02 4.49-10.02 10.02s4.49 10.02 10.02 10.02c5.54 0 10.03-4.49 10.03-10.02"/><path d="m1215.8 917.83c0-5.527-4.49-10.015-10.02-10.015-5.54 0-10.03 4.488-10.03 10.015 0 5.531 4.49 10.02 10.03 10.02 5.53 0 10.02-4.489 10.02-10.02"/></g><g transform="scale(1.0004 -.99955)"><path stroke-linejoin="round" d="m337.68-401.26v-1240.7" stroke="#000" stroke-miterlimit="10" stroke-width="5.0084" fill="none"/></g><g transform="scale(1.0004 -.99955)"><path stroke-linejoin="round" d="m308.62-659.76h29.06" stroke="#000" stroke-miterlimit="10" stroke-width="5.0084" fill="none"/></g><g transform="scale(1.0004 -.99955)"><path stroke-linejoin="round" d="m308.62-918.25h29.06" stroke="#000" stroke-miterlimit="10" stroke-width="5.0084" fill="none"/></g><g transform="scale(1.0004 -.99955)"><path stroke-linejoin="round" d="m308.62-1176.7h29.06" stroke="#000" stroke-miterlimit="10" stroke-width="5.0084" fill="none"/></g><g transform="scale(1.0004 -.99955)"><path stroke-linejoin="round" d="m308.62-1435.2h29.06" stroke="#000" stroke-miterlimit="10" stroke-width="5.0084" fill="none"/></g><g transform="scale(10)" font-family="Helvetica" fill="#000000"><text transform="matrix(1 0 0 -.99910 13.532 62.339)" font-size="10.026px"><tspan y="0" x="0 5.5741863 8.3612795">2.5</tspan><tspan y="-25.861155" x="8.4211025">3</tspan><tspan y="-51.722309" x="0 5.5741863 8.3612795">3.5</tspan><tspan y="-77.583466" x="8.4211025">4</tspan><tspan y="25.860554" x="8.4211025">2</tspan><tspan y="-98.272064" x="0 5.5741863 8.3612795">4.4</tspan></text>
<text transform="matrix(0 .99910 1 0 8.3203 61.852)" font-size="10.026px"><tspan y="0" x="0 6.6870084 12.261187 17.835365 23.409542 25.635204 28.422293 30.647953 36.22213 41.79631 47.370487 50.157578 55.731754 58.518845 61.857334 66.870087 75.221329">Sepal length (cm)</tspan></text>
</g><g transform="scale(1.0004 -.99955)"><path stroke-linejoin="round" d="m425.41-339.23h1754.6" stroke="#000" stroke-miterlimit="10" stroke-width="5.0084" fill="none"/></g><g transform="scale(1.0004 -.99955)"><path stroke-linejoin="round" d="m766.57-310.37v-28.861" stroke="#000" stroke-miterlimit="10" stroke-width="5.0084" fill="none"/></g><g transform="scale(1.0004 -.99955)"><path stroke-linejoin="round" d="m1010.3-310.37v-28.861" stroke="#000" stroke-miterlimit="10" stroke-width="5.0084" fill="none"/></g><g transform="scale(1.0004 -.99955)"><path stroke-linejoin="round" d="m1254-310.37v-28.861" stroke="#000" stroke-miterlimit="10" stroke-width="5.0084" fill="none"/></g><g transform="scale(1.0004 -.99955)"><path stroke-linejoin="round" d="m1497.6-310.37v-28.861" stroke="#000" stroke-miterlimit="10" stroke-width="5.0084" fill="none"/></g><g transform="scale(1.0004 -.99955)"><path stroke-linejoin="round" d="m1741.3-310.37v-28.861" stroke="#000" stroke-miterlimit="10" stroke-width="5.0084" fill="none"/></g><g transform="scale(1.0004 -.99955)"><path stroke-linejoin="round" d="m1985-310.37v-28.861" stroke="#000" stroke-miterlimit="10" stroke-width="5.0084" fill="none"/></g><g transform="scale(10)"><text transform="matrix(1 0 0 -.99910 73.684 18.521)" font-size="10.026px" font-family="Helvetica" fill="#000000"><tspan y="0" x="0 20.16913 25.743317 28.530409 48.759293 68.928421 74.502609 77.289703 97.518585 117.68732 123.2615 126.04859 -38.342278 -32.768089 -29.980997 137.19145 142.76564 145.55273">55.566.577.54.37.9</tspan><tspan y="14.315172" x="18.446487 25.133505 30.707691 36.281879 41.856064 44.08173 46.86882 54.107243 56.332909 61.907093 64.694183 70.268372 73.055466 76.393959 81.406723 89.757973">Sepal width (cm)</tspan></text>
</g></g></g></svg>
