<?xml version="1.0" encoding="UTF-8" standalone="no"?>
<svg xmlns:rdf="http://www.w3.org/1999/02/22-rdf-syntax-ns#" xmlns="http://www.w3.org/2000/svg" xml:space="preserve" height="454" viewBox="0 0 606 454" width="606" version="1.1" xmlns:cc="http://creativecommons.org/ns#" xmlns:dc="http://purl.org/dc/elements/1.1/"><metadata><rdf:RDF><cc:Work rdf:about=""><dc:format>image/svg+xml</dc:format><dc:type rdf:resource="http://purl.org/dc/dcmitype/StillImage"/><dc:title/></cc:Work></rdf:RDF></metadata><g transform="matrix(1.3333 0 0 -1.3333 0 454)"><g transform="scale(.1)"><path d="m0 2.4648h4530.5v3401.6h-4530.5z" fill="#fff"/><path d="m0 2.4648h4530.5v3401.6h-4530.5z" fill="#fff"/><g fill="#00f"><path d="m936.94 1158c0-5.52-4.48-10-10-10-5.519 0-10 4.48-10 10s4.481 10 10 10c5.52 0 10-4.48 10-10"/><path d="m1803.8 863.85c0-5.52-4.48-10-10-10s-10 4.48-10 10c0 5.519 4.48 10.004 10 10.004s10-4.485 10-10.004"/><path d="m1125.9 350.45c0-5.519-4.48-10-10-10s-10 4.481-10 10c0 5.52 4.48 10.004 10 10.004s10-4.484 10-10.004"/><path d="m2343.3 1273.6c0-5.52-4.48-10-10-10s-10 4.48-10 10c0 5.51 4.48 10 10 10s10-4.49 10-10"/><path d="m835.83 1052.3c0-5.52-4.48-10-10-10-5.519 0-10 4.48-10 10s4.481 10 10 10c5.52 0 10-4.48 10-10"/><path d="m1880.6 1585.8c0-5.52-4.48-10-10-10s-10 4.48-10 10 4.48 10 10 10 10-4.48 10-10"/><path d="m1445.6 776.9c0-5.519-4.48-10.004-10-10.004s-10 4.485-10 10.004c0 5.52 4.48 10 10 10s10-4.48 10-10"/><path d="m1404.3 1416.8c0-5.52-4.48-10-10-10s-10 4.48-10 10 4.48 10 10 10 10-4.48 10-10"/><path d="m1681.8 1257.6c0-5.52-4.48-10-10-10s-10 4.48-10 10 4.48 10.01 10 10.01 10-4.49 10-10.01"/><path d="m1154.9 825.66c0-5.519-4.48-10-10-10s-10 4.481-10 10c0 5.52 4.48 10.004 10 10.004s10-4.484 10-10.004"/><path d="m1964.6 1536.9c0-5.52-4.49-10-10-10-5.52 0-10 4.48-10 10s4.48 10 10 10c5.51 0 10-4.48 10-10"/><path d="m1466.2 1445.8c0-5.52-4.48-10-10-10s-10.01 4.48-10.01 10 4.49 10 10.01 10 10-4.48 10-10"/><path d="m799.52 1118.9c0-5.52-4.481-10.01-10-10.01-5.52 0-10 4.49-10 10.01s4.48 10 10 10c5.519 0 10-4.48 10-10"/><path d="m896.49 1790.3c0-5.52-4.484-10-10.004-10-5.519 0-10 4.48-10 10s4.481 10 10 10c5.52 0 10.004-4.48 10.004-10"/><path d="m1181.3 1786c0-5.51-4.48-10-10-10s-10 4.49-10 10c0 5.52 4.48 10 10 10s10-4.48 10-10"/><path d="m2066 1077.4c0-5.52-4.48-10-10-10s-10.01 4.48-10.01 10 4.49 10 10.01 10 10-4.48 10-10"/><path d="m1567.8 1392.2c0-5.52-4.48-10-10-10s-10 4.48-10 10 4.48 10 10 10 10-4.48 10-10"/><path d="m1695.8 1086.5c0-5.52-4.48-10-10-10s-10 4.48-10 10 4.48 10 10 10 10-4.48 10-10"/><path d="m1723 1399.9c0-5.52-4.48-10-10-10s-10 4.48-10 10 4.48 10 10 10 10-4.48 10-10"/><path d="m1207.6 1152.7c0-5.52-4.48-10-10-10s-10 4.48-10 10 4.48 10 10 10 10-4.48 10-10"/><path d="m1957 1062c0-5.52-4.48-10-10-10s-10 4.48-10 10 4.48 10 10 10 10-4.48 10-10"/><path d="m1193.4 723.14c0-5.52-4.48-10-10-10s-10 4.48-10 10c0 5.519 4.48 10 10 10s10-4.481 10-10"/><path d="m1658.4 1269.2c0-5.52-4.48-10-10-10s-10.01 4.48-10.01 10 4.49 10 10.01 10 10-4.48 10-10"/><path d="m1773.7 1780.6c0-5.52-4.48-10-10-10s-10 4.48-10 10 4.48 10 10 10 10-4.48 10-10"/><path d="m1357.4 1294.9c0-5.51-4.48-10-10-10s-10.01 4.49-10.01 10c0 5.52 4.49 10.01 10.01 10.01s10-4.49 10-10.01"/><path d="m366.38 1037.1c0-5.52-4.48-10-10-10s-10 4.48-10 10 4.48 10 10 10 10-4.48 10-10"/><path d="m1545 1766.2c0-5.52-4.49-10-10.01-10s-10 4.48-10 10 4.48 10 10 10 10.01-4.48 10.01-10"/><path d="m1655.9 1051.1c0-5.52-4.49-10.01-10-10.01-5.52 0-10.01 4.49-10.01 10.01s4.49 10 10.01 10c5.51 0 10-4.48 10-10"/><path d="m2083 1345.1c0-5.52-4.48-10-10-10s-10 4.48-10 10 4.48 10 10 10 10-4.48 10-10"/><path d="m2008.2 1586.8c0-5.52-4.49-10-10-10-5.52 0-10 4.48-10 10s4.48 10 10 10c5.51 0 10-4.48 10-10"/></g><g stroke="#000" stroke-miterlimit="10" stroke-width="4.9974" fill="none"><path stroke-linejoin="bevel" d="m926.95 1158v668.4" stroke-dasharray="59.993, 35.9958"/><g stroke-linejoin="round"><path d="m306.96 314.28v1512.1"/><path d="m278.6 382.28h28.359"/><path d="m278.6 850.51h28.359"/><path d="m278.6 1318.7h28.359"/><path d="m278.6 1787h28.359"/></g></g><g font-size="9.999px" transform="scale(10)" font-family="Helvetica" fill="#000000"><text transform="matrix(1 0 0 -1 15.424 34.631)"><tspan y="0" x="0 3.3296771">-2</tspan><tspan y="-46.8223" x="0 3.3296771">-1</tspan><tspan y="-93.644203" x="3.5996101">0</tspan><tspan y="-140.46609" x="3.5996101">1</tspan></text>
<text transform="matrix(0 1 1 0 8.4434 83.939)"><tspan y="0" x="0 6.669353 12.228814 15.558491 17.778275 23.337736 28.897196 31.116982 36.676441 39.456173">Variable 2</tspan></text>
</g><g stroke-linejoin="round" stroke="#000" stroke-miterlimit="10" stroke-width="4.9974" fill="none"><path d="m306.75 314.43h2076.2"/><path d="m405.77 286.07v28.36"/><path d="m741.4 286.07v28.36"/><path d="m1077 286.07v28.36"/><path d="m1412.7 286.07v28.36"/><path d="m1748.3 286.07v28.36"/><path d="m2083.9 286.07v28.36"/></g><g transform="scale(10)"><text transform="matrix(1 0 0 -1 35.776 16.175)" font-size="9.999px" font-family="Helvetica" fill="#000000"><tspan y="0" x="0 3.3296771 33.562843 36.892521 67.125687 70.455368 102.48816 136.05099 169.61385">-3-2-1012</tspan><tspan y="14.1801" x="75.609001 82.278351 87.837814 91.167488 93.387276 98.946739 104.5062 106.72598 112.28544 115.06517">Variable 1</tspan></text>
</g><g stroke-linejoin="round" stroke="#000" stroke-miterlimit="10" stroke-width="4.9974" fill="none"><path d="m306.75 1826.2h2076.2"/><path d="m926.95 1826.2v54"/><path d="m1793.8 1826.2v54"/><path d="m1116 1826.2v54"/><path d="m2333.3 1826.2v54"/><path d="m825.84 1826.2v54"/><path d="m1870.6 1826.2v54"/><path d="m1435.6 1826.2v54"/><path d="m1394.3 1826.2v54"/><path d="m1671.8 1826.2v54"/><path d="m1144.9 1826.2v54"/><path d="m1954.6 1826.2v54"/><path d="m1456.2 1826.2v54"/><path d="m789.52 1826.2v54"/><path d="m886.49 1826.2v54"/><path d="m1171.4 1826.2v54"/><path d="m2056 1826.2v54"/><path d="m1557.8 1826.2v54"/><path d="m1685.9 1826.2v54"/><path d="m1713 1826.2v54"/><path d="m1197.6 1826.2v54"/><path d="m1947 1826.2v54"/><path d="m1183.4 1826.2v54"/><path d="m1648.4 1826.2v54"/><path d="m1763.7 1826.2v54"/><path d="m1347.4 1826.2v54"/><path d="m356.38 1826.2v54"/><path d="m1535 1826.2v54"/><path d="m1646 1826.2v54"/><path d="m2073 1826.2v54"/><path d="m1998.2 1826.2v54"/><path d="m306.75 1880.2h2076.2"/><path d="m2382.7 314.28v1512.1"/><path d="m2382.7 1158h54"/><path d="m2382.7 863.83h54"/><path d="m2382.7 350.43h54"/><path d="m2382.7 1273.6h54"/><path d="m2382.7 1052.3h54"/><path d="m2382.7 1585.8h54"/><path d="m2382.7 776.88h54"/><path d="m2382.7 1416.8h54"/><path d="m2382.7 1257.6h54"/><path d="m2382.7 825.64h54"/><path d="m2382.7 1536.9h54"/><path d="m2382.7 1445.8h54"/><path d="m2382.7 1118.9h54"/><path d="m2382.7 1790.3h54"/><path d="m2382.7 1786h54"/><path d="m2382.7 1077.3h54"/><path d="m2382.7 1392.2h54"/><path d="m2382.7 1086.5h54"/><path d="m2382.7 1399.9h54"/><path d="m2382.7 1152.7h54"/><path d="m2382.7 1062h54"/><path d="m2382.7 723.11h54"/><path d="m2382.7 1269.2h54"/><path d="m2382.7 1780.6h54"/><path d="m2382.7 1294.9h54"/><path d="m2382.7 1037.1h54"/><path d="m2382.7 1766.2h54"/><path d="m2382.7 1051h54"/><path d="m2382.7 1345.1h54"/><path d="m2382.7 1586.8h54"/></g><g fill="#00f"><path d="m936.94 2789.9c0-5.52-4.48-10-10-10-5.519 0-10 4.48-10 10s4.481 10 10 10c5.52 0 10-4.48 10-10"/><path d="m1803.8 2171.3c0-5.52-4.48-10-10-10s-10 4.48-10 10 4.48 10.01 10 10.01 10-4.49 10-10.01"/><path d="m1125.9 2382.7c0-5.52-4.48-10-10-10s-10 4.48-10 10 4.48 10 10 10 10-4.48 10-10"/><path d="m2343.3 1916.2c0-5.52-4.48-10-10-10s-10 4.48-10 10 4.48 10.01 10 10.01 10-4.49 10-10.01"/><path d="m835.83 2704.3c0-5.51-4.48-10-10-10-5.519 0-10 4.49-10 10 0 5.52 4.481 10 10 10 5.52 0 10-4.48 10-10"/><path d="m1880.6 2248.5c0-5.52-4.48-10-10-10s-10 4.48-10 10 4.48 10 10 10 10-4.48 10-10"/><path d="m1445.6 2342.8c0-5.51-4.48-10-10-10s-10 4.49-10 10c0 5.52 4.48 10 10 10s10-4.48 10-10"/><path d="m1404.3 2491.3c0-5.52-4.48-10.01-10-10.01s-10 4.49-10 10.01 4.48 10 10 10 10-4.48 10-10"/><path d="m1681.8 2347.5c0-5.52-4.48-10-10-10s-10 4.48-10 10 4.48 10 10 10 10-4.48 10-10"/><path d="m1154.9 2542.4c0-5.52-4.48-10.01-10-10.01s-10 4.49-10 10.01c0 5.51 4.48 10 10 10s10-4.49 10-10"/><path d="m1964.6 2218.8c0-5.52-4.49-10-10-10-5.52 0-10 4.48-10 10 0 5.51 4.48 10 10 10 5.51 0 10-4.49 10-10"/><path d="m1466.2 2620.7c0-5.52-4.48-10-10-10s-10.01 4.48-10.01 10 4.49 10 10.01 10 10-4.48 10-10"/><path d="m799.52 2916.9c0-5.52-4.481-10-10-10-5.52 0-10 4.48-10 10s4.48 10 10 10c5.519 0 10-4.48 10-10"/><path d="m896.49 2897.6c0-5.52-4.484-10-10.004-10-5.519 0-10 4.48-10 10s4.481 10 10 10c5.52 0 10.004-4.48 10.004-10"/><path d="m1181.3 3043.7c0-5.52-4.48-10-10-10s-10 4.48-10 10 4.48 10 10 10 10-4.48 10-10"/><path d="m2066 1960.7c0-5.52-4.48-10-10-10s-10.01 4.48-10.01 10 4.49 10 10.01 10 10-4.48 10-10"/><path d="m1567.8 2496.5c0-5.52-4.48-10-10-10s-10 4.48-10 10 4.48 10 10 10 10-4.48 10-10"/><path d="m1695.8 2173.1c0-5.52-4.48-10-10-10s-10 4.48-10 10 4.48 10 10 10 10-4.48 10-10"/><path d="m1723 2424c0-5.52-4.48-10-10-10s-10 4.48-10 10 4.48 10 10 10 10-4.48 10-10"/><path d="m1207.6 2474.7c0-5.51-4.48-10-10-10s-10 4.49-10 10c0 5.52 4.48 10.01 10 10.01s10-4.49 10-10.01"/><path d="m1957 2157.9c0-5.52-4.48-10-10-10s-10 4.48-10 10 4.48 10 10 10 10-4.48 10-10"/><path d="m1193.4 2425.9c0-5.52-4.48-10-10-10s-10 4.48-10 10 4.48 10 10 10 10-4.48 10-10"/><path d="m1658.4 2295.1c0-5.51-4.48-10-10-10s-10.01 4.49-10.01 10c0 5.52 4.49 10 10.01 10s10-4.48 10-10"/><path d="m1773.7 2274.8c0-5.52-4.48-10-10-10s-10 4.48-10 10 4.48 10 10 10 10-4.48 10-10"/><path d="m1357.4 2712.6c0-5.51-4.48-10-10-10s-10.01 4.49-10.01 10c0 5.52 4.49 10.01 10.01 10.01s10-4.49 10-10.01"/><path d="m366.38 3356.1c0-5.52-4.48-10-10-10s-10 4.48-10 10 4.48 10.01 10 10.01 10-4.49 10-10.01"/><path d="m1545 3004.7c0-5.52-4.49-10-10.01-10s-10 4.48-10 10 4.48 10 10 10 10.01-4.48 10.01-10"/><path d="m1655.9 2324.7c0-5.52-4.49-10-10-10-5.52 0-10.01 4.48-10.01 10s4.49 10 10.01 10c5.51 0 10-4.48 10-10"/><path d="m2083 2259.4c0-5.52-4.48-10-10-10s-10 4.48-10 10c0 5.51 4.48 10 10 10s10-4.49 10-10"/><path d="m2008.2 2317.3c0-5.51-4.49-10-10-10-5.52 0-10 4.49-10 10 0 5.52 4.48 10 10 10 5.51 0 10-4.48 10-10"/></g><g stroke="#000" stroke-miterlimit="10" stroke-width="4.9974" fill="none"><path stroke-linejoin="bevel" d="m926.95 2789.9v-909.8" stroke-dasharray="59.993, 35.9958"/><path stroke-linejoin="bevel" d="m926.95 2789.9h1456" stroke-dasharray="59.993, 35.9958"/><g stroke-linejoin="round"><path d="m306.96 1880.1v1512.1"/><path d="m278.6 2020.1h28.359"/><path d="m278.6 2312.6h28.359"/><path d="m278.6 2605.1h28.359"/><path d="m278.6 2897.6h28.359"/><path d="m278.6 3190.1h28.359"/></g></g><g font-size="9.999px" transform="scale(10)" font-family="Helvetica" fill="#000000"><text transform="matrix(1 0 0 -1 15.424 198.41)"><tspan y="0" x="0 3.3296771">-2</tspan><tspan y="-29.2512" x="0 3.3296771">-1</tspan><tspan y="-58.5028" x="3.5996101">0</tspan><tspan y="-87.753998" x="3.5996101">1</tspan><tspan y="-117.0056" x="3.5996101">2</tspan></text>
<text transform="matrix(0 1 1 0 8.4434 240.52)"><tspan y="0" x="0 6.669353 12.228814 15.558491 17.778275 23.337736 28.897196 31.116982 36.676441 39.456173">Variable 3</tspan></text>
</g><g stroke-linejoin="round" stroke="#000" stroke-miterlimit="10" stroke-width="4.9974" fill="none"><path d="m2382.7 1880.1v1512.1"/><path d="m2382.7 2789.9h54"/><path d="m2382.7 2171.3h54"/><path d="m2382.7 2382.7h54"/><path d="m2382.7 1916.2h54"/><path d="m2382.7 2704.3h54"/><path d="m2382.7 2248.5h54"/><path d="m2382.7 2342.8h54"/><path d="m2382.7 2491.3h54"/><path d="m2382.7 2347.5h54"/><path d="m2382.7 2542.4h54"/><path d="m2382.7 2218.8h54"/><path d="m2382.7 2620.7h54"/><path d="m2382.7 2916.9h54"/><path d="m2382.7 2897.6h54"/><path d="m2382.7 3043.7h54"/><path d="m2382.7 1960.6h54"/><path d="m2382.7 2496.4h54"/><path d="m2382.7 2173h54"/><path d="m2382.7 2424h54"/><path d="m2382.7 2474.7h54"/><path d="m2382.7 2157.9h54"/><path d="m2382.7 2425.9h54"/><path d="m2382.7 2295.1h54"/><path d="m2382.7 2274.8h54"/><path d="m2382.7 2712.6h54"/><path d="m2382.7 3356.1h54"/><path d="m2382.7 3004.7h54"/><path d="m2382.7 2324.7h54"/><path d="m2382.7 2259.4h54"/><path d="m2382.7 2317.3h54"/><path d="m2436.7 1880.1v1512.1"/><path d="m306.75 3392.1h2076.2"/></g><g fill="#00f"><path d="m3608.2 2789.9c0-5.52-4.48-10-10-10s-10 4.48-10 10 4.48 10 10 10 10-4.48 10-10"/><path d="m3203.2 2171.3c0-5.52-4.48-10-10-10s-10 4.48-10 10 4.48 10.01 10 10.01 10-4.49 10-10.01"/><path d="m2496.2 2382.7c0-5.52-4.48-10-10-10s-10 4.48-10 10 4.48 10 10 10 10-4.48 10-10"/><path d="m3767.4 1916.2c0-5.52-4.48-10-10-10s-10 4.48-10 10 4.48 10.01 10 10.01 10-4.49 10-10.01"/><path d="m3462.7 2704.3c0-5.51-4.48-10-10-10s-10 4.49-10 10c0 5.52 4.48 10 10 10s10-4.48 10-10"/><path d="m4197.3 2248.5c0-5.52-4.48-10-10-10s-10 4.48-10 10 4.48 10 10 10 10-4.48 10-10"/><path d="m3083.5 2342.8c0-5.51-4.49-10-10.01-10-5.51 0-10 4.49-10 10 0 5.52 4.49 10 10 10 5.52 0 10.01-4.48 10.01-10"/><path d="m3964.7 2491.3c0-5.52-4.48-10.01-10-10.01s-10 4.49-10 10.01 4.48 10 10 10 10-4.48 10-10"/><path d="m3745.4 2347.5c0-5.52-4.48-10-10-10s-10 4.48-10 10 4.48 10 10 10 10-4.48 10-10"/><path d="m3150.6 2542.4c0-5.52-4.48-10.01-10-10.01s-10.01 4.49-10.01 10.01c0 5.51 4.49 10 10.01 10s10-4.49 10-10"/><path d="m4130 2218.8c0-5.52-4.48-10-10-10s-10 4.48-10 10c0 5.51 4.48 10 10 10s10-4.49 10-10"/><path d="m4004.5 2620.7c0-5.52-4.48-10-10-10s-10 4.48-10 10 4.48 10 10 10 10-4.48 10-10"/><path d="m3554.4 2916.9c0-5.52-4.48-10-10-10s-10 4.48-10 10 4.48 10 10 10 10-4.48 10-10"/><path d="m4478.9 2897.6c0-5.52-4.48-10-10-10s-10 4.48-10 10 4.48 10 10 10 10-4.48 10-10"/><path d="m4473 3043.7c0-5.52-4.48-10-10-10-5.51 0-10 4.48-10 10s4.49 10 10 10c5.52 0 10-4.48 10-10"/><path d="m3497.2 1960.7c0-5.52-4.48-10-10-10s-10 4.48-10 10 4.48 10 10 10 10-4.48 10-10"/><path d="m3930.8 2496.5c0-5.52-4.48-10-10-10s-10 4.48-10 10 4.48 10 10 10 10-4.48 10-10"/><path d="m3509.8 2173.1c0-5.52-4.48-10-10-10s-10 4.48-10 10 4.48 10 10 10 10-4.48 10-10"/><path d="m3941.3 2424c0-5.52-4.48-10-10-10s-10 4.48-10 10 4.48 10 10 10 10-4.48 10-10"/><path d="m3600.9 2474.7c0-5.51-4.48-10-10-10s-10 4.49-10 10c0 5.52 4.48 10.01 10 10.01s10-4.49 10-10.01"/><path d="m3476 2157.9c0-5.52-4.48-10-10-10s-10 4.48-10 10 4.48 10 10 10 10-4.48 10-10"/><path d="m3009.4 2425.9c0-5.52-4.49-10-10.01-10s-10 4.48-10 10 4.48 10 10 10 10.01-4.48 10.01-10"/><path d="m3761.4 2295.1c0-5.51-4.48-10-10-10s-10 4.49-10 10c0 5.52 4.48 10 10 10s10-4.48 10-10"/><path d="m4465.6 2274.8c0-5.52-4.48-10-10-10s-10 4.48-10 10 4.48 10 10 10 10-4.48 10-10"/><path d="m3796.8 2712.6c0-5.51-4.49-10-10-10-5.52 0-10.01 4.49-10.01 10 0 5.52 4.49 10.01 10.01 10.01 5.51 0 10-4.49 10-10.01"/><path d="m3441.7 3356.1c0-5.52-4.48-10-10-10s-10 4.48-10 10 4.48 10.01 10 10.01 10-4.49 10-10.01"/><path d="m4445.7 3004.7c0-5.52-4.48-10-10-10s-10 4.48-10 10 4.48 10 10 10 10-4.48 10-10"/><path d="m3461 2324.7c0-5.52-4.48-10-10-10s-10.01 4.48-10.01 10 4.49 10 10.01 10 10-4.48 10-10"/><path d="m3865.8 2259.4c0-5.52-4.48-10-10-10s-10 4.48-10 10c0 5.51 4.48 10 10 10s10-4.49 10-10"/><path d="m4198.7 2317.3c0-5.51-4.48-10-10-10s-10 4.49-10 10c0 5.52 4.48 10 10 10s10-4.48 10-10"/></g><g stroke="#000" stroke-miterlimit="10" stroke-width="4.9974" fill="none"><path stroke-linejoin="bevel" d="m3598.2 2789.9h-1161.7" stroke-dasharray="59.993, 35.9958"/><g stroke-linejoin="round"><path d="m2436.5 3392.1h2082.2"/><path d="m4518.5 1880.1v1512.1"/><path d="m2436.5 1880.2h2082.2"/><path d="m2530.1 1851.9v28.35"/><path d="m3174.9 1851.9v28.35"/><path d="m3819.6 1851.9v28.35"/><path d="m4464.4 1851.9v28.35"/></g></g><g transform="scale(10)"><text transform="matrix(1 0 0 -1 248.21 172.76)" font-size="9.999px" font-family="Helvetica" fill="#000000"><tspan y="0" x="0 3.3296771 64.473045 67.802719 130.74611 195.21956">-2-101</tspan><tspan y="14.1715" x="76.445702 83.115051 88.674515 92.004189 94.223976 99.78344 105.3429 107.56268 113.12214 115.90187">Variable 2</tspan></text>
</g></g></g></svg>
